<svg version="1.1" viewBox="0.0 0.0 960.0 540.0" fill="none" stroke="none" stroke-linecap="square" stroke-miterlimit="10" xmlns:xlink="http://www.w3.org/1999/xlink" xmlns="http://www.w3.org/2000/svg"><clipPath id="g656ee69ce0a04fca_20.0"><path d="m0 0l960.0 0l0 540.0l-960.0 0l0 -540.0z" clip-rule="nonzero"/></clipPath><g clip-path="url(#g656ee69ce0a04fca_20.0)"><path fill="#ffffff" d="m0 0l960.0 0l0 540.0l-960.0 0z" fill-rule="evenodd"/><path fill="#000000" fill-opacity="0.0" d="m476.3937 33.811024l450.86612 0l0 88.37796l-450.86612 0z" fill-rule="evenodd"/><path fill="#000000" d="m656.1709 64.267494q0.4375 0.328125 0.4375 0.765625q0 0.390625 -0.1875 0.625q-0.296875 0.375 -0.71875 0.375q-0.203125 0 -0.578125 -0.1875q-4.46875 -3.0156212 -9.453125 -3.0156212q-4.03125 0 -7.421875 1.9999962q-3.375 1.984375 -5.34375 5.515625q-1.96875 3.515625 -1.96875 7.9375q0 4.40625 1.96875 7.9375q1.96875 3.53125 5.34375 5.53125q3.390625 1.984375 7.421875 1.984375q5.03125 0 9.40625 -2.96875q0.234375 -0.203125 0.578125 -0.203125q0.46875 0 0.765625 0.390625q0.1875 0.234375 0.1875 0.578125q0 0.46875 -0.375 0.765625q-1.875 1.34375 -4.828125 2.3125q-2.953125 0.953125 -5.734375 0.953125q-4.5625 0 -8.40625 -2.25q-3.84375 -2.265625 -6.09375 -6.21875q-2.25 -3.96875 -2.25 -8.8125q0 -4.84375 2.25 -8.796875q2.25 -3.96875 6.09375 -6.218746q3.84375 -2.265625 8.40625 -2.265625q2.875 0 5.578125 0.859375q2.71875 0.859375 4.921875 2.4062462zm8.260437 29.859375q0 0.375 -0.296875 0.671875q-0.28125 0.28125 -0.65625 0.28125q-0.4375 0 -0.703125 -0.28125q-0.265625 -0.296875 -0.265625 -0.671875l0 -33.60937q0 -0.375 0.28125 -0.65625q0.296875 -0.296875 0.6875 -0.296875q0.421875 0 0.6875 0.296875q0.265625 0.28125 0.265625 0.65625l0 33.60937zm26.305542 -23.0q0.4375 0 0.703125 0.296875q0.265625 0.28125 0.265625 0.671875l0 13.953125q0 4.5625 -2.578125 6.9375q-2.5625 2.375 -6.984375 2.375q-4.40625 0 -6.953125 -2.375q-2.546875 -2.375 -2.546875 -6.9375l0 -13.953125q0 -0.390625 0.28125 -0.671875q0.296875 -0.296875 0.671875 -0.296875q0.4375 0 0.703125 0.296875q0.265625 0.28125 0.265625 0.671875l0 13.953125q0 3.609375 2.015625 5.5625q2.015625 1.9375 5.5625 1.9375q3.609375 0 5.625 -1.9375q2.015625 -1.953125 2.015625 -5.5625l0 -13.953125q0 -0.390625 0.25 -0.671875q0.265625 -0.296875 0.703125 -0.296875zm7.586548 20.109375q-0.34375 -0.53125 -0.34375 -0.90625q0 -0.34375 0.390625 -0.625q0.234375 -0.234375 0.578125 -0.234375q0.484375 0 0.765625 0.375q2.78125 3.984375 7.78125 3.984375q2.546875 0 4.453125 -1.265625q1.921875 -1.28125 1.921875 -3.4375q0 -2.203125 -1.6875 -3.3125q-1.671875 -1.109375 -4.59375 -1.828125q-3.890625 -0.953125 -6.125 -2.5625q-2.234375 -1.609375 -2.234375 -4.53125q0 -2.84375 2.25 -4.6875q2.265625 -1.84375 5.8125 -1.84375q1.96875 0 3.90625 0.765625q1.953125 0.765625 3.546875 2.453125q0.328125 0.28125 0.328125 0.671875q0 0.421875 -0.328125 0.765625q-0.390625 0.1875 -0.625 0.1875q-0.34375 0 -0.578125 -0.28125q-2.5 -2.734375 -6.4375 -2.734375q-2.546875 0 -4.296875 1.25q-1.75 1.234375 -1.75 3.453125q0.140625 2.0625 1.890625 3.1875q1.765625 1.125 5.171875 1.984375q2.4375 0.625 4.046875 1.375q1.609375 0.75 2.5625 2.09375q0.96875 1.34375 0.96875 3.5q0 3.015625 -2.328125 4.78125q-2.328125 1.75 -6.078125 1.75q-5.46875 0 -8.96875 -4.328125zm32.585632 -20.296875q0.34375 0 0.625 0.296875q0.296875 0.28125 0.296875 0.609375q0 0.390625 -0.265625 0.65625q-0.265625 0.265625 -0.65625 0.265625l-5.28125 0l0 17.078125q0 2.109375 0.75 2.8125q0.75 0.6875 1.890625 0.6875q0.203125 0 0.5625 -0.09375q0.359375 -0.09375 0.59375 -0.09375q0.34375 0 0.578125 0.265625q0.234375 0.265625 0.234375 0.59375q0 0.4375 -0.578125 0.75q-0.5625 0.3125 -1.34375 0.3125q-1.1875 0 -2.015625 -0.171875q-0.8125 -0.171875 -1.703125 -1.296875q-0.875 -1.125 -0.875 -3.671875l0 -17.171875l-3.9375 0q-0.34375 0 -0.640625 -0.28125q-0.28125 -0.296875 -0.28125 -0.640625q0 -0.375 0.265625 -0.640625q0.265625 -0.265625 0.65625 -0.265625l3.9375 0l0 -6.09375q0 -0.390625 0.28125 -0.671875q0.28125 -0.2968712 0.671875 -0.2968712q0.4375 0 0.6875 0.2968712q0.265625 0.28125 0.265625 0.671875l0 6.09375l5.28125 0zm25.19928 18.375q0.34375 0 0.578125 0.265625q0.25 0.265625 0.25 0.609375q0 0.328125 -0.203125 0.578125q-1.578125 2.109375 -3.9375 3.453125q-2.34375 1.34375 -5.03125 1.34375q-3.609375 0 -6.390625 -1.53125q-2.78125 -1.546875 -4.34375 -4.375q-1.5625 -2.828125 -1.5625 -6.578125q0 -3.84375 1.515625 -6.734375q1.515625 -2.90625 4.0 -4.4375q2.5 -1.546875 5.34375 -1.546875q2.828125 0 5.25 1.234375q2.421875 1.21875 3.953125 3.671875q1.546875 2.4375 1.640625 6.03125q0 0.390625 -0.296875 0.703125q-0.28125 0.3125 -0.65625 0.3125l-18.875 0l0 0.625q0 2.96875 1.203125 5.453125q1.203125 2.46875 3.546875 3.90625q2.359375 1.4375 5.671875 1.4375q2.296875 0 4.328125 -1.125q2.046875 -1.125 3.203125 -2.859375q0.34375 -0.4375 0.8125 -0.4375zm-9.78125 -17.03125q-1.78125 0 -3.625 0.9375q-1.84375 0.9375 -3.265625 2.78125q-1.421875 1.84375 -1.890625 4.484375l17.65625 0l0 -0.4375q-0.234375 -2.4375 -1.5625 -4.1875q-1.3125 -1.75 -3.265625 -2.65625q-1.9375 -0.921875 -4.046875 -0.921875zm27.975891 -1.921875q2.21875 0 2.21875 1.109375q0 0.421875 -0.25 0.71875q-0.234375 0.28125 -0.625 0.28125q-0.140625 0 -0.703125 -0.21875q-0.546875 -0.21875 -1.171875 -0.21875q-1.953125 0 -3.921875 1.5625q-1.96875 1.5625 -3.21875 3.9375q-1.25 2.375 -1.25 4.59375l0 12.0q0 0.375 -0.296875 0.671875q-0.28125 0.28125 -0.671875 0.28125q-0.421875 0 -0.6875 -0.28125q-0.265625 -0.296875 -0.265625 -0.671875l0 -22.03125q0 -0.390625 0.28125 -0.671875q0.296875 -0.296875 0.671875 -0.296875q0.4375 0 0.703125 0.296875q0.265625 0.28125 0.265625 0.671875l0 5.078125q1.109375 -2.921875 3.421875 -4.84375q2.328125 -1.921875 5.5 -1.96875z" fill-rule="nonzero"/><path fill="#000000" fill-opacity="0.0" d="m492.6614 197.49168l0 0c0 -23.91542 19.387299 -43.302704 43.302704 -43.302704l331.72534 0c11.484558 0 22.49878 4.5622253 30.619629 12.68306c8.120789 8.120834 12.683044 19.135056 12.683044 30.619644l0 173.20561c0 23.915436 -19.387268 43.302704 -43.302673 43.302704l-331.72534 0c-23.915405 0 -43.302704 -19.387268 -43.302704 -43.302704z" fill-rule="evenodd"/><path stroke="#595959" stroke-width="3.0" stroke-linejoin="round" stroke-linecap="butt" d="m492.6614 197.49168l0 0c0 -23.91542 19.387299 -43.302704 43.302704 -43.302704l331.72534 0c11.484558 0 22.49878 4.5622253 30.619629 12.68306c8.120789 8.120834 12.683044 19.135056 12.683044 30.619644l0 173.20561c0 23.915436 -19.387268 43.302704 -43.302673 43.302704l-331.72534 0c-23.915405 0 -43.302704 -19.387268 -43.302704 -43.302704z" fill-rule="evenodd"/><path fill="#6d9eeb" d="m589.2021 210.69554l0 0c0 -9.967224 8.080017 -18.047241 18.047241 -18.047241l0 0c4.786438 0 9.376831 1.9013977 12.761353 5.285904c3.3845215 3.3845215 5.2858887 7.9749146 5.2858887 12.761337l0 0c0 9.967209 -8.080017 18.047241 -18.047241 18.047241l0 0c-9.967224 0 -18.047241 -8.080032 -18.047241 -18.047241z" fill-rule="evenodd"/><path stroke="#595959" stroke-width="1.0" stroke-linejoin="round" stroke-linecap="butt" stroke-dasharray="4.0,3.0" d="m589.2021 210.69554l0 0c0 -9.967224 8.080017 -18.047241 18.047241 -18.047241l0 0c4.786438 0 9.376831 1.9013977 12.761353 5.285904c3.3845215 3.3845215 5.2858887 7.9749146 5.2858887 12.761337l0 0c0 9.967209 -8.080017 18.047241 -18.047241 18.047241l0 0c-9.967224 0 -18.047241 -8.080032 -18.047241 -18.047241z" fill-rule="evenodd"/><path fill="#1155cc" d="m558.1076 279.28348l0 0c0 -9.967224 8.080017 -18.047272 18.047241 -18.047272l0 0c4.786438 0 9.376831 1.9014282 12.761353 5.285919c3.3845215 3.3845215 5.2858887 7.9749146 5.2858887 12.761353l0 0c0 9.967194 -8.080017 18.047241 -18.047241 18.047241l0 0c-9.967224 0 -18.047241 -8.080048 -18.047241 -18.047241z" fill-rule="evenodd"/><path stroke="#595959" stroke-width="1.0" stroke-linejoin="round" stroke-linecap="butt" stroke-dasharray="4.0,3.0" d="m558.1076 279.28348l0 0c0 -9.967224 8.080017 -18.047272 18.047241 -18.047272l0 0c4.786438 0 9.376831 1.9014282 12.761353 5.285919c3.3845215 3.3845215 5.2858887 7.9749146 5.2858887 12.761353l0 0c0 9.967194 -8.080017 18.047241 -18.047241 18.047241l0 0c-9.967224 0 -18.047241 -8.080048 -18.047241 -18.047241z" fill-rule="evenodd"/><path fill="#6d9eeb" d="m625.2966 250.3937l0 0c0 -9.967224 8.080017 -18.047256 18.047241 -18.047256l0 0c4.786438 0 9.376831 1.901413 12.761353 5.285919c3.3845215 3.3845215 5.2858887 7.9748993 5.2858887 12.761337l0 0c0 9.967224 -8.080017 18.047241 -18.047241 18.047241l0 0c-9.967224 0 -18.047241 -8.080017 -18.047241 -18.047241z" fill-rule="evenodd"/><path stroke="#595959" stroke-width="1.0" stroke-linejoin="round" stroke-linecap="butt" stroke-dasharray="4.0,3.0" d="m625.2966 250.3937l0 0c0 -9.967224 8.080017 -18.047256 18.047241 -18.047256l0 0c4.786438 0 9.376831 1.901413 12.761353 5.285919c3.3845215 3.3845215 5.2858887 7.9748993 5.2858887 12.761337l0 0c0 9.967224 -8.080017 18.047241 -18.047241 18.047241l0 0c-9.967224 0 -18.047241 -8.080017 -18.047241 -18.047241z" fill-rule="evenodd"/><path fill="#e69138" d="m812.1207 268.76642l0 0c0 -9.967224 8.080017 -18.047256 18.047241 -18.047256l0 0c4.786438 0 9.376831 1.9013977 12.761353 5.285904c3.3845215 3.3845215 5.2858887 7.9749146 5.2858887 12.761353l0 0c0 9.967194 -8.080017 18.047241 -18.047241 18.047241l0 0c-9.967224 0 -18.047241 -8.080048 -18.047241 -18.047241z" fill-rule="evenodd"/><path stroke="#595959" stroke-width="1.0" stroke-linejoin="round" stroke-linecap="butt" stroke-dasharray="4.0,3.0" d="m812.1207 268.76642l0 0c0 -9.967224 8.080017 -18.047256 18.047241 -18.047256l0 0c4.786438 0 9.376831 1.9013977 12.761353 5.285904c3.3845215 3.3845215 5.2858887 7.9749146 5.2858887 12.761353l0 0c0 9.967194 -8.080017 18.047241 -18.047241 18.047241l0 0c-9.967224 0 -18.047241 -8.080048 -18.047241 -18.047241z" fill-rule="evenodd"/><path fill="#f9cb9c" d="m761.4829 321.65616l0 0c0 -9.967194 8.080078 -18.047241 18.047302 -18.047241l0 0c4.786377 0 9.37677 1.9013977 12.7612915 5.285919c3.3845215 3.3845215 5.2859497 7.9749146 5.2859497 12.761322l0 0c0 9.967224 -8.080078 18.047241 -18.047241 18.047241l0 0c-9.967224 0 -18.047302 -8.080017 -18.047302 -18.047241z" fill-rule="evenodd"/><path stroke="#595959" stroke-width="1.0" stroke-linejoin="round" stroke-linecap="butt" stroke-dasharray="4.0,3.0" d="m761.4829 321.65616l0 0c0 -9.967194 8.080078 -18.047241 18.047302 -18.047241l0 0c4.786377 0 9.37677 1.9013977 12.7612915 5.285919c3.3845215 3.3845215 5.2859497 7.9749146 5.2859497 12.761322l0 0c0 9.967224 -8.080078 18.047241 -18.047241 18.047241l0 0c-9.967224 0 -18.047302 -8.080017 -18.047302 -18.047241z" fill-rule="evenodd"/><path fill="#b4a7d6" d="m661.39105 362.7034l0 0c0 -9.967194 8.080078 -18.047241 18.047241 -18.047241l0 0c4.786438 0 9.376831 1.9013977 12.761353 5.285919c3.3845215 3.3845215 5.2858887 7.9749146 5.2858887 12.761322l0 0c0 9.967224 -8.080017 18.047272 -18.047241 18.047272l0 0c-9.967163 0 -18.047241 -8.080048 -18.047241 -18.047272z" fill-rule="evenodd"/><path stroke="#595959" stroke-width="1.0" stroke-linejoin="round" stroke-linecap="butt" stroke-dasharray="4.0,3.0" d="m661.39105 362.7034l0 0c0 -9.967194 8.080078 -18.047241 18.047241 -18.047241l0 0c4.786438 0 9.376831 1.9013977 12.761353 5.285919c3.3845215 3.3845215 5.2858887 7.9749146 5.2858887 12.761322l0 0c0 9.967224 -8.080017 18.047272 -18.047241 18.047272l0 0c-9.967163 0 -18.047241 -8.080048 -18.047241 -18.047272z" fill-rule="evenodd"/><path fill="#b4a7d6" d="m613.91864 381.22046l0 0c0 -9.967194 8.080017 -18.047241 18.047241 -18.047241l0 0c4.786438 0 9.376831 1.9013977 12.761353 5.285919c3.3844604 3.3845215 5.2858887 7.9749146 5.2858887 12.761322l0 0c0 9.967224 -8.080017 18.047272 -18.047241 18.047272l0 0c-9.967224 0 -18.047241 -8.080048 -18.047241 -18.047272z" fill-rule="evenodd"/><path stroke="#595959" stroke-width="1.0" stroke-linejoin="round" stroke-linecap="butt" stroke-dasharray="4.0,3.0" d="m613.91864 381.22046l0 0c0 -9.967194 8.080017 -18.047241 18.047241 -18.047241l0 0c4.786438 0 9.376831 1.9013977 12.761353 5.285919c3.3844604 3.3845215 5.2858887 7.9749146 5.2858887 12.761322l0 0c0 9.967224 -8.080017 18.047272 -18.047241 18.047272l0 0c-9.967224 0 -18.047241 -8.080048 -18.047241 -18.047272z" fill-rule="evenodd"/><path fill="#674ea7" d="m613.91864 321.65616l0 0c0 -9.967194 8.080017 -18.047241 18.047241 -18.047241l0 0c4.786438 0 9.376831 1.9013977 12.761353 5.285919c3.3844604 3.3845215 5.2858887 7.9749146 5.2858887 12.761322l0 0c0 9.967224 -8.080017 18.047241 -18.047241 18.047241l0 0c-9.967224 0 -18.047241 -8.080017 -18.047241 -18.047241z" fill-rule="evenodd"/><path stroke="#595959" stroke-width="1.0" stroke-linejoin="round" stroke-linecap="butt" stroke-dasharray="4.0,3.0" d="m613.91864 321.65616l0 0c0 -9.967194 8.080017 -18.047241 18.047241 -18.047241l0 0c4.786438 0 9.376831 1.9013977 12.761353 5.285919c3.3844604 3.3845215 5.2858887 7.9749146 5.2858887 12.761322l0 0c0 9.967224 -8.080017 18.047241 -18.047241 18.047241l0 0c-9.967224 0 -18.047241 -8.080017 -18.047241 -18.047241z" fill-rule="evenodd"/><path fill="#b4a7d6" d="m674.9055 298.4777l0 0c0 -9.967224 8.080017 -18.047241 18.047241 -18.047241l0 0c4.786438 0 9.376831 1.9013977 12.761353 5.285919c3.3844604 3.3845215 5.2858887 7.974884 5.2858887 12.761322l0 0c0 9.967224 -8.080017 18.047241 -18.047241 18.047241l0 0c-9.967224 0 -18.047241 -8.080017 -18.047241 -18.047241z" fill-rule="evenodd"/><path stroke="#595959" stroke-width="1.0" stroke-linejoin="round" stroke-linecap="butt" stroke-dasharray="4.0,3.0" d="m674.9055 298.4777l0 0c0 -9.967224 8.080017 -18.047241 18.047241 -18.047241l0 0c4.786438 0 9.376831 1.9013977 12.761353 5.285919c3.3844604 3.3845215 5.2858887 7.974884 5.2858887 12.761322l0 0c0 9.967224 -8.080017 18.047241 -18.047241 18.047241l0 0c-9.967224 0 -18.047241 -8.080017 -18.047241 -18.047241z" fill-rule="evenodd"/><path fill="#f9cb9c" d="m750.3937 268.76642l0 0c0 -9.967224 8.080078 -18.047256 18.047241 -18.047256l0 0c4.786438 0 9.376831 1.9013977 12.761353 5.285904c3.3845215 3.3845215 5.2858887 7.9749146 5.2858887 12.761353l0 0c0 9.967194 -8.080017 18.047241 -18.047241 18.047241l0 0c-9.967163 0 -18.047241 -8.080048 -18.047241 -18.047241z" fill-rule="evenodd"/><path stroke="#595959" stroke-width="1.0" stroke-linejoin="round" stroke-linecap="butt" stroke-dasharray="4.0,3.0" d="m750.3937 268.76642l0 0c0 -9.967224 8.080078 -18.047256 18.047241 -18.047256l0 0c4.786438 0 9.376831 1.9013977 12.761353 5.285904c3.3845215 3.3845215 5.2858887 7.9749146 5.2858887 12.761353l0 0c0 9.967194 -8.080017 18.047241 -18.047241 18.047241l0 0c-9.967163 0 -18.047241 -8.080048 -18.047241 -18.047241z" fill-rule="evenodd"/><path fill="#f9cb9c" d="m786.48816 227.1378l0 0c0 -9.967224 8.080078 -18.047256 18.047302 -18.047256l0 0c4.786377 0 9.37677 1.901413 12.7612915 5.285919c3.3845215 3.3845215 5.2859497 7.9748993 5.2859497 12.761337l0 0c0 9.967209 -8.080078 18.047241 -18.047241 18.047241l0 0c-9.967224 0 -18.047302 -8.080032 -18.047302 -18.047241z" fill-rule="evenodd"/><path stroke="#595959" stroke-width="1.0" stroke-linejoin="round" stroke-linecap="butt" stroke-dasharray="4.0,3.0" d="m786.48816 227.1378l0 0c0 -9.967224 8.080078 -18.047256 18.047302 -18.047256l0 0c4.786377 0 9.37677 1.901413 12.7612915 5.285919c3.3845215 3.3845215 5.2859497 7.9748993 5.2859497 12.761337l0 0c0 9.967209 -8.080078 18.047241 -18.047241 18.047241l0 0c-9.967224 0 -18.047302 -8.080032 -18.047302 -18.047241z" fill-rule="evenodd"/><path fill="#f9cb9c" d="m806.5748 321.65878l0 0c0 -9.967194 8.080017 -18.047241 18.047241 -18.047241l0 0c4.786377 0 9.37677 1.9013977 12.7612915 5.285919c3.3845215 3.3845215 5.2859497 7.9749146 5.2859497 12.761322l0 0c0 9.967224 -8.080017 18.047241 -18.047241 18.047241l0 0c-9.967224 0 -18.047241 -8.080017 -18.047241 -18.047241z" fill-rule="evenodd"/><path stroke="#595959" stroke-width="1.0" stroke-linejoin="round" stroke-linecap="butt" stroke-dasharray="4.0,3.0" d="m806.5748 321.65878l0 0c0 -9.967194 8.080017 -18.047241 18.047241 -18.047241l0 0c4.786377 0 9.37677 1.9013977 12.7612915 5.285919c3.3845215 3.3845215 5.2859497 7.9749146 5.2859497 12.761322l0 0c0 9.967224 -8.080017 18.047241 -18.047241 18.047241l0 0c-9.967224 0 -18.047241 -8.080017 -18.047241 -18.047241z" fill-rule="evenodd"/><path fill="#eeeeee" d="m42.577736 130.54614l0 0c0 -14.406082 11.678432 -26.084518 26.08451 -26.084518l199.83098 0c6.91803 0 13.552734 2.7481842 18.44455 7.6399765c4.8917847 4.8918 7.6399536 11.526497 7.6399536 18.444542l0 104.334915c0 14.406067 -11.678436 26.084518 -26.084503 26.084518l-199.83098 0c-14.406078 0 -26.08451 -11.678452 -26.08451 -26.084518z" fill-rule="evenodd"/><path stroke="#595959" stroke-width="3.0" stroke-linejoin="round" stroke-linecap="butt" d="m42.577736 130.54614l0 0c0 -14.406082 11.678432 -26.084518 26.08451 -26.084518l199.83098 0c6.91803 0 13.552734 2.7481842 18.44455 7.6399765c4.8917847 4.8918 7.6399536 11.526497 7.6399536 18.444542l0 104.334915c0 14.406067 -11.678436 26.084518 -26.084503 26.084518l-199.83098 0c-14.406078 0 -26.08451 -11.678452 -26.08451 -26.084518z" fill-rule="evenodd"/><path fill="#000000" fill-opacity="0.0" d="m72.8399 217.46548c6.461502 5.043747 26.081802 34.911636 38.769028 30.262466c12.687225 -4.64917 27.125542 -37.038055 37.354332 -58.157486c10.228775 -21.119415 15.880569 -66.42388 24.018372 -68.55905c8.137787 -2.13517 10.923447 51.49257 24.808395 55.74803c13.884949 4.2554626 46.544617 -34.47812 58.501328 -30.215225c11.956665 4.262909 11.032349 46.49388 13.238831 55.79265" fill-rule="evenodd"/><path stroke="#595959" stroke-width="2.0" stroke-linejoin="round" stroke-linecap="butt" stroke-dasharray="8.0,6.0" d="m72.8399 217.46548c6.461502 5.043747 26.081802 34.911636 38.769028 30.262466c12.687225 -4.64917 27.125542 -37.038055 37.354332 -58.157486c10.228775 -21.119415 15.880569 -66.42388 24.018372 -68.55905c8.137787 -2.13517 10.923447 51.49257 24.808395 55.74803c13.884949 4.2554626 46.544617 -34.47812 58.501328 -30.215225c11.956665 4.262909 11.032349 46.49388 13.238831 55.79265" fill-rule="evenodd"/><path fill="#e06666" d="m235.02895 173.48022l0 0c0 -6.00119 4.864929 -10.866135 10.866135 -10.866135l0 0c2.8818817 0 5.6457214 1.1448212 7.6835175 3.1826172c2.037796 2.037796 3.1826324 4.801651 3.1826324 7.6835175l0 0c0 6.0012054 -4.8649445 10.86615 -10.86615 10.86615l0 0c-6.0012054 0 -10.866135 -4.8649445 -10.866135 -10.86615z" fill-rule="evenodd"/><path stroke="#595959" stroke-width="1.0" stroke-linejoin="round" stroke-linecap="butt" stroke-dasharray="4.0,3.0" d="m235.02895 173.48022l0 0c0 -6.00119 4.864929 -10.866135 10.866135 -10.866135l0 0c2.8818817 0 5.6457214 1.1448212 7.6835175 3.1826172c2.037796 2.037796 3.1826324 4.801651 3.1826324 7.6835175l0 0c0 6.0012054 -4.8649445 10.86615 -10.86615 10.86615l0 0c-6.0012054 0 -10.866135 -4.8649445 -10.866135 -10.86615z" fill-rule="evenodd"/><path fill="#e06666" d="m160.55336 151.73605l0 0c0 -6.0012054 4.864929 -10.86615 10.866135 -10.86615l0 0c2.8818817 0 5.6457367 1.1448364 7.6835327 3.1826324c2.037796 2.037796 3.1826172 4.8016357 3.1826172 7.6835175l0 0c0 6.0012054 -4.8649445 10.866135 -10.86615 10.866135l0 0c-6.0012054 0 -10.866135 -4.864929 -10.866135 -10.866135z" fill-rule="evenodd"/><path stroke="#595959" stroke-width="1.0" stroke-linejoin="round" stroke-linecap="butt" stroke-dasharray="4.0,3.0" d="m160.55336 151.73605l0 0c0 -6.0012054 4.864929 -10.86615 10.866135 -10.86615l0 0c2.8818817 0 5.6457367 1.1448364 7.6835327 3.1826324c2.037796 2.037796 3.1826172 4.8016357 3.1826172 7.6835175l0 0c0 6.0012054 -4.8649445 10.866135 -10.86615 10.866135l0 0c-6.0012054 0 -10.866135 -4.864929 -10.866135 -10.866135z" fill-rule="evenodd"/><path fill="#e06666" d="m144.21214 210.3795l0 0c0 -6.0012054 4.8649445 -10.866135 10.86615 -10.866135l0 0c2.8818665 0 5.6457214 1.1448212 7.6835175 3.1826172c2.037796 2.037796 3.1826172 4.801651 3.1826172 7.6835175l0 0c0 6.0012054 -4.864929 10.86615 -10.866135 10.86615l0 0c-6.0012054 0 -10.86615 -4.8649445 -10.86615 -10.86615z" fill-rule="evenodd"/><path stroke="#595959" stroke-width="1.0" stroke-linejoin="round" stroke-linecap="butt" stroke-dasharray="4.0,3.0" d="m144.21214 210.3795l0 0c0 -6.0012054 4.8649445 -10.866135 10.86615 -10.866135l0 0c2.8818665 0 5.6457214 1.1448212 7.6835175 3.1826172c2.037796 2.037796 3.1826172 4.801651 3.1826172 7.6835175l0 0c0 6.0012054 -4.864929 10.86615 -10.866135 10.86615l0 0c-6.0012054 0 -10.86615 -4.8649445 -10.86615 -10.86615z" fill-rule="evenodd"/><path fill="#6aa84f" d="m138.5747 130.26898l0 0c0 -6.0012054 4.864929 -10.866142 10.866135 -10.866142l0 0c2.8818817 0 5.6457214 1.1448288 7.6835175 3.1826248c2.037796 2.037796 3.1826172 4.8016434 3.1826172 7.6835175l0 0c0 6.0012054 -4.864929 10.86615 -10.866135 10.86615l0 0c-6.0012054 0 -10.866135 -4.8649445 -10.866135 -10.86615z" fill-rule="evenodd"/><path stroke="#595959" stroke-width="1.0" stroke-linejoin="round" stroke-linecap="butt" stroke-dasharray="4.0,3.0" d="m138.5747 130.26898l0 0c0 -6.0012054 4.864929 -10.866142 10.866135 -10.866142l0 0c2.8818817 0 5.6457214 1.1448288 7.6835175 3.1826248c2.037796 2.037796 3.1826172 4.8016434 3.1826172 7.6835175l0 0c0 6.0012054 -4.864929 10.86615 -10.866135 10.86615l0 0c-6.0012054 0 -10.866135 -4.8649445 -10.866135 -10.86615z" fill-rule="evenodd"/><path fill="#6aa84f" d="m198.62576 151.73514l0 0c0 -6.0012054 4.8649445 -10.86615 10.866135 -10.86615l0 0c2.8818817 0 5.6457367 1.1448212 7.6835327 3.1826172c2.037796 2.0378113 3.1826172 4.801651 3.1826172 7.6835327l0 0c0 6.0012054 -4.8649445 10.866135 -10.86615 10.866135l0 0c-6.00119 0 -10.866135 -4.864929 -10.866135 -10.866135z" fill-rule="evenodd"/><path stroke="#595959" stroke-width="1.0" stroke-linejoin="round" stroke-linecap="butt" stroke-dasharray="4.0,3.0" d="m198.62576 151.73514l0 0c0 -6.0012054 4.8649445 -10.86615 10.866135 -10.86615l0 0c2.8818817 0 5.6457367 1.1448212 7.6835327 3.1826172c2.037796 2.0378113 3.1826172 4.801651 3.1826172 7.6835327l0 0c0 6.0012054 -4.8649445 10.866135 -10.86615 10.866135l0 0c-6.00119 0 -10.866135 -4.864929 -10.866135 -10.866135z" fill-rule="evenodd"/><path fill="#6aa84f" d="m97.60739 232.11179l0 0c0 -6.0012054 4.864937 -10.866135 10.866142 -10.866135l0 0c2.881874 0 5.6457214 1.1448212 7.6835175 3.1826172c2.037796 2.037796 3.1826248 4.8016357 3.1826248 7.6835175l0 0c0 6.0012054 -4.864937 10.86615 -10.866142 10.86615l0 0c-6.0012054 0 -10.866142 -4.8649445 -10.866142 -10.86615z" fill-rule="evenodd"/><path stroke="#595959" stroke-width="1.0" stroke-linejoin="round" stroke-linecap="butt" stroke-dasharray="4.0,3.0" d="m97.60739 232.11179l0 0c0 -6.0012054 4.864937 -10.866135 10.866142 -10.866135l0 0c2.881874 0 5.6457214 1.1448212 7.6835175 3.1826172c2.037796 2.037796 3.1826248 4.8016357 3.1826248 7.6835175l0 0c0 6.0012054 -4.864937 10.86615 -10.866142 10.86615l0 0c-6.0012054 0 -10.866142 -4.8649445 -10.866142 -10.86615z" fill-rule="evenodd"/><path fill="#000000" fill-opacity="0.0" d="m35.0126 66.63517l272.34647 0l0 31.779526l-272.34647 0z" fill-rule="evenodd"/><path fill="#000000" d="m159.42815 97.503296q0.171875 0.234375 0.171875 0.5q0 0.359375 -0.265625 0.5625q-0.25 0.203125 -0.5625 0.203125q-0.3125 0 -0.515625 -0.265625l-6.703125 -8.421875l-3.265625 3.078125l0 4.765625q-0.015625 0.34375 -0.234375 0.546875q-0.21875 0.203125 -0.53125 0.203125q-0.34375 0 -0.546875 -0.203125q-0.203125 -0.203125 -0.203125 -0.546875l0 -15.3125q0 -0.328125 0.21875 -0.53125q0.21875 -0.203125 0.5625 -0.203125q0.328125 0 0.53125 0.203125q0.203125 0.203125 0.203125 0.53125l0 8.71875l9.703125 -9.171875q0.21875 -0.234375 0.515625 -0.234375q0.296875 0 0.5 0.21875q0.203125 0.21875 0.203125 0.46875q0 0.296875 -0.21875 0.515625l-6.28125 5.875l6.71875 8.5zm8.918716 -11.375q0.484375 0 0.859375 0.1875q0.390625 0.1875 0.390625 0.578125q0 0.328125 -0.1875 0.53125q-0.1875 0.203125 -0.453125 0.203125q-0.125 0 -0.46875 -0.109375q-0.34375 -0.125 -0.65625 -0.125q-0.890625 0 -1.765625 0.6875q-0.875 0.6875 -1.4375 1.765625q-0.5625 1.078125 -0.5625 2.1875l0 5.921875q0 0.3125 -0.21875 0.515625q-0.203125 0.203125 -0.515625 0.203125q-0.3125 0 -0.51564026 -0.203125q-0.203125 -0.203125 -0.203125 -0.515625l0 -10.75q0 -0.3125 0.203125 -0.515625q0.20314026 -0.203125 0.51564026 -0.203125q0.3125 0 0.515625 0.203125q0.21875 0.203125 0.21875 0.515625l0 2.109375q0.546875 -1.375 1.65625 -2.265625q1.125 -0.90625 2.625 -0.921875zm4.8962097 11.828125q0 0.3125 -0.203125 0.515625q-0.203125 0.203125 -0.515625 0.203125q-0.3125 0 -0.515625 -0.203125q-0.203125 -0.203125 -0.203125 -0.515625l0 -11.046875q0 -0.3125 0.203125 -0.515625q0.203125 -0.203125 0.515625 -0.203125q0.3125 0 0.515625 0.203125q0.203125 0.203125 0.203125 0.515625l0 11.046875zm-0.46875 -13.390625q-0.46875 0 -0.734375 -0.21875q-0.265625 -0.234375 -0.265625 -0.671875l0 -0.234375q0 -0.4375 0.265625 -0.65625q0.28125 -0.234375 0.765625 -0.234375q0.953125 0 0.953125 0.890625l0 0.234375q0 0.4375 -0.25 0.671875q-0.25 0.21875 -0.734375 0.21875zm3.5266113 12.171875q-0.1875 -0.3125 -0.1875 -0.53125q0 -0.3125 0.296875 -0.484375q0.15625 -0.140625 0.390625 -0.140625q0.28125 0 0.53125 0.234375q1.40625 1.875 3.765625 1.875q1.15625 0 2.0 -0.53125q0.859375 -0.546875 0.859375 -1.578125q0 -1.015625 -0.796875 -1.515625q-0.796875 -0.5 -2.203125 -0.859375q-2.0 -0.5 -3.125 -1.296875q-1.125 -0.8125 -1.125 -2.375q0 -0.984375 0.546875 -1.765625q0.5625 -0.78125 1.5 -1.203125q0.953125 -0.4375 2.15625 -0.4375q1.03125 0 2.0625 0.390625q1.046875 0.390625 1.796875 1.265625q0.21875 0.15625 0.21875 0.46875q0 0.296875 -0.25 0.515625q-0.15625 0.140625 -0.421875 0.140625q-0.25 0 -0.4375 -0.1875q-0.578125 -0.65625 -1.375 -0.984375q-0.78125 -0.34375 -1.6875 -0.34375q-1.140625 0 -1.953125 0.53125q-0.796875 0.53125 -0.796875 1.578125q0.0625 0.96875 0.890625 1.46875q0.828125 0.5 2.421875 0.90625q1.25 0.3125 2.0625 0.703125q0.828125 0.375 1.34375 1.078125q0.515625 0.703125 0.515625 1.84375q0 1.5625 -1.25 2.484375q-1.25 0.921875 -3.09375 0.921875q-2.9375 0 -4.65625 -2.171875zm19.630981 0.59375q0.3125 0 0.5 0.203125q0.1875 0.1875 0.1875 0.46875q0 0.28125 -0.1875 0.484375q-0.1875 0.1875 -0.5 0.1875l-7.796875 0q-0.3125 0 -0.515625 -0.21875q-0.1875 -0.234375 -0.1875 -0.484375q0 -0.3125 0.21875 -0.546875l7.109375 -9.84375l-6.03125 0q-0.28125 0 -0.484375 -0.1875q-0.203125 -0.1875 -0.203125 -0.484375q0 -0.28125 0.203125 -0.46875q0.203125 -0.203125 0.484375 -0.203125l7.375 0q0.28125 0 0.46875 0.21875q0.203125 0.21875 0.203125 0.5q0 0.265625 -0.203125 0.53125l-7.125 9.84375l6.484375 0z" fill-rule="nonzero"/><path fill="#eeeeee" d="m42.577736 342.8322l0 0c0 -14.406067 11.678432 -26.084503 26.08451 -26.084503l199.83098 0c6.91803 0 13.552734 2.7481995 18.44455 7.639984c4.8917847 4.8917847 7.6399536 11.526489 7.6399536 18.444519l0 104.33493c0 14.406067 -11.678436 26.084503 -26.084503 26.084503l-199.83098 0c-14.406078 0 -26.08451 -11.678436 -26.08451 -26.084503z" fill-rule="evenodd"/><path stroke="#595959" stroke-width="3.0" stroke-linejoin="round" stroke-linecap="butt" d="m42.577736 342.8322l0 0c0 -14.406067 11.678432 -26.084503 26.08451 -26.084503l199.83098 0c6.91803 0 13.552734 2.7481995 18.44455 7.639984c4.8917847 4.8917847 7.6399536 11.526489 7.6399536 18.444519l0 104.33493c0 14.406067 -11.678436 26.084503 -26.084503 26.084503l-199.83098 0c-14.406078 0 -26.08451 -11.678436 -26.08451 -26.084503z" fill-rule="evenodd"/><path fill="#000000" fill-opacity="0.0" d="m72.83986 429.7517c6.4617004 5.0434265 26.083176 34.909943 38.77021 30.260712c12.687027 -4.649231 24.980095 -54.216003 37.351967 -58.156128c12.371857 -3.940094 26.713776 43.34146 36.87921 34.515472c10.165421 -8.825958 12.371857 -74.54764 24.113388 -87.47131c11.741531 -12.923676 36.406464 -1.024292 46.33577 9.929321c9.929352 10.953613 11.033478 46.49362 13.240173 55.79236" fill-rule="evenodd"/><path stroke="#595959" stroke-width="2.0" stroke-linejoin="round" stroke-linecap="butt" stroke-dasharray="8.0,6.0" d="m72.83986 429.7517c6.4617004 5.0434265 26.083176 34.909943 38.77021 30.260712c12.687027 -4.649231 24.980095 -54.216003 37.351967 -58.156128c12.371857 -3.940094 26.713776 43.34146 36.87921 34.515472c10.165421 -8.825958 12.371857 -74.54764 24.113388 -87.47131c11.741531 -12.923676 36.406464 -1.024292 46.33577 9.929321c9.929352 10.953613 11.033478 46.49362 13.240173 55.79236" fill-rule="evenodd"/><path fill="#6aa84f" d="m122.480865 379.51752l0 0c0 -6.00119 4.864937 -10.86615 10.866135 -10.86615l0 0c2.8818817 0 5.6457367 1.1448364 7.6835327 3.1826172c2.037796 2.0378113 3.1826172 4.8016663 3.1826172 7.6835327l0 0c0 6.00119 -4.8649445 10.86615 -10.86615 10.86615l0 0c-6.001198 0 -10.866135 -4.8649597 -10.866135 -10.86615z" fill-rule="evenodd"/><path stroke="#595959" stroke-width="1.0" stroke-linejoin="round" stroke-linecap="butt" stroke-dasharray="4.0,3.0" d="m122.480865 379.51752l0 0c0 -6.00119 4.864937 -10.86615 10.866135 -10.86615l0 0c2.8818817 0 5.6457367 1.1448364 7.6835327 3.1826172c2.037796 2.0378113 3.1826172 4.8016663 3.1826172 7.6835327l0 0c0 6.00119 -4.8649445 10.86615 -10.86615 10.86615l0 0c-6.001198 0 -10.866135 -4.8649597 -10.866135 -10.86615z" fill-rule="evenodd"/><path fill="#e06666" d="m235.02895 385.76633l0 0c0 -6.0012207 4.864929 -10.86615 10.866135 -10.86615l0 0c2.8818817 0 5.6457214 1.1448364 7.6835175 3.1826172c2.037796 2.0378113 3.1826324 4.8016357 3.1826324 7.6835327l0 0c0 6.00119 -4.8649445 10.86615 -10.86615 10.86615l0 0c-6.0012054 0 -10.866135 -4.8649597 -10.866135 -10.86615z" fill-rule="evenodd"/><path stroke="#595959" stroke-width="1.0" stroke-linejoin="round" stroke-linecap="butt" stroke-dasharray="4.0,3.0" d="m235.02895 385.76633l0 0c0 -6.0012207 4.864929 -10.86615 10.866135 -10.86615l0 0c2.8818817 0 5.6457214 1.1448364 7.6835175 3.1826172c2.037796 2.0378113 3.1826324 4.8016357 3.1826324 7.6835327l0 0c0 6.00119 -4.8649445 10.86615 -10.86615 10.86615l0 0c-6.0012054 0 -10.866135 -4.8649597 -10.866135 -10.86615z" fill-rule="evenodd"/><path fill="#e06666" d="m204.52332 417.62857l0 0c0 -6.00119 4.8649445 -10.866119 10.86615 -10.866119l0 0c2.8818817 0 5.6457214 1.1448059 7.6835175 3.1826172c2.037796 2.0377808 3.1826172 4.8016357 3.1826172 7.683502l0 0c0 6.0012207 -4.864929 10.86615 -10.866135 10.86615l0 0c-6.0012054 0 -10.86615 -4.864929 -10.86615 -10.86615z" fill-rule="evenodd"/><path stroke="#595959" stroke-width="1.0" stroke-linejoin="round" stroke-linecap="butt" stroke-dasharray="4.0,3.0" d="m204.52332 417.62857l0 0c0 -6.00119 4.8649445 -10.866119 10.86615 -10.866119l0 0c2.8818817 0 5.6457214 1.1448059 7.6835175 3.1826172c2.037796 2.0377808 3.1826172 4.8016357 3.1826172 7.683502l0 0c0 6.0012207 -4.864929 10.86615 -10.866135 10.86615l0 0c-6.0012054 0 -10.86615 -4.864929 -10.86615 -10.86615z" fill-rule="evenodd"/><path fill="#e06666" d="m213.2846 364.022l0 0c0 -6.0012207 4.8649445 -10.86615 10.86615 -10.86615l0 0c2.8818817 0 5.6457214 1.1448364 7.6835175 3.1826172c2.037796 2.0378113 3.1826172 4.8016357 3.1826172 7.6835327l0 0c0 6.00119 -4.864929 10.86615 -10.866135 10.86615l0 0c-6.0012054 0 -10.86615 -4.8649597 -10.86615 -10.86615z" fill-rule="evenodd"/><path stroke="#595959" stroke-width="1.0" stroke-linejoin="round" stroke-linecap="butt" stroke-dasharray="4.0,3.0" d="m213.2846 364.022l0 0c0 -6.0012207 4.8649445 -10.86615 10.86615 -10.86615l0 0c2.8818817 0 5.6457214 1.1448364 7.6835175 3.1826172c2.037796 2.0378113 3.1826172 4.8016357 3.1826172 7.6835327l0 0c0 6.00119 -4.864929 10.86615 -10.866135 10.86615l0 0c-6.0012054 0 -10.86615 -4.8649597 -10.86615 -10.86615z" fill-rule="evenodd"/><path fill="#e06666" d="m138.57565 417.6278l0 0c0 -6.0012207 4.864929 -10.86615 10.866135 -10.86615l0 0c2.8818817 0 5.6457214 1.1448059 7.6835327 3.1826172c2.037796 2.0377808 3.1826172 4.8016357 3.1826172 7.6835327l0 0c0 6.00119 -4.8649445 10.866119 -10.86615 10.866119l0 0c-6.0012054 0 -10.866135 -4.864929 -10.866135 -10.866119z" fill-rule="evenodd"/><path stroke="#595959" stroke-width="1.0" stroke-linejoin="round" stroke-linecap="butt" stroke-dasharray="4.0,3.0" d="m138.57565 417.6278l0 0c0 -6.0012207 4.864929 -10.86615 10.866135 -10.86615l0 0c2.8818817 0 5.6457214 1.1448059 7.6835327 3.1826172c2.037796 2.0377808 3.1826172 4.8016357 3.1826172 7.6835327l0 0c0 6.00119 -4.8649445 10.866119 -10.86615 10.866119l0 0c-6.0012054 0 -10.866135 -4.864929 -10.866135 -10.866119z" fill-rule="evenodd"/><path fill="#e06666" d="m157.26988 444.3979l0 0c0 -6.0012207 4.8649445 -10.86615 10.86615 -10.86615l0 0c2.8818817 0 5.6457214 1.1448364 7.6835175 3.1826172c2.037796 2.0378113 3.1826172 4.8016357 3.1826172 7.6835327l0 0c0 6.00119 -4.864929 10.866119 -10.866135 10.866119l0 0c-6.0012054 0 -10.86615 -4.864929 -10.86615 -10.866119z" fill-rule="evenodd"/><path stroke="#595959" stroke-width="1.0" stroke-linejoin="round" stroke-linecap="butt" stroke-dasharray="4.0,3.0" d="m157.26988 444.3979l0 0c0 -6.0012207 4.8649445 -10.86615 10.86615 -10.86615l0 0c2.8818817 0 5.6457214 1.1448364 7.6835175 3.1826172c2.037796 2.0378113 3.1826172 4.8016357 3.1826172 7.6835327l0 0c0 6.00119 -4.864929 10.866119 -10.866135 10.866119l0 0c-6.0012054 0 -10.86615 -4.864929 -10.86615 -10.866119z" fill-rule="evenodd"/><path fill="#6aa84f" d="m168.81879 413.8464l0 0c0 -6.00119 4.8649445 -10.866119 10.86615 -10.866119l0 0c2.8818817 0 5.6457214 1.1448059 7.6835175 3.1826172c2.037796 2.0377808 3.1826172 4.8016357 3.1826172 7.683502l0 0c0 6.0012207 -4.864929 10.86615 -10.866135 10.86615l0 0c-6.0012054 0 -10.86615 -4.864929 -10.86615 -10.86615z" fill-rule="evenodd"/><path stroke="#595959" stroke-width="1.0" stroke-linejoin="round" stroke-linecap="butt" stroke-dasharray="4.0,3.0" d="m168.81879 413.8464l0 0c0 -6.00119 4.8649445 -10.866119 10.86615 -10.866119l0 0c2.8818817 0 5.6457214 1.1448059 7.6835175 3.1826172c2.037796 2.0377808 3.1826172 4.8016357 3.1826172 7.683502l0 0c0 6.0012207 -4.864929 10.86615 -10.866135 10.86615l0 0c-6.0012054 0 -10.86615 -4.864929 -10.86615 -10.86615z" fill-rule="evenodd"/><path fill="#6aa84f" d="m179.01422 354.0606l0 0c0 -6.0012207 4.864929 -10.86615 10.866135 -10.86615l0 0c2.8818817 0 5.6457214 1.1448059 7.6835175 3.1826172c2.037796 2.0377808 3.1826172 4.8016357 3.1826172 7.6835327l0 0c0 6.00119 -4.864929 10.866119 -10.866135 10.866119l0 0c-6.0012054 0 -10.866135 -4.864929 -10.866135 -10.866119z" fill-rule="evenodd"/><path stroke="#595959" stroke-width="1.0" stroke-linejoin="round" stroke-linecap="butt" stroke-dasharray="4.0,3.0" d="m179.01422 354.0606l0 0c0 -6.0012207 4.864929 -10.86615 10.866135 -10.86615l0 0c2.8818817 0 5.6457214 1.1448059 7.6835175 3.1826172c2.037796 2.0377808 3.1826172 4.8016357 3.1826172 7.6835327l0 0c0 6.00119 -4.864929 10.866119 -10.866135 10.866119l0 0c-6.0012054 0 -10.866135 -4.864929 -10.866135 -10.866119z" fill-rule="evenodd"/><path fill="#6aa84f" d="m97.60739 444.3979l0 0c0 -6.0012207 4.864937 -10.86615 10.866142 -10.86615l0 0c2.881874 0 5.6457214 1.1448364 7.6835175 3.1826172c2.037796 2.0378113 3.1826248 4.8016357 3.1826248 7.6835327l0 0c0 6.00119 -4.864937 10.866119 -10.866142 10.866119l0 0c-6.0012054 0 -10.866142 -4.864929 -10.866142 -10.866119z" fill-rule="evenodd"/><path stroke="#595959" stroke-width="1.0" stroke-linejoin="round" stroke-linecap="butt" stroke-dasharray="4.0,3.0" d="m97.60739 444.3979l0 0c0 -6.0012207 4.864937 -10.86615 10.866142 -10.86615l0 0c2.881874 0 5.6457214 1.1448364 7.6835175 3.1826172c2.037796 2.0378113 3.1826248 4.8016357 3.1826248 7.6835327l0 0c0 6.00119 -4.864937 10.866119 -10.866142 10.866119l0 0c-6.0012054 0 -10.866142 -4.864929 -10.866142 -10.866119z" fill-rule="evenodd"/><path fill="#6aa84f" d="m110.29 408.25223l0 0c0 -6.0012207 4.864937 -10.86615 10.866142 -10.86615l0 0c2.881874 0 5.6457214 1.1448059 7.6835175 3.1826172c2.037796 2.0377808 3.1826172 4.8016357 3.1826172 7.6835327l0 0c0 6.00119 -4.864929 10.866119 -10.866135 10.866119l0 0c-6.0012054 0 -10.866142 -4.864929 -10.866142 -10.866119z" fill-rule="evenodd"/><path stroke="#595959" stroke-width="1.0" stroke-linejoin="round" stroke-linecap="butt" stroke-dasharray="4.0,3.0" d="m110.29 408.25223l0 0c0 -6.0012207 4.864937 -10.86615 10.866142 -10.86615l0 0c2.881874 0 5.6457214 1.1448059 7.6835175 3.1826172c2.037796 2.0377808 3.1826172 4.8016357 3.1826172 7.6835327l0 0c0 6.00119 -4.864929 10.866119 -10.866135 10.866119l0 0c-6.0012054 0 -10.866142 -4.864929 -10.866142 -10.866119z" fill-rule="evenodd"/><path fill="#000000" fill-opacity="0.0" d="m35.0126 278.92126l272.34647 0l0 31.77951l-272.34647 0z" fill-rule="evenodd"/><path fill="#000000" d="m161.03676 309.5394q0.3125 0 0.515625 0.203125q0.203125 0.1875 0.203125 0.5q0 0.3125 -0.203125 0.515625q-0.203125 0.203125 -0.515625 0.203125l-8.578125 0q-0.3125 0 -0.515625 -0.203125q-0.203125 -0.203125 -0.203125 -0.515625l0 -15.359375q0 -0.3125 0.21875 -0.515625q0.21875 -0.203125 0.5625 -0.203125q0.3125 0 0.515625 0.203125q0.21875 0.203125 0.21875 0.515625l0 14.65625l7.78125 0zm4.5023346 0.703125q0 0.3125 -0.203125 0.515625q-0.203125 0.203125 -0.515625 0.203125q-0.3125 0 -0.515625 -0.203125q-0.203125 -0.203125 -0.203125 -0.515625l0 -11.046875q0 -0.3125 0.203125 -0.515625q0.203125 -0.203125 0.515625 -0.203125q0.3125 0 0.515625 0.203125q0.203125 0.203125 0.203125 0.515625l0 11.046875zm-0.46875 -13.390625q-0.46875 0 -0.734375 -0.21875q-0.265625 -0.234375 -0.265625 -0.671875l0 -0.234375q0 -0.4375 0.265625 -0.65625q0.28125 -0.234375 0.765625 -0.234375q0.953125 0 0.953125 0.890625l0 0.234375q0 0.4375 -0.25 0.671875q-0.25 0.21875 -0.734375 0.21875zm5.8078613 13.390625q0 0.3125 -0.203125 0.515625q-0.203125 0.203125 -0.515625 0.203125q-0.3125 0 -0.515625 -0.203125q-0.203125 -0.203125 -0.203125 -0.515625l0 -16.328125q0 -0.3125 0.203125 -0.515625q0.203125 -0.203125 0.515625 -0.203125q0.3125 0 0.515625 0.203125q0.203125 0.203125 0.203125 0.515625l0 16.328125zm5.519989 0q0 0.3125 -0.203125 0.515625q-0.203125 0.203125 -0.515625 0.203125q-0.3125 0 -0.515625 -0.203125q-0.203125 -0.203125 -0.203125 -0.515625l0 -16.328125q0 -0.3125 0.203125 -0.515625q0.203125 -0.203125 0.515625 -0.203125q0.3125 0 0.515625 0.203125q0.203125 0.203125 0.203125 0.515625l0 16.328125zm13.894989 -11.546875q0.3125 0 0.515625 0.21875q0.203125 0.21875 0.203125 0.53125l0 10.796875q0 0.3125 -0.203125 0.515625q-0.203125 0.203125 -0.515625 0.203125q-0.3125 0 -0.515625 -0.203125q-0.203125 -0.203125 -0.203125 -0.515625l0 -1.609375q-0.609375 1.078125 -1.8125 1.828125q-1.1875 0.734375 -2.609375 0.734375q-1.609375 0 -2.890625 -0.828125q-1.28125 -0.84375 -2.015625 -2.3125q-0.734375 -1.46875 -0.734375 -3.28125q0 -1.828125 0.734375 -3.28125q0.75 -1.453125 2.03125 -2.265625q1.296875 -0.8125 2.859375 -0.8125q1.4375 0 2.625 0.703125q1.203125 0.6875 1.8125 1.8125l0 -1.484375q0 -0.3125 0.203125 -0.53125q0.203125 -0.21875 0.515625 -0.21875zm-5.0 11.15625q1.25 0 2.25 -0.65625q1.0 -0.65625 1.5625 -1.8125q0.5625 -1.171875 0.5625 -2.609375q0 -1.390625 -0.5625 -2.546875q-0.5625 -1.15625 -1.5625 -1.8125q-1.0 -0.65625 -2.25 -0.65625q-1.25 0 -2.25 0.65625q-0.984375 0.640625 -1.546875 1.78125q-0.5625 1.140625 -0.5625 2.578125q0 1.4375 0.546875 2.609375q0.546875 1.15625 1.546875 1.8125q1.0 0.65625 2.265625 0.65625z" fill-rule="nonzero"/><path fill="#000000" fill-opacity="0.0" d="m306.042 175.34383c17.371399 10.903336 64.12598 48.6028 104.22836 65.41995c40.102356 16.817154 113.654816 29.569107 136.38583 35.482925" fill-rule="evenodd"/><path stroke="#595959" stroke-width="2.0" stroke-linejoin="round" stroke-linecap="butt" d="m306.042 175.34383c17.371399 10.90332 64.12598 48.6028 104.22836 65.41995c20.051178 8.408585 48.464874 15.800858 74.707184 21.830215c13.121124 3.014679 25.699432 5.6886597 36.41815 7.978546c5.359314 1.144928 10.253723 2.1938782 14.518677 3.1413574c1.0662842 0.23687744 2.0931396 0.46743774 3.078125 0.69155884l1.001709 0.22955322" fill-rule="evenodd"/><path fill="#595959" stroke="#595959" stroke-width="2.0" stroke-linecap="butt" d="m539.9942 274.635l-2.7150269 1.6572266l6.5351562 -0.7330322l-5.477356 -3.6391602z" fill-rule="evenodd"/><path fill="#000000" fill-opacity="0.0" d="m303.82416 398.21896c22.17627 -11.272949 84.08441 -55.99518 133.05774 -67.63779c48.973297 -11.642609 133.9851 -1.8482056 160.78217 -2.217865" fill-rule="evenodd"/><path stroke="#595959" stroke-width="2.0" stroke-linejoin="round" stroke-linecap="butt" d="m303.82416 398.21896c22.17627 -11.27298 84.08444 -55.99518 133.05774 -67.63779c24.486633 -5.821289 57.98294 -6.2833557 88.70715 -5.336273c15.362122 0.47351074 30.03125 1.2993164 42.534607 1.9836731c6.25177 0.34213257 11.962036 0.6489563 16.946777 0.8586426c1.2461548 0.0524292 2.4470215 0.0987854 3.5996094 0.13812256c0.576355 0.01965332 1.140625 0.03756714 1.6924438 0.053588867l0.4477539 0.01171875" fill-rule="evenodd"/><path fill="#595959" stroke="#595959" stroke-width="2.0" stroke-linecap="butt" d="m590.81024 328.29065l-2.2728882 2.2251587l6.203064 -2.1834717l-6.1553345 -2.3146057z" fill-rule="evenodd"/></g></svg>