<svg version="1.1" viewBox="0.0 0.0 960.0 540.0" fill="none" stroke="none" stroke-linecap="square" stroke-miterlimit="10" xmlns:xlink="http://www.w3.org/1999/xlink" xmlns="http://www.w3.org/2000/svg"><clipPath id="g2f7be883fa_0_551.0"><path d="m0 0l960.0 0l0 540.0l-960.0 0l0 -540.0z" clip-rule="nonzero"/></clipPath><g clip-path="url(#g2f7be883fa_0_551.0)"><path fill="#ffffff" d="m0 0l960.0 0l0 540.0l-960.0 0z" fill-rule="evenodd"/><path fill="#000000" fill-opacity="0.0" d="m32.72441 14.721785l894.55115 0l0 60.125984l-894.55115 0z" fill-rule="evenodd"/><path fill="#000000" d="m45.19316 59.561783l0 -26.5l17.25 0l0 1.71875l-15.34375 0l0 10.515625l13.03125 0l0 1.65625l-13.03125 0l0 12.609375l-1.90625 0zm29.751099 0.375q-2.046875 0 -3.78125 -0.796875q-1.734375 -0.8125 -3.015625 -2.1875q-1.265625 -1.390625 -1.984375 -3.21875q-0.703125 -1.828125 -0.703125 -3.84375q0 -2.046875 0.734375 -3.875q0.734375 -1.828125 2.0 -3.203125q1.265625 -1.390625 3.0 -2.1875q1.734375 -0.8125 3.75 -0.8125q2.015625 0 3.734375 0.8125q1.71875 0.796875 3.0 2.1875q1.296875 1.375 2.015625 3.203125q0.734375 1.828125 0.734375 3.875q0 2.015625 -0.734375 3.84375q-0.71875 1.828125 -2.0 3.21875q-1.265625 1.375 -3.0 2.1875q-1.734375 0.796875 -3.75 0.796875zm-7.609375 -9.96875q0 1.71875 0.59375 3.234375q0.59375 1.5 1.625 2.625q1.03125 1.125 2.40625 1.78125q1.375 0.640625 2.953125 0.640625q1.5625 0 2.9375 -0.640625q1.390625 -0.65625 2.4375 -1.8125q1.046875 -1.15625 1.640625 -2.671875q0.59375 -1.515625 0.59375 -3.265625q0 -1.71875 -0.59375 -3.234375q-0.59375 -1.515625 -1.640625 -2.640625q-1.046875 -1.140625 -2.421875 -1.8125q-1.359375 -0.671875 -2.921875 -0.671875q-1.5625 0 -2.953125 0.671875q-1.375 0.671875 -2.40625 1.828125q-1.015625 1.15625 -1.640625 2.703125q-0.609375 1.546875 -0.609375 3.265625zm30.754578 -8.140625q-2.609375 0.078125 -4.578125 1.5625q-1.953125 1.46875 -2.734375 4.046875l0 12.125l-1.875 0l0 -19.40625l1.796875 0l0 4.78125q1.015625 -2.0625 2.671875 -3.34375q1.65625 -1.296875 3.5625 -1.484375q0.375 -0.03125 0.671875 -0.03125q0.296875 0 0.484375 0l0 1.75zm28.150803 -1.671875l1.859375 0l-8.390625 19.40625l-1.578125 0l-4.359375 -10.265625l-4.375 10.265625l-1.5625 0l-8.40625 -19.40625l1.828125 0l7.4375 17.359375l4.0625 -9.5625l-3.28125 -7.765625l1.609375 0l2.6875 6.421875l2.640625 -6.421875l1.65625 0l-3.296875 7.765625l4.078125 9.5625l7.390625 -17.359375zm10.258438 19.78125q-1.34375 0 -2.5 -0.46875q-1.15625 -0.46875 -2.03125 -1.265625q-0.875 -0.8125 -1.359375 -1.90625q-0.484375 -1.109375 -0.484375 -2.375q0 -1.265625 0.59375 -2.3125q0.59375 -1.046875 1.65625 -1.8125q1.0625 -0.765625 2.546875 -1.1875q1.5 -0.4375 3.296875 -0.4375q1.5625 0 3.140625 0.28125q1.59375 0.28125 2.875 0.765625l0 -1.90625q0 -2.75 -1.578125 -4.375q-1.5625 -1.625 -4.25 -1.625q-1.421875 0 -3.015625 0.59375q-1.578125 0.59375 -3.21875 1.71875l-0.703125 -1.265625q3.734375 -2.546875 7.09375 -2.546875q3.5 0 5.515625 2.046875q2.015625 2.03125 2.015625 5.609375l0 9.484375q0 0.921875 0.828125 0.921875l0 1.6875q-0.1875 0.03125 -0.40625 0.046875q-0.203125 0.03125 -0.34375 0.03125q-0.75 0 -1.203125 -0.5q-0.4375 -0.515625 -0.515625 -1.21875l0 -1.609375q-1.34375 1.75 -3.4375 2.6875q-2.09375 0.9375 -4.515625 0.9375zm0.375 -1.5q2.171875 0 3.96875 -0.8125q1.8125 -0.828125 2.78125 -2.171875q0.609375 -0.78125 0.609375 -1.484375l0 -3.4375q-1.34375 -0.53125 -2.8125 -0.78125q-1.453125 -0.265625 -3.015625 -0.265625q-1.453125 0 -2.65625 0.328125q-1.1875 0.3125 -2.046875 0.875q-0.859375 0.546875 -1.328125 1.359375q-0.46875 0.796875 -0.46875 1.765625q0 0.96875 0.375 1.828125q0.375 0.859375 1.046875 1.484375q0.671875 0.609375 1.578125 0.96875q0.921875 0.34375 1.96875 0.34375zm24.076523 -16.609375q-2.609375 0.078125 -4.578125 1.5625q-1.953125 1.46875 -2.734375 4.046875l0 12.125l-1.875 0l0 -19.40625l1.796875 0l0 4.78125q1.015625 -2.0625 2.671875 -3.34375q1.65625 -1.296875 3.5625 -1.484375q0.375 -0.03125 0.671875 -0.03125q0.296875 0 0.484375 0l0 1.75zm11.541428 18.109375q-2.015625 0 -3.734375 -0.84375q-1.71875 -0.84375 -2.96875 -2.234375q-1.25 -1.40625 -1.953125 -3.21875q-0.6875 -1.8125 -0.6875 -3.75q0 -2.015625 0.671875 -3.84375q0.671875 -1.828125 1.859375 -3.203125q1.203125 -1.390625 2.828125 -2.203125q1.625 -0.828125 3.5625 -0.828125q1.28125 0 2.390625 0.375q1.125 0.375 2.09375 1.0q0.96875 0.609375 1.75 1.4375q0.78125 0.8125 1.34375 1.75l0 -12.0625l1.875 0l0 24.640625q0 0.921875 0.78125 0.921875l0 1.6875q-0.21875 0.03125 -0.375 0.046875q-0.15625 0.03125 -0.296875 0.03125q-0.75 0 -1.28125 -0.578125q-0.515625 -0.578125 -0.515625 -1.21875l0 -2.15625q-1.1875 1.9375 -3.1875 3.09375q-2.0 1.15625 -4.15625 1.15625zm0.328125 -1.6875q1.015625 0 2.171875 -0.40625q1.15625 -0.40625 2.140625 -1.125q0.984375 -0.734375 1.6875 -1.671875q0.71875 -0.9375 0.828125 -2.015625l0 -6.390625q-0.40625 -1.03125 -1.171875 -1.984375q-0.765625 -0.953125 -1.734375 -1.640625q-0.96875 -0.703125 -2.09375 -1.109375q-1.125 -0.40625 -2.15625 -0.40625q-1.6875 0 -3.078125 0.734375q-1.375 0.71875 -2.34375 1.890625q-0.96875 1.171875 -1.5 2.6875q-0.515625 1.515625 -0.515625 3.125q0 1.671875 0.59375 3.171875q0.609375 1.484375 1.671875 2.640625q1.0625 1.15625 2.453125 1.828125q1.40625 0.671875 3.046875 0.671875zm23.815842 -7.984375l0 -1.71875l10.75 0l0 1.71875l-10.75 0zm43.97087 7.578125l0 1.71875l-17.65625 0l0 -26.5l17.328125 0l0 1.71875l-15.421875 0l0 10.40625l13.46875 0l0 1.640625l-13.46875 0l0 11.015625l15.75 0zm4.782379 -25.53125l1.90625 0l0 23.40625q0 1.078125 0.609375 1.71875q0.625 0.625 1.703125 0.625q0.40625 0 0.984375 -0.09375q0.578125 -0.09375 1.0625 -0.265625l0.375 1.484375q-0.625 0.265625 -1.5625 0.421875q-0.9375 0.171875 -1.609375 0.171875q-1.5625 0 -2.515625 -0.953125q-0.953125 -0.953125 -0.953125 -2.546875l0 -23.96875zm15.261765 3.765625l-1.078125 -0.59375l2.203125 -3.171875l1.984375 0l-3.109375 3.765625zm4.328125 0l-1.109375 -0.59375l2.234375 -3.171875l1.984375 0l-3.109375 3.765625zm-1.9375 23.859375q-2.046875 0 -3.78125 -0.796875q-1.734375 -0.8125 -3.015625 -2.1875q-1.265625 -1.390625 -1.984375 -3.21875q-0.703125 -1.828125 -0.703125 -3.84375q0 -2.046875 0.734375 -3.875q0.734375 -1.828125 2.0 -3.203125q1.265625 -1.390625 3.0 -2.1875q1.734375 -0.8125 3.75 -0.8125q2.015625 0 3.734375 0.8125q1.71875 0.796875 3.0 2.1875q1.296875 1.375 2.015625 3.203125q0.734375 1.828125 0.734375 3.875q0 2.015625 -0.734375 3.84375q-0.71875 1.828125 -2.0 3.21875q-1.265625 1.375 -3.0 2.1875q-1.734375 0.796875 -3.75 0.796875zm-7.609375 -9.96875q0 1.71875 0.59375 3.234375q0.59375 1.5 1.625 2.625q1.03125 1.125 2.40625 1.78125q1.375 0.640625 2.953125 0.640625q1.5625 0 2.9375 -0.640625q1.390625 -0.65625 2.4375 -1.8125q1.046875 -1.15625 1.640625 -2.671875q0.59375 -1.515625 0.59375 -3.265625q0 -1.71875 -0.59375 -3.234375q-0.59375 -1.515625 -1.640625 -2.640625q-1.046875 -1.140625 -2.421875 -1.8125q-1.359375 -0.671875 -2.921875 -0.671875q-1.5625 0 -2.953125 0.671875q-1.375 0.671875 -2.40625 1.828125q-1.015625 1.15625 -1.640625 2.703125q-0.609375 1.546875 -0.609375 3.265625zm30.754578 -8.140625q-2.609375 0.078125 -4.578125 1.5625q-1.953125 1.46875 -2.734375 4.046875l0 12.125l-1.875 0l0 -19.40625l1.796875 0l0 4.78125q1.015625 -2.0625 2.671875 -3.34375q1.65625 -1.296875 3.5625 -1.484375q0.375 -0.03125 0.671875 -0.03125q0.296875 0 0.484375 0l0 1.75zm11.791412 18.109375q-2.046875 0 -3.8125 -0.796875q-1.75 -0.8125 -3.03125 -2.203125q-1.28125 -1.40625 -2.015625 -3.234375q-0.734375 -1.828125 -0.734375 -3.921875q0 -2.046875 0.734375 -3.859375q0.734375 -1.8125 2.0 -3.171875q1.265625 -1.359375 3.0 -2.140625q1.734375 -0.796875 3.75 -0.796875q2.0625 0 3.8125 0.8125q1.75 0.796875 3.015625 2.15625q1.28125 1.359375 1.984375 3.171875q0.703125 1.8125 0.703125 3.828125q0 0.1875 0 0.46875q0 0.28125 -0.03125 0.359375l-17.015625 0q0.109375 1.671875 0.78125 3.109375q0.671875 1.4375 1.6875 2.484375q1.03125 1.046875 2.375 1.640625q1.34375 0.59375 2.875 0.59375q1.015625 0 1.984375 -0.28125q0.96875 -0.28125 1.796875 -0.765625q0.84375 -0.484375 1.5 -1.171875q0.65625 -0.6875 1.03125 -1.515625l1.640625 0.453125q-0.40625 1.046875 -1.21875 1.921875q-0.796875 0.875 -1.859375 1.515625q-1.0625 0.625 -2.34375 0.984375q-1.265625 0.359375 -2.609375 0.359375zm7.625 -10.828125q-0.109375 -1.71875 -0.765625 -3.125q-0.65625 -1.421875 -1.6875 -2.453125q-1.03125 -1.03125 -2.375 -1.609375q-1.34375 -0.578125 -2.859375 -0.578125q-1.53125 0 -2.875 0.578125q-1.34375 0.578125 -2.375 1.609375q-1.03125 1.03125 -1.65625 2.46875q-0.609375 1.4375 -0.71875 3.109375l15.3125 0zm4.5436096 0.671875q0 -2.046875 0.703125 -3.875q0.71875 -1.828125 1.984375 -3.171875q1.28125 -1.34375 3.03125 -2.125q1.75 -0.796875 3.84375 -0.796875q2.65625 0 4.671875 1.203125q2.015625 1.1875 3.015625 3.3125l-1.828125 0.609375q-0.859375 -1.609375 -2.453125 -2.515625q-1.578125 -0.921875 -3.484375 -0.921875q-1.609375 0 -2.984375 0.640625q-1.375 0.625 -2.40625 1.75q-1.03125 1.109375 -1.625 2.625q-0.59375 1.515625 -0.59375 3.265625q0 1.75 0.609375 3.3125q0.625 1.546875 1.640625 2.6875q1.03125 1.125 2.421875 1.796875q1.40625 0.671875 2.984375 0.671875q1.0 0 1.984375 -0.296875q1.0 -0.296875 1.828125 -0.78125q0.84375 -0.484375 1.453125 -1.140625q0.625 -0.65625 0.84375 -1.359375l1.828125 0.515625q-0.359375 1.015625 -1.125 1.890625q-0.765625 0.875 -1.8125 1.515625q-1.046875 0.625 -2.328125 0.984375q-1.265625 0.359375 -2.609375 0.359375q-2.046875 0 -3.8125 -0.796875q-1.75 -0.8125 -3.03125 -2.203125q-1.28125 -1.40625 -2.015625 -3.234375q-0.734375 -1.828125 -0.734375 -3.921875zm27.859528 10.15625q-2.25 0 -4.3125 -0.75q-2.046875 -0.75 -3.578125 -2.234375l0.9375 -1.265625q1.578125 1.40625 3.25 2.078125q1.6875 0.671875 3.703125 0.671875q2.53125 0 4.078125 -1.0625q1.546875 -1.0625 1.546875 -2.96875q0 -0.890625 -0.390625 -1.5q-0.390625 -0.625 -1.171875 -1.046875q-0.78125 -0.4375 -1.9375 -0.765625q-1.15625 -0.34375 -2.6875 -0.71875q-1.640625 -0.375 -2.859375 -0.734375q-1.21875 -0.375 -2.0 -0.890625q-0.78125 -0.53125 -1.171875 -1.28125q-0.390625 -0.75 -0.390625 -1.90625q0 -1.453125 0.546875 -2.53125q0.5625 -1.09375 1.546875 -1.796875q1.0 -0.703125 2.28125 -1.0625q1.296875 -0.359375 2.75 -0.359375q2.28125 0 4.03125 0.765625q1.75 0.765625 2.71875 1.96875l-1.03125 1.0q-0.984375 -1.125 -2.53125 -1.671875q-1.546875 -0.5625 -3.296875 -0.5625q-1.078125 0 -2.03125 0.21875q-0.953125 0.21875 -1.671875 0.71875q-0.703125 0.484375 -1.125 1.25q-0.40625 0.765625 -0.40625 1.796875q0 0.859375 0.28125 1.390625q0.28125 0.515625 0.890625 0.890625q0.625 0.375 1.59375 0.65625q0.96875 0.28125 2.3125 0.609375q1.828125 0.453125 3.25 0.875q1.421875 0.40625 2.375 1.0q0.953125 0.59375 1.453125 1.421875q0.5 0.8125 0.5 2.078125q0 2.625 -2.03125 4.171875q-2.03125 1.546875 -5.421875 1.546875zm16.56427 0q-1.34375 0 -2.5 -0.46875q-1.15625 -0.46875 -2.03125 -1.265625q-0.875 -0.8125 -1.359375 -1.90625q-0.484375 -1.109375 -0.484375 -2.375q0 -1.265625 0.59375 -2.3125q0.59375 -1.046875 1.65625 -1.8125q1.0625 -0.765625 2.546875 -1.1875q1.5 -0.4375 3.296875 -0.4375q1.5625 0 3.140625 0.28125q1.59375 0.28125 2.875 0.765625l0 -1.90625q0 -2.75 -1.578125 -4.375q-1.5625 -1.625 -4.25 -1.625q-1.421875 0 -3.015625 0.59375q-1.578125 0.59375 -3.21875 1.71875l-0.703125 -1.265625q3.734375 -2.546875 7.09375 -2.546875q3.5 0 5.515625 2.046875q2.015625 2.03125 2.015625 5.609375l0 9.484375q0 0.921875 0.828125 0.921875l0 1.6875q-0.1875 0.03125 -0.40625 0.046875q-0.203125 0.03125 -0.34375 0.03125q-0.75 0 -1.203125 -0.5q-0.4375 -0.515625 -0.515625 -1.21875l0 -1.609375q-1.34375 1.75 -3.4375 2.6875q-2.09375 0.9375 -4.515625 0.9375zm0.375 -1.5q2.171875 0 3.96875 -0.8125q1.8125 -0.828125 2.78125 -2.171875q0.609375 -0.78125 0.609375 -1.484375l0 -3.4375q-1.34375 -0.53125 -2.8125 -0.78125q-1.453125 -0.265625 -3.015625 -0.265625q-1.453125 0 -2.65625 0.328125q-1.1875 0.3125 -2.046875 0.875q-0.859375 0.546875 -1.328125 1.359375q-0.46875 0.796875 -0.46875 1.765625q0 0.96875 0.375 1.828125q0.375 0.859375 1.046875 1.484375q0.671875 0.609375 1.578125 0.96875q0.921875 0.34375 1.96875 0.34375zm23.560913 0.1875q-0.15625 0.078125 -0.515625 0.28125q-0.34375 0.203125 -0.890625 0.390625q-0.546875 0.1875 -1.21875 0.328125q-0.671875 0.15625 -1.453125 0.15625q-0.78125 0 -1.46875 -0.21875q-0.6875 -0.21875 -1.21875 -0.671875q-0.515625 -0.453125 -0.8125 -1.078125q-0.296875 -0.640625 -0.296875 -1.5l0 -14.625l-2.734375 0l0 -1.53125l2.734375 0l0 -6.65625l1.859375 0l0 6.65625l4.515625 0l0 1.53125l-4.515625 0l0 14.171875q0 1.09375 0.75 1.640625q0.75 0.53125 1.671875 0.53125q1.15625 0 2.0 -0.390625q0.84375 -0.390625 1.03125 -0.5l0.5625 1.484375zm11.413788 1.3125q-2.046875 0 -3.78125 -0.796875q-1.734375 -0.8125 -3.015625 -2.1875q-1.265625 -1.390625 -1.984375 -3.21875q-0.703125 -1.828125 -0.703125 -3.84375q0 -2.046875 0.734375 -3.875q0.734375 -1.828125 2.0 -3.203125q1.265625 -1.390625 3.0 -2.1875q1.734375 -0.8125 3.75 -0.8125q2.015625 0 3.734375 0.8125q1.71875 0.796875 3.0 2.1875q1.296875 1.375 2.015625 3.203125q0.734375 1.828125 0.734375 3.875q0 2.015625 -0.734375 3.84375q-0.71875 1.828125 -2.0 3.21875q-1.265625 1.375 -3.0 2.1875q-1.734375 0.796875 -3.75 0.796875zm-7.609375 -9.96875q0 1.71875 0.59375 3.234375q0.59375 1.5 1.625 2.625q1.03125 1.125 2.40625 1.78125q1.375 0.640625 2.953125 0.640625q1.5625 0 2.9375 -0.640625q1.390625 -0.65625 2.4375 -1.8125q1.046875 -1.15625 1.640625 -2.671875q0.59375 -1.515625 0.59375 -3.265625q0 -1.71875 -0.59375 -3.234375q-0.59375 -1.515625 -1.640625 -2.640625q-1.046875 -1.140625 -2.421875 -1.8125q-1.359375 -0.671875 -2.921875 -0.671875q-1.5625 0 -2.953125 0.671875q-1.375 0.671875 -2.40625 1.828125q-1.015625 1.15625 -1.640625 2.703125q-0.609375 1.546875 -0.609375 3.265625zm21.723328 -17.65625l1.90625 0l0 23.40625q0 1.078125 0.609375 1.71875q0.625 0.625 1.703125 0.625q0.40625 0 0.984375 -0.09375q0.578125 -0.09375 1.0625 -0.265625l0.375 1.484375q-0.625 0.265625 -1.5625 0.421875q-0.9375 0.171875 -1.609375 0.171875q-1.5625 0 -2.515625 -0.953125q-0.953125 -0.953125 -0.953125 -2.546875l0 -23.96875zm14.292999 27.625q-1.34375 0 -2.5 -0.46875q-1.15625 -0.46875 -2.03125 -1.265625q-0.875 -0.8125 -1.359375 -1.90625q-0.484375 -1.109375 -0.484375 -2.375q0 -1.265625 0.59375 -2.3125q0.59375 -1.046875 1.65625 -1.8125q1.0625 -0.765625 2.546875 -1.1875q1.5 -0.4375 3.296875 -0.4375q1.5625 0 3.140625 0.28125q1.59375 0.28125 2.875 0.765625l0 -1.90625q0 -2.75 -1.578125 -4.375q-1.5625 -1.625 -4.25 -1.625q-1.421875 0 -3.015625 0.59375q-1.578125 0.59375 -3.21875 1.71875l-0.703125 -1.265625q3.734375 -2.546875 7.09375 -2.546875q3.5 0 5.515625 2.046875q2.015625 2.03125 2.015625 5.609375l0 9.484375q0 0.921875 0.828125 0.921875l0 1.6875q-0.1875 0.03125 -0.40625 0.046875q-0.203125 0.03125 -0.34375 0.03125q-0.75 0 -1.203125 -0.5q-0.4375 -0.515625 -0.515625 -1.21875l0 -1.609375q-1.34375 1.75 -3.4375 2.6875q-2.09375 0.9375 -4.515625 0.9375zm0.375 -1.5q2.171875 0 3.96875 -0.8125q1.8125 -0.828125 2.78125 -2.171875q0.609375 -0.78125 0.609375 -1.484375l0 -3.4375q-1.34375 -0.53125 -2.8125 -0.78125q-1.453125 -0.265625 -3.015625 -0.265625q-1.453125 0 -2.65625 0.328125q-1.1875 0.3125 -2.046875 0.875q-0.859375 0.546875 -1.328125 1.359375q-0.46875 0.796875 -0.46875 1.765625q0 0.96875 0.375 1.828125q0.375 0.859375 1.046875 1.484375q0.671875 0.609375 1.578125 0.96875q0.921875 0.34375 1.96875 0.34375zm1.640625 -22.359375l-1.296875 -0.59375l2.265625 -3.171875l2.171875 0l-3.140625 3.765625zm19.420288 23.859375q-2.25 0 -4.3125 -0.75q-2.046875 -0.75 -3.578125 -2.234375l0.9375 -1.265625q1.578125 1.40625 3.25 2.078125q1.6875 0.671875 3.703125 0.671875q2.53125 0 4.078125 -1.0625q1.546875 -1.0625 1.546875 -2.96875q0 -0.890625 -0.390625 -1.5q-0.390625 -0.625 -1.171875 -1.046875q-0.78125 -0.4375 -1.9375 -0.765625q-1.15625 -0.34375 -2.6875 -0.71875q-1.640625 -0.375 -2.859375 -0.734375q-1.21875 -0.375 -2.0 -0.890625q-0.78125 -0.53125 -1.171875 -1.28125q-0.390625 -0.75 -0.390625 -1.90625q0 -1.453125 0.546875 -2.53125q0.5625 -1.09375 1.546875 -1.796875q1.0 -0.703125 2.28125 -1.0625q1.296875 -0.359375 2.75 -0.359375q2.28125 0 4.03125 0.765625q1.75 0.765625 2.71875 1.96875l-1.03125 1.0q-0.984375 -1.125 -2.53125 -1.671875q-1.546875 -0.5625 -3.296875 -0.5625q-1.078125 0 -2.03125 0.21875q-0.953125 0.21875 -1.671875 0.71875q-0.703125 0.484375 -1.125 1.25q-0.40625 0.765625 -0.40625 1.796875q0 0.859375 0.28125 1.390625q0.28125 0.515625 0.890625 0.890625q0.625 0.375 1.59375 0.65625q0.96875 0.28125 2.3125 0.609375q1.828125 0.453125 3.25 0.875q1.421875 0.40625 2.375 1.0q0.953125 0.59375 1.453125 1.421875q0.5 0.8125 0.5 2.078125q0 2.625 -2.03125 4.171875q-2.03125 1.546875 -5.421875 1.546875z" fill-rule="nonzero"/><path fill="#000000" fill-opacity="0.0" d="m142.2493 181.1076l0 0c0 -14.159363 11.478424 -25.637787 25.637787 -25.637787l0 0c6.799576 0 13.320648 2.7011108 18.128662 7.50914c4.808014 4.808014 7.50914 11.329086 7.50914 18.128647l0 0c0 14.159363 -11.478439 25.637802 -25.637802 25.637802l0 0c-14.159363 0 -25.637787 -11.478439 -25.637787 -25.637802z" fill-rule="evenodd"/><path stroke="#cc0000" stroke-width="2.0" stroke-linejoin="round" stroke-linecap="butt" d="m142.2493 181.1076l0 0c0 -14.159363 11.478424 -25.637787 25.637787 -25.637787l0 0c6.799576 0 13.320648 2.7011108 18.128662 7.50914c4.808014 4.808014 7.50914 11.329086 7.50914 18.128647l0 0c0 14.159363 -11.478439 25.637802 -25.637802 25.637802l0 0c-14.159363 0 -25.637787 -11.478439 -25.637787 -25.637802z" fill-rule="evenodd"/><path fill="#000000" fill-opacity="0.0" d="m142.2493 246.09448l0 0c0 -14.159363 11.478424 -25.637787 25.637787 -25.637787l0 0c6.799576 0 13.320648 2.7011108 18.128662 7.50914c4.808014 4.808014 7.50914 11.329086 7.50914 18.128647l0 0c0 14.159363 -11.478439 25.637787 -25.637802 25.637787l0 0c-14.159363 0 -25.637787 -11.478424 -25.637787 -25.637787z" fill-rule="evenodd"/><path stroke="#cc0000" stroke-width="2.0" stroke-linejoin="round" stroke-linecap="butt" d="m142.2493 246.09448l0 0c0 -14.159363 11.478424 -25.637787 25.637787 -25.637787l0 0c6.799576 0 13.320648 2.7011108 18.128662 7.50914c4.808014 4.808014 7.50914 11.329086 7.50914 18.128647l0 0c0 14.159363 -11.478439 25.637787 -25.637802 25.637787l0 0c-14.159363 0 -25.637787 -11.478424 -25.637787 -25.637787z" fill-rule="evenodd"/><path fill="#000000" fill-opacity="0.0" d="m142.2493 311.08136l0 0c0 -14.159363 11.478424 -25.637787 25.637787 -25.637787l0 0c6.799576 0 13.320648 2.7011108 18.128662 7.5091248c4.808014 4.808014 7.50914 11.329102 7.50914 18.128662l0 0c0 14.159363 -11.478439 25.637787 -25.637802 25.637787l0 0c-14.159363 0 -25.637787 -11.478424 -25.637787 -25.637787z" fill-rule="evenodd"/><path stroke="#cc0000" stroke-width="2.0" stroke-linejoin="round" stroke-linecap="butt" d="m142.2493 311.08136l0 0c0 -14.159363 11.478424 -25.637787 25.637787 -25.637787l0 0c6.799576 0 13.320648 2.7011108 18.128662 7.5091248c4.808014 4.808014 7.50914 11.329102 7.50914 18.128662l0 0c0 14.159363 -11.478439 25.637787 -25.637802 25.637787l0 0c-14.159363 0 -25.637787 -11.478424 -25.637787 -25.637787z" fill-rule="evenodd"/><path fill="#000000" fill-opacity="0.0" d="m266.02094 181.1076l0 0c0 -14.159363 11.478455 -25.637787 25.637817 -25.637787l0 0c6.7995605 0 13.320618 2.7011108 18.128662 7.50914c4.808014 4.808014 7.5091248 11.329086 7.5091248 18.128647l0 0c0 14.159363 -11.478424 25.637802 -25.637787 25.637802l0 0c-14.159363 0 -25.637817 -11.478439 -25.637817 -25.637802z" fill-rule="evenodd"/><path stroke="#3c78d8" stroke-width="2.0" stroke-linejoin="round" stroke-linecap="butt" d="m266.02094 181.1076l0 0c0 -14.159363 11.478455 -25.637787 25.637817 -25.637787l0 0c6.7995605 0 13.320618 2.7011108 18.128662 7.50914c4.808014 4.808014 7.5091248 11.329086 7.5091248 18.128647l0 0c0 14.159363 -11.478424 25.637802 -25.637787 25.637802l0 0c-14.159363 0 -25.637817 -11.478439 -25.637817 -25.637802z" fill-rule="evenodd"/><path fill="#000000" fill-opacity="0.0" d="m266.02094 245.1076l0 0c0 -14.159363 11.478455 -25.637787 25.637817 -25.637787l0 0c6.7995605 0 13.320618 2.7011108 18.128662 7.50914c4.808014 4.808014 7.5091248 11.329086 7.5091248 18.128647l0 0c0 14.159363 -11.478424 25.637787 -25.637787 25.637787l0 0c-14.159363 0 -25.637817 -11.478424 -25.637817 -25.637787z" fill-rule="evenodd"/><path stroke="#3c78d8" stroke-width="2.0" stroke-linejoin="round" stroke-linecap="butt" d="m266.02094 245.1076l0 0c0 -14.159363 11.478455 -25.637787 25.637817 -25.637787l0 0c6.7995605 0 13.320618 2.7011108 18.128662 7.50914c4.808014 4.808014 7.5091248 11.329086 7.5091248 18.128647l0 0c0 14.159363 -11.478424 25.637787 -25.637787 25.637787l0 0c-14.159363 0 -25.637817 -11.478424 -25.637817 -25.637787z" fill-rule="evenodd"/><path fill="#000000" fill-opacity="0.0" d="m266.02094 309.1076l0 0c0 -14.159363 11.478455 -25.637787 25.637817 -25.637787l0 0c6.7995605 0 13.320618 2.7011108 18.128662 7.5091248c4.808014 4.808014 7.5091248 11.329102 7.5091248 18.128662l0 0c0 14.159363 -11.478424 25.637787 -25.637787 25.637787l0 0c-14.159363 0 -25.637817 -11.478424 -25.637817 -25.637787z" fill-rule="evenodd"/><path stroke="#3c78d8" stroke-width="2.0" stroke-linejoin="round" stroke-linecap="butt" d="m266.02094 309.1076l0 0c0 -14.159363 11.478455 -25.637787 25.637817 -25.637787l0 0c6.7995605 0 13.320618 2.7011108 18.128662 7.5091248c4.808014 4.808014 7.5091248 11.329102 7.5091248 18.128662l0 0c0 14.159363 -11.478424 25.637787 -25.637787 25.637787l0 0c-14.159363 0 -25.637817 -11.478424 -25.637817 -25.637787z" fill-rule="evenodd"/><path fill="#000000" fill-opacity="0.0" d="m266.02094 117.10761l0 0c0 -14.159363 11.478455 -25.637794 25.637817 -25.637794l0 0c6.7995605 0 13.320618 2.7011185 18.128662 7.5091324c4.808014 4.8080215 7.5091248 11.329094 7.5091248 18.128662l0 0c0 14.159355 -11.478424 25.637794 -25.637787 25.637794l0 0c-14.159363 0 -25.637817 -11.478439 -25.637817 -25.637794z" fill-rule="evenodd"/><path stroke="#3c78d8" stroke-width="2.0" stroke-linejoin="round" stroke-linecap="butt" d="m266.02094 117.10761l0 0c0 -14.159363 11.478455 -25.637794 25.637817 -25.637794l0 0c6.7995605 0 13.320618 2.7011185 18.128662 7.5091324c4.808014 4.8080215 7.5091248 11.329094 7.5091248 18.128662l0 0c0 14.159355 -11.478424 25.637794 -25.637787 25.637794l0 0c-14.159363 0 -25.637817 -11.478439 -25.637817 -25.637794z" fill-rule="evenodd"/><path fill="#000000" fill-opacity="0.0" d="m266.02094 373.1076l0 0c0 -14.159363 11.478455 -25.637787 25.637817 -25.637787l0 0c6.7995605 0 13.320618 2.7011108 18.128662 7.5091248c4.808014 4.808014 7.5091248 11.329102 7.5091248 18.128662l0 0c0 14.159363 -11.478424 25.637787 -25.637787 25.637787l0 0c-14.159363 0 -25.637817 -11.478424 -25.637817 -25.637787z" fill-rule="evenodd"/><path stroke="#3c78d8" stroke-width="2.0" stroke-linejoin="round" stroke-linecap="butt" d="m266.02094 373.1076l0 0c0 -14.159363 11.478455 -25.637787 25.637817 -25.637787l0 0c6.7995605 0 13.320618 2.7011108 18.128662 7.5091248c4.808014 4.808014 7.5091248 11.329102 7.5091248 18.128662l0 0c0 14.159363 -11.478424 25.637787 -25.637787 25.637787l0 0c-14.159363 0 -25.637817 -11.478424 -25.637817 -25.637787z" fill-rule="evenodd"/><path fill="#000000" fill-opacity="0.0" d="m113.99733 352.5643l107.779526 0l0 38.740173l-107.779526 0z" fill-rule="evenodd"/><path fill="#cc0000" d="m149.70082 370.0312l0 9.453125l-1.65625 0l0 -9.453125l1.65625 0zm0.375 -2.96875q0 0.25 -0.09375 0.46875q-0.09375 0.203125 -0.265625 0.375q-0.15625 0.15625 -0.375 0.25q-0.21875 0.09375 -0.453125 0.09375q-0.25 0 -0.46875 -0.09375q-0.203125 -0.09375 -0.359375 -0.25q-0.15625 -0.171875 -0.25 -0.375q-0.09375 -0.21875 -0.09375 -0.46875q0 -0.234375 0.09375 -0.453125q0.09375 -0.21875 0.25 -0.375q0.15625 -0.171875 0.359375 -0.265625q0.21875 -0.09375 0.46875 -0.09375q0.234375 0 0.453125 0.09375q0.21875 0.09375 0.375 0.265625q0.171875 0.15625 0.265625 0.375q0.09375 0.21875 0.09375 0.453125zm2.557251 12.421875l0 -9.453125l0.984375 0q0.359375 0 0.453125 0.34375l0.125 1.03125q0.625 -0.6875 1.375 -1.09375q0.765625 -0.421875 1.765625 -0.421875q0.78125 0 1.359375 0.265625q0.59375 0.25 0.984375 0.71875q0.40625 0.46875 0.609375 1.140625q0.203125 0.65625 0.203125 1.453125l0 6.015625l-1.65625 0l0 -6.015625q0 -1.078125 -0.5 -1.671875q-0.484375 -0.59375 -1.484375 -0.59375q-0.734375 0 -1.375 0.359375q-0.640625 0.359375 -1.1875 0.96875l0 6.953125l-1.65625 0zm10.372879 3.203125l0 -12.65625l0.984375 0q0.359375 0 0.453125 0.34375l0.140625 1.125q0.609375 -0.734375 1.390625 -1.1875q0.78125 -0.453125 1.796875 -0.453125q0.8125 0 1.46875 0.3125q0.65625 0.3125 1.125 0.9375q0.46875 0.609375 0.71875 1.515625q0.25 0.90625 0.25 2.078125q0 1.046875 -0.28125 1.953125q-0.28125 0.890625 -0.796875 1.546875q-0.515625 0.65625 -1.28125 1.03125q-0.765625 0.375 -1.71875 0.375q-0.875 0 -1.5 -0.28125q-0.609375 -0.296875 -1.09375 -0.828125l0 4.1875l-1.65625 0zm4.203125 -11.484375q-0.8125 0 -1.421875 0.375q-0.609375 0.375 -1.125 1.0625l0 4.5625q0.46875 0.625 1.015625 0.875q0.546875 0.25 1.21875 0.25q1.3125 0 2.015625 -0.9375q0.703125 -0.953125 0.703125 -2.6875q0 -0.921875 -0.15625 -1.578125q-0.15625 -0.671875 -0.46875 -1.09375q-0.3125 -0.421875 -0.765625 -0.625q-0.4375 -0.203125 -1.015625 -0.203125zm7.5326233 -1.171875l0 6.03125q0 1.078125 0.484375 1.671875q0.5 0.578125 1.5 0.578125q0.734375 0 1.375 -0.34375q0.640625 -0.34375 1.1875 -0.96875l0 -6.96875l1.65625 0l0 9.453125l-0.984375 0q-0.359375 0 -0.453125 -0.34375l-0.125 -1.015625q-0.625 0.671875 -1.390625 1.09375q-0.765625 0.421875 -1.75 0.421875q-0.765625 0 -1.359375 -0.25q-0.59375 -0.265625 -1.0 -0.734375q-0.390625 -0.46875 -0.59375 -1.125q-0.203125 -0.671875 -0.203125 -1.46875l0 -6.03125l1.65625 0zm11.794754 9.609375q-1.109375 0 -1.71875 -0.625q-0.59375 -0.625 -0.59375 -1.8125l0 -5.78125l-1.140625 0q-0.15625 0 -0.265625 -0.078125q-0.09375 -0.09375 -0.09375 -0.28125l0 -0.65625l1.546875 -0.203125l0.390625 -2.921875q0.015625 -0.140625 0.109375 -0.21875q0.109375 -0.09375 0.265625 -0.09375l0.84375 0l0 3.25l2.703125 0l0 1.203125l-2.703125 0l0 5.671875q0 0.59375 0.28125 0.890625q0.296875 0.28125 0.75 0.28125q0.265625 0 0.453125 -0.0625q0.203125 -0.078125 0.328125 -0.15625q0.140625 -0.078125 0.234375 -0.140625q0.109375 -0.078125 0.1875 -0.078125q0.125 0 0.234375 0.15625l0.484375 0.796875q-0.4375 0.390625 -1.046875 0.625q-0.59375 0.234375 -1.25 0.234375z" fill-rule="nonzero"/><path fill="#000000" fill-opacity="0.0" d="m193.52489 181.1076l72.50392 -63.999992" fill-rule="evenodd"/><path stroke="#595959" stroke-width="1.0" stroke-linejoin="round" stroke-linecap="butt" d="m193.52489 181.1076l69.93465 -61.73204" fill-rule="evenodd"/><path fill="#595959" stroke="#595959" stroke-width="1.0" stroke-linecap="butt" d="m263.45953 119.375565l-0.09890747 1.587326l1.5722046 -2.8878326l-3.0606384 1.2016144z" fill-rule="evenodd"/><path fill="#000000" fill-opacity="0.0" d="m193.51701 181.1076l72.50392 0" fill-rule="evenodd"/><path stroke="#595959" stroke-width="1.0" stroke-linejoin="round" stroke-linecap="butt" d="m193.51701 181.1076l69.07686 0" fill-rule="evenodd"/><path fill="#595959" stroke="#595959" stroke-width="1.0" stroke-linecap="butt" d="m262.59387 181.1076l-1.1245728 1.124588l3.0897522 -1.124588l-3.0897522 -1.1245728z" fill-rule="evenodd"/><path fill="#000000" fill-opacity="0.0" d="m193.52489 181.1076l72.50392 64.0" fill-rule="evenodd"/><path stroke="#595959" stroke-width="1.0" stroke-linejoin="round" stroke-linecap="butt" d="m193.52489 181.1076l69.93465 61.73207" fill-rule="evenodd"/><path fill="#595959" stroke="#595959" stroke-width="1.0" stroke-linecap="butt" d="m263.45953 242.83966l-1.5873413 0.09889221l3.0606384 1.2016144l-1.5722046 -2.8878326z" fill-rule="evenodd"/><path fill="#000000" fill-opacity="0.0" d="m193.52489 181.1076l72.50392 128.0" fill-rule="evenodd"/><path stroke="#595959" stroke-width="1.0" stroke-linejoin="round" stroke-linecap="butt" d="m193.52489 181.1076l70.814865 125.01807" fill-rule="evenodd"/><path fill="#595959" stroke="#595959" stroke-width="1.0" stroke-linecap="butt" d="m264.33975 306.12567l-1.5327759 -0.42425537l2.5013428 2.1341858l-0.5443115 -3.2427063z" fill-rule="evenodd"/><path fill="#000000" fill-opacity="0.0" d="m193.52489 181.1076l72.50392 192.0" fill-rule="evenodd"/><path stroke="#595959" stroke-width="1.0" stroke-linejoin="round" stroke-linecap="butt" d="m193.52489 181.1076l71.29323 188.79388" fill-rule="evenodd"/><path fill="#595959" stroke="#595959" stroke-width="1.0" stroke-linecap="butt" d="m264.8181 369.90152l-1.4493408 -0.65478516l2.1436157 2.493225l-0.039489746 -3.2878113z" fill-rule="evenodd"/><path fill="#000000" fill-opacity="0.0" d="m193.52489 246.09448l72.50392 -128.97638" fill-rule="evenodd"/><path stroke="#595959" stroke-width="1.0" stroke-linejoin="round" stroke-linecap="butt" d="m193.52489 246.09448l70.82457 -125.98896" fill-rule="evenodd"/><path fill="#595959" stroke="#595959" stroke-width="1.0" stroke-linecap="butt" d="m264.34946 120.10552l0.42922974 1.5313873l0.53378296 -3.2444534l-2.4943848 2.1422958z" fill-rule="evenodd"/><path fill="#000000" fill-opacity="0.0" d="m193.52489 246.09448l72.50392 -64.97638" fill-rule="evenodd"/><path stroke="#595959" stroke-width="1.0" stroke-linejoin="round" stroke-linecap="butt" d="m193.52489 246.09448l69.95177 -62.68918" fill-rule="evenodd"/><path fill="#595959" stroke="#595959" stroke-width="1.0" stroke-linecap="butt" d="m263.47665 183.40532l-0.08694458 1.5880127l1.5504456 -2.8995667l-3.0515137 1.2245941z" fill-rule="evenodd"/><path fill="#000000" fill-opacity="0.0" d="m193.52489 246.09448l72.50392 -0.9763794" fill-rule="evenodd"/><path stroke="#595959" stroke-width="1.0" stroke-linejoin="round" stroke-linecap="butt" d="m193.52489 246.09448l69.07716 -0.9302368" fill-rule="evenodd"/><path fill="#595959" stroke="#595959" stroke-width="1.0" stroke-linecap="butt" d="m262.60205 245.16426l-1.1093445 1.1396179l3.0743408 -1.1660767l-3.1046143 -1.0828857z" fill-rule="evenodd"/><path fill="#000000" fill-opacity="0.0" d="m193.52489 246.09448l72.50392 63.02362" fill-rule="evenodd"/><path stroke="#595959" stroke-width="1.0" stroke-linejoin="round" stroke-linecap="butt" d="m193.52489 246.09448l69.917435 60.77533" fill-rule="evenodd"/><path fill="#595959" stroke="#595959" stroke-width="1.0" stroke-linecap="butt" d="m263.44232 306.8698l-1.5865173 0.110961914l3.0697021 1.1782837l-1.5941772 -2.8757935z" fill-rule="evenodd"/><path fill="#000000" fill-opacity="0.0" d="m193.52489 246.09448l72.50392 127.02362" fill-rule="evenodd"/><path stroke="#595959" stroke-width="1.0" stroke-linejoin="round" stroke-linecap="butt" d="m193.52489 246.09448l70.80507 124.04724" fill-rule="evenodd"/><path fill="#595959" stroke="#595959" stroke-width="1.0" stroke-linecap="butt" d="m264.32996 370.14175l-1.5341797 -0.41921997l2.5083618 2.125946l-0.5549927 -3.2409058z" fill-rule="evenodd"/><path fill="#000000" fill-opacity="0.0" d="m193.52489 311.08136l72.50392 62.015747" fill-rule="evenodd"/><path stroke="#595959" stroke-width="1.0" stroke-linejoin="round" stroke-linecap="butt" d="m193.52489 311.08136l69.89958 59.788147" fill-rule="evenodd"/><path fill="#595959" stroke="#595959" stroke-width="1.0" stroke-linecap="butt" d="m263.42447 370.8695l-1.5855713 0.12362671l3.0789795 1.1537476l-1.6170349 -2.862976z" fill-rule="evenodd"/><path fill="#000000" fill-opacity="0.0" d="m193.52489 311.08136l72.50392 -1.9842529" fill-rule="evenodd"/><path stroke="#595959" stroke-width="1.0" stroke-linejoin="round" stroke-linecap="butt" d="m193.52489 311.08136l69.07814 -1.8905029" fill-rule="evenodd"/><path fill="#595959" stroke="#595959" stroke-width="1.0" stroke-linecap="butt" d="m262.60303 309.19086l-1.0933838 1.1549377l3.0578308 -1.2086792l-3.1193848 -1.0396423z" fill-rule="evenodd"/><path fill="#000000" fill-opacity="0.0" d="m193.52489 311.08136l72.50392 -65.98425" fill-rule="evenodd"/><path stroke="#595959" stroke-width="1.0" stroke-linejoin="round" stroke-linecap="butt" d="m193.52489 311.08136l69.969345 -63.677567" fill-rule="evenodd"/><path fill="#595959" stroke="#595959" stroke-width="1.0" stroke-linecap="butt" d="m263.49423 247.4038l-0.074798584 1.5886383l1.5281982 -2.9113464l-3.0420227 1.2479095z" fill-rule="evenodd"/><path fill="#000000" fill-opacity="0.0" d="m193.52489 311.08136l72.50392 -129.98425" fill-rule="evenodd"/><path stroke="#595959" stroke-width="1.0" stroke-linejoin="round" stroke-linecap="butt" d="m193.52489 311.08136l70.83449 -126.99129" fill-rule="evenodd"/><path fill="#595959" stroke="#595959" stroke-width="1.0" stroke-linecap="butt" d="m264.35938 184.09009l0.43432617 1.529953l0.52297974 -3.2462158l-2.4872437 2.1505585z" fill-rule="evenodd"/><path fill="#000000" fill-opacity="0.0" d="m193.52489 311.08136l72.50392 -193.98425" fill-rule="evenodd"/><path stroke="#595959" stroke-width="1.0" stroke-linejoin="round" stroke-linecap="butt" d="m193.52489 311.08136l71.30409 -190.77405" fill-rule="evenodd"/><path fill="#595959" stroke="#595959" stroke-width="1.0" stroke-linecap="butt" d="m264.82898 120.3073l0.6596985 1.4471359l0.028320312 -3.287941l-2.1351318 2.5004883z" fill-rule="evenodd"/><path fill="#000000" fill-opacity="0.0" d="m666.24677 180.94366l0 0c0 -14.159363 11.478455 -25.637787 25.637817 -25.637787l0 0c6.7995605 0 13.320618 2.7011108 18.128662 7.5091248c4.8079834 4.808029 7.509094 11.329102 7.509094 18.128662l0 0c0 14.159363 -11.478394 25.637802 -25.637756 25.637802l0 0c-14.159363 0 -25.637817 -11.478439 -25.637817 -25.637802z" fill-rule="evenodd"/><path stroke="#3c78d8" stroke-width="2.0" stroke-linejoin="round" stroke-linecap="butt" d="m666.24677 180.94366l0 0c0 -14.159363 11.478455 -25.637787 25.637817 -25.637787l0 0c6.7995605 0 13.320618 2.7011108 18.128662 7.5091248c4.8079834 4.808029 7.509094 11.329102 7.509094 18.128662l0 0c0 14.159363 -11.478394 25.637802 -25.637756 25.637802l0 0c-14.159363 0 -25.637817 -11.478439 -25.637817 -25.637802z" fill-rule="evenodd"/><path fill="#000000" fill-opacity="0.0" d="m666.24677 244.94366l0 0c0 -14.159363 11.478455 -25.637787 25.637817 -25.637787l0 0c6.7995605 0 13.320618 2.7011108 18.128662 7.5091248c4.8079834 4.808029 7.509094 11.329102 7.509094 18.128662l0 0c0 14.159363 -11.478394 25.637787 -25.637756 25.637787l0 0c-14.159363 0 -25.637817 -11.478424 -25.637817 -25.637787z" fill-rule="evenodd"/><path stroke="#3c78d8" stroke-width="2.0" stroke-linejoin="round" stroke-linecap="butt" d="m666.24677 244.94366l0 0c0 -14.159363 11.478455 -25.637787 25.637817 -25.637787l0 0c6.7995605 0 13.320618 2.7011108 18.128662 7.5091248c4.8079834 4.808029 7.509094 11.329102 7.509094 18.128662l0 0c0 14.159363 -11.478394 25.637787 -25.637756 25.637787l0 0c-14.159363 0 -25.637817 -11.478424 -25.637817 -25.637787z" fill-rule="evenodd"/><path fill="#000000" fill-opacity="0.0" d="m666.24677 308.94366l0 0c0 -14.159363 11.478455 -25.637787 25.637817 -25.637787l0 0c6.7995605 0 13.320618 2.7011108 18.128662 7.5091248c4.8079834 4.808014 7.509094 11.329102 7.509094 18.128662l0 0c0 14.159363 -11.478394 25.637787 -25.637756 25.637787l0 0c-14.159363 0 -25.637817 -11.478424 -25.637817 -25.637787z" fill-rule="evenodd"/><path stroke="#3c78d8" stroke-width="2.0" stroke-linejoin="round" stroke-linecap="butt" d="m666.24677 308.94366l0 0c0 -14.159363 11.478455 -25.637787 25.637817 -25.637787l0 0c6.7995605 0 13.320618 2.7011108 18.128662 7.5091248c4.8079834 4.808014 7.509094 11.329102 7.509094 18.128662l0 0c0 14.159363 -11.478394 25.637787 -25.637756 25.637787l0 0c-14.159363 0 -25.637817 -11.478424 -25.637817 -25.637787z" fill-rule="evenodd"/><path fill="#000000" fill-opacity="0.0" d="m666.24677 116.943665l0 0c0 -14.159363 11.478455 -25.637794 25.637817 -25.637794l0 0c6.7995605 0 13.320618 2.7011185 18.128662 7.50914c4.8079834 4.8080215 7.509094 11.329094 7.509094 18.128654l0 0c0 14.159363 -11.478394 25.637802 -25.637756 25.637802l0 0c-14.159363 0 -25.637817 -11.478439 -25.637817 -25.637802z" fill-rule="evenodd"/><path stroke="#3c78d8" stroke-width="2.0" stroke-linejoin="round" stroke-linecap="butt" d="m666.24677 116.943665l0 0c0 -14.159363 11.478455 -25.637794 25.637817 -25.637794l0 0c6.7995605 0 13.320618 2.7011185 18.128662 7.50914c4.8079834 4.8080215 7.509094 11.329094 7.509094 18.128654l0 0c0 14.159363 -11.478394 25.637802 -25.637756 25.637802l0 0c-14.159363 0 -25.637817 -11.478439 -25.637817 -25.637802z" fill-rule="evenodd"/><path fill="#000000" fill-opacity="0.0" d="m666.24677 372.94366l0 0c0 -14.159363 11.478455 -25.637787 25.637817 -25.637787l0 0c6.7995605 0 13.320618 2.7011108 18.128662 7.5091248c4.8079834 4.808014 7.509094 11.329102 7.509094 18.128662l0 0c0 14.159363 -11.478394 25.637787 -25.637756 25.637787l0 0c-14.159363 0 -25.637817 -11.478424 -25.637817 -25.637787z" fill-rule="evenodd"/><path stroke="#3c78d8" stroke-width="2.0" stroke-linejoin="round" stroke-linecap="butt" d="m666.24677 372.94366l0 0c0 -14.159363 11.478455 -25.637787 25.637817 -25.637787l0 0c6.7995605 0 13.320618 2.7011108 18.128662 7.5091248c4.8079834 4.808014 7.509094 11.329102 7.509094 18.128662l0 0c0 14.159363 -11.478394 25.637787 -25.637756 25.637787l0 0c-14.159363 0 -25.637817 -11.478424 -25.637817 -25.637787z" fill-rule="evenodd"/><path fill="#000000" fill-opacity="0.0" d="m790.01843 179.95679l0 0c0 -14.159363 11.478394 -25.637787 25.637756 -25.637787l0 0c6.7996216 0 13.320679 2.7011108 18.128662 7.5091248c4.8080444 4.808029 7.5091553 11.329102 7.5091553 18.128662l0 0c0 14.159363 -11.478455 25.637802 -25.637817 25.637802l0 0c-14.159363 0 -25.637756 -11.478439 -25.637756 -25.637802z" fill-rule="evenodd"/><path stroke="#6aa84f" stroke-width="2.0" stroke-linejoin="round" stroke-linecap="butt" d="m790.01843 179.95679l0 0c0 -14.159363 11.478394 -25.637787 25.637756 -25.637787l0 0c6.7996216 0 13.320679 2.7011108 18.128662 7.5091248c4.8080444 4.808029 7.5091553 11.329102 7.5091553 18.128662l0 0c0 14.159363 -11.478455 25.637802 -25.637817 25.637802l0 0c-14.159363 0 -25.637756 -11.478439 -25.637756 -25.637802z" fill-rule="evenodd"/><path fill="#000000" fill-opacity="0.0" d="m790.01843 244.94366l0 0c0 -14.159363 11.478394 -25.637787 25.637756 -25.637787l0 0c6.7996216 0 13.320679 2.7011108 18.128662 7.5091248c4.8080444 4.808029 7.5091553 11.329102 7.5091553 18.128662l0 0c0 14.159363 -11.478455 25.637787 -25.637817 25.637787l0 0c-14.159363 0 -25.637756 -11.478424 -25.637756 -25.637787z" fill-rule="evenodd"/><path stroke="#6aa84f" stroke-width="2.0" stroke-linejoin="round" stroke-linecap="butt" d="m790.01843 244.94366l0 0c0 -14.159363 11.478394 -25.637787 25.637756 -25.637787l0 0c6.7996216 0 13.320679 2.7011108 18.128662 7.5091248c4.8080444 4.808029 7.5091553 11.329102 7.5091553 18.128662l0 0c0 14.159363 -11.478455 25.637787 -25.637817 25.637787l0 0c-14.159363 0 -25.637756 -11.478424 -25.637756 -25.637787z" fill-rule="evenodd"/><path fill="#000000" fill-opacity="0.0" d="m790.01843 309.93054l0 0c0 -14.159363 11.478394 -25.637787 25.637756 -25.637787l0 0c6.7996216 0 13.320679 2.7011108 18.128662 7.5091248c4.8080444 4.808014 7.5091553 11.329102 7.5091553 18.128662l0 0c0 14.159363 -11.478455 25.637787 -25.637817 25.637787l0 0c-14.159363 0 -25.637756 -11.478424 -25.637756 -25.637787z" fill-rule="evenodd"/><path stroke="#6aa84f" stroke-width="2.0" stroke-linejoin="round" stroke-linecap="butt" d="m790.01843 309.93054l0 0c0 -14.159363 11.478394 -25.637787 25.637756 -25.637787l0 0c6.7996216 0 13.320679 2.7011108 18.128662 7.5091248c4.8080444 4.808014 7.5091553 11.329102 7.5091553 18.128662l0 0c0 14.159363 -11.478455 25.637787 -25.637817 25.637787l0 0c-14.159363 0 -25.637756 -11.478424 -25.637756 -25.637787z" fill-rule="evenodd"/><path fill="#000000" fill-opacity="0.0" d="m717.52234 116.943665l72.50397 63.02362" fill-rule="evenodd"/><path stroke="#595959" stroke-width="1.0" stroke-linejoin="round" stroke-linecap="butt" d="m717.5224 116.94367l69.91742 60.775322" fill-rule="evenodd"/><path fill="#595959" stroke="#595959" stroke-width="1.0" stroke-linecap="butt" d="m787.4398 177.71898l-1.5865479 0.11099243l3.0697021 1.1782532l-1.5941162 -2.875763z" fill-rule="evenodd"/><path fill="#000000" fill-opacity="0.0" d="m717.52234 116.943665l72.50397 128.0" fill-rule="evenodd"/><path stroke="#595959" stroke-width="1.0" stroke-linejoin="round" stroke-linecap="butt" d="m717.5224 116.94367l70.81488 125.01806" fill-rule="evenodd"/><path fill="#595959" stroke="#595959" stroke-width="1.0" stroke-linecap="butt" d="m788.3373 241.96173l-1.5327759 -0.4242401l2.5012817 2.1341705l-0.5443115 -3.242691z" fill-rule="evenodd"/><path fill="#000000" fill-opacity="0.0" d="m717.52234 116.943665l72.50397 192.97638" fill-rule="evenodd"/><path stroke="#595959" stroke-width="1.0" stroke-linejoin="round" stroke-linecap="butt" d="m717.5224 116.94367l71.298645 189.76825" fill-rule="evenodd"/><path fill="#595959" stroke="#595959" stroke-width="1.0" stroke-linecap="butt" d="m788.821 306.7119l-1.4482422 -0.65719604l2.1394043 2.4968262l-0.033935547 -3.2878723z" fill-rule="evenodd"/><path fill="#000000" fill-opacity="0.0" d="m717.51447 180.93317l72.50397 -0.9763794" fill-rule="evenodd"/><path stroke="#595959" stroke-width="1.0" stroke-linejoin="round" stroke-linecap="butt" d="m717.5145 180.93317l69.07715 -0.9302368" fill-rule="evenodd"/><path fill="#595959" stroke="#595959" stroke-width="1.0" stroke-linecap="butt" d="m786.5917 180.00294l-1.109314 1.1396179l3.0743408 -1.1660767l-3.1046753 -1.0828857z" fill-rule="evenodd"/><path fill="#000000" fill-opacity="0.0" d="m717.52234 180.94366l72.50397 64.0" fill-rule="evenodd"/><path stroke="#595959" stroke-width="1.0" stroke-linejoin="round" stroke-linecap="butt" d="m717.5224 180.94366l69.93463 61.73207" fill-rule="evenodd"/><path fill="#595959" stroke="#595959" stroke-width="1.0" stroke-linecap="butt" d="m787.45703 242.67572l-1.5873413 0.09889221l3.060669 1.2016144l-1.5722046 -2.8878326z" fill-rule="evenodd"/><path fill="#000000" fill-opacity="0.0" d="m717.52234 180.94366l72.50397 128.97638" fill-rule="evenodd"/><path stroke="#595959" stroke-width="1.0" stroke-linejoin="round" stroke-linecap="butt" d="m717.5224 180.94366l70.824524 125.98898" fill-rule="evenodd"/><path fill="#595959" stroke="#595959" stroke-width="1.0" stroke-linecap="butt" d="m788.347 306.93265l-1.5314331 -0.42922974l2.4943848 2.142273l-0.53375244 -3.2444458z" fill-rule="evenodd"/><path fill="#000000" fill-opacity="0.0" d="m717.52234 244.94366l72.50397 -64.97638" fill-rule="evenodd"/><path stroke="#595959" stroke-width="1.0" stroke-linejoin="round" stroke-linecap="butt" d="m717.5224 244.94366l69.95178 -62.68918" fill-rule="evenodd"/><path fill="#595959" stroke="#595959" stroke-width="1.0" stroke-linecap="butt" d="m787.4741 182.2545l-0.08691406 1.5880127l1.550415 -2.8995667l-3.0515137 1.2245941z" fill-rule="evenodd"/><path fill="#000000" fill-opacity="0.0" d="m717.52234 244.94366l72.50397 0" fill-rule="evenodd"/><path stroke="#595959" stroke-width="1.0" stroke-linejoin="round" stroke-linecap="butt" d="m717.5224 244.94366l69.07684 0" fill-rule="evenodd"/><path fill="#595959" stroke="#595959" stroke-width="1.0" stroke-linecap="butt" d="m786.59924 244.94366l-1.1245728 1.124588l3.0897827 -1.124588l-3.0897827 -1.1245728z" fill-rule="evenodd"/><path fill="#000000" fill-opacity="0.0" d="m717.52234 244.94366l72.50397 64.97638" fill-rule="evenodd"/><path stroke="#595959" stroke-width="1.0" stroke-linejoin="round" stroke-linecap="butt" d="m717.5224 244.94366l69.95178 62.68918" fill-rule="evenodd"/><path fill="#595959" stroke="#595959" stroke-width="1.0" stroke-linecap="butt" d="m787.4741 307.63284l-1.5880127 0.08694458l3.0515137 1.2246094l-1.550415 -2.8995667z" fill-rule="evenodd"/><path fill="#000000" fill-opacity="0.0" d="m717.52234 308.94366l72.50397 -128.97638" fill-rule="evenodd"/><path stroke="#595959" stroke-width="1.0" stroke-linejoin="round" stroke-linecap="butt" d="m717.5224 308.94366l70.824524 -125.98897" fill-rule="evenodd"/><path fill="#595959" stroke="#595959" stroke-width="1.0" stroke-linecap="butt" d="m788.347 182.95471l0.42919922 1.5313873l0.53375244 -3.244461l-2.4943848 2.1423035z" fill-rule="evenodd"/><path fill="#000000" fill-opacity="0.0" d="m717.52234 308.94366l72.50397 -64.0" fill-rule="evenodd"/><path stroke="#595959" stroke-width="1.0" stroke-linejoin="round" stroke-linecap="butt" d="m717.5224 308.94366l69.93463 -61.732056" fill-rule="evenodd"/><path fill="#595959" stroke="#595959" stroke-width="1.0" stroke-linecap="butt" d="m787.45703 247.21162l-0.09887695 1.587326l1.5722046 -2.8878326l-3.060669 1.2016144z" fill-rule="evenodd"/><path fill="#000000" fill-opacity="0.0" d="m717.52234 308.94366l72.50397 0.9763794" fill-rule="evenodd"/><path stroke="#595959" stroke-width="1.0" stroke-linejoin="round" stroke-linecap="butt" d="m717.5224 308.94366l69.07715 0.9302368" fill-rule="evenodd"/><path fill="#595959" stroke="#595959" stroke-width="1.0" stroke-linecap="butt" d="m786.59955 309.8739l-1.1396484 1.1093445l3.1046753 -1.0828857l-3.0743408 -1.1660767z" fill-rule="evenodd"/><path fill="#000000" fill-opacity="0.0" d="m717.52234 372.94366l72.50397 -192.97638" fill-rule="evenodd"/><path stroke="#595959" stroke-width="1.0" stroke-linejoin="round" stroke-linecap="butt" d="m717.5224 372.94366l71.298645 -189.76825" fill-rule="evenodd"/><path fill="#595959" stroke="#595959" stroke-width="1.0" stroke-linecap="butt" d="m788.821 183.17542l0.65722656 1.4482727l0.033935547 -3.2878876l-2.1394043 2.4968262z" fill-rule="evenodd"/><path fill="#000000" fill-opacity="0.0" d="m717.52234 372.94366l72.50397 -128.0" fill-rule="evenodd"/><path stroke="#595959" stroke-width="1.0" stroke-linejoin="round" stroke-linecap="butt" d="m717.5224 372.94366l70.81488 -125.01805" fill-rule="evenodd"/><path fill="#595959" stroke="#595959" stroke-width="1.0" stroke-linecap="butt" d="m788.3373 247.92561l0.42419434 1.5327606l0.5443115 -3.242691l-2.5012817 2.1341705z" fill-rule="evenodd"/><path fill="#000000" fill-opacity="0.0" d="m717.52234 372.94366l72.50397 -63.02362" fill-rule="evenodd"/><path stroke="#595959" stroke-width="1.0" stroke-linejoin="round" stroke-linecap="butt" d="m717.5224 372.94366l69.91742 -60.77533" fill-rule="evenodd"/><path fill="#595959" stroke="#595959" stroke-width="1.0" stroke-linecap="butt" d="m787.4398 312.16837l-0.110961914 1.5865173l1.5941162 -2.875763l-3.0697021 1.1782532z" fill-rule="evenodd"/><path fill="#000000" fill-opacity="0.0" d="m762.22314 352.40036l107.77954 0l0 38.740173l-107.77954 0z" fill-rule="evenodd"/><path fill="#6aa84f" d="m793.6332 369.72662q1.03125 0 1.859375 0.34375q0.84375 0.34375 1.421875 0.984375q0.59375 0.625 0.90625 1.53125q0.3125 0.890625 0.3125 2.0q0 1.125 -0.3125 2.03125q-0.3125 0.890625 -0.90625 1.53125q-0.578125 0.625 -1.421875 0.96875q-0.828125 0.328125 -1.859375 0.328125q-1.03125 0 -1.875 -0.328125q-0.828125 -0.34375 -1.421875 -0.96875q-0.578125 -0.640625 -0.90625 -1.53125q-0.3125 -0.90625 -0.3125 -2.03125q0 -1.109375 0.3125 -2.0q0.328125 -0.90625 0.90625 -1.53125q0.59375 -0.640625 1.421875 -0.984375q0.84375 -0.34375 1.875 -0.34375zm0 8.421875q1.390625 0 2.078125 -0.9375q0.703125 -0.9375 0.703125 -2.609375q0 -1.6875 -0.703125 -2.625q-0.6875 -0.953125 -2.078125 -0.953125q-0.703125 0 -1.234375 0.25q-0.515625 0.234375 -0.875 0.703125q-0.34375 0.453125 -0.515625 1.125q-0.171875 0.65625 -0.171875 1.5q0 0.84375 0.171875 1.5q0.171875 0.65625 0.515625 1.109375q0.359375 0.453125 0.875 0.703125q0.53125 0.234375 1.234375 0.234375zm7.982239 -8.28125l0 6.03125q0 1.078125 0.484375 1.671875q0.5 0.578125 1.5 0.578125q0.734375 0 1.375 -0.34375q0.640625 -0.34375 1.1875 -0.96875l0 -6.96875l1.65625 0l0 9.453125l-0.984375 0q-0.359375 0 -0.453125 -0.34375l-0.125 -1.015625q-0.625 0.671875 -1.390625 1.09375q-0.765625 0.421875 -1.75 0.421875q-0.765625 0 -1.359375 -0.25q-0.59375 -0.265625 -1.0 -0.734375q-0.390625 -0.46875 -0.59375 -1.125q-0.203125 -0.671875 -0.203125 -1.46875l0 -6.03125l1.65625 0zm11.7948 9.609375q-1.109375 0 -1.71875 -0.625q-0.59375 -0.625 -0.59375 -1.8125l0 -5.78125l-1.140625 0q-0.15625 0 -0.265625 -0.078125q-0.09375 -0.09375 -0.09375 -0.28125l0 -0.65625l1.546875 -0.203125l0.390625 -2.921875q0.015625 -0.140625 0.109375 -0.21875q0.109375 -0.09375 0.265625 -0.09375l0.84375 0l0 3.25l2.703125 0l0 1.203125l-2.703125 0l0 5.671875q0 0.59375 0.28125 0.890625q0.296875 0.28125 0.75 0.28125q0.265625 0 0.453125 -0.0625q0.203125 -0.078125 0.328125 -0.15625q0.140625 -0.078125 0.234375 -0.140625q0.109375 -0.078125 0.1875 -0.078125q0.125 0 0.234375 0.15625l0.484375 0.796875q-0.4375 0.390625 -1.046875 0.625q-0.59375 0.234375 -1.25 0.234375zm4.099365 3.046875l0 -12.65625l0.984375 0q0.359375 0 0.453125 0.34375l0.140625 1.125q0.609375 -0.734375 1.390625 -1.1875q0.78125 -0.453125 1.796875 -0.453125q0.8125 0 1.46875 0.3125q0.65625 0.3125 1.125 0.9375q0.46875 0.609375 0.71875 1.515625q0.25 0.90625 0.25 2.078125q0 1.046875 -0.28125 1.953125q-0.28125 0.890625 -0.796875 1.546875q-0.515625 0.65625 -1.28125 1.03125q-0.765625 0.375 -1.71875 0.375q-0.875 0 -1.5 -0.28125q-0.609375 -0.296875 -1.09375 -0.828125l0 4.1875l-1.65625 0zm4.203125 -11.484375q-0.8125 0 -1.421875 0.375q-0.609375 0.375 -1.125 1.0625l0 4.5625q0.46875 0.625 1.015625 0.875q0.546875 0.25 1.21875 0.25q1.3125 0 2.015625 -0.9375q0.703125 -0.953125 0.703125 -2.6875q0 -0.921875 -0.15625 -1.578125q-0.15625 -0.671875 -0.46875 -1.09375q-0.3125 -0.421875 -0.765625 -0.625q-0.4375 -0.203125 -1.015625 -0.203125zm7.532654 -1.171875l0 6.03125q0 1.078125 0.484375 1.671875q0.5 0.578125 1.5 0.578125q0.734375 0 1.375 -0.34375q0.640625 -0.34375 1.1875 -0.96875l0 -6.96875l1.65625 0l0 9.453125l-0.984375 0q-0.359375 0 -0.453125 -0.34375l-0.125 -1.015625q-0.625 0.671875 -1.390625 1.09375q-0.765625 0.421875 -1.75 0.421875q-0.765625 0 -1.359375 -0.25q-0.59375 -0.265625 -1.0 -0.734375q-0.390625 -0.46875 -0.59375 -1.125q-0.203125 -0.671875 -0.203125 -1.46875l0 -6.03125l1.65625 0zm11.794739 9.609375q-1.109375 0 -1.71875 -0.625q-0.59375 -0.625 -0.59375 -1.8125l0 -5.78125l-1.140625 0q-0.15625 0 -0.265625 -0.078125q-0.09375 -0.09375 -0.09375 -0.28125l0 -0.65625l1.546875 -0.203125l0.390625 -2.921875q0.015625 -0.140625 0.109375 -0.21875q0.109375 -0.09375 0.265625 -0.09375l0.84375 0l0 3.25l2.703125 0l0 1.203125l-2.703125 0l0 5.671875q0 0.59375 0.28125 0.890625q0.296875 0.28125 0.75 0.28125q0.265625 0 0.453125 -0.0625q0.203125 -0.078125 0.328125 -0.15625q0.140625 -0.078125 0.234375 -0.140625q0.109375 -0.078125 0.1875 -0.078125q0.125 0 0.234375 0.15625l0.484375 0.796875q-0.4375 0.390625 -1.046875 0.625q-0.59375 0.234375 -1.25 0.234375z" fill-rule="nonzero"/><path fill="#000000" fill-opacity="0.0" d="m317.29654 117.10761l348.94485 -0.15747833" fill-rule="evenodd"/><path stroke="#595959" stroke-width="1.0" stroke-linejoin="round" stroke-linecap="butt" stroke-dasharray="1.0,3.0" d="m317.29654 117.10761l342.94492 -0.15477753" fill-rule="evenodd"/><path fill="#595959" stroke="#595959" stroke-width="1.0" stroke-linecap="butt" d="m660.2422 118.60457l4.5373535 -1.6537781l-4.5388794 -1.6496811z" fill-rule="evenodd"/><path fill="#000000" fill-opacity="0.0" d="m317.29654 181.1076l348.94485 -0.1574707" fill-rule="evenodd"/><path stroke="#595959" stroke-width="1.0" stroke-linejoin="round" stroke-linecap="butt" stroke-dasharray="1.0,3.0" d="m317.29654 181.1076l342.94492 -0.1547699" fill-rule="evenodd"/><path fill="#595959" stroke="#595959" stroke-width="1.0" stroke-linecap="butt" d="m660.2422 182.60457l4.5373535 -1.6537781l-4.5388794 -1.6496887z" fill-rule="evenodd"/><path fill="#000000" fill-opacity="0.0" d="m317.29654 245.1076l348.94485 -0.1574707" fill-rule="evenodd"/><path stroke="#595959" stroke-width="1.0" stroke-linejoin="round" stroke-linecap="butt" stroke-dasharray="1.0,3.0" d="m317.29654 245.1076l342.94492 -0.1547699" fill-rule="evenodd"/><path fill="#595959" stroke="#595959" stroke-width="1.0" stroke-linecap="butt" d="m660.2422 246.60457l4.5373535 -1.6537781l-4.5388794 -1.6496887z" fill-rule="evenodd"/><path fill="#000000" fill-opacity="0.0" d="m317.29654 309.1076l348.94485 -0.1574707" fill-rule="evenodd"/><path stroke="#595959" stroke-width="1.0" stroke-linejoin="round" stroke-linecap="butt" stroke-dasharray="1.0,3.0" d="m317.29654 309.1076l342.94492 -0.15475464" fill-rule="evenodd"/><path fill="#595959" stroke="#595959" stroke-width="1.0" stroke-linecap="butt" d="m660.2422 310.60458l4.5373535 -1.6537781l-4.5388794 -1.6496887z" fill-rule="evenodd"/><path fill="#000000" fill-opacity="0.0" d="m317.29654 373.1076l348.94485 -0.1574707" fill-rule="evenodd"/><path stroke="#595959" stroke-width="1.0" stroke-linejoin="round" stroke-linecap="butt" stroke-dasharray="1.0,3.0" d="m317.29654 373.1076l342.94492 -0.15475464" fill-rule="evenodd"/><path fill="#595959" stroke="#595959" stroke-width="1.0" stroke-linecap="butt" d="m660.2422 374.60458l4.5373535 -1.6537781l-4.5388794 -1.6496887z" fill-rule="evenodd"/><path fill="#ffffff" d="m458.02094 181.1076l0 0c0 -14.159363 11.478455 -25.637787 25.637817 -25.637787l0 0c6.7995605 0 13.320618 2.7011108 18.128662 7.50914c4.808014 4.808014 7.5091248 11.329086 7.5091248 18.128647l0 0c0 14.159363 -11.478424 25.637802 -25.637787 25.637802l0 0c-14.159363 0 -25.637817 -11.478439 -25.637817 -25.637802z" fill-rule="evenodd"/><path stroke="#3c78d8" stroke-width="2.0" stroke-linejoin="round" stroke-linecap="butt" d="m458.02094 181.1076l0 0c0 -14.159363 11.478455 -25.637787 25.637817 -25.637787l0 0c6.7995605 0 13.320618 2.7011108 18.128662 7.50914c4.808014 4.808014 7.5091248 11.329086 7.5091248 18.128647l0 0c0 14.159363 -11.478424 25.637802 -25.637787 25.637802l0 0c-14.159363 0 -25.637817 -11.478439 -25.637817 -25.637802z" fill-rule="evenodd"/><path fill="#ffffff" d="m458.02094 245.1076l0 0c0 -14.159363 11.478455 -25.637787 25.637817 -25.637787l0 0c6.7995605 0 13.320618 2.7011108 18.128662 7.50914c4.808014 4.808014 7.5091248 11.329086 7.5091248 18.128647l0 0c0 14.159363 -11.478424 25.637787 -25.637787 25.637787l0 0c-14.159363 0 -25.637817 -11.478424 -25.637817 -25.637787z" fill-rule="evenodd"/><path stroke="#3c78d8" stroke-width="2.0" stroke-linejoin="round" stroke-linecap="butt" d="m458.02094 245.1076l0 0c0 -14.159363 11.478455 -25.637787 25.637817 -25.637787l0 0c6.7995605 0 13.320618 2.7011108 18.128662 7.50914c4.808014 4.808014 7.5091248 11.329086 7.5091248 18.128647l0 0c0 14.159363 -11.478424 25.637787 -25.637787 25.637787l0 0c-14.159363 0 -25.637817 -11.478424 -25.637817 -25.637787z" fill-rule="evenodd"/><path fill="#ffffff" d="m458.02094 309.1076l0 0c0 -14.159363 11.478455 -25.637787 25.637817 -25.637787l0 0c6.7995605 0 13.320618 2.7011108 18.128662 7.5091248c4.808014 4.808014 7.5091248 11.329102 7.5091248 18.128662l0 0c0 14.159363 -11.478424 25.637787 -25.637787 25.637787l0 0c-14.159363 0 -25.637817 -11.478424 -25.637817 -25.637787z" fill-rule="evenodd"/><path stroke="#3c78d8" stroke-width="2.0" stroke-linejoin="round" stroke-linecap="butt" d="m458.02094 309.1076l0 0c0 -14.159363 11.478455 -25.637787 25.637817 -25.637787l0 0c6.7995605 0 13.320618 2.7011108 18.128662 7.5091248c4.808014 4.808014 7.5091248 11.329102 7.5091248 18.128662l0 0c0 14.159363 -11.478424 25.637787 -25.637787 25.637787l0 0c-14.159363 0 -25.637817 -11.478424 -25.637817 -25.637787z" fill-rule="evenodd"/><path fill="#ffffff" d="m458.02094 117.10761l0 0c0 -14.159363 11.478455 -25.637794 25.637817 -25.637794l0 0c6.7995605 0 13.320618 2.7011185 18.128662 7.5091324c4.808014 4.8080215 7.5091248 11.329094 7.5091248 18.128662l0 0c0 14.159355 -11.478424 25.637794 -25.637787 25.637794l0 0c-14.159363 0 -25.637817 -11.478439 -25.637817 -25.637794z" fill-rule="evenodd"/><path stroke="#3c78d8" stroke-width="2.0" stroke-linejoin="round" stroke-linecap="butt" d="m458.02094 117.10761l0 0c0 -14.159363 11.478455 -25.637794 25.637817 -25.637794l0 0c6.7995605 0 13.320618 2.7011185 18.128662 7.5091324c4.808014 4.8080215 7.5091248 11.329094 7.5091248 18.128662l0 0c0 14.159355 -11.478424 25.637794 -25.637787 25.637794l0 0c-14.159363 0 -25.637817 -11.478439 -25.637817 -25.637794z" fill-rule="evenodd"/><path fill="#ffffff" d="m458.02094 373.1076l0 0c0 -14.159363 11.478455 -25.637787 25.637817 -25.637787l0 0c6.7995605 0 13.320618 2.7011108 18.128662 7.5091248c4.808014 4.808014 7.5091248 11.329102 7.5091248 18.128662l0 0c0 14.159363 -11.478424 25.637787 -25.637787 25.637787l0 0c-14.159363 0 -25.637817 -11.478424 -25.637817 -25.637787z" fill-rule="evenodd"/><path stroke="#3c78d8" stroke-width="2.0" stroke-linejoin="round" stroke-linecap="butt" d="m458.02094 373.1076l0 0c0 -14.159363 11.478455 -25.637787 25.637817 -25.637787l0 0c6.7995605 0 13.320618 2.7011108 18.128662 7.5091248c4.808014 4.808014 7.5091248 11.329102 7.5091248 18.128662l0 0c0 14.159363 -11.478424 25.637787 -25.637787 25.637787l0 0c-14.159363 0 -25.637817 -11.478424 -25.637817 -25.637787z" fill-rule="evenodd"/><path fill="#000000" fill-opacity="0.0" d="m404.57733 400.40158l158.6142 0l0 38.740143l-158.6142 0z" fill-rule="evenodd"/><path fill="#3c78d8" d="m434.82526 427.32156l0 -13.734375l1.65625 0l0 5.546875q0.609375 -0.640625 1.34375 -1.015625q0.75 -0.390625 1.703125 -0.390625q0.78125 0 1.359375 0.265625q0.59375 0.25 0.984375 0.71875q0.40625 0.46875 0.609375 1.140625q0.203125 0.65625 0.203125 1.453125l0 6.015625l-1.65625 0l0 -6.015625q0 -1.078125 -0.5 -1.671875q-0.484375 -0.59375 -1.484375 -0.59375q-0.734375 0 -1.375 0.359375q-0.640625 0.359375 -1.1875 0.96875l0 6.953125l-1.65625 0zm12.216644 -9.453125l0 9.453125l-1.65625 0l0 -9.453125l1.65625 0zm0.375 -2.96875q0 0.25 -0.09375 0.46875q-0.09375 0.203125 -0.265625 0.375q-0.15625 0.15625 -0.375 0.25q-0.21875 0.09375 -0.453125 0.09375q-0.25 0 -0.46875 -0.09375q-0.203125 -0.09375 -0.359375 -0.25q-0.15625 -0.171875 -0.25 -0.375q-0.09375 -0.21875 -0.09375 -0.46875q0 -0.234375 0.09375 -0.453125q0.09375 -0.21875 0.25 -0.375q0.15625 -0.171875 0.359375 -0.265625q0.21875 -0.09375 0.46875 -0.09375q0.234375 0 0.453125 0.09375q0.21875 0.09375 0.375 0.265625q0.171875 0.15625 0.265625 0.375q0.09375 0.21875 0.09375 0.453125zm9.213501 12.421875q-0.359375 0 -0.453125 -0.34375l-0.140625 -1.15625q-0.609375 0.75 -1.390625 1.1875q-0.78125 0.4375 -1.78125 0.4375q-0.8125 0 -1.484375 -0.3125q-0.65625 -0.3125 -1.125 -0.90625q-0.46875 -0.609375 -0.71875 -1.515625q-0.25 -0.90625 -0.25 -2.078125q0 -1.046875 0.28125 -1.9375q0.28125 -0.90625 0.796875 -1.5625q0.53125 -0.671875 1.28125 -1.046875q0.765625 -0.390625 1.71875 -0.390625q0.875 0 1.484375 0.296875q0.625 0.296875 1.109375 0.828125l0 -5.234375l1.65625 0l0 13.734375l-0.984375 0zm-3.21875 -1.21875q0.8125 0 1.421875 -0.359375q0.609375 -0.375 1.125 -1.0625l0 -4.5625q-0.453125 -0.625 -1.0 -0.875q-0.546875 -0.25 -1.21875 -0.25q-1.3125 0 -2.03125 0.953125q-0.703125 0.9375 -0.703125 2.6875q0 0.921875 0.15625 1.578125q0.15625 0.65625 0.46875 1.078125q0.3125 0.421875 0.75 0.625q0.453125 0.1875 1.03125 0.1875zm13.647583 1.21875q-0.359375 0 -0.453125 -0.34375l-0.140625 -1.15625q-0.609375 0.75 -1.390625 1.1875q-0.78125 0.4375 -1.78125 0.4375q-0.8125 0 -1.484375 -0.3125q-0.65625 -0.3125 -1.125 -0.90625q-0.46875 -0.609375 -0.71875 -1.515625q-0.25 -0.90625 -0.25 -2.078125q0 -1.046875 0.28125 -1.9375q0.28125 -0.90625 0.796875 -1.5625q0.53125 -0.671875 1.28125 -1.046875q0.765625 -0.390625 1.71875 -0.390625q0.875 0 1.484375 0.296875q0.625 0.296875 1.109375 0.828125l0 -5.234375l1.65625 0l0 13.734375l-0.984375 0zm-3.21875 -1.21875q0.8125 0 1.421875 -0.359375q0.609375 -0.375 1.125 -1.0625l0 -4.5625q-0.453125 -0.625 -1.0 -0.875q-0.546875 -0.25 -1.21875 -0.25q-1.3125 0 -2.03125 0.953125q-0.703125 0.9375 -0.703125 2.6875q0 0.921875 0.15625 1.578125q0.15625 0.65625 0.46875 1.078125q0.3125 0.421875 0.75 0.625q0.453125 0.1875 1.03125 0.1875zm10.741364 -8.375q0.84375 0 1.5625 0.28125q0.71875 0.28125 1.234375 0.828125q0.53125 0.53125 0.8125 1.328125q0.296875 0.78125 0.296875 1.78125q0 0.390625 -0.078125 0.53125q-0.078125 0.125 -0.3125 0.125l-6.296875 0q0.015625 0.890625 0.234375 1.5625q0.234375 0.65625 0.625 1.109375q0.390625 0.4375 0.9375 0.65625q0.546875 0.21875 1.203125 0.21875q0.625 0 1.078125 -0.140625q0.453125 -0.15625 0.78125 -0.3125q0.328125 -0.171875 0.546875 -0.3125q0.21875 -0.15625 0.375 -0.15625q0.21875 0 0.328125 0.15625l0.46875 0.609375q-0.3125 0.375 -0.75 0.65625q-0.421875 0.265625 -0.921875 0.453125q-0.484375 0.171875 -1.015625 0.25q-0.515625 0.09375 -1.015625 0.09375q-0.984375 0 -1.8125 -0.328125q-0.828125 -0.328125 -1.4375 -0.96875q-0.59375 -0.640625 -0.9375 -1.578125q-0.328125 -0.9375 -0.328125 -2.171875q0 -0.984375 0.296875 -1.84375q0.3125 -0.859375 0.875 -1.484375q0.578125 -0.625 1.390625 -0.984375q0.828125 -0.359375 1.859375 -0.359375zm0.03125 1.21875q-1.203125 0 -1.890625 0.703125q-0.6875 0.6875 -0.859375 1.921875l5.140625 0q0 -0.578125 -0.171875 -1.0625q-0.15625 -0.484375 -0.46875 -0.828125q-0.296875 -0.359375 -0.75 -0.546875q-0.4375 -0.1875 -1.0 -0.1875zm5.994629 8.375l0 -9.453125l0.984375 0q0.359375 0 0.453125 0.34375l0.125 1.03125q0.625 -0.6875 1.375 -1.09375q0.765625 -0.421875 1.765625 -0.421875q0.78125 0 1.359375 0.265625q0.59375 0.25 0.984375 0.71875q0.40625 0.46875 0.609375 1.140625q0.203125 0.65625 0.203125 1.453125l0 6.015625l-1.65625 0l0 -6.015625q0 -1.078125 -0.5 -1.671875q-0.484375 -0.59375 -1.484375 -0.59375q-0.734375 0 -1.375 0.359375q-0.640625 0.359375 -1.1875 0.96875l0 6.953125l-1.65625 0zm15.817291 -13.734375l0 13.734375l-1.65625 0l0 -13.734375l1.65625 0zm9.869751 13.734375l-0.734375 0q-0.234375 0 -0.390625 -0.078125q-0.140625 -0.078125 -0.1875 -0.3125l-0.1875 -0.875q-0.375 0.328125 -0.734375 0.59375q-0.359375 0.265625 -0.75 0.453125q-0.390625 0.1875 -0.828125 0.28125q-0.4375 0.09375 -0.984375 0.09375q-0.546875 0 -1.03125 -0.15625q-0.484375 -0.15625 -0.84375 -0.46875q-0.34375 -0.3125 -0.5625 -0.78125q-0.203125 -0.46875 -0.203125 -1.109375q0 -0.5625 0.296875 -1.078125q0.3125 -0.515625 1.0 -0.90625q0.6875 -0.40625 1.796875 -0.65625q1.109375 -0.265625 2.71875 -0.3125l0 -0.734375q0 -1.09375 -0.46875 -1.65625q-0.46875 -0.578125 -1.40625 -0.578125q-0.59375 0 -1.015625 0.15625q-0.40625 0.15625 -0.71875 0.359375q-0.296875 0.1875 -0.515625 0.34375q-0.21875 0.140625 -0.4375 0.140625q-0.171875 0 -0.296875 -0.078125q-0.125 -0.09375 -0.203125 -0.21875l-0.296875 -0.53125q0.78125 -0.765625 1.6875 -1.140625q0.90625 -0.375 2.015625 -0.375q0.78125 0 1.390625 0.265625q0.625 0.265625 1.046875 0.734375q0.421875 0.46875 0.625 1.125q0.21875 0.65625 0.21875 1.453125l0 6.046875zm-4.296875 -1.015625q0.4375 0 0.796875 -0.078125q0.359375 -0.09375 0.671875 -0.25q0.328125 -0.171875 0.625 -0.40625q0.296875 -0.234375 0.578125 -0.53125l0 -1.96875q-1.15625 0.03125 -1.953125 0.1875q-0.796875 0.140625 -1.3125 0.375q-0.5 0.234375 -0.734375 0.546875q-0.21875 0.3125 -0.21875 0.703125q0 0.375 0.125 0.65625q0.125 0.265625 0.328125 0.4375q0.203125 0.171875 0.484375 0.25q0.28125 0.078125 0.609375 0.078125zm9.58371 3.8125q-0.078125 0.171875 -0.203125 0.28125q-0.125 0.125 -0.390625 0.125l-1.234375 0l1.734375 -3.75l-3.90625 -8.90625l1.4375 0q0.21875 0 0.34375 0.109375q0.125 0.109375 0.171875 0.234375l2.53125 5.953125q0.078125 0.203125 0.140625 0.421875q0.0625 0.203125 0.109375 0.40625q0.0625 -0.203125 0.125 -0.40625q0.078125 -0.21875 0.15625 -0.421875l2.453125 -5.953125q0.0625 -0.140625 0.1875 -0.234375q0.140625 -0.109375 0.296875 -0.109375l1.328125 0l-5.28125 12.25zm10.536377 -12.390625q0.84375 0 1.5625 0.28125q0.71875 0.28125 1.234375 0.828125q0.53125 0.53125 0.8125 1.328125q0.296875 0.78125 0.296875 1.78125q0 0.390625 -0.078125 0.53125q-0.078125 0.125 -0.3125 0.125l-6.296875 0q0.015625 0.890625 0.234375 1.5625q0.234375 0.65625 0.625 1.109375q0.390625 0.4375 0.9375 0.65625q0.546875 0.21875 1.203125 0.21875q0.625 0 1.078125 -0.140625q0.453125 -0.15625 0.78125 -0.3125q0.328125 -0.171875 0.546875 -0.3125q0.21875 -0.15625 0.375 -0.15625q0.21875 0 0.328125 0.15625l0.46875 0.609375q-0.3125 0.375 -0.75 0.65625q-0.421875 0.265625 -0.921875 0.453125q-0.484375 0.171875 -1.015625 0.25q-0.515625 0.09375 -1.015625 0.09375q-0.984375 0 -1.8125 -0.328125q-0.828125 -0.328125 -1.4375 -0.96875q-0.59375 -0.640625 -0.9375 -1.578125q-0.328125 -0.9375 -0.328125 -2.171875q0 -0.984375 0.296875 -1.84375q0.3125 -0.859375 0.875 -1.484375q0.578125 -0.625 1.390625 -0.984375q0.828125 -0.359375 1.859375 -0.359375zm0.03125 1.21875q-1.203125 0 -1.890625 0.703125q-0.6875 0.6875 -0.859375 1.921875l5.140625 0q0 -0.578125 -0.171875 -1.0625q-0.15625 -0.484375 -0.46875 -0.828125q-0.296875 -0.359375 -0.75 -0.546875q-0.4375 -0.1875 -1.0 -0.1875zm5.994629 8.375l0 -9.453125l0.953125 0q0.265625 0 0.375 0.109375q0.109375 0.09375 0.140625 0.34375l0.109375 1.484375q0.484375 -0.984375 1.1875 -1.546875q0.71875 -0.5625 1.6875 -0.5625q0.390625 0 0.703125 0.09375q0.328125 0.09375 0.59375 0.25l-0.21875 1.234375q-0.0625 0.234375 -0.28125 0.234375q-0.140625 0 -0.40625 -0.078125q-0.265625 -0.09375 -0.75 -0.09375q-0.875 0 -1.453125 0.5q-0.578125 0.5 -0.984375 1.46875l0 6.015625l-1.65625 0z" fill-rule="nonzero"/><path fill="#3c78d8" d="m483.23758 449.43094q-0.890625 0 -1.453125 -0.546875q-0.546875 -0.5625 -0.546875 -1.6875q0 -0.46875 0.15625 -1.21875l2.0 -9.34375l2.75 -0.375l-2.140625 10.078125q-0.078125 0.28125 -0.078125 0.59375q0 0.375 0.171875 0.53125q0.1875 0.15625 0.59375 0.15625q0.546875 0 1.015625 -0.453125q0.46875 -0.453125 0.671875 -1.1875l0.78125 0q-0.6875 2.015625 -1.78125 2.734375q-1.078125 0.71875 -2.140625 0.71875z" fill-rule="nonzero"/><path fill="#000000" fill-opacity="0.0" d="m32.72441 462.72177l894.55115 0l0 60.126007l-894.55115 0z" fill-rule="evenodd"/><path fill="#000000" d="m140.80956 481.43677q0.9375 0 1.5625 0.65625q0.640625 0.640625 0.640625 1.609375l0 21.578125q0 0.96875 -0.703125 1.625q-0.703125 0.65625 -1.75 0.65625q-1.046875 0 -1.71875 -0.65625q-0.671875 -0.65625 -0.671875 -1.625l0 -17.6875l-2.3125 1.421875q-0.5625 0.328125 -1.203125 0.328125q-0.921875 0 -1.578125 -0.703125q-0.65625 -0.71875 -0.65625 -1.578125q0 -0.59375 0.3125 -1.109375q0.328125 -0.53125 0.84375 -0.828125l5.640625 -3.359375q0.625 -0.328125 1.59375 -0.328125zm9.415604 26.09375q-1.078125 0 -1.65625 -0.578125q-0.578125 -0.578125 -0.578125 -1.671875l0 -0.625q0 -1.09375 0.578125 -1.671875q0.578125 -0.578125 1.65625 -0.578125l0.484375 0q1.078125 0 1.65625 0.578125q0.578125 0.578125 0.578125 1.671875l0 0.625q0 1.09375 -0.578125 1.671875q-0.578125 0.578125 -1.65625 0.578125l-0.484375 0zm22.809143 -21.8125l0 6.578125l8.0625 0q0.96875 0 1.625 0.625q0.65625 0.609375 0.65625 1.578125q0 0.8125 -0.65625 1.453125q-0.65625 0.640625 -1.625 0.640625l-8.0625 0l0 8.6875q0 0.96875 -0.703125 1.625q-0.6875 0.65625 -1.609375 0.65625q-1.046875 0 -1.703125 -0.625q-0.65625 -0.640625 -0.65625 -1.65625l0 -21.578125q0 -0.96875 0.65625 -1.609375q0.65625 -0.65625 1.625 -0.65625l12.125 0q0.96875 0 1.625 0.625q0.65625 0.609375 0.65625 1.578125q0 0.8125 -0.65625 1.453125q-0.65625 0.625 -1.625 0.625l-9.734375 0zm35.119095 11.875q0 2.984375 -1.34375 5.359375q-1.34375 2.375 -3.671875 3.6875q-2.328125 1.296875 -5.140625 1.296875q-2.828125 0 -5.140625 -1.296875q-2.3125 -1.3125 -3.65625 -3.6875q-1.34375 -2.375 -1.34375 -5.359375q0 -2.984375 1.34375 -5.34375q1.34375 -2.375 3.65625 -3.703125q2.3125 -1.328125 5.140625 -1.328125q2.8125 0 5.140625 1.328125q2.328125 1.328125 3.671875 3.703125q1.34375 2.359375 1.34375 5.34375zm-4.46875 0q0 -1.828125 -0.765625 -3.265625q-0.765625 -1.4375 -2.0625 -2.21875q-1.28125 -0.78125 -2.859375 -0.78125q-1.5625 0 -2.859375 0.78125q-1.28125 0.78125 -2.046875 2.21875q-0.765625 1.4375 -0.765625 3.265625q0 1.828125 0.765625 3.25q0.765625 1.421875 2.046875 2.203125q1.296875 0.78125 2.859375 0.78125q1.578125 0 2.859375 -0.78125q1.296875 -0.78125 2.0625 -2.203125q0.765625 -1.421875 0.765625 -3.25zm18.57579 -10.375q1.125 0 1.890625 0.640625q0.765625 0.625 0.765625 1.484375q0 1.15625 -0.59375 1.734375q-0.59375 0.578125 -1.421875 0.578125q-0.5625 0 -1.265625 -0.25q-0.109375 -0.046875 -0.515625 -0.15625q-0.390625 -0.109375 -0.828125 -0.109375q-0.96875 0 -1.875 0.59375q-0.890625 0.59375 -1.46875 1.8125q-0.578125 1.21875 -0.578125 2.890625l0 8.84375q0 0.96875 -0.640625 1.625q-0.625 0.65625 -1.59375 0.65625q-0.96875 0 -1.609375 -0.65625q-0.640625 -0.65625 -0.640625 -1.625l0 -15.40625q0 -0.984375 0.640625 -1.625q0.640625 -0.65625 1.609375 -0.65625q0.96875 0 1.59375 0.65625q0.640625 0.640625 0.640625 1.625l0 0.484375q0.859375 -1.53125 2.453125 -2.328125q1.609375 -0.8125 3.4375 -0.8125zm28.825455 0.375q0.890625 0 1.5 0.65625q0.625 0.640625 0.625 1.65625q0 0.34375 -0.140625 0.859375l-5.71875 15.375q-0.21875 0.671875 -0.796875 1.0625q-0.578125 0.390625 -1.25 0.390625l-0.296875 -0.03125q-1.28125 -0.078125 -1.90625 -1.421875l-3.171875 -9.171875l-3.03125 9.171875q-0.640625 1.34375 -1.90625 1.421875l-0.296875 0.03125q-0.671875 0 -1.25 -0.390625q-0.578125 -0.390625 -0.796875 -1.0625l-5.71875 -15.375q-0.140625 -0.40625 -0.140625 -0.859375q0 -0.9375 0.609375 -1.625q0.625 -0.6875 1.625 -0.6875q0.75 0 1.28125 0.359375q0.546875 0.34375 0.765625 1.0625l4.03125 10.9375l2.953125 -8.0q0.59375 -1.375 2.0625 -1.375q0.78125 0 1.203125 0.34375q0.4375 0.328125 0.734375 1.03125l2.875 7.8125l3.984375 -10.75q0.234375 -0.71875 0.78125 -1.0625q0.5625 -0.359375 1.390625 -0.359375zm21.83995 -0.375q0.96875 0 1.59375 0.640625q0.640625 0.625 0.640625 1.640625l0 15.78125q0 0.96875 -0.640625 1.625q-0.625 0.65625 -1.59375 0.65625q-0.96875 0 -1.59375 -0.625q-0.609375 -0.640625 -0.65625 -1.609375q-0.921875 1.078125 -2.515625 1.84375q-1.578125 0.765625 -3.34375 0.765625q-2.578125 0 -4.671875 -1.328125q-2.078125 -1.328125 -3.296875 -3.671875q-1.2031097 -2.359375 -1.2031097 -5.34375q0 -2.984375 1.1874847 -5.34375q1.203125 -2.375 3.265625 -3.703125q2.078125 -1.328125 4.578125 -1.328125q1.78125 0 3.34375 0.65625q1.578125 0.65625 2.65625 1.65625l0 -0.03125q0 -0.96875 0.640625 -1.625q0.640625 -0.65625 1.609375 -0.65625zm-7.546875 16.609375q2.421875 0 3.953125 -1.765625q1.53125 -1.78125 1.53125 -4.46875q0 -2.6875 -1.53125 -4.46875q-1.53125 -1.796875 -3.953125 -1.796875q-2.390625 0 -3.921875 1.796875q-1.53125 1.78125 -1.53125 4.46875q0 2.6875 1.515625 4.46875q1.515625 1.765625 3.9375 1.765625zm25.005493 -16.609375q1.125 0 1.890625 0.640625q0.765625 0.625 0.765625 1.484375q0 1.15625 -0.59375 1.734375q-0.59375 0.578125 -1.421875 0.578125q-0.5625 0 -1.265625 -0.25q-0.109375 -0.046875 -0.515625 -0.15625q-0.390625 -0.109375 -0.828125 -0.109375q-0.96875 0 -1.875 0.59375q-0.890625 0.59375 -1.46875 1.8125q-0.578125 1.21875 -0.578125 2.890625l0 8.84375q0 0.96875 -0.640625 1.625q-0.625 0.65625 -1.59375 0.65625q-0.96875 0 -1.609375 -0.65625q-0.640625 -0.65625 -0.640625 -1.625l0 -15.40625q0 -0.984375 0.640625 -1.625q0.640625 -0.65625 1.609375 -0.65625q0.96875 0 1.59375 0.65625q0.640625 0.640625 0.640625 1.625l0 0.484375q0.859375 -1.53125 2.453125 -2.328125q1.609375 -0.8125 3.4375 -0.8125zm21.997345 -7.28125q0.96875 0 1.59375 0.640625q0.640625 0.625 0.640625 1.640625l0 23.0625q0 0.96875 -0.640625 1.625q-0.625 0.65625 -1.59375 0.65625q-0.96875 0 -1.59375 -0.625q-0.609375 -0.640625 -0.65625 -1.609375q-0.921875 1.078125 -2.515625 1.84375q-1.578125 0.765625 -3.34375 0.765625q-2.578125 0 -4.671875 -1.328125q-2.078125 -1.328125 -3.296875 -3.671875q-1.203125 -2.359375 -1.203125 -5.34375q0 -2.984375 1.1875 -5.34375q1.203125 -2.375 3.265625 -3.703125q2.078125 -1.328125 4.578125 -1.328125q1.78125 0 3.34375 0.65625q1.578125 0.65625 2.65625 1.65625l0 -7.3125q0 -0.96875 0.640625 -1.625q0.640625 -0.65625 1.609375 -0.65625zm-7.546875 23.890625q2.421875 0 3.953125 -1.765625q1.53125 -1.78125 1.53125 -4.46875q0 -2.6875 -1.53125 -4.46875q-1.53125 -1.796875 -3.953125 -1.796875q-2.390625 0 -3.921875 1.796875q-1.53125 1.78125 -1.53125 4.46875q0 2.6875 1.515625 4.46875q1.515625 1.765625 3.9375 1.765625z" fill-rule="nonzero"/><path fill="#000000" d="m406.51584 506.06177q0.296875 0 0.515625 0.234375q0.234375 0.21875 0.234375 0.515625q0 0.34375 -0.234375 0.546875q-0.21875 0.203125 -0.515625 0.203125l-14.40625 0q-0.375 0 -0.65625 -0.1875q-0.28125 -0.1875 -0.28125 -0.59375q0 -0.234375 0.1875 -0.484375l8.78125 -9.78125q2.34375 -2.5 3.421875 -4.375q1.09375 -1.890625 1.09375 -3.734375q0 -2.796875 -1.671875 -4.328125q-1.65625 -1.53125 -4.75 -1.53125q-2.0625 0 -3.609375 0.921875q-1.546875 0.90625 -2.21875 2.890625q-0.078125 0.21875 -0.25 0.40625q-0.15625 0.1875 -0.453125 0.1875q-0.265625 0 -0.546875 -0.1875q-0.28125 -0.1875 -0.28125 -0.40625q0 -0.1875 0.1875 -0.671875q0.859375 -2.234375 2.8125 -3.421875q1.96875 -1.203125 4.46875 -1.203125q3.765625 0 5.859375 1.984375q2.09375 1.96875 2.09375 5.21875q0 1.984375 -1.09375 4.078125q-1.078125 2.078125 -3.828125 5.0625l-7.625 8.65625l12.765625 0zm5.491516 1.5q-0.484375 0 -0.75 -0.3125q-0.265625 -0.328125 -0.265625 -0.84375l0 -0.859375q0 -0.515625 0.265625 -0.828125q0.265625 -0.328125 0.75 -0.328125l0.15625 0q0.484375 0 0.734375 0.328125q0.265625 0.3125 0.265625 0.828125l0 0.859375q0 0.515625 -0.265625 0.84375q-0.25 0.3125 -0.734375 0.3125l-0.15625 0zm30.242096 -13.65625q2.375 0.4375 3.8125 2.15625q1.4375 1.71875 1.4375 4.4375q0 3.40625 -2.140625 5.234375q-2.140625 1.828125 -5.46875 1.828125l-10.296875 0q-0.296875 0 -0.53125 -0.21875q-0.21875 -0.234375 -0.21875 -0.53125l0 -24.640625q0 -0.296875 0.21875 -0.515625q0.234375 -0.21875 0.53125 -0.21875l10.03125 0q2.984375 0 4.78125 1.71875q1.796875 1.703125 1.796875 4.625q0 2.09375 -1.046875 3.796875q-1.046875 1.6875 -2.90625 2.328125zm2.375 -6.171875q0 -2.203125 -1.359375 -3.5q-1.359375 -1.3125 -3.828125 -1.3125l-9.03125 0l0 10.5l9.03125 0q2.3125 -0.046875 3.75 -1.515625q1.4375 -1.484375 1.4375 -4.171875zm-4.921875 18.328125q2.796875 0 4.515625 -1.390625q1.71875 -1.40625 1.71875 -4.171875q0 -2.75 -1.71875 -4.140625q-1.71875 -1.40625 -4.515625 -1.40625l-9.296875 0l0 11.109375l9.296875 0zm28.028961 -17.125q0.34375 0 0.546875 0.234375q0.203125 0.21875 0.203125 0.515625l0 17.125q0 0.296875 -0.21875 0.53125q-0.21875 0.21875 -0.53125 0.21875q-0.328125 0 -0.53125 -0.21875q-0.203125 -0.234375 -0.203125 -0.53125l0 -3.359375q-0.9375 1.90625 -2.890625 3.203125q-1.9375 1.28125 -4.28125 1.28125q-2.46875 0 -4.453125 -1.28125q-1.96875 -1.296875 -3.09375 -3.546875q-1.109375 -2.265625 -1.109375 -5.0625q0 -2.765625 1.125 -4.984375q1.140625 -2.21875 3.125 -3.46875q1.984375 -1.25 4.40625 -1.25q2.421875 0 4.359375 1.265625q1.953125 1.265625 2.8125 3.390625l0 -3.3125q0 -0.296875 0.203125 -0.515625q0.203125 -0.234375 0.53125 -0.234375zm-7.828125 17.578125q2.046875 0 3.703125 -1.09375q1.671875 -1.109375 2.59375 -3.046875q0.9375 -1.9375 0.9375 -4.328125q0 -2.28125 -0.9375 -4.1875q-0.921875 -1.90625 -2.59375 -3.0q-1.65625 -1.109375 -3.703125 -1.109375q-2.0625 0 -3.71875 1.078125q-1.65625 1.0625 -2.59375 2.953125q-0.9375 1.875 -0.9375 4.265625q0 2.390625 0.9375 4.328125q0.9375 1.9375 2.578125 3.046875q1.640625 1.09375 3.734375 1.09375zm22.882202 -18.171875q1.59375 0 3.109375 0.375q1.515625 0.359375 2.421875 0.984375q0.921875 0.609375 0.921875 1.28125q0 0.296875 -0.203125 0.53125q-0.203125 0.21875 -0.5 0.21875q-0.34375 0 -0.515625 -0.109375q-0.15625 -0.109375 -0.46875 -0.40625q-0.484375 -0.5625 -1.0 -0.828125q-1.34375 -0.640625 -3.8125 -0.640625q-2.125 0 -3.9375 1.125q-1.8125 1.125 -2.875 3.046875q-1.0625 1.921875 -1.0625 4.203125q0 2.375 0.984375 4.3125q1.0 1.921875 2.8125 3.0q1.8125 1.078125 4.078125 1.078125q1.5 0 2.359375 -0.25q0.859375 -0.265625 1.71875 -0.75q0.59375 -0.375 1.046875 -0.828125q0.1875 -0.1875 0.359375 -0.3125q0.1875 -0.140625 0.375 -0.140625q0.296875 0 0.46875 0.1875q0.171875 0.1875 0.171875 0.484375q0 0.53125 -0.859375 1.265625q-0.859375 0.71875 -2.375 1.25q-1.5 0.515625 -3.375 0.515625q-2.6875 0 -4.796875 -1.265625q-2.109375 -1.28125 -3.28125 -3.515625q-1.171875 -2.234375 -1.171875 -5.03125q0 -2.625 1.171875 -4.859375q1.171875 -2.234375 3.3125 -3.578125q2.15625 -1.34375 4.921875 -1.34375zm25.680634 17.90625q0.21875 0.234375 0.21875 0.5625q0 0.34375 -0.28125 0.546875q-0.28125 0.203125 -0.46875 0.203125q-0.296875 0 -0.5625 -0.265625l-8.734375 -9.296875l-3.125 2.625l0 6.1875q0 0.296875 -0.203125 0.53125q-0.203125 0.21875 -0.546875 0.21875q-0.328125 0 -0.546875 -0.21875q-0.203125 -0.234375 -0.203125 -0.53125l0 -26.125q0 -0.296875 0.203125 -0.515625q0.21875 -0.234375 0.546875 -0.234375q0.34375 0 0.546875 0.234375q0.203125 0.21875 0.203125 0.515625l0 18.0625l11.71875 -9.8125q0.21875 -0.21875 0.484375 -0.21875q0.296875 0 0.515625 0.21875q0.234375 0.21875 0.234375 0.5625q0 0.328125 -0.265625 0.5625l-8.390625 6.96875l8.65625 9.21875zm27.466248 -17.984375q0.34375 0 0.5625 0.1875q0.21875 0.1875 0.21875 0.515625l-0.0625 0.375l-5.796875 17.734375q-0.21875 0.484375 -0.703125 0.484375q-0.453125 0 -0.703125 -0.484375l-5.421875 -12.203125l-4.84375 12.203125q-0.078125 0.21875 -0.28125 0.359375q-0.203125 0.125 -0.4375 0.125q-0.21875 0 -0.421875 -0.125q-0.203125 -0.140625 -0.28125 -0.359375l-5.96875 -17.734375l-0.078125 -0.375q0 -0.328125 0.21875 -0.515625q0.21875 -0.1875 0.5625 -0.1875q0.484375 0 0.671875 0.484375l5.265625 16.28125l4.96875 -12.28125q0.0625 -0.234375 0.265625 -0.359375q0.21875 -0.125 0.4375 -0.125q0.21875 0 0.421875 0.125q0.21875 0.125 0.28125 0.359375l5.265625 12.15625l5.1875 -16.15625q0.1875 -0.484375 0.671875 -0.484375zm20.565613 0.671875q0.34375 0 0.546875 0.234375q0.203125 0.21875 0.203125 0.515625l0 17.125q0 0.296875 -0.21875 0.53125q-0.21875 0.21875 -0.53125 0.21875q-0.328125 0 -0.53125 -0.21875q-0.203125 -0.234375 -0.203125 -0.53125l0 -3.359375q-0.9375 1.90625 -2.890625 3.203125q-1.9375 1.28125 -4.28125 1.28125q-2.46875 0 -4.453125 -1.28125q-1.96875 -1.296875 -3.09375 -3.546875q-1.109375 -2.265625 -1.109375 -5.0625q0 -2.765625 1.125 -4.984375q1.140625 -2.21875 3.125 -3.46875q1.984375 -1.25 4.40625 -1.25q2.421875 0 4.359375 1.265625q1.953125 1.265625 2.8125 3.390625l0 -3.3125q0 -0.296875 0.203125 -0.515625q0.203125 -0.234375 0.53125 -0.234375zm-7.828125 17.578125q2.046875 0 3.703125 -1.09375q1.671875 -1.109375 2.59375 -3.046875q0.9375 -1.9375 0.9375 -4.328125q0 -2.28125 -0.9375 -4.1875q-0.921875 -1.90625 -2.59375 -3.0q-1.65625 -1.109375 -3.703125 -1.109375q-2.0625 0 -3.71875 1.078125q-1.65625 1.0625 -2.59375 2.953125q-0.9375 1.875 -0.9375 4.265625q0 2.390625 0.9375 4.328125q0.9375 1.9375 2.578125 3.046875q1.640625 1.09375 3.734375 1.09375zm23.210327 -18.171875q1.71875 0 1.71875 0.859375q0 0.328125 -0.1875 0.5625q-0.1875 0.21875 -0.484375 0.21875q-0.109375 0 -0.546875 -0.171875q-0.421875 -0.171875 -0.90625 -0.171875q-1.53125 0 -3.0625 1.21875q-1.53125 1.21875 -2.5 3.0625q-0.96875 1.84375 -0.96875 3.5625l0 9.328125q0 0.296875 -0.234375 0.53125q-0.21875 0.21875 -0.515625 0.21875q-0.328125 0 -0.546875 -0.21875q-0.203125 -0.234375 -0.203125 -0.53125l0 -17.125q0 -0.296875 0.21875 -0.515625q0.234375 -0.234375 0.53125 -0.234375q0.34375 0 0.546875 0.234375q0.203125 0.21875 0.203125 0.515625l0 3.953125q0.859375 -2.28125 2.671875 -3.765625q1.8125 -1.5 4.265625 -1.53125zm20.564941 -8.40625q0.34375 0 0.546875 0.234375q0.203125 0.21875 0.203125 0.515625l0 26.125q0 0.296875 -0.21875 0.53125q-0.21875 0.21875 -0.53125 0.21875q-0.328125 0 -0.53125 -0.21875q-0.203125 -0.234375 -0.203125 -0.53125l0 -3.546875q-0.90625 1.984375 -2.84375 3.328125q-1.9375 1.34375 -4.328125 1.34375q-2.421875 0 -4.40625 -1.28125q-1.984375 -1.296875 -3.125 -3.53125q-1.125 -2.25 -1.125 -5.0q0 -2.765625 1.125 -5.0q1.140625 -2.25 3.125 -3.515625q1.984375 -1.265625 4.40625 -1.265625q2.3125 0 4.28125 1.3125q1.984375 1.296875 2.890625 3.390625l0 -12.359375q0 -0.296875 0.203125 -0.515625q0.203125 -0.234375 0.53125 -0.234375zm-7.828125 26.578125q2.078125 0 3.71875 -1.078125q1.65625 -1.078125 2.578125 -3.0q0.9375 -1.9375 0.9375 -4.3125q0 -2.390625 -0.9375 -4.296875q-0.921875 -1.90625 -2.59375 -2.984375q-1.65625 -1.09375 -3.703125 -1.09375q-2.015625 0 -3.6875 1.09375q-1.65625 1.078125 -2.609375 3.0q-0.953125 1.921875 -0.953125 4.28125q0 2.375 0.953125 4.28125q0.953125 1.90625 2.59375 3.015625q1.640625 1.09375 3.703125 1.09375zm91.26062 -15.453125q2.09375 0 3.953125 0.9375q1.875 0.9375 3.046875 2.796875q1.171875 1.859375 1.171875 4.515625q0 2.5 -1.21875 4.46875q-1.203125 1.953125 -3.265625 3.0625q-2.046875 1.09375 -4.4375 1.09375q-1.671875 0 -3.1875 -0.59375q-1.515625 -0.609375 -2.625 -1.796875q-0.234375 -0.21875 -0.234375 -0.515625q0 -0.3125 0.21875 -0.5625q0.234375 -0.265625 0.578125 -0.265625q0.328125 0 0.671875 0.375q1.640625 1.796875 4.578125 1.796875q2.0625 0 3.734375 -0.890625q1.6875 -0.90625 2.65625 -2.53125q0.96875 -1.625 0.96875 -3.640625q0 -2.28125 -1.03125 -3.78125q-1.015625 -1.515625 -2.671875 -2.21875q-1.640625 -0.71875 -3.46875 -0.71875q-0.375 0 -0.921875 0.0625q-0.53125 0.046875 -0.609375 0.046875q-0.328125 0 -0.53125 -0.21875q-0.203125 -0.21875 -0.203125 -0.59375q0 -0.34375 0.1875 -0.53125l7.53125 -8.4375l-11.3125 0q-0.296875 0 -0.53125 -0.21875q-0.21875 -0.21875 -0.21875 -0.53125q0 -0.328125 0.21875 -0.53125q0.234375 -0.203125 0.53125 -0.203125l12.921875 0q0.40625 0 0.59375 0.28125q0.1875 0.28125 0.1875 0.5q0 0.296875 -0.21875 0.515625l-7.4375 8.359375q0.15625 -0.03125 0.375 -0.03125zm13.217102 16.5q-0.484375 0 -0.75 -0.3125q-0.265625 -0.328125 -0.265625 -0.84375l0 -0.859375q0 -0.515625 0.265625 -0.828125q0.265625 -0.328125 0.75 -0.328125l0.15625 0q0.484375 0 0.734375 0.328125q0.265625 0.3125 0.265625 0.828125l0 0.859375q0 0.515625 -0.265625 0.84375q-0.25 0.3125 -0.734375 0.3125l-0.15625 0zm35.304626 -26.125q0.34375 0 0.546875 0.21875q0.203125 0.21875 0.203125 0.515625l0 16.140625q0 2.609375 -1.3125 4.8125q-1.296875 2.203125 -3.5 3.515625q-2.203125 1.296875 -4.78125 1.296875q-2.609375 0 -4.8125 -1.296875q-2.203125 -1.3125 -3.515625 -3.515625q-1.296875 -2.203125 -1.296875 -4.8125l0 -16.140625q0 -0.328125 0.21875 -0.53125q0.234375 -0.203125 0.5625 -0.203125q0.34375 0 0.5625 0.21875q0.21875 0.21875 0.21875 0.515625l0 16.140625q0 2.1875 1.078125 4.0625q1.09375 1.859375 2.9375 2.96875q1.84375 1.09375 4.046875 1.09375q2.203125 0 4.046875 -1.09375q1.859375 -1.109375 2.953125 -2.96875q1.109375 -1.875 1.109375 -4.0625l0 -16.140625q0 -0.296875 0.203125 -0.515625q0.203125 -0.21875 0.53125 -0.21875zm16.252197 7.28125q2.453125 0 4.421875 1.234375q1.984375 1.21875 3.109375 3.390625q1.125 2.15625 1.125 4.890625q0 2.6875 -1.140625 4.875q-1.140625 2.171875 -3.125 3.421875q-1.96875 1.25 -4.390625 1.25q-2.25 0 -4.125 -1.109375q-1.859375 -1.125 -3.046875 -3.171875l0 10.78125q0 0.296875 -0.203125 0.515625q-0.203125 0.234375 -0.546875 0.234375q-0.296875 0 -0.53125 -0.234375q-0.21875 -0.21875 -0.21875 -0.515625l0 -24.828125q0 -0.296875 0.203125 -0.515625q0.21875 -0.21875 0.546875 -0.21875q0.34375 0 0.546875 0.21875q0.203125 0.21875 0.203125 0.515625l0 3.4375q1.125 -2.125 2.984375 -3.140625q1.859375 -1.03125 4.1875 -1.03125zm-0.078125 17.65625q2.046875 0 3.6875 -1.046875q1.640625 -1.046875 2.59375 -2.90625q0.953125 -1.875 0.953125 -4.1875q0 -2.3125 -0.953125 -4.15625q-0.953125 -1.859375 -2.59375 -2.90625q-1.640625 -1.046875 -3.6875 -1.046875q-2.09375 0 -3.765625 1.03125q-1.65625 1.03125 -2.578125 2.875q-0.90625 1.84375 -0.90625 4.203125q0 2.34375 0.90625 4.203125q0.921875 1.84375 2.578125 2.890625q1.671875 1.046875 3.765625 1.046875zm28.882202 -26.4375q0.34375 0 0.546875 0.234375q0.203125 0.21875 0.203125 0.515625l0 26.125q0 0.296875 -0.21875 0.53125q-0.21875 0.21875 -0.53125 0.21875q-0.328125 0 -0.53125 -0.21875q-0.203125 -0.234375 -0.203125 -0.53125l0 -3.546875q-0.90625 1.984375 -2.84375 3.328125q-1.9375 1.34375 -4.328125 1.34375q-2.421875 0 -4.40625 -1.28125q-1.984375 -1.296875 -3.125 -3.53125q-1.125 -2.25 -1.125 -5.0q0 -2.765625 1.125 -5.0q1.140625 -2.25 3.125 -3.515625q1.984375 -1.265625 4.40625 -1.265625q2.3125 0 4.28125 1.3125q1.984375 1.296875 2.890625 3.390625l0 -12.359375q0 -0.296875 0.203125 -0.515625q0.203125 -0.234375 0.53125 -0.234375zm-7.828125 26.578125q2.078125 0 3.71875 -1.078125q1.65625 -1.078125 2.578125 -3.0q0.9375 -1.9375 0.9375 -4.3125q0 -2.390625 -0.9375 -4.296875q-0.921875 -1.90625 -2.59375 -2.984375q-1.65625 -1.09375 -3.703125 -1.09375q-2.015625 0 -3.6875 1.09375q-1.65625 1.078125 -2.609375 3.0q-0.953125 1.921875 -0.953125 4.28125q0 2.375 0.953125 4.28125q0.953125 1.90625 2.59375 3.015625q1.640625 1.09375 3.703125 1.09375zm30.038452 -17.578125q0.34375 0 0.546875 0.234375q0.203125 0.21875 0.203125 0.515625l0 17.125q0 0.296875 -0.21875 0.53125q-0.21875 0.21875 -0.53125 0.21875q-0.328125 0 -0.53125 -0.21875q-0.203125 -0.234375 -0.203125 -0.53125l0 -3.359375q-0.9375 1.90625 -2.890625 3.203125q-1.9375 1.28125 -4.28125 1.28125q-2.46875 0 -4.453125 -1.28125q-1.96875 -1.296875 -3.09375 -3.546875q-1.109375 -2.265625 -1.109375 -5.0625q0 -2.765625 1.125 -4.984375q1.140625 -2.21875 3.125 -3.46875q1.984375 -1.25 4.40625 -1.25q2.421875 0 4.359375 1.265625q1.953125 1.265625 2.8125 3.390625l0 -3.3125q0 -0.296875 0.203125 -0.515625q0.203125 -0.234375 0.53125 -0.234375zm-7.828125 17.578125q2.046875 0 3.703125 -1.09375q1.671875 -1.109375 2.59375 -3.046875q0.9375 -1.9375 0.9375 -4.328125q0 -2.28125 -0.9375 -4.1875q-0.921875 -1.90625 -2.59375 -3.0q-1.65625 -1.109375 -3.703125 -1.109375q-2.0625 0 -3.71875 1.078125q-1.65625 1.0625 -2.59375 2.953125q-0.9375 1.875 -0.9375 4.265625q0 2.390625 0.9375 4.328125q0.9375 1.9375 2.578125 3.046875q1.640625 1.09375 3.734375 1.09375zm21.725952 -17.734375q0.25 0 0.46875 0.234375q0.234375 0.21875 0.234375 0.484375q0 0.296875 -0.203125 0.5q-0.203125 0.203125 -0.5 0.203125l-4.109375 0l0 13.296875q0 1.640625 0.578125 2.1875q0.578125 0.53125 1.46875 0.53125q0.15625 0 0.4375 -0.078125q0.28125 -0.078125 0.46875 -0.078125q0.25 0 0.4375 0.21875q0.1875 0.203125 0.1875 0.453125q0 0.34375 -0.453125 0.59375q-0.4375 0.234375 -1.03125 0.234375q-0.9375 0 -1.578125 -0.125q-0.625 -0.140625 -1.328125 -1.015625q-0.6875 -0.875 -0.6875 -2.859375l0 -13.359375l-3.0625 0q-0.25 0 -0.484375 -0.21875q-0.21875 -0.234375 -0.21875 -0.484375q0 -0.296875 0.203125 -0.5q0.203125 -0.21875 0.5 -0.21875l3.0625 0l0 -4.734375q0 -0.296875 0.21875 -0.515625q0.234375 -0.234375 0.53125 -0.234375q0.34375 0 0.546875 0.234375q0.203125 0.21875 0.203125 0.515625l0 4.734375l4.109375 0zm19.59259 14.296875q0.265625 0 0.453125 0.21875q0.1875 0.203125 0.1875 0.453125q0 0.265625 -0.15625 0.453125q-1.234375 1.640625 -3.0625 2.6875q-1.828125 1.046875 -3.921875 1.046875q-2.796875 0 -4.96875 -1.1875q-2.15625 -1.203125 -3.375 -3.40625q-1.203125 -2.203125 -1.203125 -5.109375q0 -2.984375 1.171875 -5.234375q1.171875 -2.265625 3.109375 -3.453125q1.953125 -1.203125 4.15625 -1.203125q2.203125 0 4.078125 0.953125q1.890625 0.953125 3.078125 2.859375q1.203125 1.890625 1.28125 4.6875q0 0.296875 -0.234375 0.546875q-0.21875 0.25 -0.515625 0.25l-14.671875 0l0 0.484375q0 2.3125 0.921875 4.234375q0.9375 1.921875 2.765625 3.046875q1.828125 1.109375 4.40625 1.109375q1.796875 0 3.375 -0.875q1.59375 -0.875 2.484375 -2.21875q0.265625 -0.34375 0.640625 -0.34375zm-7.609375 -13.25q-1.390625 0 -2.828125 0.734375q-1.4375 0.71875 -2.546875 2.15625q-1.09375 1.4375 -1.46875 3.5l13.75 0l0 -0.34375q-0.1875 -1.90625 -1.21875 -3.265625q-1.03125 -1.359375 -2.546875 -2.0625q-1.5 -0.71875 -3.140625 -0.71875z" fill-rule="nonzero"/><path fill="#000000" fill-opacity="0.0" d="m148.35695 523.68506l157.25984 0" fill-rule="evenodd"/><path stroke="#595959" stroke-width="1.0" stroke-linejoin="round" stroke-linecap="butt" d="m148.35695 523.68506l151.25984 0" fill-rule="evenodd"/><path fill="#595959" stroke="#595959" stroke-width="1.0" stroke-linecap="butt" d="m299.6168 525.3368l4.5381165 -1.6517334l-4.5381165 -1.6517334z" fill-rule="evenodd"/></g></svg>