<svg version="1.1" viewBox="0.0 0.0 960.0 540.0" fill="none" stroke="none" stroke-linecap="square" stroke-miterlimit="10" xmlns:xlink="http://www.w3.org/1999/xlink" xmlns="http://www.w3.org/2000/svg"><clipPath id="g39452d2acc_0_0.0"><path d="m0 0l960.0 0l0 540.0l-960.0 0l0 -540.0z" clip-rule="nonzero"/></clipPath><g clip-path="url(#g39452d2acc_0_0.0)"><path fill="#ffffff" d="m0 0l960.0 0l0 540.0l-960.0 0z" fill-rule="evenodd"/><path fill="#000000" fill-opacity="0.0" d="m118.75328 93.61155l0 327.62204" fill-rule="evenodd"/><path stroke="#595959" stroke-width="2.0" stroke-linejoin="round" stroke-linecap="butt" d="m118.75328 100.46573l0 320.76785" fill-rule="evenodd"/><path fill="#595959" stroke="#595959" stroke-width="2.0" stroke-linecap="butt" d="m118.75328 100.46572l2.2491684 2.2491684l-2.2491684 -6.179535l-2.2491684 6.179535z" fill-rule="evenodd"/><path fill="#000000" fill-opacity="0.0" d="m812.3202 421.23358l-693.57477 0" fill-rule="evenodd"/><path stroke="#595959" stroke-width="2.0" stroke-linejoin="round" stroke-linecap="butt" d="m805.46606 421.23358l-686.72064 0" fill-rule="evenodd"/><path fill="#595959" stroke="#595959" stroke-width="2.0" stroke-linecap="butt" d="m805.46606 421.23358l-2.2492065 2.249176l6.1795654 -2.249176l-6.1795654 -2.2491455z" fill-rule="evenodd"/><path fill="#000000" fill-opacity="0.0" d="m336.19946 427.82153l276.378 0l0 51.77951l-276.378 0z" fill-rule="evenodd"/><path fill="#000000" d="m411.99442 450.99466q0.34375 0 0.5625 0.234375q0.234375 0.21875 0.234375 0.5625q0 0.328125 -0.234375 0.515625q-0.21875 0.1875 -0.5625 0.1875l-3.296875 0l-1.3125 7.5625l3.328125 0q0.34375 0 0.5625 0.21875q0.234375 0.21875 0.234375 0.578125q0 0.3125 -0.234375 0.515625q-0.21875 0.1875 -0.5625 0.1875l-3.59375 0l-0.921875 5.34375q-0.0625 0.28125 -0.265625 0.46875q-0.1875 0.171875 -0.46875 0.171875q-0.390625 0 -0.59375 -0.28125q-0.203125 -0.296875 -0.140625 -0.75l0.859375 -4.953125l-6.625 0l-0.921875 5.34375q-0.0625 0.28125 -0.265625 0.46875q-0.1875 0.171875 -0.46875 0.171875q-0.390625 0 -0.609375 -0.28125q-0.203125 -0.296875 -0.140625 -0.75l0.875 -4.953125l-3.078125 0q-0.3125 0 -0.5625 -0.234375q-0.234375 -0.25 -0.234375 -0.5625q0 -0.328125 0.21875 -0.515625q0.234375 -0.1875 0.578125 -0.1875l3.328125 0l1.3125 -7.5625l-3.328125 0q-0.34375 0 -0.59375 -0.21875q-0.234375 -0.21875 -0.234375 -0.578125q0 -0.3125 0.21875 -0.5q0.234375 -0.203125 0.578125 -0.203125l3.625 0l0.890625 -5.21875q0.0625 -0.28125 0.25 -0.453125q0.203125 -0.1875 0.484375 -0.1875q0.390625 0 0.59375 0.296875q0.203125 0.28125 0.140625 0.703125l-0.828125 4.859375l6.625 0l0.890625 -5.21875q0.0625 -0.28125 0.25 -0.453125q0.203125 -0.1875 0.484375 -0.1875q0.390625 0 0.59375 0.296875q0.203125 0.28125 0.140625 0.703125l-0.828125 4.859375l3.046875 0zm-6.15625 9.0625l1.3125 -7.5625l-6.625 0l-1.3125 7.5625l6.625 0zm20.167694 6.84375q0 0.25 -0.203125 0.453125q-0.1875 0.1875 -0.4375 0.1875q-0.28125 0 -0.46875 -0.1875q-0.171875 -0.203125 -0.171875 -0.453125l0 -15.203125q0 -0.25 0.1875 -0.4375q0.203125 -0.203125 0.453125 -0.203125q0.28125 0 0.453125 0.203125q0.1875 0.1875 0.1875 0.4375l0 15.203125zm-0.625 -18.046875q-0.515625 0 -0.828125 -0.28125q-0.296875 -0.296875 -0.296875 -0.75l0 -0.25q0 -0.453125 0.3125 -0.734375q0.328125 -0.28125 0.84375 -0.28125q0.453125 0 0.75 0.28125q0.3125 0.28125 0.3125 0.734375l0 0.25q0 0.453125 -0.3125 0.75q-0.296875 0.28125 -0.78125 0.28125zm11.8888855 2.59375q0.21875 0 0.40625 0.1875q0.203125 0.1875 0.203125 0.421875q0 0.25 -0.1875 0.4375q-0.171875 0.171875 -0.421875 0.171875l-3.515625 0l0 11.390625q0 1.40625 0.484375 1.875q0.5 0.453125 1.265625 0.453125q0.125 0 0.359375 -0.0625q0.25 -0.0625 0.40625 -0.0625q0.234375 0 0.390625 0.1875q0.15625 0.171875 0.15625 0.390625q0 0.28125 -0.390625 0.5q-0.375 0.203125 -0.890625 0.203125q-0.796875 0 -1.34375 -0.109375q-0.546875 -0.109375 -1.140625 -0.859375q-0.578125 -0.765625 -0.578125 -2.453125l0 -11.453125l-2.625 0q-0.234375 0 -0.421875 -0.1875q-0.1875 -0.203125 -0.1875 -0.421875q0 -0.265625 0.171875 -0.4375q0.171875 -0.171875 0.4375 -0.171875l2.625 0l0 -4.0625q0 -0.265625 0.1875 -0.453125q0.1875 -0.1875 0.453125 -0.1875q0.28125 0 0.453125 0.1875q0.1875 0.1875 0.1875 0.453125l0 4.0625l3.515625 0zm16.7995 12.25q0.21875 0 0.375 0.1875q0.171875 0.171875 0.171875 0.390625q0 0.21875 -0.125 0.390625q-1.0625 1.40625 -2.640625 2.296875q-1.5625 0.890625 -3.34375 0.890625q-2.40625 0 -4.265625 -1.015625q-1.859375 -1.03125 -2.90625 -2.90625q-1.03125 -1.890625 -1.03125 -4.390625q0 -2.5625 1.0 -4.5q1.015625 -1.9375 2.671875 -2.953125q1.671875 -1.03125 3.5625 -1.03125q1.890625 0 3.5 0.828125q1.625 0.8125 2.640625 2.453125q1.03125 1.625 1.09375 4.015625q0 0.265625 -0.203125 0.46875q-0.1875 0.203125 -0.4375 0.203125l-12.578125 0l0 0.421875q0 1.984375 0.796875 3.640625q0.8125 1.640625 2.375 2.609375q1.5625 0.953125 3.78125 0.953125q1.53125 0 2.890625 -0.75q1.359375 -0.765625 2.125 -1.90625q0.21875 -0.296875 0.546875 -0.296875zm-6.53125 -11.359375q-1.1875 0 -2.421875 0.625q-1.21875 0.625 -2.171875 1.859375q-0.9375 1.234375 -1.265625 2.984375l11.78125 0l0 -0.28125q-0.15625 -1.625 -1.046875 -2.796875q-0.875 -1.171875 -2.171875 -1.78125q-1.296875 -0.609375 -2.703125 -0.609375zm18.661041 -1.28125q1.46875 0 1.46875 0.734375q0 0.296875 -0.15625 0.484375q-0.15625 0.1875 -0.421875 0.1875q-0.09375 0 -0.46875 -0.140625q-0.359375 -0.140625 -0.78125 -0.140625q-1.3125 0 -2.625 1.046875q-1.3125 1.03125 -2.140625 2.625q-0.828125 1.578125 -0.828125 3.046875l0 8.0q0 0.25 -0.203125 0.453125q-0.1875 0.1875 -0.4375 0.1875q-0.28125 0 -0.46875 -0.1875q-0.171875 -0.203125 -0.171875 -0.453125l0 -14.6875q0 -0.25 0.1875 -0.4375q0.203125 -0.203125 0.453125 -0.203125q0.28125 0 0.453125 0.203125q0.1875 0.1875 0.1875 0.4375l0 3.390625q0.734375 -1.953125 2.28125 -3.234375q1.5625 -1.28125 3.671875 -1.3125zm17.635406 0.515625q0.28125 0 0.453125 0.203125q0.1875 0.1875 0.1875 0.4375l0 14.6875q0 0.25 -0.203125 0.453125q-0.1875 0.1875 -0.4375 0.1875q-0.296875 0 -0.46875 -0.1875q-0.171875 -0.203125 -0.171875 -0.453125l0 -2.875q-0.8125 1.625 -2.484375 2.734375q-1.65625 1.09375 -3.671875 1.09375q-2.109375 0 -3.8125 -1.09375q-1.6875 -1.109375 -2.65625 -3.046875q-0.953125 -1.9375 -0.953125 -4.328125q0 -2.375 0.96875 -4.28125q0.984375 -1.90625 2.671875 -2.96875q1.703125 -1.078125 3.78125 -1.078125q2.09375 0 3.75 1.09375q1.671875 1.09375 2.40625 2.90625l0 -2.84375q0 -0.25 0.171875 -0.4375q0.171875 -0.203125 0.46875 -0.203125zm-6.71875 15.078125q1.75 0 3.171875 -0.9375q1.421875 -0.953125 2.21875 -2.609375q0.8125 -1.671875 0.8125 -3.71875q0 -1.953125 -0.8125 -3.578125q-0.796875 -1.640625 -2.21875 -2.578125q-1.421875 -0.953125 -3.171875 -0.953125q-1.765625 0 -3.1875 0.921875q-1.421875 0.90625 -2.234375 2.53125q-0.796875 1.609375 -0.796875 3.65625q0 2.046875 0.796875 3.71875q0.8125 1.65625 2.21875 2.609375q1.40625 0.9375 3.203125 0.9375zm18.618164 -15.203125q0.21875 0 0.40625 0.1875q0.203125 0.1875 0.203125 0.421875q0 0.25 -0.1875 0.4375q-0.171875 0.171875 -0.421875 0.171875l-3.515625 0l0 11.390625q0 1.40625 0.484375 1.875q0.5 0.453125 1.265625 0.453125q0.125 0 0.359375 -0.0625q0.25 -0.0625 0.40625 -0.0625q0.234375 0 0.390625 0.1875q0.15625 0.171875 0.15625 0.390625q0 0.28125 -0.390625 0.5q-0.375 0.203125 -0.890625 0.203125q-0.796875 0 -1.34375 -0.109375q-0.546875 -0.109375 -1.140625 -0.859375q-0.578125 -0.765625 -0.578125 -2.453125l0 -11.453125l-2.625 0q-0.234375 0 -0.421875 -0.1875q-0.1875 -0.203125 -0.1875 -0.421875q0 -0.265625 0.171875 -0.4375q0.171875 -0.171875 0.4375 -0.171875l2.625 0l0 -4.0625q0 -0.265625 0.1875 -0.453125q0.1875 -0.1875 0.453125 -0.1875q0.28125 0 0.453125 0.1875q0.1875 0.1875 0.1875 0.453125l0 4.0625l3.515625 0zm5.4401245 15.453125q0 0.25 -0.203125 0.453125q-0.1875 0.1875 -0.4375 0.1875q-0.28125 0 -0.46875 -0.1875q-0.171875 -0.203125 -0.171875 -0.453125l0 -15.203125q0 -0.25 0.1875 -0.4375q0.203125 -0.203125 0.453125 -0.203125q0.28125 0 0.453125 0.203125q0.1875 0.1875 0.1875 0.4375l0 15.203125zm-0.625 -18.046875q-0.515625 0 -0.828125 -0.28125q-0.296875 -0.296875 -0.296875 -0.75l0 -0.25q0 -0.453125 0.3125 -0.734375q0.328125 -0.28125 0.84375 -0.28125q0.453125 0 0.75 0.28125q0.3125 0.28125 0.3125 0.734375l0 0.25q0 0.453125 -0.3125 0.75q-0.296875 0.28125 -0.78125 0.28125zm20.59201 10.625q0 2.359375 -1.03125 4.265625q-1.015625 1.90625 -2.828125 3.015625q-1.8125 1.09375 -4.015625 1.09375q-2.203125 0 -4.015625 -1.09375q-1.8125 -1.109375 -2.859375 -3.03125q-1.03125 -1.921875 -1.03125 -4.25q0 -2.375 1.03125 -4.28125q1.046875 -1.921875 2.84375 -3.03125q1.796875 -1.109375 4.03125 -1.109375q2.203125 0 4.015625 1.109375q1.8125 1.109375 2.828125 3.03125q1.03125 1.90625 1.03125 4.28125zm-1.28125 0q0 -2.046875 -0.84375 -3.671875q-0.84375 -1.640625 -2.359375 -2.578125q-1.5 -0.953125 -3.390625 -0.953125q-1.859375 0 -3.375 0.953125q-1.515625 0.9375 -2.390625 2.578125q-0.859375 1.625 -0.859375 3.671875q0 2.015625 0.859375 3.65625q0.875 1.625 2.390625 2.578125q1.515625 0.9375 3.375 0.9375q1.890625 0 3.390625 -0.921875q1.515625 -0.9375 2.359375 -2.578125q0.84375 -1.65625 0.84375 -3.671875zm12.7387085 -8.421875q2.84375 0 4.28125 1.6875q1.4375 1.671875 1.4375 4.359375l0 9.796875q0 0.25 -0.1875 0.453125q-0.1875 0.1875 -0.4375 0.1875q-0.296875 0 -0.46875 -0.1875q-0.171875 -0.203125 -0.171875 -0.453125l0 -9.65625q0 -2.1875 -1.140625 -3.578125q-1.140625 -1.390625 -3.4375 -1.390625q-1.40625 0 -2.78125 0.671875q-1.359375 0.671875 -2.21875 1.828125q-0.859375 1.15625 -0.859375 2.46875l0 9.65625q0 0.25 -0.203125 0.453125q-0.1875 0.1875 -0.4375 0.1875q-0.28125 0 -0.46875 -0.1875q-0.171875 -0.203125 -0.171875 -0.453125l0 -14.6875q0 -0.25 0.1875 -0.4375q0.203125 -0.203125 0.453125 -0.203125q0.28125 0 0.453125 0.203125q0.1875 0.1875 0.1875 0.4375l0 2.140625q0.921875 -1.4375 2.59375 -2.359375q1.6875 -0.9375 3.390625 -0.9375zm10.147766 13.921875q-0.234375 -0.34375 -0.234375 -0.609375q0 -0.21875 0.265625 -0.40625q0.15625 -0.171875 0.375 -0.171875q0.328125 0 0.515625 0.265625q1.859375 2.65625 5.1875 2.65625q1.6875 0 2.96875 -0.84375q1.28125 -0.859375 1.28125 -2.296875q0 -1.46875 -1.125 -2.203125q-1.109375 -0.734375 -3.0625 -1.21875q-2.59375 -0.640625 -4.078125 -1.703125q-1.484375 -1.078125 -1.484375 -3.03125q0 -1.890625 1.5 -3.125q1.5 -1.234375 3.875 -1.234375q1.3125 0 2.59375 0.515625q1.296875 0.515625 2.359375 1.625q0.21875 0.203125 0.21875 0.453125q0 0.296875 -0.21875 0.515625q-0.25 0.125 -0.421875 0.125q-0.21875 0 -0.375 -0.1875q-1.671875 -1.828125 -4.296875 -1.828125q-1.6875 0 -2.859375 0.84375q-1.171875 0.828125 -1.171875 2.296875q0.109375 1.375 1.265625 2.125q1.171875 0.75 3.4375 1.328125q1.640625 0.421875 2.703125 0.921875q1.078125 0.484375 1.71875 1.390625q0.640625 0.890625 0.640625 2.328125q0 2.015625 -1.5625 3.1875q-1.546875 1.15625 -4.03125 1.15625q-3.65625 0 -5.984375 -2.875z" fill-rule="nonzero"/><path fill="#000000" fill-opacity="0.0" d="m336.19946 27.821522l276.378 0l0 51.77953l-276.378 0z" fill-rule="evenodd"/><path fill="#000000" d="m374.25446 55.447773q0.84375 0 1.375 0.5625q0.546875 0.5625 0.546875 1.390625l0 6.781254q0 1.125 -0.984375 1.734375q-3.140625 1.9375 -6.890625 1.9375q-3.15625 0 -5.84375 -1.546875q-2.6875 -1.546875 -4.265625 -4.187504q-1.5625 -2.640625 -1.5625 -5.78125q0 -3.140625 1.5625 -5.765625q1.578125 -2.640625 4.265625 -4.1875q2.6875 -1.5625 5.84375 -1.5625q3.171875 0 5.515625 1.28125q0.46875 0.25 0.703125 0.671875q0.25 0.40625 0.25 0.890625q0 0.796875 -0.53125 1.390625q-0.515625 0.59375 -1.296875 0.59375q-0.46875 0 -1.046875 -0.25q-1.734375 -0.734375 -3.59375 -0.734375q-2.046875 0 -3.78125 1.046875q-1.71875 1.03125 -2.734375 2.796875q-1.0 1.75 -1.0 3.828125q0 2.078125 1.0 3.84375q1.015625 1.765625 2.734375 2.8125q1.734375 1.0312538 3.78125 1.0312538q0.90625 0 1.921875 -0.15625381q1.03125 -0.171875 1.796875 -0.421875l0 -4.15625l-3.015625 0q-0.828125 0 -1.390625 -0.546875q-0.546875 -0.546875 -0.546875 -1.375q0 -0.84375 0.546875 -1.375q0.5625 -0.546875 1.390625 -0.546875l5.25 0zm23.334564 9.593754q0.15625 0.421875 0.15625 0.765625q0 0.84375 -0.546875 1.375q-0.53125 0.515625 -1.234375 0.515625q-0.578125 0 -1.046875 -0.34375q-0.46875 -0.359375 -0.71875 -0.96875l-1.671875 -3.8750038l-9.53125 0l-1.65625 3.9062538q-0.234375 0.609375 -0.703125 0.953125q-0.453125 0.328125 -1.0 0.328125q-0.828125 0 -1.265625 -0.4375q-0.4375 -0.453125 -0.4375 -1.21875q0 -0.296875 0.109375 -0.609375l7.96875 -19.140629q0.25 -0.640625 0.75 -0.984375q0.515625 -0.359375 1.15625 -0.296875q0.578125 0 1.078125 0.34375q0.5 0.328125 0.71875 0.9375l7.875 18.750004zm-13.03125 -6.203129l6.40625 0l-3.234375 -7.484375l-3.171875 7.484375zm32.901154 -13.703125q0.765625 0 1.25 0.515625q0.484375 0.515625 0.484375 1.28125l0 18.656254q0 0.828125 -0.5625 1.390625q-0.5625 0.5625 -1.390625 0.5625q-0.453125 0 -0.890625 -0.140625q-0.421875 -0.140625 -0.625 -0.40625l-11.734375 -14.906254l0 13.656254q0 0.765625 -0.5 1.28125q-0.5 0.515625 -1.296875 0.515625q-0.765625 0 -1.25 -0.515625q-0.46875 -0.515625 -0.46875 -1.28125l0 -18.656254q0 -0.828125 0.546875 -1.390625q0.5625 -0.5625 1.40625 -0.5625q0.46875 0 0.9375 0.203125q0.46875 0.1875 0.6875 0.5l11.640625 14.859375l0 -13.765625q0 -0.765625 0.5 -1.28125q0.5 -0.515625 1.265625 -0.515625zm16.636322 14.5q-0.828125 0 -1.390625 -0.53125q-0.5625 -0.546875 -0.5625 -1.390625q0 -0.796875 0.5625 -1.34375q0.5625 -0.546875 1.390625 -0.546875l5.578125 0q0.828125 0 1.390625 0.5625q0.5625 0.5625 0.5625 1.390625q0 0.8125 -0.5625 1.34375q-0.5625 0.515625 -1.390625 0.515625l-5.578125 0z" fill-rule="nonzero"/><path fill="#000000" d="m460.7898 51.447773q0.21875 0 0.40625 0.1875q0.203125 0.1875 0.203125 0.421875q0 0.25 -0.1875 0.4375q-0.171875 0.171875 -0.421875 0.171875l-3.515625 0l0 11.390629q0 1.40625 0.484375 1.875q0.5 0.453125 1.265625 0.453125q0.125 0 0.359375 -0.0625q0.25 -0.0625 0.40625 -0.0625q0.234375 0 0.390625 0.1875q0.15625 0.171875 0.15625 0.390625q0 0.28125 -0.390625 0.5q-0.375 0.203125 -0.890625 0.203125q-0.796875 0 -1.34375 -0.109375q-0.546875 -0.109375 -1.140625 -0.859375q-0.578125 -0.765625 -0.578125 -2.453125l0 -11.453129l-2.625 0q-0.234375 0 -0.421875 -0.1875q-0.1875 -0.203125 -0.1875 -0.421875q0 -0.265625 0.171875 -0.4375q0.171875 -0.171875 0.4375 -0.171875l2.625 0l0 -4.0625q0 -0.265625 0.1875 -0.453125q0.1875 -0.1875 0.453125 -0.1875q0.28125 0 0.453125 0.1875q0.1875 0.1875 0.1875 0.453125l0 4.0625l3.515625 0zm11.39328 -0.390625q1.46875 0 1.46875 0.734375q0 0.296875 -0.15625 0.484375q-0.15625 0.1875 -0.421875 0.1875q-0.09375 0 -0.46875 -0.140625q-0.359375 -0.140625 -0.78125 -0.140625q-1.3125 0 -2.625 1.046875q-1.3125 1.03125 -2.140625 2.625q-0.828125 1.578125 -0.828125 3.046875l0 8.000004q0 0.25 -0.203125 0.453125q-0.1875 0.1875 -0.4375 0.1875q-0.28125 0 -0.46875 -0.1875q-0.171875 -0.203125 -0.171875 -0.453125l0 -14.687504q0 -0.25 0.1875 -0.4375q0.203125 -0.203125 0.453125 -0.203125q0.28125 0 0.453125 0.203125q0.1875 0.1875 0.1875 0.4375l0 3.390625q0.734375 -1.953125 2.28125 -3.234375q1.5625 -1.28125 3.671875 -1.3125zm17.635406 0.515625q0.28125 0 0.453125 0.203125q0.1875 0.1875 0.1875 0.4375l0 14.687504q0 0.25 -0.203125 0.453125q-0.1875 0.1875 -0.4375 0.1875q-0.296875 0 -0.46875 -0.1875q-0.171875 -0.203125 -0.171875 -0.453125l0 -2.875q-0.8125 1.625 -2.484375 2.734375q-1.65625 1.09375 -3.671875 1.09375q-2.109375 0 -3.8125 -1.09375q-1.6875 -1.109375 -2.65625 -3.0468788q-0.953125 -1.9375 -0.953125 -4.328125q0 -2.375 0.96875 -4.28125q0.984375 -1.90625 2.671875 -2.96875q1.703125 -1.078125 3.78125 -1.078125q2.09375 0 3.75 1.09375q1.671875 1.09375 2.40625 2.90625l0 -2.84375q0 -0.25 0.171875 -0.4375q0.171875 -0.203125 0.46875 -0.203125zm-6.71875 15.078129q1.75 0 3.171875 -0.9375q1.421875 -0.953125 2.21875 -2.6093788q0.8125 -1.671875 0.8125 -3.71875q0 -1.953125 -0.8125 -3.578125q-0.796875 -1.640625 -2.21875 -2.578125q-1.421875 -0.953125 -3.171875 -0.953125q-1.765625 0 -3.1875 0.921875q-1.421875 0.90625 -2.234375 2.53125q-0.796875 1.609375 -0.796875 3.65625q0 2.046875 0.796875 3.71875q0.8125 1.6562538 2.21875 2.6093788q1.40625 0.9375 3.203125 0.9375zm13.946289 0.25q0 0.25 -0.203125 0.453125q-0.1875 0.1875 -0.4375 0.1875q-0.28125 0 -0.46875 -0.1875q-0.171875 -0.203125 -0.171875 -0.453125l0 -15.203129q0 -0.25 0.1875 -0.4375q0.203125 -0.203125 0.453125 -0.203125q0.28125 0 0.453125 0.203125q0.1875 0.1875 0.1875 0.4375l0 15.203129zm-0.625 -18.046879q-0.515625 0 -0.828125 -0.28125q-0.296875 -0.296875 -0.296875 -0.75l0 -0.25q0 -0.453125 0.3125 -0.734375q0.328125 -0.28125 0.84375 -0.28125q0.453125 0 0.75 0.28125q0.3125 0.28125 0.3125 0.734375l0 0.25q0 0.453125 -0.3125 0.75q-0.296875 0.28125 -0.78125 0.28125zm13.2013855 2.203125q2.8437195 0 4.2812195 1.6875q1.4375 1.671875 1.4375 4.359375l0 9.796879q0 0.25 -0.1875 0.453125q-0.1875 0.1875 -0.4375 0.1875q-0.296875 0 -0.46875 -0.1875q-0.171875 -0.203125 -0.171875 -0.453125l0 -9.656254q0 -2.1875 -1.140625 -3.578125q-1.1405945 -1.390625 -3.4374695 -1.390625q-1.40625 0 -2.78125 0.671875q-1.359375 0.671875 -2.21875 1.828125q-0.859375 1.15625 -0.859375 2.46875l0 9.656254q0 0.25 -0.203125 0.453125q-0.1875 0.1875 -0.4375 0.1875q-0.28125 0 -0.46875 -0.1875q-0.171875 -0.203125 -0.171875 -0.453125l0 -14.687504q0 -0.25 0.1875 -0.4375q0.203125 -0.203125 0.453125 -0.203125q0.28125 0 0.453125 0.203125q0.1875 0.1875 0.1875 0.4375l0 2.140625q0.921875 -1.4375 2.59375 -2.359375q1.6875 -0.9375 3.390625 -0.9375zm12.319672 15.843754q0 0.25 -0.203125 0.453125q-0.1875 0.1875 -0.4375 0.1875q-0.28125 0 -0.46875 -0.1875q-0.171875 -0.203125 -0.171875 -0.453125l0 -15.203129q0 -0.25 0.1875 -0.4375q0.203125 -0.203125 0.453125 -0.203125q0.28125 0 0.453125 0.203125q0.1875 0.1875 0.1875 0.4375l0 15.203129zm-0.625 -18.046879q-0.515625 0 -0.828125 -0.28125q-0.296875 -0.296875 -0.296875 -0.75l0 -0.25q0 -0.453125 0.3125 -0.734375q0.328125 -0.28125 0.84375 -0.28125q0.453125 0 0.75 0.28125q0.3125 0.28125 0.3125 0.734375l0 0.25q0 0.453125 -0.3125 0.75q-0.296875 0.28125 -0.78125 0.28125zm13.201355 2.203125q2.84375 0 4.28125 1.6875q1.4375 1.671875 1.4375 4.359375l0 9.796879q0 0.25 -0.1875 0.453125q-0.1875 0.1875 -0.4375 0.1875q-0.296875 0 -0.46875 -0.1875q-0.171875 -0.203125 -0.171875 -0.453125l0 -9.656254q0 -2.1875 -1.140625 -3.578125q-1.140625 -1.390625 -3.4375 -1.390625q-1.40625 0 -2.78125 0.671875q-1.359375 0.671875 -2.21875 1.828125q-0.859375 1.15625 -0.859375 2.46875l0 9.656254q0 0.25 -0.203125 0.453125q-0.1875 0.1875 -0.4375 0.1875q-0.28125 0 -0.46875 -0.1875q-0.171875 -0.203125 -0.171875 -0.453125l0 -14.687504q0 -0.25 0.1875 -0.4375q0.203125 -0.203125 0.453125 -0.203125q0.28125 0 0.453125 0.203125q0.1875 0.1875 0.1875 0.4375l0 2.140625q0.921875 -1.4375 2.59375 -2.359375q1.6875 -0.9375 3.390625 -0.9375zm24.772766 0.515625q0.28125 0 0.453125 0.203125q0.1875 0.1875 0.1875 0.4375l0 13.765629q0 2.421875 -1.0 4.21875q-0.984375 1.796875 -2.78125 2.765625q-1.796875 0.984375 -4.09375 0.984375q-1.28125 0 -2.59375 -0.34375q-1.3125 -0.328125 -2.171875 -0.859375q-0.84375 -0.53125 -0.84375 -1.078125q0 -0.25 0.140625 -0.421875q0.15625 -0.15625 0.40625 -0.15625q0.1875 0 0.578125 0.328125q0.453125 0.4375 0.984375 0.671875q1.578125 0.640625 3.5625 0.640625q3.0 0 4.765625 -1.859375q1.765625 -1.859375 1.765625 -4.890625l0 -2.2187538q-0.875 2.0468788 -2.6875 3.0781288q-1.796875 1.015625 -3.78125 1.015625q-2.171875 0 -3.953125 -1.09375q-1.78125 -1.109375 -2.796875 -3.0312538q-1.0 -1.921875 -1.0 -4.28125q0 -2.375 1.0 -4.28125q1.015625 -1.921875 2.796875 -3.015625q1.78125 -1.09375 3.953125 -1.09375q2.140625 0 3.90625 1.140625q1.78125 1.140625 2.5625 2.734375l0 -2.71875q0 -0.25 0.171875 -0.4375q0.171875 -0.203125 0.46875 -0.203125zm-7.046875 15.078129q1.859375 0 3.34375 -0.90625q1.484375 -0.921875 2.328125 -2.5468788q0.859375 -1.640625 0.859375 -3.75q0 -2.109375 -0.859375 -3.734375q-0.84375 -1.640625 -2.328125 -2.53125q-1.484375 -0.90625 -3.34375 -0.90625q-1.859375 0 -3.34375 0.9375q-1.484375 0.921875 -2.34375 2.5625q-0.84375 1.625 -0.84375 3.671875q0 2.046875 0.84375 3.6875q0.859375 1.6250038 2.34375 2.5781288q1.484375 0.9375 3.34375 0.9375zm38.460693 -10.156254q0.296875 0 0.46875 0.203125q0.171875 0.1875 0.171875 0.4375l0 8.031254q0 0.390625 -0.28125 0.578125q-1.46875 1.0 -3.21875 1.5625q-1.75 0.546875 -3.53125 0.546875q-3.296875 0 -5.90625 -1.484375q-2.609375 -1.484375 -4.109375 -4.109379q-1.484375 -2.625 -1.484375 -5.921875q0 -3.296875 1.484375 -5.921875q1.5 -2.625 4.109375 -4.109375q2.609375 -1.484375 5.90625 -1.484375q1.78125 0 3.390625 0.4375q1.625 0.421875 2.90625 1.296875q0.296875 0.1875 0.296875 0.53125q0 0.296875 -0.21875 0.46875q-0.203125 0.171875 -0.390625 0.171875q-0.171875 0 -0.421875 -0.125q-2.6875 -1.5 -5.5625 -1.5q-2.953125 0 -5.265625 1.3125q-2.296875 1.3125 -3.59375 3.65625q-1.296875 2.328125 -1.296875 5.265625q0 2.953125 1.296875 5.296875q1.296875 2.328125 3.59375 3.6406288q2.3125 1.3125 5.265625 1.3125q1.46875 0 2.984375 -0.46875q1.515625 -0.46875 2.765625 -1.234375l0 -7.109379l-5.75 0q-0.265625 0 -0.453125 -0.1875q-0.1875 -0.1875 -0.1875 -0.453125q0 -0.28125 0.1875 -0.453125q0.1875 -0.1875 0.453125 -0.1875l6.390625 0z" fill-rule="nonzero"/><path fill="#000000" fill-opacity="0.0" d="m56.498688 367.90027l0 -276.37796l51.779526 0l0 276.37796z" fill-rule="evenodd"/><path fill="#000000" d="m94.93744 249.96512q0 -0.25 0.203125 -0.4375q0.1875 -0.203125 0.4375 -0.203125q0.28125 0 0.46875 0.203125q0.171875 0.1875 0.171875 0.4375l0 12.0625q0 0.265625 -0.1875 0.453125q-0.203125 0.1875 -0.453125 0.1875l-21.125 0q-0.25 0 -0.4375 -0.1875q-0.203125 -0.1875 -0.203125 -0.453125l0 -12.0625q0 -0.25 0.203125 -0.4375q0.1875 -0.203125 0.4375 -0.203125q0.296875 0 0.46875 0.203125q0.171875 0.1875 0.171875 0.4375l0 11.359375l8.9375 0l0 -9.921875q0 -0.25 0.1875 -0.4375q0.1875 -0.203125 0.453125 -0.203125q0.28125 0 0.46875 0.203125q0.171875 0.1875 0.171875 0.4375l0 9.921875l9.625 0l0 -11.359375zm-15.203125 -12.128418q0 -1.46875 0.734375 -1.46875q0.296875 0 0.484375 0.15625q0.1875 0.15625 0.1875 0.421875q0 0.09375 -0.140625 0.46875q-0.140625 0.359375 -0.140625 0.78125q0 1.3125 1.046875 2.625q1.03125 1.3125 2.625 2.140625q1.578125 0.828125 3.046875 0.828125l8.0 0q0.25 0 0.453125 0.203125q0.1875 0.1875 0.1875 0.4375q0 0.28125 -0.1875 0.46875q-0.203125 0.171875 -0.453125 0.171875l-14.6875 0q-0.25 0 -0.4375 -0.1875q-0.203125 -0.203125 -0.203125 -0.453125q0 -0.28125 0.203125 -0.453125q0.1875 -0.1875 0.4375 -0.1875l3.390625 0q-1.953125 -0.734375 -3.234375 -2.28125q-1.28125 -1.5625 -1.3125 -3.671875zm0 -11.7760315q0 -1.46875 0.734375 -1.46875q0.296875 0 0.484375 0.15625q0.1875 0.15625 0.1875 0.421875q0 0.09375 -0.140625 0.46875q-0.140625 0.359375 -0.140625 0.78125q0 1.3125 1.046875 2.625q1.03125 1.3125 2.625 2.140625q1.578125 0.828125 3.046875 0.828125l8.0 0q0.25 0 0.453125 0.203125q0.1875 0.1875 0.1875 0.4375q0 0.28125 -0.1875 0.46875q-0.203125 0.171875 -0.453125 0.171875l-14.6875 0q-0.25 0 -0.4375 -0.1875q-0.203125 -0.203125 -0.203125 -0.453125q0 -0.28125 0.203125 -0.453125q0.1875 -0.1875 0.4375 -0.1875l3.390625 0q-1.953125 -0.734375 -3.234375 -2.28125q-1.28125 -1.5625 -1.3125 -3.671875zm8.421875 -19.197906q2.359375 0 4.265625 1.03125q1.90625 1.015625 3.015625 2.828125q1.09375 1.8125 1.09375 4.015625q0 2.203125 -1.09375 4.015625q-1.109375 1.8125 -3.03125 2.859375q-1.921875 1.03125 -4.25 1.03125q-2.375 0 -4.28125 -1.03125q-1.921875 -1.046875 -3.03125 -2.84375q-1.109375 -1.796875 -1.109375 -4.03125q0 -2.203125 1.109375 -4.015625q1.109375 -1.8125 3.03125 -2.828125q1.90625 -1.03125 4.28125 -1.03125zm0 1.28125q-2.046875 0 -3.671875 0.84375q-1.640625 0.84375 -2.578125 2.359375q-0.953125 1.5 -0.953125 3.390625q0 1.859375 0.953125 3.375q0.9375 1.515625 2.578125 2.390625q1.625 0.859375 3.671875 0.859375q2.015625 0 3.65625 -0.859375q1.625 -0.875 2.578125 -2.390625q0.9375 -1.515625 0.9375 -3.375q0 -1.890625 -0.921875 -3.390625q-0.9375 -1.515625 -2.578125 -2.359375q-1.65625 -0.84375 -3.671875 -0.84375zm-8.421875 -12.707397q0 -1.46875 0.734375 -1.46875q0.296875 0 0.484375 0.15625q0.1875 0.15625 0.1875 0.421875q0 0.09375 -0.140625 0.46875q-0.140625 0.359375 -0.140625 0.78125q0 1.3125 1.046875 2.625q1.03125 1.3125 2.625 2.140625q1.578125 0.828125 3.046875 0.828125l8.0 0q0.25 0 0.453125 0.203125q0.1875 0.1875 0.1875 0.4375q0 0.28125 -0.1875 0.46875q-0.203125 0.171875 -0.453125 0.171875l-14.6875 0q-0.25 0 -0.4375 -0.1875q-0.203125 -0.203125 -0.203125 -0.453125q0 -0.28125 0.203125 -0.453125q0.1875 -0.1875 0.4375 -0.1875l3.390625 0q-1.953125 -0.734375 -3.234375 -2.28125q-1.28125 -1.5625 -1.3125 -3.671875z" fill-rule="nonzero"/><path fill="#000000" fill-opacity="0.0" d="m122.62205 127.65092l45.637794 43.338585" fill-rule="evenodd"/><path stroke="#cc0000" stroke-width="3.0" stroke-linejoin="round" stroke-linecap="butt" d="m122.62205 127.65092l38.182472 36.258858" fill-rule="evenodd"/><path fill="#cc0000" stroke="#cc0000" stroke-width="3.0" stroke-linecap="butt" d="m160.80452 163.90977l-4.7696075 0.12324524l9.044693 3.9364624l-4.3983307 -8.829315z" fill-rule="evenodd"/><path fill="#000000" fill-opacity="0.0" d="m170.62204 175.65092l37.480316 89.70079" fill-rule="evenodd"/><path stroke="#e06666" stroke-width="3.0" stroke-linejoin="round" stroke-linecap="butt" d="m170.62204 175.65092l33.51654 80.21434" fill-rule="evenodd"/><path fill="#e06666" stroke="#e06666" stroke-width="3.0" stroke-linecap="butt" d="m204.13858 255.86526l-4.4136505 -1.8122406l6.6865845 7.2520294l-0.46070862 -9.853424z" fill-rule="evenodd"/><path fill="#000000" fill-opacity="0.0" d="m210.62204 271.6509l37.35434 64.69293" fill-rule="evenodd"/><path stroke="#e69138" stroke-width="3.0" stroke-linejoin="round" stroke-linecap="butt" d="m210.62204 271.6509l32.213303 55.789307" fill-rule="evenodd"/><path fill="#e69138" stroke="#e69138" stroke-width="3.0" stroke-linecap="butt" d="m242.83534 327.44022l-4.608673 -1.2346497l7.5566864 6.3402405l-1.7133331 -9.714264z" fill-rule="evenodd"/><path fill="#000000" fill-opacity="0.0" d="m250.62204 343.6509l50.960632 26.519684" fill-rule="evenodd"/><path stroke="#f6b26b" stroke-width="3.0" stroke-linejoin="round" stroke-linecap="butt" d="m250.62204 343.6509l41.840424 21.77356" fill-rule="evenodd"/><path fill="#f6b26b" stroke="#f6b26b" stroke-width="3.0" stroke-linecap="butt" d="m292.46243 365.42447l-4.550171 1.4353638l9.779968 1.2861938l-6.6651306 -7.2717285z" fill-rule="evenodd"/><path fill="#000000" fill-opacity="0.0" d="m72.0 88.0l136.0315 0l0 64.69292l-136.0315 0z" fill-rule="evenodd"/><path fill="#000000" d="m147.78598 119.9727q0.84375 0 1.375 0.5625q0.546875 0.5625 0.546875 1.390625l0 6.78125q0 1.125 -0.984375 1.734375q-3.140625 1.9375 -6.890625 1.9375q-3.15625 0 -5.84375 -1.546875q-2.6875 -1.546875 -4.265625 -4.1875q-1.5625 -2.640625 -1.5625 -5.78125q0 -3.140625 1.5625 -5.765625q1.578125 -2.640625 4.265625 -4.1875q2.6875 -1.5625 5.84375 -1.5625q3.171875 0 5.515625 1.28125q0.46875 0.25 0.703125 0.671875q0.25 0.40625 0.25 0.890625q0 0.796875 -0.53125 1.390625q-0.515625 0.59375 -1.296875 0.59375q-0.46875 0 -1.046875 -0.25q-1.734375 -0.734375 -3.59375 -0.734375q-2.046875 0 -3.78125 1.046875q-1.71875 1.03125 -2.734375 2.796875q-1.0 1.75 -1.0 3.828125q0 2.078125 1.0 3.84375q1.015625 1.765625 2.734375 2.8125q1.734375 1.03125 3.78125 1.03125q0.90625 0 1.921875 -0.15625q1.03125 -0.171875 1.796875 -0.421875l0 -4.15625l-3.015625 0q-0.828125 0 -1.390625 -0.546875q-0.546875 -0.546875 -0.546875 -1.375q0 -0.84375 0.546875 -1.375q0.5625 -0.546875 1.390625 -0.546875l5.25 0z" fill-rule="nonzero"/><path fill="#000000" fill-opacity="0.0" d="m306.62204 367.6509l58.92914 15.307098" fill-rule="evenodd"/><path stroke="#ffd966" stroke-width="3.0" stroke-linejoin="round" stroke-linecap="butt" d="m306.62204 367.6509l48.97812 12.72229" fill-rule="evenodd"/><path fill="#ffd966" stroke="#ffd966" stroke-width="3.0" stroke-linecap="butt" d="m355.60016 380.37317l-4.1135864 2.4172058l9.819763 -0.93499756l-8.123383 -5.595764z" fill-rule="evenodd"/><path fill="#000000" fill-opacity="0.0" d="m370.62204 383.6509l58.92914 15.307098" fill-rule="evenodd"/><path stroke="#b6d7a8" stroke-width="3.0" stroke-linejoin="round" stroke-linecap="butt" d="m370.62204 383.6509l48.97812 12.72229" fill-rule="evenodd"/><path fill="#b6d7a8" stroke="#b6d7a8" stroke-width="3.0" stroke-linecap="butt" d="m419.60016 396.37317l-4.1135864 2.4172058l9.819763 -0.93499756l-8.123383 -5.595764z" fill-rule="evenodd"/><path fill="#000000" fill-opacity="0.0" d="m434.62204 399.6509l59.748047 1.8582764" fill-rule="evenodd"/><path stroke="#93c47d" stroke-width="3.0" stroke-linejoin="round" stroke-linecap="butt" d="m434.62204 399.6509l49.47174 1.5386963" fill-rule="evenodd"/><path fill="#93c47d" stroke="#93c47d" stroke-width="3.0" stroke-linecap="butt" d="m484.09378 401.18958l-3.4769897 3.2672424l9.36969 -3.0839539l-9.159943 -3.6602783z" fill-rule="evenodd"/><path fill="#000000" fill-opacity="0.0" d="m497.44882 401.5092l60.91336 0" fill-rule="evenodd"/><path stroke="#6aa84f" stroke-width="3.0" stroke-linejoin="round" stroke-linecap="butt" d="m497.44882 401.5092l50.63211 0" fill-rule="evenodd"/><path fill="#6aa84f" stroke="#6aa84f" stroke-width="3.0" stroke-linecap="butt" d="m548.08093 401.5092l-3.3737183 3.3737488l9.269287 -3.3737488l-9.269287 -3.3737488z" fill-rule="evenodd"/><path fill="#000000" fill-opacity="0.0" d="m561.4488 401.5092l60.91339 0" fill-rule="evenodd"/><path stroke="#6aa84f" stroke-width="3.0" stroke-linejoin="round" stroke-linecap="butt" d="m561.4488 401.5092l50.63214 0" fill-rule="evenodd"/><path fill="#6aa84f" stroke="#6aa84f" stroke-width="3.0" stroke-linecap="butt" d="m612.08093 401.5092l-3.3737183 3.3737488l9.269287 -3.3737488l-9.269287 -3.3737488z" fill-rule="evenodd"/><path fill="#000000" fill-opacity="0.0" d="m625.4488 401.5092l60.91339 0" fill-rule="evenodd"/><path stroke="#6aa84f" stroke-width="3.0" stroke-linejoin="round" stroke-linecap="butt" d="m625.4488 401.5092l50.63214 0" fill-rule="evenodd"/><path fill="#6aa84f" stroke="#6aa84f" stroke-width="3.0" stroke-linecap="butt" d="m676.08093 401.5092l-3.3737183 3.3737488l9.269287 -3.3737488l-9.269287 -3.3737488z" fill-rule="evenodd"/><path fill="#000000" fill-opacity="0.0" d="m122.62205 401.5092l45.637794 -43.338593" fill-rule="evenodd"/><path stroke="#ffd966" stroke-width="3.0" stroke-linejoin="round" stroke-linecap="butt" d="m122.62205 401.5092l38.182472 -36.25885" fill-rule="evenodd"/><path fill="#ffd966" stroke="#ffd966" stroke-width="3.0" stroke-linecap="butt" d="m160.80452 365.25034l-0.12324524 4.7695923l4.3983307 -8.829315l-9.044693 3.9364624z" fill-rule="evenodd"/><path fill="#000000" fill-opacity="0.0" d="m170.62204 353.5092l37.480316 -89.700775" fill-rule="evenodd"/><path stroke="#f6b26b" stroke-width="3.0" stroke-linejoin="round" stroke-linecap="butt" d="m170.62204 353.5092l33.51654 -80.214355" fill-rule="evenodd"/><path fill="#f6b26b" stroke="#f6b26b" stroke-width="3.0" stroke-linecap="butt" d="m204.13858 273.29486l1.8122253 4.4136353l0.46070862 -9.853424l-6.6865845 7.252014z" fill-rule="evenodd"/><path fill="#000000" fill-opacity="0.0" d="m210.62204 257.5092l37.35434 -64.69292" fill-rule="evenodd"/><path stroke="#e06666" stroke-width="3.0" stroke-linejoin="round" stroke-linecap="butt" d="m210.62204 257.5092l32.213303 -55.789307" fill-rule="evenodd"/><path fill="#e06666" stroke="#e06666" stroke-width="3.0" stroke-linecap="butt" d="m242.83534 201.71988l1.2346802 4.608673l1.7133331 -9.714249l-7.5566864 6.3402405z" fill-rule="evenodd"/><path fill="#000000" fill-opacity="0.0" d="m250.62204 185.50919l50.960632 -26.519684" fill-rule="evenodd"/><path stroke="#e06666" stroke-width="3.0" stroke-linejoin="round" stroke-linecap="butt" d="m250.62204 185.50919l41.840424 -21.77356" fill-rule="evenodd"/><path fill="#e06666" stroke="#e06666" stroke-width="3.0" stroke-linecap="butt" d="m292.46243 163.73563l-1.4353333 4.550186l6.6651306 -7.271744l-9.779968 1.2862091z" fill-rule="evenodd"/><path fill="#000000" fill-opacity="0.0" d="m306.62204 161.50919l58.92914 -15.307083" fill-rule="evenodd"/><path stroke="#cc0000" stroke-width="3.0" stroke-linejoin="round" stroke-linecap="butt" d="m306.62204 161.50919l48.97812 -12.7222595" fill-rule="evenodd"/><path fill="#cc0000" stroke="#cc0000" stroke-width="3.0" stroke-linecap="butt" d="m355.60016 148.78693l-2.4172058 4.1135864l8.123383 -5.5957947l-9.819763 -0.9349823z" fill-rule="evenodd"/><path fill="#000000" fill-opacity="0.0" d="m370.62204 145.50919l58.92914 -15.307083" fill-rule="evenodd"/><path stroke="#cc0000" stroke-width="3.0" stroke-linejoin="round" stroke-linecap="butt" d="m370.62204 145.50919l48.97812 -12.7222595" fill-rule="evenodd"/><path fill="#cc0000" stroke="#cc0000" stroke-width="3.0" stroke-linecap="butt" d="m419.60016 132.78693l-2.4172058 4.1135864l8.123383 -5.5957947l-9.819763 -0.9349823z" fill-rule="evenodd"/><path fill="#000000" fill-opacity="0.0" d="m434.62204 129.50919l59.748047 -1.8582687" fill-rule="evenodd"/><path stroke="#cc0000" stroke-width="3.0" stroke-linejoin="round" stroke-linecap="butt" d="m434.62204 129.50919l49.47174 -1.5386505" fill-rule="evenodd"/><path fill="#cc0000" stroke="#cc0000" stroke-width="3.0" stroke-linecap="butt" d="m484.09378 127.97053l-3.2672424 3.4769974l9.159943 -3.6602707l-9.36969 -3.083969z" fill-rule="evenodd"/><path fill="#000000" fill-opacity="0.0" d="m497.44882 127.65092l60.91336 0" fill-rule="evenodd"/><path stroke="#990000" stroke-width="3.0" stroke-linejoin="round" stroke-linecap="butt" d="m497.44882 127.65092l50.63211 0" fill-rule="evenodd"/><path fill="#990000" stroke="#990000" stroke-width="3.0" stroke-linecap="butt" d="m548.08093 127.65092l-3.3737183 3.3737564l9.269287 -3.3737564l-9.269287 -3.3737488z" fill-rule="evenodd"/><path fill="#000000" fill-opacity="0.0" d="m561.4488 127.65092l60.91339 0" fill-rule="evenodd"/><path stroke="#990000" stroke-width="3.0" stroke-linejoin="round" stroke-linecap="butt" d="m561.4488 127.65092l50.63214 0" fill-rule="evenodd"/><path fill="#990000" stroke="#990000" stroke-width="3.0" stroke-linecap="butt" d="m612.08093 127.65092l-3.3737183 3.3737564l9.269287 -3.3737564l-9.269287 -3.3737488z" fill-rule="evenodd"/><path fill="#000000" fill-opacity="0.0" d="m625.4488 127.65092l60.91339 0" fill-rule="evenodd"/><path stroke="#990000" stroke-width="3.0" stroke-linejoin="round" stroke-linecap="butt" d="m625.4488 127.65092l50.63214 0" fill-rule="evenodd"/><path fill="#990000" stroke="#990000" stroke-width="3.0" stroke-linecap="butt" d="m676.08093 127.65092l-3.3737183 3.3737564l9.269287 -3.3737564l-9.269287 -3.3737488z" fill-rule="evenodd"/><path fill="#000000" fill-opacity="0.0" d="m80.0 375.87402l136.0315 0l0 51.77951l-136.0315 0z" fill-rule="evenodd"/><path fill="#000000" d="m148.57571 391.0775q3.015625 0 5.171875 1.5q2.15625 1.484375 3.28125 4.03125q1.140625 2.53125 1.140625 5.671875q0 3.140625 -1.140625 5.6875q-1.125 2.546875 -3.28125 4.03125q-2.15625 1.484375 -5.171875 1.484375l-7.640625 0q-0.84375 0 -1.40625 -0.5625q-0.546875 -0.5625 -0.546875 -1.390625l0 -18.5q0 -0.828125 0.546875 -1.390625q0.5625 -0.5625 1.40625 -0.5625l7.640625 0zm-0.3125 18.71875q2.875 0 4.3125 -2.125q1.4375 -2.125 1.4375 -5.390625q0 -3.265625 -1.453125 -5.390625q-1.453125 -2.125 -4.296875 -2.125l-5.28125 0l0 15.03125l5.28125 0z" fill-rule="nonzero"/><path fill="#000000" fill-opacity="0.0" d="m746.6221 127.65092l45.637756 43.338585" fill-rule="evenodd"/><path stroke="#cc0000" stroke-width="3.0" stroke-linejoin="round" stroke-linecap="butt" d="m746.6221 127.65092l38.182495 36.258858" fill-rule="evenodd"/><path fill="#cc0000" stroke="#cc0000" stroke-width="3.0" stroke-linecap="butt" d="m784.8045 163.90977l-4.7695923 0.12324524l9.044678 3.9364624l-4.3983154 -8.829315z" fill-rule="evenodd"/><path fill="#000000" fill-opacity="0.0" d="m794.6221 175.65092l37.480286 89.70079" fill-rule="evenodd"/><path stroke="#e06666" stroke-width="3.0" stroke-linejoin="round" stroke-linecap="butt" d="m794.6221 175.65092l33.51648 80.21434" fill-rule="evenodd"/><path fill="#e06666" stroke="#e06666" stroke-width="3.0" stroke-linecap="butt" d="m828.13855 255.86526l-4.4136353 -1.8122406l6.6865845 7.2520294l-0.46069336 -9.853424z" fill-rule="evenodd"/><path fill="#000000" fill-opacity="0.0" d="m834.6221 271.6509l37.35431 64.69293" fill-rule="evenodd"/><path stroke="#e69138" stroke-width="3.0" stroke-linejoin="round" stroke-linecap="butt" d="m834.6221 271.6509l32.213318 55.789307" fill-rule="evenodd"/><path fill="#e69138" stroke="#e69138" stroke-width="3.0" stroke-linecap="butt" d="m866.8353 327.44022l-4.6086426 -1.2346497l7.5566406 6.3402405l-1.7133179 -9.714264z" fill-rule="evenodd"/><path fill="#000000" fill-opacity="0.0" d="m746.6221 401.5092l45.637756 -43.338593" fill-rule="evenodd"/><path stroke="#ffd966" stroke-width="3.0" stroke-linejoin="round" stroke-linecap="butt" d="m746.6221 401.5092l38.182495 -36.25885" fill-rule="evenodd"/><path fill="#ffd966" stroke="#ffd966" stroke-width="3.0" stroke-linecap="butt" d="m784.8045 365.25034l-0.12322998 4.7695923l4.3983154 -8.829315l-9.044678 3.9364624z" fill-rule="evenodd"/><path fill="#000000" fill-opacity="0.0" d="m794.6221 353.5092l37.480286 -89.700775" fill-rule="evenodd"/><path stroke="#f6b26b" stroke-width="3.0" stroke-linejoin="round" stroke-linecap="butt" d="m794.6221 353.5092l33.51648 -80.214355" fill-rule="evenodd"/><path fill="#f6b26b" stroke="#f6b26b" stroke-width="3.0" stroke-linecap="butt" d="m828.13855 273.29486l1.8122559 4.4136353l0.46069336 -9.853424l-6.6865845 7.252014z" fill-rule="evenodd"/><path fill="#000000" fill-opacity="0.0" d="m834.6221 257.5092l37.35431 -64.69292" fill-rule="evenodd"/><path stroke="#e06666" stroke-width="3.0" stroke-linejoin="round" stroke-linecap="butt" d="m834.6221 257.5092l32.213318 -55.789307" fill-rule="evenodd"/><path fill="#e06666" stroke="#e06666" stroke-width="3.0" stroke-linecap="butt" d="m866.8353 201.71988l1.2346802 4.608673l1.7133179 -9.714249l-7.5566406 6.3402405z" fill-rule="evenodd"/><path fill="#000000" fill-opacity="0.0" d="m689.3123 127.65092l51.08661 0" fill-rule="evenodd"/><path stroke="#595959" stroke-width="2.0" stroke-linejoin="round" stroke-linecap="butt" stroke-dasharray="8.0,6.0" d="m689.3123 127.65092l51.08661 0" fill-rule="evenodd"/><path fill="#000000" fill-opacity="0.0" d="m689.3123 401.58502l51.08661 0" fill-rule="evenodd"/><path stroke="#595959" stroke-width="2.0" stroke-linejoin="round" stroke-linecap="butt" stroke-dasharray="8.0,6.0" d="m689.3123 401.58502l51.08661 0" fill-rule="evenodd"/><path fill="#000000" fill-opacity="0.0" d="m712.19946 27.821522l276.378 0l0 51.77953l-276.378 0z" fill-rule="evenodd"/><path fill="#000000" d="m801.77454 55.447773q0.84375 0 1.375 0.5625q0.546875 0.5625 0.546875 1.390625l0 6.781254q0 1.125 -0.984375 1.734375q-3.140625 1.9375 -6.890625 1.9375q-3.15625 0 -5.84375 -1.546875q-2.6875 -1.546875 -4.265625 -4.187504q-1.5625 -2.640625 -1.5625 -5.78125q0 -3.140625 1.5625 -5.765625q1.578125 -2.640625 4.265625 -4.1875q2.6875 -1.5625 5.84375 -1.5625q3.171875 0 5.515625 1.28125q0.46875 0.25 0.703125 0.671875q0.25 0.40625 0.25 0.890625q0 0.796875 -0.53125 1.390625q-0.515625 0.59375 -1.296875 0.59375q-0.46875 0 -1.046875 -0.25q-1.734375 -0.734375 -3.59375 -0.734375q-2.046875 0 -3.78125 1.046875q-1.71875 1.03125 -2.734375 2.796875q-1.0 1.75 -1.0 3.828125q0 2.078125 1.0 3.84375q1.015625 1.765625 2.734375 2.8125q1.734375 1.0312538 3.78125 1.0312538q0.90625 0 1.921875 -0.15625381q1.03125 -0.171875 1.796875 -0.421875l0 -4.15625l-3.015625 0q-0.828125 0 -1.390625 -0.546875q-0.546875 -0.546875 -0.546875 -1.375q0 -0.84375 0.546875 -1.375q0.5625 -0.546875 1.390625 -0.546875l5.25 0zm23.334534 9.593754q0.15625 0.421875 0.15625 0.765625q0 0.84375 -0.546875 1.375q-0.53125 0.515625 -1.234375 0.515625q-0.578125 0 -1.046875 -0.34375q-0.46875 -0.359375 -0.71875 -0.96875l-1.671875 -3.8750038l-9.53125 0l-1.65625 3.9062538q-0.234375 0.609375 -0.703125 0.953125q-0.453125 0.328125 -1.0 0.328125q-0.828125 0 -1.265625 -0.4375q-0.4375 -0.453125 -0.4375 -1.21875q0 -0.296875 0.109375 -0.609375l7.96875 -19.140629q0.25 -0.640625 0.75 -0.984375q0.515625 -0.359375 1.15625 -0.296875q0.578125 0 1.078125 0.34375q0.5 0.328125 0.71875 0.9375l7.875 18.750004zm-13.03125 -6.203129l6.40625 0l-3.234375 -7.484375l-3.171875 7.484375zm32.901184 -13.703125q0.765625 0 1.25 0.515625q0.484375 0.515625 0.484375 1.28125l0 18.656254q0 0.828125 -0.5625 1.390625q-0.5625 0.5625 -1.390625 0.5625q-0.453125 0 -0.890625 -0.140625q-0.421875 -0.140625 -0.625 -0.40625l-11.734375 -14.906254l0 13.656254q0 0.765625 -0.5 1.28125q-0.5 0.515625 -1.296875 0.515625q-0.765625 0 -1.25 -0.515625q-0.46875 -0.515625 -0.46875 -1.28125l0 -18.656254q0 -0.828125 0.546875 -1.390625q0.5625 -0.5625 1.40625 -0.5625q0.46875 0 0.9375 0.203125q0.46875 0.1875 0.6875 0.5l11.640625 14.859375l0 -13.765625q0 -0.765625 0.5 -1.28125q0.5 -0.515625 1.265625 -0.515625zm16.636353 14.5q-0.828125 0 -1.390625 -0.53125q-0.5625 -0.546875 -0.5625 -1.390625q0 -0.796875 0.5625 -1.34375q0.5625 -0.546875 1.390625 -0.546875l5.578125 0q0.828125 0 1.390625 0.5625q0.5625 0.5625 0.5625 1.390625q0 0.8125 -0.5625 1.34375q-0.5625 0.515625 -1.390625 0.515625l-5.578125 0z" fill-rule="nonzero"/><path fill="#000000" d="m891.85675 45.135273q3.078125 0 5.171875 1.546875q2.09375 1.53125 3.09375 4.078125q1.015625 2.546875 1.015625 5.578125q0 3.171875 -1.015625 5.703125q-1.0 2.5312538 -3.078125 4.015629q-2.078125 1.484375 -5.1875 1.484375l-8.3125 0q-0.265625 0 -0.453125 -0.1875q-0.1875 -0.203125 -0.1875 -0.453125l0 -21.125004q0 -0.25 0.1875 -0.4375q0.1875 -0.203125 0.453125 -0.203125l8.3125 0zm-0.3125 21.125004q4.15625 0 6.203125 -2.7343788q2.046875 -2.734375 2.046875 -7.1875q0 -2.71875 -0.875 -4.96875q-0.875 -2.265625 -2.71875 -3.609375q-1.84375 -1.34375 -4.65625 -1.34375l-7.296875 0l0 19.843754l7.296875 0zm13.665039 1.28125q-0.421875 0 -0.65625 -0.265625q-0.21875 -0.28125 -0.21875 -0.71875l0 -0.75q0 -0.4375 0.21875 -0.703125q0.234375 -0.28125 0.65625 -0.28125l0.125 0q0.421875 0 0.640625 0.28125q0.21875 0.265625 0.21875 0.703125l0 0.75q0 0.4375 -0.21875 0.71875q-0.21875 0.265625 -0.640625 0.265625l-0.125 0zm5.0560303 0q-0.421875 0 -0.65625 -0.265625q-0.21875 -0.28125 -0.21875 -0.71875l0 -0.75q0 -0.4375 0.21875 -0.703125q0.234375 -0.28125 0.65625 -0.28125l0.125 0q0.421875 0 0.640625 0.28125q0.21875 0.265625 0.21875 0.703125l0 0.75q0 0.4375 -0.21875 0.71875q-0.21875 0.265625 -0.640625 0.265625l-0.125 0zm5.0560303 0q-0.421875 0 -0.65625 -0.265625q-0.21875 -0.28125 -0.21875 -0.71875l0 -0.75q0 -0.4375 0.21875 -0.703125q0.234375 -0.28125 0.65625 -0.28125l0.125 0q0.421875 0 0.640625 0.28125q0.21875 0.265625 0.21875 0.703125l0 0.75q0 0.4375 -0.21875 0.71875q-0.21875 0.265625 -0.640625 0.265625l-0.125 0z" fill-rule="nonzero"/></g></svg>