<svg version="1.1" viewBox="0.0 0.0 960.0 540.0" fill="none" stroke="none" stroke-linecap="square" stroke-miterlimit="10" xmlns:xlink="http://www.w3.org/1999/xlink" xmlns="http://www.w3.org/2000/svg"><clipPath id="g29aee762d0_0_2713.0"><path d="m0 0l960.0 0l0 540.0l-960.0 0l0 -540.0z" clip-rule="nonzero"/></clipPath><g clip-path="url(#g29aee762d0_0_2713.0)"><path fill="#ffffff" d="m0 0l960.0 0l0 540.0l-960.0 0z" fill-rule="evenodd"/><path fill="#000000" fill-opacity="0.0" d="m118.75328 93.61155l0 327.62204" fill-rule="evenodd"/><path stroke="#595959" stroke-width="2.0" stroke-linejoin="round" stroke-linecap="butt" d="m118.75328 100.46573l0 320.76785" fill-rule="evenodd"/><path fill="#595959" stroke="#595959" stroke-width="2.0" stroke-linecap="butt" d="m118.75328 100.46572l2.2491684 2.2491684l-2.2491684 -6.179535l-2.2491684 6.179535z" fill-rule="evenodd"/><path fill="#000000" fill-opacity="0.0" d="m812.3202 421.23358l-693.57477 0" fill-rule="evenodd"/><path stroke="#595959" stroke-width="2.0" stroke-linejoin="round" stroke-linecap="butt" d="m805.46606 421.23358l-686.72064 0" fill-rule="evenodd"/><path fill="#595959" stroke="#595959" stroke-width="2.0" stroke-linecap="butt" d="m805.46606 421.23358l-2.2492065 2.249176l6.1795654 -2.249176l-6.1795654 -2.2491455z" fill-rule="evenodd"/><path fill="#000000" fill-opacity="0.0" d="m336.19946 427.82153l276.378 0l0 51.77951l-276.378 0z" fill-rule="evenodd"/><path fill="#000000" d="m411.41843 450.99466q0.34375 0 0.5625 0.234375q0.234375 0.21875 0.234375 0.5625q0 0.328125 -0.234375 0.515625q-0.21875 0.1875 -0.5625 0.1875l-3.296875 0l-1.3125 7.5625l3.328125 0q0.34375 0 0.5625 0.21875q0.234375 0.21875 0.234375 0.578125q0 0.3125 -0.234375 0.515625q-0.21875 0.1875 -0.5625 0.1875l-3.59375 0l-0.921875 5.34375q-0.0625 0.28125 -0.265625 0.46875q-0.1875 0.171875 -0.46875 0.171875q-0.390625 0 -0.59375 -0.28125q-0.203125 -0.296875 -0.140625 -0.75l0.859375 -4.953125l-6.625 0l-0.921875 5.34375q-0.0625 0.28125 -0.265625 0.46875q-0.1875 0.171875 -0.46875 0.171875q-0.390625 0 -0.609375 -0.28125q-0.203125 -0.296875 -0.140625 -0.75l0.875 -4.953125l-3.078125 0q-0.3125 0 -0.5625 -0.234375q-0.234375 -0.25 -0.234375 -0.5625q0 -0.328125 0.21875 -0.515625q0.234375 -0.1875 0.578125 -0.1875l3.328125 0l1.3125 -7.5625l-3.328125 0q-0.34375 0 -0.59375 -0.21875q-0.234375 -0.21875 -0.234375 -0.578125q0 -0.3125 0.21875 -0.5q0.234375 -0.203125 0.578125 -0.203125l3.625 0l0.890625 -5.21875q0.0625 -0.28125 0.25 -0.453125q0.203125 -0.1875 0.484375 -0.1875q0.390625 0 0.59375 0.296875q0.203125 0.28125 0.140625 0.703125l-0.828125 4.859375l6.625 0l0.890625 -5.21875q0.0625 -0.28125 0.25 -0.453125q0.203125 -0.1875 0.484375 -0.1875q0.390625 0 0.59375 0.296875q0.203125 0.28125 0.140625 0.703125l-0.828125 4.859375l3.046875 0zm-6.15625 9.0625l1.3125 -7.5625l-6.625 0l-1.3125 7.5625l6.625 0zm20.777039 6.8125q-0.03125 0.28125 -0.234375 0.484375q-0.1875 0.1875 -0.4375 0.1875q-0.328125 0 -0.5 -0.1875q-0.171875 -0.203125 -0.171875 -0.484375l0 -21.0625q0 -0.28125 0.1875 -0.46875q0.1875 -0.203125 0.484375 -0.203125q0.28125 0 0.46875 0.203125q0.203125 0.1875 0.203125 0.46875l0 21.0625zm11.806519 -15.421875q0.21875 0 0.40625 0.1875q0.203125 0.1875 0.203125 0.421875q0 0.25 -0.1875 0.4375q-0.171875 0.171875 -0.421875 0.171875l-3.515625 0l0 11.390625q0 1.40625 0.484375 1.875q0.5 0.453125 1.265625 0.453125q0.125 0 0.359375 -0.0625q0.25 -0.0625 0.40625 -0.0625q0.234375 0 0.390625 0.1875q0.15625 0.171875 0.15625 0.390625q0 0.28125 -0.390625 0.5q-0.375 0.203125 -0.890625 0.203125q-0.796875 0 -1.34375 -0.109375q-0.546875 -0.109375 -1.140625 -0.859375q-0.578125 -0.765625 -0.578125 -2.453125l0 -11.453125l-2.625 0q-0.234375 0 -0.421875 -0.1875q-0.1875 -0.203125 -0.1875 -0.421875q0 -0.265625 0.171875 -0.4375q0.171875 -0.171875 0.4375 -0.171875l2.625 0l0 -4.0625q0 -0.265625 0.1875 -0.453125q0.1875 -0.1875 0.453125 -0.1875q0.28125 0 0.453125 0.1875q0.1875 0.1875 0.1875 0.453125l0 4.0625l3.515625 0zm16.79953 12.25q0.21875 0 0.375 0.1875q0.171875 0.171875 0.171875 0.390625q0 0.21875 -0.125 0.390625q-1.0625 1.40625 -2.640625 2.296875q-1.5625 0.890625 -3.34375 0.890625q-2.40625 0 -4.265625 -1.015625q-1.859375 -1.03125 -2.90625 -2.90625q-1.03125 -1.890625 -1.03125 -4.390625q0 -2.5625 1.0 -4.5q1.015625 -1.9375 2.671875 -2.953125q1.671875 -1.03125 3.5625 -1.03125q1.890625 0 3.5 0.828125q1.625 0.8125 2.640625 2.453125q1.03125 1.625 1.09375 4.015625q0 0.265625 -0.203125 0.46875q-0.1875 0.203125 -0.4375 0.203125l-12.578125 0l0 0.421875q0 1.984375 0.796875 3.640625q0.8125 1.640625 2.375 2.609375q1.5625 0.953125 3.78125 0.953125q1.53125 0 2.890625 -0.75q1.359375 -0.765625 2.125 -1.90625q0.21875 -0.296875 0.546875 -0.296875zm-6.53125 -11.359375q-1.1875 0 -2.421875 0.625q-1.21875 0.625 -2.171875 1.859375q-0.9375 1.234375 -1.265625 2.984375l11.78125 0l0 -0.28125q-0.15625 -1.625 -1.046875 -2.796875q-0.875 -1.171875 -2.171875 -1.78125q-1.296875 -0.609375 -2.703125 -0.609375zm18.66101 -1.28125q1.46875 0 1.46875 0.734375q0 0.296875 -0.15625 0.484375q-0.15625 0.1875 -0.421875 0.1875q-0.09375 0 -0.46875 -0.140625q-0.359375 -0.140625 -0.78125 -0.140625q-1.3125 0 -2.6249695 1.046875q-1.3125 1.03125 -2.140625 2.625q-0.828125 1.578125 -0.828125 3.046875l0 8.0q0 0.25 -0.203125 0.453125q-0.1875 0.1875 -0.4375 0.1875q-0.28125 0 -0.46875 -0.1875q-0.171875 -0.203125 -0.171875 -0.453125l0 -14.6875q0 -0.25 0.1875 -0.4375q0.203125 -0.203125 0.453125 -0.203125q0.28125 0 0.453125 0.203125q0.1875 0.1875 0.1875 0.4375l0 3.390625q0.734375 -1.953125 2.28125 -3.234375q1.5624695 -1.28125 3.6718445 -1.3125zm17.635406 0.515625q0.28125 0 0.453125 0.203125q0.1875 0.1875 0.1875 0.4375l0 14.6875q0 0.25 -0.203125 0.453125q-0.1875 0.1875 -0.4375 0.1875q-0.296875 0 -0.46875 -0.1875q-0.171875 -0.203125 -0.171875 -0.453125l0 -2.875q-0.8125 1.625 -2.484375 2.734375q-1.65625 1.09375 -3.671875 1.09375q-2.109375 0 -3.8125 -1.09375q-1.6875 -1.109375 -2.65625 -3.046875q-0.953125 -1.9375 -0.953125 -4.328125q0 -2.375 0.96875 -4.28125q0.984375 -1.90625 2.671875 -2.96875q1.703125 -1.078125 3.78125 -1.078125q2.09375 0 3.75 1.09375q1.671875 1.09375 2.40625 2.90625l0 -2.84375q0 -0.25 0.171875 -0.4375q0.171875 -0.203125 0.46875 -0.203125zm-6.71875 15.078125q1.75 0 3.171875 -0.9375q1.421875 -0.953125 2.21875 -2.609375q0.8125 -1.671875 0.8125 -3.71875q0 -1.953125 -0.8125 -3.578125q-0.796875 -1.640625 -2.21875 -2.578125q-1.421875 -0.953125 -3.171875 -0.953125q-1.765625 0 -3.1875 0.921875q-1.421875 0.90625 -2.234375 2.53125q-0.796875 1.609375 -0.796875 3.65625q0 2.046875 0.796875 3.71875q0.8125 1.65625 2.21875 2.609375q1.40625 0.9375 3.203125 0.9375zm18.618164 -15.203125q0.21875 0 0.40625 0.1875q0.203125 0.1875 0.203125 0.421875q0 0.25 -0.1875 0.4375q-0.171875 0.171875 -0.421875 0.171875l-3.515625 0l0 11.390625q0 1.40625 0.484375 1.875q0.5 0.453125 1.265625 0.453125q0.125 0 0.359375 -0.0625q0.25 -0.0625 0.40625 -0.0625q0.234375 0 0.390625 0.1875q0.15625 0.171875 0.15625 0.390625q0 0.28125 -0.390625 0.5q-0.375 0.203125 -0.890625 0.203125q-0.796875 0 -1.34375 -0.109375q-0.546875 -0.109375 -1.140625 -0.859375q-0.578125 -0.765625 -0.578125 -2.453125l0 -11.453125l-2.625 0q-0.234375 0 -0.421875 -0.1875q-0.1875 -0.203125 -0.1875 -0.421875q0 -0.265625 0.171875 -0.4375q0.171875 -0.171875 0.4375 -0.171875l2.625 0l0 -4.0625q0 -0.265625 0.1875 -0.453125q0.1875 -0.1875 0.453125 -0.1875q0.28125 0 0.453125 0.1875q0.1875 0.1875 0.1875 0.453125l0 4.0625l3.515625 0zm5.440155 15.453125q0 0.25 -0.203125 0.453125q-0.1875 0.1875 -0.4375 0.1875q-0.28125 0 -0.46875 -0.1875q-0.171875 -0.203125 -0.171875 -0.453125l0 -15.203125q0 -0.25 0.1875 -0.4375q0.203125 -0.203125 0.453125 -0.203125q0.28125 0 0.453125 0.203125q0.1875 0.1875 0.1875 0.4375l0 15.203125zm-0.625 -18.046875q-0.515625 0 -0.828125 -0.28125q-0.296875 -0.296875 -0.296875 -0.75l0 -0.25q0 -0.453125 0.3125 -0.734375q0.328125 -0.28125 0.84375 -0.28125q0.453125 0 0.75 0.28125q0.3125 0.28125 0.3125 0.734375l0 0.25q0 0.453125 -0.3125 0.75q-0.296875 0.28125 -0.78125 0.28125zm20.592041 10.625q0 2.359375 -1.03125 4.265625q-1.015625 1.90625 -2.828125 3.015625q-1.8125 1.09375 -4.015625 1.09375q-2.2031555 0 -4.0156555 -1.09375q-1.8125 -1.109375 -2.859375 -3.03125q-1.03125 -1.921875 -1.03125 -4.25q0 -2.375 1.03125 -4.28125q1.046875 -1.921875 2.84375 -3.03125q1.796875 -1.109375 4.0312805 -1.109375q2.203125 0 4.015625 1.109375q1.8125 1.109375 2.828125 3.03125q1.03125 1.90625 1.03125 4.28125zm-1.28125 0q0 -2.046875 -0.84375 -3.671875q-0.84375 -1.640625 -2.359375 -2.578125q-1.5 -0.953125 -3.390625 -0.953125q-1.8594055 0 -3.3750305 0.953125q-1.515625 0.9375 -2.390625 2.578125q-0.859375 1.625 -0.859375 3.671875q0 2.015625 0.859375 3.65625q0.875 1.625 2.390625 2.578125q1.515625 0.9375 3.3750305 0.9375q1.890625 0 3.390625 -0.921875q1.515625 -0.9375 2.359375 -2.578125q0.84375 -1.65625 0.84375 -3.671875zm12.738647 -8.421875q2.84375 0 4.28125 1.6875q1.4375 1.671875 1.4375 4.359375l0 9.796875q0 0.25 -0.1875 0.453125q-0.1875 0.1875 -0.4375 0.1875q-0.296875 0 -0.46875 -0.1875q-0.171875 -0.203125 -0.171875 -0.453125l0 -9.65625q0 -2.1875 -1.140625 -3.578125q-1.140625 -1.390625 -3.4375 -1.390625q-1.40625 0 -2.78125 0.671875q-1.359375 0.671875 -2.21875 1.828125q-0.859375 1.15625 -0.859375 2.46875l0 9.65625q0 0.25 -0.203125 0.453125q-0.1875 0.1875 -0.4375 0.1875q-0.28125 0 -0.46875 -0.1875q-0.171875 -0.203125 -0.171875 -0.453125l0 -14.6875q0 -0.25 0.1875 -0.4375q0.203125 -0.203125 0.453125 -0.203125q0.28125 0 0.453125 0.203125q0.1875 0.1875 0.1875 0.4375l0 2.140625q0.921875 -1.4375 2.59375 -2.359375q1.6875 -0.9375 3.390625 -0.9375zm10.147766 13.921875q-0.234375 -0.34375 -0.234375 -0.609375q0 -0.21875 0.265625 -0.40625q0.15625 -0.171875 0.375 -0.171875q0.328125 0 0.515625 0.265625q1.859375 2.65625 5.1875 2.65625q1.6875 0 2.96875 -0.84375q1.28125 -0.859375 1.28125 -2.296875q0 -1.46875 -1.125 -2.203125q-1.109375 -0.734375 -3.0625 -1.21875q-2.59375 -0.640625 -4.078125 -1.703125q-1.484375 -1.078125 -1.484375 -3.03125q0 -1.890625 1.5 -3.125q1.5 -1.234375 3.875 -1.234375q1.3125 0 2.59375 0.515625q1.296875 0.515625 2.359375 1.625q0.21875 0.203125 0.21875 0.453125q0 0.296875 -0.21875 0.515625q-0.25 0.125 -0.421875 0.125q-0.21875 0 -0.375 -0.1875q-1.671875 -1.828125 -4.296875 -1.828125q-1.6875 0 -2.859375 0.84375q-1.171875 0.828125 -1.171875 2.296875q0.109375 1.375 1.265625 2.125q1.171875 0.75 3.4375 1.328125q1.640625 0.421875 2.703125 0.921875q1.078125 0.484375 1.71875 1.390625q0.640625 0.890625 0.640625 2.328125q0 2.015625 -1.5625 3.1875q-1.546875 1.15625 -4.03125 1.15625q-3.65625 0 -5.984375 -2.875z" fill-rule="nonzero"/><path fill="#000000" fill-opacity="0.0" d="m120.19948 27.821522l276.37793 0l0 51.77953l-276.37793 0z" fill-rule="evenodd"/><path fill="#000000" d="m218.3527 56.494648q0.296875 0 0.46875 0.203125q0.171875 0.1875 0.171875 0.4375l0 8.031254q0 0.390625 -0.28125 0.578125q-1.46875 1.0 -3.21875 1.5625q-1.75 0.546875 -3.53125 0.546875q-3.296875 0 -5.90625 -1.484375q-2.609375 -1.484375 -4.109375 -4.109379q-1.484375 -2.625 -1.484375 -5.921875q0 -3.296875 1.484375 -5.921875q1.5 -2.625 4.109375 -4.109375q2.609375 -1.484375 5.90625 -1.484375q1.78125 0 3.390625 0.4375q1.625 0.421875 2.90625 1.296875q0.296875 0.1875 0.296875 0.53125q0 0.296875 -0.21875 0.46875q-0.203125 0.171875 -0.390625 0.171875q-0.171875 0 -0.421875 -0.125q-2.6875 -1.5 -5.5625 -1.5q-2.953125 0 -5.265625 1.3125q-2.296875 1.3125 -3.59375 3.65625q-1.296875 2.328125 -1.296875 5.265625q0 2.953125 1.296875 5.296875q1.296875 2.328125 3.59375 3.6406288q2.3125 1.3125 5.265625 1.3125q1.46875 0 2.984375 -0.46875q1.515625 -0.46875 2.765625 -1.234375l0 -7.109379l-5.75 0q-0.265625 0 -0.453125 -0.1875q-0.1875 -0.1875 -0.1875 -0.453125q0 -0.28125 0.1875 -0.453125q0.1875 -0.1875 0.453125 -0.1875l6.390625 0zm22.333038 10.187504q0.03125 0.09375 0.03125 0.25q0 0.296875 -0.1875 0.453125q-0.1875 0.15625 -0.484375 0.15625q-0.21875 0 -0.390625 -0.109375q-0.171875 -0.109375 -0.234375 -0.3125l-2.703125 -6.593754l0.046875 0.078125l-10.734375 0l-2.578125 6.515629q-0.171875 0.421875 -0.578125 0.421875q-0.296875 0 -0.46875 -0.15625q-0.171875 -0.15625 -0.203125 -0.390625q-0.03125 -0.125 0.03125 -0.3125l8.609375 -21.187504q0.09375 -0.25 0.234375 -0.328125q0.140625 -0.09375 0.375 -0.09375q0.46875 0 0.640625 0.421875l8.59375 21.187504zm-14.140625 -7.359379l9.703125 0l-4.90625 -12.0625l-4.796875 12.0625zm34.689896 -14.1875q0.296875 0 0.453125 0.1875q0.15625 0.171875 0.15625 0.421875l0 21.093754q0 0.34375 -0.203125 0.53125q-0.1875 0.171875 -0.46875 0.171875q-0.3125 0 -0.515625 -0.25l-14.39061 -19.687504l0 19.390629q0 0.234375 -0.1875 0.390625q-0.171875 0.15625 -0.421875 0.15625q-0.296875 0 -0.453125 -0.15625q-0.15625 -0.15625 -0.15625 -0.390625l0 -21.218754q0 -0.3125 0.171875 -0.46875q0.171875 -0.171875 0.40625 -0.171875q0.28125 0 0.46875 0.234375l14.531235 19.796879l0 -19.421879q0 -0.25 0.171875 -0.421875q0.1875 -0.1875 0.4375 -0.1875z" fill-rule="nonzero"/><path fill="#000000" d="m277.55133 59.635273q-0.828125 0 -1.390625 -0.53125q-0.5625 -0.546875 -0.5625 -1.390625q0 -0.796875 0.5625 -1.34375q0.5625 -0.546875 1.390625 -0.546875l5.578125 0q0.828125 0 1.390625 0.5625q0.5625 0.5625 0.5625 1.390625q0 0.8125 -0.5625 1.34375q-0.5625 0.515625 -1.390625 0.515625l-5.578125 0zm36.991425 -4.1875q0.84375 0 1.375 0.5625q0.546875 0.5625 0.546875 1.390625l0 6.781254q0 1.125 -0.984375 1.734375q-3.140625 1.9375 -6.890625 1.9375q-3.15625 0 -5.84375 -1.546875q-2.6875 -1.546875 -4.265625 -4.187504q-1.5625 -2.640625 -1.5625 -5.78125q0 -3.140625 1.5625 -5.765625q1.578125 -2.640625 4.265625 -4.1875q2.6875 -1.5625 5.84375 -1.5625q3.171875 0 5.515625 1.28125q0.46875 0.25 0.703125 0.671875q0.25 0.40625 0.25 0.890625q0 0.796875 -0.53125 1.390625q-0.515625 0.59375 -1.296875 0.59375q-0.46875 0 -1.046875 -0.25q-1.734375 -0.734375 -3.59375 -0.734375q-2.046875 0 -3.78125 1.046875q-1.71875 1.03125 -2.734375 2.796875q-1.0 1.75 -1.0 3.828125q0 2.078125 1.0 3.84375q1.015625 1.765625 2.734375 2.8125q1.734375 1.0312538 3.78125 1.0312538q0.90625 0 1.921875 -0.15625381q1.03125 -0.171875 1.796875 -0.421875l0 -4.15625l-3.015625 0q-0.828125 0 -1.390625 -0.546875q-0.546875 -0.546875 -0.546875 -1.375q0 -0.84375 0.546875 -1.375q0.5625 -0.546875 1.390625 -0.546875l5.25 0z" fill-rule="nonzero"/><path fill="#000000" fill-opacity="0.0" d="m56.498688 367.90027l0 -276.37796l51.779526 0l0 276.37796z" fill-rule="evenodd"/><path fill="#000000" d="m94.93744 246.78923q0 -0.265625 0.203125 -0.453125q0.1875 -0.1875 0.4375 -0.1875q0.28125 0 0.46875 0.1875q0.171875 0.1875 0.171875 0.453125l0 11.73439q0 0.296875 -0.1875 0.46875q-0.203125 0.171875 -0.453125 0.171875l-21.125 0q-0.25 0 -0.4375 -0.1875q-0.203125 -0.1875 -0.203125 -0.484375q0 -0.28125 0.203125 -0.46875q0.1875 -0.203125 0.4375 -0.203125l20.484375 0l0 -11.031265zm-6.78125 -18.4384q2.359375 0 4.265625 1.03125q1.90625 1.015625 3.015625 2.828125q1.09375 1.8125 1.09375 4.015625q0 2.203125 -1.09375 4.0156097q-1.109375 1.8125 -3.03125 2.859375q-1.921875 1.03125 -4.25 1.03125q-2.375 0 -4.28125 -1.03125q-1.921875 -1.046875 -3.03125 -2.84375q-1.109375 -1.7968597 -1.109375 -4.0312347q0 -2.203125 1.109375 -4.015625q1.109375 -1.8125 3.03125 -2.828125q1.90625 -1.03125 4.28125 -1.03125zm0 1.28125q-2.046875 0 -3.671875 0.84375q-1.640625 0.84375 -2.578125 2.359375q-0.953125 1.5 -0.953125 3.390625q0 1.859375 0.953125 3.375q0.9375 1.5156097 2.578125 2.3906097q1.625 0.859375 3.671875 0.859375q2.015625 0 3.65625 -0.859375q1.625 -0.875 2.578125 -2.3906097q0.9375 -1.515625 0.9375 -3.375q0 -1.890625 -0.921875 -3.390625q-0.9375 -1.515625 -2.578125 -2.359375q-1.65625 -0.84375 -3.671875 -0.84375zm5.5 -4.582428q-0.34375 0.234375 -0.609375 0.234375q-0.21875 0 -0.40625 -0.265625q-0.171875 -0.15625 -0.171875 -0.375q0 -0.328125 0.265625 -0.515625q2.65625 -1.859375 2.65625 -5.1875q0 -1.6875 -0.84375 -2.96875q-0.859375 -1.28125 -2.296875 -1.28125q-1.46875 0 -2.203125 1.125q-0.734375 1.109375 -1.21875 3.0625q-0.640625 2.59375 -1.703125 4.078125q-1.078125 1.484375 -3.03125 1.484375q-1.890625 0 -3.125 -1.5q-1.234375 -1.5 -1.234375 -3.875q0 -1.3125 0.515625 -2.59375q0.515625 -1.296875 1.625 -2.359375q0.203125 -0.21875 0.453125 -0.21875q0.296875 0 0.515625 0.21875q0.125 0.25 0.125 0.421875q0 0.21875 -0.1875 0.375q-1.828125 1.671875 -1.828125 4.296875q0 1.6875 0.84375 2.859375q0.828125 1.171875 2.296875 1.171875q1.375 -0.109375 2.125 -1.265625q0.75 -1.171875 1.328125 -3.4375q0.421875 -1.640625 0.921875 -2.703125q0.484375 -1.078125 1.390625 -1.71875q0.890625 -0.640625 2.328125 -0.640625q2.015625 0 3.1875 1.5625q1.15625 1.546875 1.15625 4.03125q0 3.65625 -2.875 5.984375zm0 -14.880035q-0.34375 0.234375 -0.609375 0.234375q-0.21875 0 -0.40625 -0.265625q-0.171875 -0.15625 -0.171875 -0.375q0 -0.328125 0.265625 -0.515625q2.65625 -1.859375 2.65625 -5.1875q0 -1.6875 -0.84375 -2.96875q-0.859375 -1.28125 -2.296875 -1.28125q-1.46875 0 -2.203125 1.125q-0.734375 1.109375 -1.21875 3.0625q-0.640625 2.59375 -1.703125 4.078125q-1.078125 1.484375 -3.03125 1.484375q-1.890625 0 -3.125 -1.5q-1.234375 -1.5 -1.234375 -3.875q0 -1.3125 0.515625 -2.59375q0.515625 -1.296875 1.625 -2.359375q0.203125 -0.21875 0.453125 -0.21875q0.296875 0 0.515625 0.21875q0.125 0.25 0.125 0.421875q0 0.21875 -0.1875 0.375q-1.828125 1.671875 -1.828125 4.296875q0 1.6875 0.84375 2.859375q0.828125 1.171875 2.296875 1.171875q1.375 -0.109375 2.125 -1.265625q0.75 -1.171875 1.328125 -3.4375q0.421875 -1.640625 0.921875 -2.703125q0.484375 -1.078125 1.390625 -1.71875q0.890625 -0.640625 2.328125 -0.640625q2.015625 0 3.1875 1.5625q1.15625 1.546875 1.15625 4.03125q0 3.65625 -2.875 5.984375z" fill-rule="nonzero"/><path fill="#000000" fill-opacity="0.0" d="m72.0 88.0l136.0315 0l0 64.69292l-136.0315 0z" fill-rule="evenodd"/><path fill="#000000" d="m147.78598 119.9727q0.84375 0 1.375 0.5625q0.546875 0.5625 0.546875 1.390625l0 6.78125q0 1.125 -0.984375 1.734375q-3.140625 1.9375 -6.890625 1.9375q-3.15625 0 -5.84375 -1.546875q-2.6875 -1.546875 -4.265625 -4.1875q-1.5625 -2.640625 -1.5625 -5.78125q0 -3.140625 1.5625 -5.765625q1.578125 -2.640625 4.265625 -4.1875q2.6875 -1.5625 5.84375 -1.5625q3.171875 0 5.515625 1.28125q0.46875 0.25 0.703125 0.671875q0.25 0.40625 0.25 0.890625q0 0.796875 -0.53125 1.390625q-0.515625 0.59375 -1.296875 0.59375q-0.46875 0 -1.046875 -0.25q-1.734375 -0.734375 -3.59375 -0.734375q-2.046875 0 -3.78125 1.046875q-1.71875 1.03125 -2.734375 2.796875q-1.0 1.75 -1.0 3.828125q0 2.078125 1.0 3.84375q1.015625 1.765625 2.734375 2.8125q1.734375 1.03125 3.78125 1.03125q0.90625 0 1.921875 -0.15625q1.03125 -0.171875 1.796875 -0.421875l0 -4.15625l-3.015625 0q-0.828125 0 -1.390625 -0.546875q-0.546875 -0.546875 -0.546875 -1.375q0 -0.84375 0.546875 -1.375q0.5625 -0.546875 1.390625 -0.546875l5.25 0z" fill-rule="nonzero"/><path fill="#000000" fill-opacity="0.0" d="m80.0 375.87402l136.0315 0l0 51.77951l-136.0315 0z" fill-rule="evenodd"/><path fill="#000000" d="m148.57571 391.0775q3.015625 0 5.171875 1.5q2.15625 1.484375 3.28125 4.03125q1.140625 2.53125 1.140625 5.671875q0 3.140625 -1.140625 5.6875q-1.125 2.546875 -3.28125 4.03125q-2.15625 1.484375 -5.171875 1.484375l-7.640625 0q-0.84375 0 -1.40625 -0.5625q-0.546875 -0.5625 -0.546875 -1.390625l0 -18.5q0 -0.828125 0.546875 -1.390625q0.5625 -0.5625 1.40625 -0.5625l7.640625 0zm-0.3125 18.71875q2.875 0 4.3125 -2.125q1.4375 -2.125 1.4375 -5.390625q0 -3.265625 -1.453125 -5.390625q-1.453125 -2.125 -4.296875 -2.125l-5.28125 0l0 15.03125l5.28125 0z" fill-rule="nonzero"/><path fill="#000000" fill-opacity="0.0" d="m328.19946 27.821522l276.378 0l0 51.77953l-276.378 0z" fill-rule="evenodd"/><path fill="#000000" d="m426.0487 56.494648q0.296875 0 0.46875 0.203125q0.171875 0.1875 0.171875 0.4375l0 8.031254q0 0.390625 -0.28125 0.578125q-1.46875 1.0 -3.21875 1.5625q-1.75 0.546875 -3.53125 0.546875q-3.296875 0 -5.90625 -1.484375q-2.609375 -1.484375 -4.109375 -4.109379q-1.484375 -2.625 -1.484375 -5.921875q0 -3.296875 1.484375 -5.921875q1.5 -2.625 4.109375 -4.109375q2.609375 -1.484375 5.90625 -1.484375q1.78125 0 3.390625 0.4375q1.625 0.421875 2.90625 1.296875q0.296875 0.1875 0.296875 0.53125q0 0.296875 -0.21875 0.46875q-0.203125 0.171875 -0.390625 0.171875q-0.171875 0 -0.421875 -0.125q-2.6875 -1.5 -5.5625 -1.5q-2.953125 0 -5.265625 1.3125q-2.296875 1.3125 -3.59375 3.65625q-1.296875 2.328125 -1.296875 5.265625q0 2.953125 1.296875 5.296875q1.296875 2.328125 3.59375 3.6406288q2.3125 1.3125 5.265625 1.3125q1.46875 0 2.984375 -0.46875q1.515625 -0.46875 2.765625 -1.234375l0 -7.109379l-5.75 0q-0.265625 0 -0.453125 -0.1875q-0.1875 -0.1875 -0.1875 -0.453125q0 -0.28125 0.1875 -0.453125q0.1875 -0.1875 0.453125 -0.1875l6.390625 0zm22.333038 10.187504q0.03125 0.09375 0.03125 0.25q0 0.296875 -0.1875 0.453125q-0.1875 0.15625 -0.484375 0.15625q-0.21875 0 -0.390625 -0.109375q-0.171875 -0.109375 -0.234375 -0.3125l-2.703125 -6.593754l0.046875 0.078125l-10.734375 0l-2.578125 6.515629q-0.171875 0.421875 -0.578125 0.421875q-0.296875 0 -0.46875 -0.15625q-0.171875 -0.15625 -0.203125 -0.390625q-0.03125 -0.125 0.03125 -0.3125l8.609375 -21.187504q0.09375 -0.25 0.234375 -0.328125q0.140625 -0.09375 0.375 -0.09375q0.46875 0 0.640625 0.421875l8.59375 21.187504zm-14.140625 -7.359379l9.703125 0l-4.90625 -12.0625l-4.796875 12.0625zm34.68991 -14.1875q0.296875 0 0.453125 0.1875q0.15625 0.171875 0.15625 0.421875l0 21.093754q0 0.34375 -0.203125 0.53125q-0.1875 0.171875 -0.46875 0.171875q-0.3125 0 -0.515625 -0.25l-14.390625 -19.687504l0 19.390629q0 0.234375 -0.1875 0.390625q-0.171875 0.15625 -0.421875 0.15625q-0.296875 0 -0.453125 -0.15625q-0.15625 -0.15625 -0.15625 -0.390625l0 -21.218754q0 -0.3125 0.171875 -0.46875q0.171875 -0.171875 0.40625 -0.171875q0.28125 0 0.46875 0.234375l14.53125 19.796879l0 -19.421879q0 -0.25 0.171875 -0.421875q0.1875 -0.1875 0.4375 -0.1875z" fill-rule="nonzero"/><path fill="#000000" d="m485.24734 59.635273q-0.828125 0 -1.390625 -0.53125q-0.5625 -0.546875 -0.5625 -1.390625q0 -0.796875 0.5625 -1.34375q0.5625 -0.546875 1.390625 -0.546875l5.578125 0q0.828125 0 1.390625 0.5625q0.5625 0.5625 0.5625 1.390625q0 0.8125 -0.5625 1.34375q-0.5625 0.515625 -1.390625 0.515625l-5.578125 0zm30.085175 -14.5q3.015625 0 5.171875 1.5q2.15625 1.484375 3.28125 4.03125q1.140625 2.53125 1.140625 5.671875q0 3.140625 -1.140625 5.6875q-1.125 2.5468788 -3.28125 4.031254q-2.15625 1.484375 -5.171875 1.484375l-7.640625 0q-0.84375 0 -1.40625 -0.5625q-0.546875 -0.5625 -0.546875 -1.390625l0 -18.500004q0 -0.828125 0.546875 -1.390625q0.5625 -0.5625 1.40625 -0.5625l7.640625 0zm-0.3125 18.71875q2.875 0 4.3125 -2.125q1.4375 -2.125 1.4375 -5.390625q0 -3.265625 -1.453125 -5.390625q-1.453125 -2.125 -4.296875 -2.125l-5.28125 0l0 15.03125l5.28125 0z" fill-rule="nonzero"/><path fill="#000000" fill-opacity="0.0" d="m122.616585 127.65079l14.604088 43.338577" fill-rule="evenodd"/><path stroke="#1155cc" stroke-width="3.0" stroke-linejoin="round" stroke-linecap="butt" d="m122.616585 127.65079l11.320946 33.595627" fill-rule="evenodd"/><path fill="#1155cc" stroke="#1155cc" stroke-width="3.0" stroke-linecap="butt" d="m133.93753 161.24641l-4.27446 -2.1197662l6.1571045 7.7066345l0.23710632 -9.861328z" fill-rule="evenodd"/><path fill="#000000" fill-opacity="0.0" d="m137.97658 175.65079l11.993713 89.700775" fill-rule="evenodd"/><path stroke="#1155cc" stroke-width="3.0" stroke-linejoin="round" stroke-linecap="butt" d="m137.97658 175.65077l10.631149 79.51021" fill-rule="evenodd"/><path fill="#1155cc" stroke="#1155cc" stroke-width="3.0" stroke-linecap="butt" d="m148.60773 255.161l-3.7911072 -2.896881l4.5724335 8.740433l2.1155548 -9.634659z" fill-rule="evenodd"/><path fill="#000000" fill-opacity="0.0" d="m150.77658 271.6508l11.953384 64.6929" fill-rule="evenodd"/><path stroke="#1155cc" stroke-width="3.0" stroke-linejoin="round" stroke-linecap="butt" d="m150.77658 271.6508l10.085327 54.582764" fill-rule="evenodd"/><path fill="#1155cc" stroke="#1155cc" stroke-width="3.0" stroke-linecap="butt" d="m160.86191 326.23355l-3.9305878 -2.7045898l5.0017853 8.502014l1.6334076 -9.727997z" fill-rule="evenodd"/><path fill="#000000" fill-opacity="0.0" d="m163.57658 343.6508l16.307404 26.519684" fill-rule="evenodd"/><path stroke="#1155cc" stroke-width="3.0" stroke-linejoin="round" stroke-linecap="butt" d="m163.57658 343.6508l10.921997 17.76175" fill-rule="evenodd"/><path fill="#1155cc" stroke="#1155cc" stroke-width="3.0" stroke-linecap="butt" d="m174.49858 361.41254l-4.641083 -1.1066895l7.7292175 6.128723l-1.9814606 -9.663116z" fill-rule="evenodd"/><path fill="#000000" fill-opacity="0.0" d="m181.49658 367.6508l18.85733 15.307098" fill-rule="evenodd"/><path stroke="#1155cc" stroke-width="3.0" stroke-linejoin="round" stroke-linecap="butt" d="m181.49658 367.6508l10.874893 8.827515" fill-rule="evenodd"/><path fill="#1155cc" stroke="#1155cc" stroke-width="3.0" stroke-linecap="butt" d="m192.37148 376.4783l-4.7456512 0.49313354l9.322983 3.2224426l-5.0704803 -8.461243z" fill-rule="evenodd"/><path fill="#000000" fill-opacity="0.0" d="m201.97658 383.6508l18.85733 15.307098" fill-rule="evenodd"/><path stroke="#1155cc" stroke-width="3.0" stroke-linejoin="round" stroke-linecap="butt" d="m201.97658 383.6508l10.874908 8.827515" fill-rule="evenodd"/><path fill="#1155cc" stroke="#1155cc" stroke-width="3.0" stroke-linecap="butt" d="m212.85147 392.4783l-4.7456512 0.49313354l9.322998 3.2224426l-5.0704956 -8.461243z" fill-rule="evenodd"/><path fill="#000000" fill-opacity="0.0" d="m222.45659 399.6508l19.11937 1.8582764" fill-rule="evenodd"/><path stroke="#1155cc" stroke-width="3.0" stroke-linejoin="round" stroke-linecap="butt" d="m222.45659 399.6508l8.886322 0.863678" fill-rule="evenodd"/><path fill="#1155cc" stroke="#1155cc" stroke-width="3.0" stroke-linecap="butt" d="m231.34291 400.5145l-3.6842957 3.0315552l9.5522 -2.4612427l-8.89946 -4.254608z" fill-rule="evenodd"/><path fill="#000000" fill-opacity="0.0" d="m242.56116 401.50906l19.49228 0" fill-rule="evenodd"/><path stroke="#1155cc" stroke-width="3.0" stroke-linejoin="round" stroke-linecap="butt" d="m242.56114 401.50906l9.211044 0" fill-rule="evenodd"/><path fill="#1155cc" stroke="#1155cc" stroke-width="3.0" stroke-linecap="butt" d="m251.77217 401.50906l-3.3737488 3.3737488l9.269302 -3.3737488l-9.269302 -3.3737488z" fill-rule="evenodd"/><path fill="#000000" fill-opacity="0.0" d="m263.04114 401.50906l19.49231 0" fill-rule="evenodd"/><path stroke="#1155cc" stroke-width="3.0" stroke-linejoin="round" stroke-linecap="butt" d="m263.04117 401.50906l9.211029 0" fill-rule="evenodd"/><path fill="#1155cc" stroke="#1155cc" stroke-width="3.0" stroke-linecap="butt" d="m272.2522 401.50906l-3.3737488 3.3737488l9.269287 -3.3737488l-9.269287 -3.3737488z" fill-rule="evenodd"/><path fill="#000000" fill-opacity="0.0" d="m283.52115 401.50906l19.49228 0" fill-rule="evenodd"/><path stroke="#1155cc" stroke-width="3.0" stroke-linejoin="round" stroke-linecap="butt" d="m283.52115 401.50906l9.211029 0" fill-rule="evenodd"/><path fill="#1155cc" stroke="#1155cc" stroke-width="3.0" stroke-linecap="butt" d="m292.73218 401.50906l-3.3737488 3.3737488l9.269287 -3.3737488l-9.269287 -3.3737488z" fill-rule="evenodd"/><path fill="#000000" fill-opacity="0.0" d="m303.9575 401.58487l16.347717 0" fill-rule="evenodd"/><path stroke="#1155cc" stroke-width="2.0" stroke-linejoin="round" stroke-linecap="butt" stroke-dasharray="8.0,6.0" d="m303.9575 401.58487l16.347717 0" fill-rule="evenodd"/><path fill="#000000" fill-opacity="0.0" d="m122.616585 401.58545l14.604088 -43.338593" fill-rule="evenodd"/><path stroke="#c27ba0" stroke-width="3.0" stroke-linejoin="round" stroke-linecap="butt" d="m122.616585 401.58542l11.320946 -33.595642" fill-rule="evenodd"/><path fill="#c27ba0" stroke="#c27ba0" stroke-width="3.0" stroke-linecap="butt" d="m133.93753 367.9898l2.119751 4.2744446l-0.23710632 -9.861328l-6.1571045 7.7066345z" fill-rule="evenodd"/><path fill="#000000" fill-opacity="0.0" d="m137.97658 353.58545l11.993713 -89.700806" fill-rule="evenodd"/><path stroke="#c27ba0" stroke-width="3.0" stroke-linejoin="round" stroke-linecap="butt" d="m137.97658 353.58542l10.631149 -79.51019" fill-rule="evenodd"/><path fill="#c27ba0" stroke="#c27ba0" stroke-width="3.0" stroke-linecap="butt" d="m148.60773 274.07523l2.896881 3.7911072l-2.1155548 -9.634644l-4.5724335 8.7404175z" fill-rule="evenodd"/><path fill="#000000" fill-opacity="0.0" d="m150.77658 257.58545l11.953384 -64.69293" fill-rule="evenodd"/><path stroke="#c27ba0" stroke-width="3.0" stroke-linejoin="round" stroke-linecap="butt" d="m150.77658 257.58545l10.085327 -54.58278" fill-rule="evenodd"/><path fill="#c27ba0" stroke="#c27ba0" stroke-width="3.0" stroke-linecap="butt" d="m160.86191 203.00266l2.704605 3.9305878l-1.6334076 -9.728012l-5.0017853 8.502029z" fill-rule="evenodd"/><path fill="#000000" fill-opacity="0.0" d="m163.57658 185.58543l16.307404 -26.519684" fill-rule="evenodd"/><path stroke="#c27ba0" stroke-width="3.0" stroke-linejoin="round" stroke-linecap="butt" d="m163.57658 185.58545l10.921982 -17.76175" fill-rule="evenodd"/><path fill="#c27ba0" stroke="#c27ba0" stroke-width="3.0" stroke-linecap="butt" d="m174.49858 167.8237l1.1066742 4.641083l1.9814606 -9.663132l-7.7292175 6.1287384z" fill-rule="evenodd"/><path fill="#000000" fill-opacity="0.0" d="m181.49658 161.58543l18.85733 -15.307083" fill-rule="evenodd"/><path stroke="#c27ba0" stroke-width="3.0" stroke-linejoin="round" stroke-linecap="butt" d="m181.49658 161.58543l10.874893 -8.827499" fill-rule="evenodd"/><path fill="#c27ba0" stroke="#c27ba0" stroke-width="3.0" stroke-linecap="butt" d="m192.37148 152.75793l-0.4931488 4.7456512l5.0704803 -8.461212l-9.322983 3.222412z" fill-rule="evenodd"/><path fill="#000000" fill-opacity="0.0" d="m201.97658 145.58543l18.85733 -15.307083" fill-rule="evenodd"/><path stroke="#c27ba0" stroke-width="3.0" stroke-linejoin="round" stroke-linecap="butt" d="m201.97658 145.58543l10.874908 -8.827499" fill-rule="evenodd"/><path fill="#c27ba0" stroke="#c27ba0" stroke-width="3.0" stroke-linecap="butt" d="m212.85147 136.75793l-0.4931488 4.7456512l5.0704956 -8.461212l-9.322998 3.222412z" fill-rule="evenodd"/><path fill="#000000" fill-opacity="0.0" d="m222.45659 129.58543l19.11937 -1.8582687" fill-rule="evenodd"/><path stroke="#c27ba0" stroke-width="3.0" stroke-linejoin="round" stroke-linecap="butt" d="m222.45659 129.58543l8.886322 -0.86369324" fill-rule="evenodd"/><path fill="#c27ba0" stroke="#c27ba0" stroke-width="3.0" stroke-linecap="butt" d="m231.34291 128.72174l-3.0315552 3.6842957l8.89946 -4.254608l-9.5522 -2.4612427z" fill-rule="evenodd"/><path fill="#000000" fill-opacity="0.0" d="m242.56116 127.727165l19.49228 0" fill-rule="evenodd"/><path stroke="#c27ba0" stroke-width="3.0" stroke-linejoin="round" stroke-linecap="butt" d="m242.56114 127.727165l9.211044 0" fill-rule="evenodd"/><path fill="#c27ba0" stroke="#c27ba0" stroke-width="3.0" stroke-linecap="butt" d="m251.77217 127.727165l-3.3737488 3.3737564l9.269302 -3.3737564l-9.269302 -3.3737488z" fill-rule="evenodd"/><path fill="#000000" fill-opacity="0.0" d="m263.04114 127.727165l19.49231 0" fill-rule="evenodd"/><path stroke="#c27ba0" stroke-width="3.0" stroke-linejoin="round" stroke-linecap="butt" d="m263.04117 127.727165l9.211029 0" fill-rule="evenodd"/><path fill="#c27ba0" stroke="#c27ba0" stroke-width="3.0" stroke-linecap="butt" d="m272.2522 127.727165l-3.3737488 3.3737564l9.269287 -3.3737564l-9.269287 -3.3737488z" fill-rule="evenodd"/><path fill="#000000" fill-opacity="0.0" d="m283.52115 127.727165l19.49228 0" fill-rule="evenodd"/><path stroke="#c27ba0" stroke-width="3.0" stroke-linejoin="round" stroke-linecap="butt" d="m283.52115 127.727165l9.211029 0" fill-rule="evenodd"/><path fill="#c27ba0" stroke="#c27ba0" stroke-width="3.0" stroke-linecap="butt" d="m292.73218 127.727165l-3.3737488 3.3737564l9.269287 -3.3737564l-9.269287 -3.3737488z" fill-rule="evenodd"/><path fill="#000000" fill-opacity="0.0" d="m303.9575 127.65134l16.347717 0" fill-rule="evenodd"/><path stroke="#c27ba0" stroke-width="2.0" stroke-linejoin="round" stroke-linecap="butt" stroke-dasharray="8.0,6.0" d="m303.9575 127.65134l16.347717 0" fill-rule="evenodd"/><path fill="#000000" fill-opacity="0.0" d="m330.61658 401.58545l14.614166 -43.338593" fill-rule="evenodd"/><path stroke="#1155cc" stroke-width="3.0" stroke-linejoin="round" stroke-linecap="butt" d="m330.6166 401.58542l11.3289795 -33.596283" fill-rule="evenodd"/><path fill="#1155cc" stroke="#1155cc" stroke-width="3.0" stroke-linecap="butt" d="m341.9456 367.9891l2.118866 4.2749023l-0.23504639 -9.861389l-6.158722 7.705353z" fill-rule="evenodd"/><path fill="#000000" fill-opacity="0.0" d="m345.9766 353.58545l12.0 -89.700806" fill-rule="evenodd"/><path stroke="#1155cc" stroke-width="3.0" stroke-linejoin="round" stroke-linecap="butt" d="m345.9766 353.58542l10.636719 -79.510284" fill-rule="evenodd"/><path fill="#1155cc" stroke="#1155cc" stroke-width="3.0" stroke-linecap="butt" d="m356.6133 274.07513l2.8966064 3.7913208l-2.1148682 -9.634827l-4.5730286 8.740112z" fill-rule="evenodd"/><path fill="#000000" fill-opacity="0.0" d="m358.77658 257.58545l11.968506 -64.69293" fill-rule="evenodd"/><path stroke="#1155cc" stroke-width="3.0" stroke-linejoin="round" stroke-linecap="butt" d="m358.77658 257.58545l10.098175 -54.58322" fill-rule="evenodd"/><path fill="#1155cc" stroke="#1155cc" stroke-width="3.0" stroke-linecap="butt" d="m368.87473 203.00224l2.7037048 3.9311981l-1.6311951 -9.728378l-5.0036926 8.500885z" fill-rule="evenodd"/><path fill="#000000" fill-opacity="0.0" d="m371.5766 185.58543l16.314941 -26.519684" fill-rule="evenodd"/><path stroke="#1155cc" stroke-width="3.0" stroke-linejoin="round" stroke-linecap="butt" d="m371.57657 185.58545l10.927734 -17.762863" fill-rule="evenodd"/><path fill="#1155cc" stroke="#1155cc" stroke-width="3.0" stroke-linecap="butt" d="m382.5043 167.82259l1.1057434 4.6413116l1.983429 -9.66272l-7.7304688 6.127136z" fill-rule="evenodd"/><path fill="#000000" fill-opacity="0.0" d="m389.49658 161.58543l18.86615 -15.307083" fill-rule="evenodd"/><path stroke="#1155cc" stroke-width="3.0" stroke-linejoin="round" stroke-linecap="butt" d="m389.49658 161.58543l10.882233 -8.82933" fill-rule="evenodd"/><path fill="#1155cc" stroke="#1155cc" stroke-width="3.0" stroke-linecap="butt" d="m400.3788 152.75612l-0.49423218 4.745529l5.0724487 -8.460068l-9.32373 3.2202911z" fill-rule="evenodd"/><path fill="#000000" fill-opacity="0.0" d="m409.9766 145.58543l18.86612 -15.307083" fill-rule="evenodd"/><path stroke="#1155cc" stroke-width="3.0" stroke-linejoin="round" stroke-linecap="butt" d="m409.9766 145.58543l10.882202 -8.82933" fill-rule="evenodd"/><path fill="#1155cc" stroke="#1155cc" stroke-width="3.0" stroke-linecap="butt" d="m420.85883 136.75612l-0.4942627 4.745529l5.0724487 -8.460068l-9.32373 3.2202911z" fill-rule="evenodd"/><path fill="#000000" fill-opacity="0.0" d="m430.45657 129.58543l19.118134 -1.8582687" fill-rule="evenodd"/><path stroke="#1155cc" stroke-width="3.0" stroke-linejoin="round" stroke-linecap="butt" d="m430.45657 129.58543l8.885071 -0.86361694" fill-rule="evenodd"/><path fill="#1155cc" stroke="#1155cc" stroke-width="3.0" stroke-linecap="butt" d="m439.34164 128.72182l-3.0315247 3.684311l8.899414 -4.254669l-9.552216 -2.4611816z" fill-rule="evenodd"/><path fill="#000000" fill-opacity="0.0" d="m450.56116 127.727165l19.496063 0" fill-rule="evenodd"/><path stroke="#1155cc" stroke-width="3.0" stroke-linejoin="round" stroke-linecap="butt" d="m450.56116 127.727165l9.214813 0" fill-rule="evenodd"/><path fill="#1155cc" stroke="#1155cc" stroke-width="3.0" stroke-linecap="butt" d="m459.77594 127.727165l-3.3737488 3.3737564l9.269318 -3.3737564l-9.269318 -3.3737488z" fill-rule="evenodd"/><path fill="#000000" fill-opacity="0.0" d="m471.04114 127.727165l19.496063 0" fill-rule="evenodd"/><path stroke="#1155cc" stroke-width="3.0" stroke-linejoin="round" stroke-linecap="butt" d="m471.04114 127.727165l9.214813 0" fill-rule="evenodd"/><path fill="#1155cc" stroke="#1155cc" stroke-width="3.0" stroke-linecap="butt" d="m480.25595 127.727165l-3.3737793 3.3737564l9.269318 -3.3737564l-9.269318 -3.3737488z" fill-rule="evenodd"/><path fill="#000000" fill-opacity="0.0" d="m491.52115 127.727165l19.496063 0" fill-rule="evenodd"/><path stroke="#1155cc" stroke-width="3.0" stroke-linejoin="round" stroke-linecap="butt" d="m491.52115 127.727165l9.214813 0" fill-rule="evenodd"/><path fill="#1155cc" stroke="#1155cc" stroke-width="3.0" stroke-linecap="butt" d="m500.73596 127.727165l-3.3737488 3.3737564l9.269318 -3.3737564l-9.269318 -3.3737488z" fill-rule="evenodd"/><path fill="#000000" fill-opacity="0.0" d="m511.9575 127.65134l16.346466 0" fill-rule="evenodd"/><path stroke="#1155cc" stroke-width="2.0" stroke-linejoin="round" stroke-linecap="butt" stroke-dasharray="8.0,6.0" d="m511.9575 127.65134l16.346466 0" fill-rule="evenodd"/><path fill="#000000" fill-opacity="0.0" d="m330.61658 127.65079l14.614166 43.338577" fill-rule="evenodd"/><path stroke="#c27ba0" stroke-width="3.0" stroke-linejoin="round" stroke-linecap="butt" d="m330.6166 127.65079l11.3289795 33.596313" fill-rule="evenodd"/><path fill="#c27ba0" stroke="#c27ba0" stroke-width="3.0" stroke-linecap="butt" d="m341.9456 161.2471l-4.2749023 -2.118866l6.158722 7.7053375l0.23504639 -9.861374z" fill-rule="evenodd"/><path fill="#000000" fill-opacity="0.0" d="m345.9766 175.65079l12.0 89.700775" fill-rule="evenodd"/><path stroke="#c27ba0" stroke-width="3.0" stroke-linejoin="round" stroke-linecap="butt" d="m345.9766 175.65077l10.636719 79.510315" fill-rule="evenodd"/><path fill="#c27ba0" stroke="#c27ba0" stroke-width="3.0" stroke-linecap="butt" d="m356.6133 255.16109l-3.7912903 -2.8966064l4.5730286 8.740097l2.1148682 -9.634796z" fill-rule="evenodd"/><path fill="#000000" fill-opacity="0.0" d="m358.77658 271.6508l11.968506 64.6929" fill-rule="evenodd"/><path stroke="#c27ba0" stroke-width="3.0" stroke-linejoin="round" stroke-linecap="butt" d="m358.77658 271.6508l10.098175 54.58319" fill-rule="evenodd"/><path fill="#c27ba0" stroke="#c27ba0" stroke-width="3.0" stroke-linecap="butt" d="m368.87473 326.23398l-3.9311829 -2.7037048l5.0036926 8.500885l1.6311951 -9.728363z" fill-rule="evenodd"/><path fill="#000000" fill-opacity="0.0" d="m371.5766 343.6508l16.314941 26.519684" fill-rule="evenodd"/><path stroke="#c27ba0" stroke-width="3.0" stroke-linejoin="round" stroke-linecap="butt" d="m371.57657 343.6508l10.927734 17.762848" fill-rule="evenodd"/><path fill="#c27ba0" stroke="#c27ba0" stroke-width="3.0" stroke-linecap="butt" d="m382.5043 361.41364l-4.6412964 -1.1057129l7.7304688 6.127136l-1.983429 -9.66272z" fill-rule="evenodd"/><path fill="#000000" fill-opacity="0.0" d="m389.49658 367.6508l18.86615 15.307098" fill-rule="evenodd"/><path stroke="#c27ba0" stroke-width="3.0" stroke-linejoin="round" stroke-linecap="butt" d="m389.49658 367.6508l10.882233 8.829315" fill-rule="evenodd"/><path fill="#c27ba0" stroke="#c27ba0" stroke-width="3.0" stroke-linecap="butt" d="m400.3788 376.4801l-4.745514 0.4942627l9.32373 3.2202759l-5.0724487 -8.4600525z" fill-rule="evenodd"/><path fill="#000000" fill-opacity="0.0" d="m409.9766 383.6508l18.86612 15.307098" fill-rule="evenodd"/><path stroke="#c27ba0" stroke-width="3.0" stroke-linejoin="round" stroke-linecap="butt" d="m409.9766 383.6508l10.882202 8.829315" fill-rule="evenodd"/><path fill="#c27ba0" stroke="#c27ba0" stroke-width="3.0" stroke-linecap="butt" d="m420.85883 392.4801l-4.7455444 0.4942627l9.32373 3.2202759l-5.0724487 -8.4600525z" fill-rule="evenodd"/><path fill="#000000" fill-opacity="0.0" d="m430.45657 399.6508l19.118134 1.8582764" fill-rule="evenodd"/><path stroke="#c27ba0" stroke-width="3.0" stroke-linejoin="round" stroke-linecap="butt" d="m430.45657 399.6508l8.885071 0.86364746" fill-rule="evenodd"/><path fill="#c27ba0" stroke="#c27ba0" stroke-width="3.0" stroke-linecap="butt" d="m439.34164 400.5144l-3.6843262 3.0315552l9.552216 -2.4611816l-8.899414 -4.254669z" fill-rule="evenodd"/><path fill="#000000" fill-opacity="0.0" d="m450.56116 401.50906l19.496063 0" fill-rule="evenodd"/><path stroke="#c27ba0" stroke-width="3.0" stroke-linejoin="round" stroke-linecap="butt" d="m450.56116 401.50906l9.214813 0" fill-rule="evenodd"/><path fill="#c27ba0" stroke="#c27ba0" stroke-width="3.0" stroke-linecap="butt" d="m459.77594 401.50906l-3.3737488 3.3737488l9.269318 -3.3737488l-9.269318 -3.3737488z" fill-rule="evenodd"/><path fill="#000000" fill-opacity="0.0" d="m471.04114 401.50906l19.496063 0" fill-rule="evenodd"/><path stroke="#c27ba0" stroke-width="3.0" stroke-linejoin="round" stroke-linecap="butt" d="m471.04114 401.50906l9.214813 0" fill-rule="evenodd"/><path fill="#c27ba0" stroke="#c27ba0" stroke-width="3.0" stroke-linecap="butt" d="m480.25595 401.50906l-3.3737793 3.3737488l9.269318 -3.3737488l-9.269318 -3.3737488z" fill-rule="evenodd"/><path fill="#000000" fill-opacity="0.0" d="m491.52115 401.50906l19.496063 0" fill-rule="evenodd"/><path stroke="#c27ba0" stroke-width="3.0" stroke-linejoin="round" stroke-linecap="butt" d="m491.52115 401.50906l9.214813 0" fill-rule="evenodd"/><path fill="#c27ba0" stroke="#c27ba0" stroke-width="3.0" stroke-linecap="butt" d="m500.73596 401.50906l-3.3737488 3.3737488l9.269318 -3.3737488l-9.269318 -3.3737488z" fill-rule="evenodd"/><path fill="#000000" fill-opacity="0.0" d="m511.9575 401.58487l16.346466 0" fill-rule="evenodd"/><path stroke="#c27ba0" stroke-width="2.0" stroke-linejoin="round" stroke-linecap="butt" stroke-dasharray="8.0,6.0" d="m511.9575 401.58487l16.346466 0" fill-rule="evenodd"/><path fill="#000000" fill-opacity="0.0" d="m536.19946 27.821522l276.378 0l0 51.77953l-276.378 0z" fill-rule="evenodd"/><path fill="#000000" d="m634.3527 56.494648q0.296875 0 0.46875 0.203125q0.171875 0.1875 0.171875 0.4375l0 8.031254q0 0.390625 -0.28125 0.578125q-1.46875 1.0 -3.21875 1.5625q-1.75 0.546875 -3.53125 0.546875q-3.296875 0 -5.90625 -1.484375q-2.609375 -1.484375 -4.109375 -4.109379q-1.484375 -2.625 -1.484375 -5.921875q0 -3.296875 1.484375 -5.921875q1.5 -2.625 4.109375 -4.109375q2.609375 -1.484375 5.90625 -1.484375q1.78125 0 3.390625 0.4375q1.625 0.421875 2.90625 1.296875q0.296875 0.1875 0.296875 0.53125q0 0.296875 -0.21875 0.46875q-0.203125 0.171875 -0.390625 0.171875q-0.171875 0 -0.421875 -0.125q-2.6875 -1.5 -5.5625 -1.5q-2.953125 0 -5.265625 1.3125q-2.296875 1.3125 -3.59375 3.65625q-1.296875 2.328125 -1.296875 5.265625q0 2.953125 1.296875 5.296875q1.296875 2.328125 3.59375 3.6406288q2.3125 1.3125 5.265625 1.3125q1.46875 0 2.984375 -0.46875q1.515625 -0.46875 2.765625 -1.234375l0 -7.109379l-5.75 0q-0.265625 0 -0.453125 -0.1875q-0.1875 -0.1875 -0.1875 -0.453125q0 -0.28125 0.1875 -0.453125q0.1875 -0.1875 0.453125 -0.1875l6.390625 0zm22.333008 10.187504q0.03125 0.09375 0.03125 0.25q0 0.296875 -0.1875 0.453125q-0.1875 0.15625 -0.484375 0.15625q-0.21875 0 -0.390625 -0.109375q-0.171875 -0.109375 -0.234375 -0.3125l-2.703125 -6.593754l0.046875 0.078125l-10.734375 0l-2.578125 6.515629q-0.171875 0.421875 -0.578125 0.421875q-0.296875 0 -0.46875 -0.15625q-0.171875 -0.15625 -0.203125 -0.390625q-0.03125 -0.125 0.03125 -0.3125l8.609375 -21.187504q0.09375 -0.25 0.234375 -0.328125q0.140625 -0.09375 0.375 -0.09375q0.46875 0 0.640625 0.421875l8.59375 21.187504zm-14.140625 -7.359379l9.703125 0l-4.90625 -12.0625l-4.796875 12.0625zm34.68994 -14.1875q0.296875 0 0.453125 0.1875q0.15625 0.171875 0.15625 0.421875l0 21.093754q0 0.34375 -0.203125 0.53125q-0.1875 0.171875 -0.46875 0.171875q-0.3125 0 -0.515625 -0.25l-14.390625 -19.687504l0 19.390629q0 0.234375 -0.1875 0.390625q-0.171875 0.15625 -0.421875 0.15625q-0.296875 0 -0.453125 -0.15625q-0.15625 -0.15625 -0.15625 -0.390625l0 -21.218754q0 -0.3125 0.171875 -0.46875q0.171875 -0.171875 0.40625 -0.171875q0.28125 0 0.46875 0.234375l14.53125 19.796879l0 -19.421879q0 -0.25 0.171875 -0.421875q0.1875 -0.1875 0.4375 -0.1875z" fill-rule="nonzero"/><path fill="#000000" d="m693.55133 59.635273q-0.828125 0 -1.390625 -0.53125q-0.5625 -0.546875 -0.5625 -1.390625q0 -0.796875 0.5625 -1.34375q0.5625 -0.546875 1.390625 -0.546875l5.578125 0q0.828125 0 1.390625 0.5625q0.5625 0.5625 0.5625 1.390625q0 0.8125 -0.5625 1.34375q-0.5625 0.515625 -1.390625 0.515625l-5.578125 0zm36.991455 -4.1875q0.84375 0 1.375 0.5625q0.546875 0.5625 0.546875 1.390625l0 6.781254q0 1.125 -0.984375 1.734375q-3.140625 1.9375 -6.890625 1.9375q-3.15625 0 -5.84375 -1.546875q-2.6875 -1.546875 -4.265625 -4.187504q-1.5625 -2.640625 -1.5625 -5.78125q0 -3.140625 1.5625 -5.765625q1.578125 -2.640625 4.265625 -4.1875q2.6875 -1.5625 5.84375 -1.5625q3.171875 0 5.515625 1.28125q0.46875 0.25 0.703125 0.671875q0.25 0.40625 0.25 0.890625q0 0.796875 -0.53125 1.390625q-0.515625 0.59375 -1.296875 0.59375q-0.46875 0 -1.046875 -0.25q-1.734375 -0.734375 -3.59375 -0.734375q-2.046875 0 -3.78125 1.046875q-1.71875 1.03125 -2.734375 2.796875q-1.0 1.75 -1.0 3.828125q0 2.078125 1.0 3.84375q1.015625 1.765625 2.734375 2.8125q1.734375 1.0312538 3.78125 1.0312538q0.90625 0 1.921875 -0.15625381q1.03125 -0.171875 1.796875 -0.421875l0 -4.15625l-3.015625 0q-0.828125 0 -1.390625 -0.546875q-0.546875 -0.546875 -0.546875 -1.375q0 -0.84375 0.546875 -1.375q0.5625 -0.546875 1.390625 -0.546875l5.25 0z" fill-rule="nonzero"/><path fill="#000000" fill-opacity="0.0" d="m538.6166 127.65079l14.614197 43.338577" fill-rule="evenodd"/><path stroke="#1155cc" stroke-width="3.0" stroke-linejoin="round" stroke-linecap="butt" d="m538.6166 127.65079l11.3289795 33.596313" fill-rule="evenodd"/><path fill="#1155cc" stroke="#1155cc" stroke-width="3.0" stroke-linecap="butt" d="m549.94556 161.2471l-4.2749023 -2.118866l6.1587524 7.7053375l0.23504639 -9.861374z" fill-rule="evenodd"/><path fill="#000000" fill-opacity="0.0" d="m553.97656 175.65079l12.0 89.700775" fill-rule="evenodd"/><path stroke="#1155cc" stroke-width="3.0" stroke-linejoin="round" stroke-linecap="butt" d="m553.97656 175.65077l10.63678 79.510315" fill-rule="evenodd"/><path fill="#1155cc" stroke="#1155cc" stroke-width="3.0" stroke-linecap="butt" d="m564.61334 255.16109l-3.7913208 -2.8966064l4.573059 8.740097l2.1148682 -9.634796z" fill-rule="evenodd"/><path fill="#000000" fill-opacity="0.0" d="m566.7766 271.6508l11.968506 64.6929" fill-rule="evenodd"/><path stroke="#1155cc" stroke-width="3.0" stroke-linejoin="round" stroke-linecap="butt" d="m566.77655 271.6508l10.098206 54.58319" fill-rule="evenodd"/><path fill="#1155cc" stroke="#1155cc" stroke-width="3.0" stroke-linecap="butt" d="m576.87476 326.23398l-3.9312134 -2.7037048l5.003723 8.500885l1.6311646 -9.728363z" fill-rule="evenodd"/><path fill="#000000" fill-opacity="0.0" d="m579.5766 343.6508l16.314941 26.519684" fill-rule="evenodd"/><path stroke="#1155cc" stroke-width="3.0" stroke-linejoin="round" stroke-linecap="butt" d="m579.57654 343.6508l10.927795 17.762848" fill-rule="evenodd"/><path fill="#1155cc" stroke="#1155cc" stroke-width="3.0" stroke-linecap="butt" d="m590.50433 361.41364l-4.6413574 -1.1057129l7.73053 6.127136l-1.9834595 -9.66272z" fill-rule="evenodd"/><path fill="#000000" fill-opacity="0.0" d="m597.4966 367.6508l18.86615 15.307098" fill-rule="evenodd"/><path stroke="#1155cc" stroke-width="3.0" stroke-linejoin="round" stroke-linecap="butt" d="m597.4966 367.6508l10.882202 8.829315" fill-rule="evenodd"/><path fill="#1155cc" stroke="#1155cc" stroke-width="3.0" stroke-linecap="butt" d="m608.37885 376.4801l-4.7455444 0.4942627l9.32373 3.2202759l-5.0724487 -8.4600525z" fill-rule="evenodd"/><path fill="#000000" fill-opacity="0.0" d="m617.97656 383.6508l18.86615 15.307098" fill-rule="evenodd"/><path stroke="#1155cc" stroke-width="3.0" stroke-linejoin="round" stroke-linecap="butt" d="m617.97656 383.6508l10.882263 8.829315" fill-rule="evenodd"/><path fill="#1155cc" stroke="#1155cc" stroke-width="3.0" stroke-linecap="butt" d="m628.8588 392.4801l-4.7455444 0.4942627l9.32373 3.2202759l-5.0724487 -8.4600525z" fill-rule="evenodd"/><path fill="#000000" fill-opacity="0.0" d="m638.4566 399.6508l19.118103 1.8582764" fill-rule="evenodd"/><path stroke="#1155cc" stroke-width="3.0" stroke-linejoin="round" stroke-linecap="butt" d="m638.45654 399.6508l8.885132 0.86364746" fill-rule="evenodd"/><path fill="#1155cc" stroke="#1155cc" stroke-width="3.0" stroke-linecap="butt" d="m647.3417 400.5144l-3.6843262 3.0315552l9.552185 -2.4611816l-8.899414 -4.254669z" fill-rule="evenodd"/><path fill="#000000" fill-opacity="0.0" d="m658.56116 401.50906l19.496033 0" fill-rule="evenodd"/><path stroke="#1155cc" stroke-width="3.0" stroke-linejoin="round" stroke-linecap="butt" d="m658.56116 401.50906l9.214783 0" fill-rule="evenodd"/><path fill="#1155cc" stroke="#1155cc" stroke-width="3.0" stroke-linecap="butt" d="m667.77594 401.50906l-3.3737183 3.3737488l9.269287 -3.3737488l-9.269287 -3.3737488z" fill-rule="evenodd"/><path fill="#000000" fill-opacity="0.0" d="m679.04114 401.50906l19.496094 0" fill-rule="evenodd"/><path stroke="#1155cc" stroke-width="3.0" stroke-linejoin="round" stroke-linecap="butt" d="m679.04114 401.50906l9.214844 0" fill-rule="evenodd"/><path fill="#1155cc" stroke="#1155cc" stroke-width="3.0" stroke-linecap="butt" d="m688.256 401.50906l-3.3737793 3.3737488l9.269348 -3.3737488l-9.269348 -3.3737488z" fill-rule="evenodd"/><path fill="#000000" fill-opacity="0.0" d="m699.5212 401.50906l19.496033 0" fill-rule="evenodd"/><path stroke="#1155cc" stroke-width="3.0" stroke-linejoin="round" stroke-linecap="butt" d="m699.5212 401.50906l9.214783 0" fill-rule="evenodd"/><path fill="#1155cc" stroke="#1155cc" stroke-width="3.0" stroke-linecap="butt" d="m708.73596 401.50906l-3.3737183 3.3737488l9.269287 -3.3737488l-9.269287 -3.3737488z" fill-rule="evenodd"/><path fill="#000000" fill-opacity="0.0" d="m719.95746 401.58487l16.346497 0" fill-rule="evenodd"/><path stroke="#1155cc" stroke-width="2.0" stroke-linejoin="round" stroke-linecap="butt" stroke-dasharray="8.0,6.0" d="m719.95746 401.58487l16.346497 0" fill-rule="evenodd"/><path fill="#000000" fill-opacity="0.0" d="m538.6166 401.58545l14.614197 -43.338593" fill-rule="evenodd"/><path stroke="#c27ba0" stroke-width="3.0" stroke-linejoin="round" stroke-linecap="butt" d="m538.6166 401.58542l11.3289795 -33.596283" fill-rule="evenodd"/><path fill="#c27ba0" stroke="#c27ba0" stroke-width="3.0" stroke-linecap="butt" d="m549.94556 367.9891l2.1188965 4.2749023l-0.23504639 -9.861389l-6.1587524 7.705353z" fill-rule="evenodd"/><path fill="#000000" fill-opacity="0.0" d="m553.97656 353.58545l12.0 -89.700806" fill-rule="evenodd"/><path stroke="#c27ba0" stroke-width="3.0" stroke-linejoin="round" stroke-linecap="butt" d="m553.97656 353.58542l10.63678 -79.510284" fill-rule="evenodd"/><path fill="#c27ba0" stroke="#c27ba0" stroke-width="3.0" stroke-linecap="butt" d="m564.61334 274.07513l2.8966064 3.7913208l-2.1148682 -9.634827l-4.573059 8.740112z" fill-rule="evenodd"/><path fill="#000000" fill-opacity="0.0" d="m566.7766 257.58545l11.968506 -64.69293" fill-rule="evenodd"/><path stroke="#c27ba0" stroke-width="3.0" stroke-linejoin="round" stroke-linecap="butt" d="m566.77655 257.58545l10.098206 -54.58322" fill-rule="evenodd"/><path fill="#c27ba0" stroke="#c27ba0" stroke-width="3.0" stroke-linecap="butt" d="m576.87476 203.00224l2.7036743 3.9311981l-1.6311646 -9.728378l-5.003723 8.500885z" fill-rule="evenodd"/><path fill="#000000" fill-opacity="0.0" d="m579.5766 185.58543l16.314941 -26.519684" fill-rule="evenodd"/><path stroke="#c27ba0" stroke-width="3.0" stroke-linejoin="round" stroke-linecap="butt" d="m579.57654 185.58545l10.927795 -17.762863" fill-rule="evenodd"/><path fill="#c27ba0" stroke="#c27ba0" stroke-width="3.0" stroke-linecap="butt" d="m590.50433 167.82259l1.1057129 4.6413116l1.9834595 -9.66272l-7.73053 6.127136z" fill-rule="evenodd"/><path fill="#000000" fill-opacity="0.0" d="m597.4966 161.58543l18.86615 -15.307083" fill-rule="evenodd"/><path stroke="#c27ba0" stroke-width="3.0" stroke-linejoin="round" stroke-linecap="butt" d="m597.4966 161.58543l10.882202 -8.82933" fill-rule="evenodd"/><path fill="#c27ba0" stroke="#c27ba0" stroke-width="3.0" stroke-linecap="butt" d="m608.37885 152.75612l-0.4942627 4.745529l5.0724487 -8.460068l-9.32373 3.2202911z" fill-rule="evenodd"/><path fill="#000000" fill-opacity="0.0" d="m617.97656 145.58543l18.86615 -15.307083" fill-rule="evenodd"/><path stroke="#c27ba0" stroke-width="3.0" stroke-linejoin="round" stroke-linecap="butt" d="m617.97656 145.58543l10.882263 -8.82933" fill-rule="evenodd"/><path fill="#c27ba0" stroke="#c27ba0" stroke-width="3.0" stroke-linecap="butt" d="m628.8588 136.75612l-0.4942627 4.745529l5.0724487 -8.460068l-9.32373 3.2202911z" fill-rule="evenodd"/><path fill="#000000" fill-opacity="0.0" d="m638.4566 129.58543l19.118103 -1.8582687" fill-rule="evenodd"/><path stroke="#c27ba0" stroke-width="3.0" stroke-linejoin="round" stroke-linecap="butt" d="m638.45654 129.58543l8.885132 -0.86361694" fill-rule="evenodd"/><path fill="#c27ba0" stroke="#c27ba0" stroke-width="3.0" stroke-linecap="butt" d="m647.3417 128.72182l-3.0315552 3.684311l8.899414 -4.254669l-9.552185 -2.4611816z" fill-rule="evenodd"/><path fill="#000000" fill-opacity="0.0" d="m658.56116 127.727165l19.496033 0" fill-rule="evenodd"/><path stroke="#c27ba0" stroke-width="3.0" stroke-linejoin="round" stroke-linecap="butt" d="m658.56116 127.727165l9.214783 0" fill-rule="evenodd"/><path fill="#c27ba0" stroke="#c27ba0" stroke-width="3.0" stroke-linecap="butt" d="m667.77594 127.727165l-3.3737183 3.3737564l9.269287 -3.3737564l-9.269287 -3.3737488z" fill-rule="evenodd"/><path fill="#000000" fill-opacity="0.0" d="m679.04114 127.727165l19.496094 0" fill-rule="evenodd"/><path stroke="#c27ba0" stroke-width="3.0" stroke-linejoin="round" stroke-linecap="butt" d="m679.04114 127.727165l9.214844 0" fill-rule="evenodd"/><path fill="#c27ba0" stroke="#c27ba0" stroke-width="3.0" stroke-linecap="butt" d="m688.256 127.727165l-3.3737793 3.3737564l9.269348 -3.3737564l-9.269348 -3.3737488z" fill-rule="evenodd"/><path fill="#000000" fill-opacity="0.0" d="m699.5212 127.727165l19.496033 0" fill-rule="evenodd"/><path stroke="#c27ba0" stroke-width="3.0" stroke-linejoin="round" stroke-linecap="butt" d="m699.5212 127.727165l9.214783 0" fill-rule="evenodd"/><path fill="#c27ba0" stroke="#c27ba0" stroke-width="3.0" stroke-linecap="butt" d="m708.73596 127.727165l-3.3737183 3.3737564l9.269287 -3.3737564l-9.269287 -3.3737488z" fill-rule="evenodd"/><path fill="#000000" fill-opacity="0.0" d="m719.95746 127.65134l16.346497 0" fill-rule="evenodd"/><path stroke="#c27ba0" stroke-width="2.0" stroke-linejoin="round" stroke-linecap="butt" stroke-dasharray="8.0,6.0" d="m719.95746 127.65134l16.346497 0" fill-rule="evenodd"/></g></svg>