<svg version="1.1" viewBox="0.0 0.0 960.0 540.0" fill="none" stroke="none" stroke-linecap="square" stroke-miterlimit="10" xmlns:xlink="http://www.w3.org/1999/xlink" xmlns="http://www.w3.org/2000/svg"><clipPath id="g39452d2acc_0_339.0"><path d="m0 0l960.0 0l0 540.0l-960.0 0l0 -540.0z" clip-rule="nonzero"/></clipPath><g clip-path="url(#g39452d2acc_0_339.0)"><path fill="#ffffff" d="m0 0l960.0 0l0 540.0l-960.0 0z" fill-rule="evenodd"/><path fill="#000000" fill-opacity="0.0" d="m419.53088 108.296585l-12.976379 54.48819" fill-rule="evenodd"/><path stroke="#595959" stroke-width="3.0" stroke-linejoin="round" stroke-linecap="butt" d="m419.53088 108.296585l-12.976379 54.48819" fill-rule="evenodd"/><path fill="#000000" fill-opacity="0.0" d="m451.57812 117.3832l-8.629944 46.110237" fill-rule="evenodd"/><path stroke="#595959" stroke-width="3.0" stroke-linejoin="round" stroke-linecap="butt" d="m451.57812 117.3832l-8.629944 46.110237" fill-rule="evenodd"/><path fill="#000000" fill-opacity="0.0" d="m435.5545 117.3832l-5.826782 43.46456" fill-rule="evenodd"/><path stroke="#595959" stroke-width="3.0" stroke-linejoin="round" stroke-linecap="butt" d="m435.5545 117.3832l-5.826782 43.46456" fill-rule="evenodd"/><path fill="#000000" fill-opacity="0.0" d="m459.58994 120.391075l1.0078735 42.3937" fill-rule="evenodd"/><path stroke="#595959" stroke-width="3.0" stroke-linejoin="round" stroke-linecap="butt" d="m459.58994 120.391075l1.0078735 42.3937" fill-rule="evenodd"/><path fill="#000000" fill-opacity="0.0" d="m115.174034 341.87753c-21.324074 -6.095276 -78.74007 5.553955 -63.05512 21.233582c10.040012 10.036591 28.349102 4.706024 42.46719 3.2178345c11.074623 -1.1673584 30.596642 2.016327 32.17061 -9.007874c2.444931 -17.124512 -32.245132 -15.4435425 -49.543312 -15.4435425c-16.076077 0 -48.497482 -5.063843 -46.971127 10.939606c2.2588348 23.683258 40.56954 30.000946 64.34383 30.884521c9.517357 0.35372925 30.620712 5.3783875 28.309715 -3.8609009c-4.989807 -19.949036 -39.19005 -22.136688 -59.194225 -17.37268c-9.768173 2.326294 -18.71566 22.83722 -10.296589 28.309692c15.825745 10.286896 39.46393 8.509003 56.622047 0.6430664c14.736404 -6.755768 30.959763 -30.783966 21.233597 -43.753296c-5.239311 -6.986328 -15.409073 -13.335876 -23.805779 -10.937012c-29.699562 8.484985 -86.77425 66.65073 -56.622044 73.351715c17.244282 3.8323364 42.86324 -8.415131 46.32546 -25.737549c3.5916367 -17.96991 -13.209984 -38.128265 -29.598427 -46.328064" fill-rule="evenodd"/><path stroke="#595959" stroke-width="1.0" stroke-linejoin="round" stroke-linecap="butt" d="m115.174034 341.87753c-21.324074 -6.095276 -78.74007 5.553955 -63.05512 21.233582c10.040012 10.036591 28.349102 4.706024 42.46719 3.2178345c11.074623 -1.1673584 30.596642 2.016327 32.17061 -9.007874c2.444931 -17.124512 -32.245132 -15.4435425 -49.543312 -15.4435425c-16.076077 0 -48.497482 -5.063843 -46.971127 10.939606c2.2588348 23.683258 40.56954 30.000946 64.34383 30.884521c9.517357 0.35372925 30.620712 5.3783875 28.309715 -3.8609009c-4.989807 -19.949036 -39.19005 -22.136688 -59.194225 -17.37268c-9.768173 2.326294 -18.71566 22.83722 -10.296589 28.309692c15.825745 10.286896 39.46393 8.509003 56.622047 0.6430664c14.736404 -6.755768 30.959763 -30.783966 21.233597 -43.753296c-5.239311 -6.986328 -15.409073 -13.335876 -23.805779 -10.937012c-29.699562 8.484985 -86.77425 66.65073 -56.622044 73.351715c17.244282 3.8323364 42.86324 -8.415131 46.32546 -25.737549c3.5916367 -17.96991 -13.209984 -38.128265 -29.598427 -46.328064" fill-rule="evenodd"/><path fill="#000000" fill-opacity="0.0" d="m401.015 302.78735c-20.974213 3.4933167 -26.563965 50.168274 -9.65094 63.055115c20.076996 15.297577 84.532196 6.8520813 73.99475 -16.083984c-7.03656 -15.3160095 -37.117035 -24.920715 -48.90027 -12.868774c-11.165253 11.419891 -15.542236 28.618286 -18.018372 44.39633c-1.809021 11.527344 -0.5372009 29.122986 10.2966 33.456696c16.532898 6.6134033 36.926453 8.038361 53.404205 1.2886963c14.790375 -6.0584717 15.225616 -7.53891 24.451447 -20.590546c12.06015 -17.06131 -0.94659424 -42.08841 -5.7926636 -62.41208c-3.770874 -15.814484 -8.872498 -42.942078 -25.091858 -41.824158c-37.293213 2.5705261 -83.44928 52.575775 -70.136475 87.50656c6.708191 17.60138 40.15561 2.497284 55.979004 -7.7217712c9.948517 -6.4249573 27.424683 -8.844421 28.955383 -20.587921c2.4183044 -18.553528 -34.586914 -33.091614 -50.83203 -23.80841c-13.604034 7.7739563 3.4268188 34.34137 15.443573 44.39633c21.968231 18.381866 57.31302 26.363403 84.2887 16.729645c37.309692 -13.32431 -27.645935 -87.83005 -65.62991 -99.08923c-38.923096 -11.537537 -14.154846 80.368805 -14.154846 120.96588c0 16.792816 -35.925293 34.89911 -45.68506 21.233612c-12.678314 -17.752075 -8.557922 -43.188446 -7.7191467 -64.98688c0.64642334 -16.799774 3.5725098 -42.505096 19.944885 -46.32547c41.370117 -9.653412 45.602478 85.67334 87.50656 92.653534c9.136963 1.5220032 1.7736206 -19.489136 -2.572174 -27.669281c-12.258881 -23.07489 -33.763336 -43.859467 -58.553802 -52.11548" fill-rule="evenodd"/><path stroke="#595959" stroke-width="1.0" stroke-linejoin="round" stroke-linecap="butt" d="m401.015 302.78735c-20.974213 3.4933167 -26.563965 50.168274 -9.65094 63.055115c20.076996 15.297577 84.532196 6.8520813 73.99475 -16.083984c-7.03656 -15.3160095 -37.117035 -24.920715 -48.90027 -12.868774c-11.165253 11.419891 -15.542236 28.618286 -18.018372 44.39633c-1.809021 11.527344 -0.5372009 29.122986 10.2966 33.456696c16.532898 6.6134033 36.926453 8.038361 53.404205 1.2886963c14.790375 -6.0584717 15.225616 -7.53891 24.451447 -20.590546c12.06015 -17.06131 -0.94659424 -42.08841 -5.7926636 -62.41208c-3.770874 -15.814484 -8.872498 -42.942078 -25.091858 -41.824158c-37.293213 2.5705261 -83.44928 52.575775 -70.136475 87.50656c6.708191 17.60138 40.15561 2.497284 55.979004 -7.7217712c9.948517 -6.4249573 27.424683 -8.844421 28.955383 -20.587921c2.4183044 -18.553528 -34.586914 -33.091614 -50.83203 -23.80841c-13.604034 7.7739563 3.4268188 34.34137 15.443573 44.39633c21.968231 18.381866 57.31302 26.363403 84.2887 16.729645c37.309692 -13.32431 -27.645935 -87.83005 -65.62991 -99.08923c-38.923096 -11.537537 -14.154846 80.368805 -14.154846 120.96588c0 16.792816 -35.925293 34.89911 -45.68506 21.233612c-12.678314 -17.752075 -8.557922 -43.188446 -7.7191467 -64.98688c0.64642334 -16.799774 3.5725098 -42.505096 19.944885 -46.32547c41.370117 -9.653412 45.602478 85.67334 87.50656 92.653534c9.136963 1.5220032 1.7736206 -19.489136 -2.572174 -27.669281c-12.258881 -23.07489 -33.763336 -43.859467 -58.553802 -52.11548" fill-rule="evenodd"/><path fill="#000000" fill-opacity="0.0" d="m166.14468 313.37857l22.516724 5.629181l0 108.63623l-22.516724 5.629181z" fill-rule="evenodd"/><path stroke="#595959" stroke-width="3.0" stroke-linejoin="round" stroke-linecap="butt" d="m166.14468 313.37857l22.516724 5.629181l0 108.63623l-22.516724 5.629181z" fill-rule="evenodd"/><path fill="#000000" fill-opacity="0.0" d="m167.90526 322.26016l18.902924 4.336548" fill-rule="evenodd"/><path stroke="#595959" stroke-width="1.0" stroke-linejoin="round" stroke-linecap="butt" d="m167.90526 322.26016l18.902924 4.336548" fill-rule="evenodd"/><path fill="#000000" fill-opacity="0.0" d="m167.90526 336.38174l18.902924 4.3365784" fill-rule="evenodd"/><path stroke="#595959" stroke-width="1.0" stroke-linejoin="round" stroke-linecap="butt" d="m167.90526 336.38174l18.902924 4.3365784" fill-rule="evenodd"/><path fill="#000000" fill-opacity="0.0" d="m167.90526 350.50336l18.902924 4.336548" fill-rule="evenodd"/><path stroke="#595959" stroke-width="1.0" stroke-linejoin="round" stroke-linecap="butt" d="m167.90526 350.50336l18.902924 4.336548" fill-rule="evenodd"/><path fill="#000000" fill-opacity="0.0" d="m167.90526 364.62497l18.902924 4.336548" fill-rule="evenodd"/><path stroke="#595959" stroke-width="1.0" stroke-linejoin="round" stroke-linecap="butt" d="m167.90526 364.62497l18.902924 4.336548" fill-rule="evenodd"/><path fill="#000000" fill-opacity="0.0" d="m167.90526 378.74655l18.902924 4.336548" fill-rule="evenodd"/><path stroke="#595959" stroke-width="1.0" stroke-linejoin="round" stroke-linecap="butt" d="m167.90526 378.74655l18.902924 4.336548" fill-rule="evenodd"/><path fill="#000000" fill-opacity="0.0" d="m167.90526 392.86816l18.902924 4.336548" fill-rule="evenodd"/><path stroke="#595959" stroke-width="1.0" stroke-linejoin="round" stroke-linecap="butt" d="m167.90526 392.86816l18.902924 4.336548" fill-rule="evenodd"/><path fill="#000000" fill-opacity="0.0" d="m167.90526 406.98975l18.902924 4.3365784" fill-rule="evenodd"/><path stroke="#595959" stroke-width="1.0" stroke-linejoin="round" stroke-linecap="butt" d="m167.90526 406.98975l18.902924 4.3365784" fill-rule="evenodd"/><path fill="#000000" fill-opacity="0.0" d="m167.90526 421.11136l18.902924 4.336548" fill-rule="evenodd"/><path stroke="#595959" stroke-width="1.0" stroke-linejoin="round" stroke-linecap="butt" d="m167.90526 421.11136l18.902924 4.336548" fill-rule="evenodd"/><path fill="#000000" fill-opacity="0.0" d="m345.77167 463.1012l-33.66931 -8.417328l0 -162.50394l33.66931 -8.417328z" fill-rule="evenodd"/><path stroke="#595959" stroke-width="3.0" stroke-linejoin="round" stroke-linecap="butt" d="m345.77167 463.1012l-33.66931 -8.417328l0 -162.50394l33.66931 -8.417328z" fill-rule="evenodd"/><path fill="#000000" fill-opacity="0.0" d="m343.15118 449.8149l-28.283478 -6.4881897" fill-rule="evenodd"/><path stroke="#595959" stroke-width="1.0" stroke-linejoin="round" stroke-linecap="butt" d="m343.15118 449.8149l-28.283478 -6.4881897" fill-rule="evenodd"/><path fill="#000000" fill-opacity="0.0" d="m343.15118 428.68994l-28.283478 -6.4881897" fill-rule="evenodd"/><path stroke="#595959" stroke-width="1.0" stroke-linejoin="round" stroke-linecap="butt" d="m343.15118 428.68994l-28.283478 -6.4881897" fill-rule="evenodd"/><path fill="#000000" fill-opacity="0.0" d="m343.15118 407.56497l-28.283478 -6.4881897" fill-rule="evenodd"/><path stroke="#595959" stroke-width="1.0" stroke-linejoin="round" stroke-linecap="butt" d="m343.15118 407.56497l-28.283478 -6.4881897" fill-rule="evenodd"/><path fill="#000000" fill-opacity="0.0" d="m343.15118 386.44l-28.283478 -6.4881897" fill-rule="evenodd"/><path stroke="#595959" stroke-width="1.0" stroke-linejoin="round" stroke-linecap="butt" d="m343.15118 386.44l-28.283478 -6.4881897" fill-rule="evenodd"/><path fill="#000000" fill-opacity="0.0" d="m343.15118 365.31503l-28.283478 -6.4881897" fill-rule="evenodd"/><path stroke="#595959" stroke-width="1.0" stroke-linejoin="round" stroke-linecap="butt" d="m343.15118 365.31503l-28.283478 -6.4881897" fill-rule="evenodd"/><path fill="#000000" fill-opacity="0.0" d="m343.15118 344.19006l-28.283478 -6.4881897" fill-rule="evenodd"/><path stroke="#595959" stroke-width="1.0" stroke-linejoin="round" stroke-linecap="butt" d="m343.15118 344.19006l-28.283478 -6.4881897" fill-rule="evenodd"/><path fill="#000000" fill-opacity="0.0" d="m343.15118 323.0651l-28.283478 -6.4881897" fill-rule="evenodd"/><path stroke="#595959" stroke-width="1.0" stroke-linejoin="round" stroke-linecap="butt" d="m343.15118 323.0651l-28.283478 -6.4881897" fill-rule="evenodd"/><path fill="#000000" fill-opacity="0.0" d="m343.15118 301.94012l-28.283478 -6.4881897" fill-rule="evenodd"/><path stroke="#595959" stroke-width="1.0" stroke-linejoin="round" stroke-linecap="butt" d="m343.15118 301.94012l-28.283478 -6.4881897" fill-rule="evenodd"/><path fill="#000000" fill-opacity="0.0" d="m310.29922 454.4777l-120.31497 -24.450409l0 -112.61099l120.31497 -24.450409z" fill-rule="evenodd"/><path stroke="#595959" stroke-width="2.0" stroke-linejoin="round" stroke-linecap="butt" d="m310.29922 454.4777l-120.31497 -24.450409l0 -112.61099l120.31497 -24.450409z" fill-rule="evenodd"/><path fill="#000000" fill-opacity="0.0" d="m750.5545 193.37856l-22.516724 5.629181l0 108.636246l22.516724 5.629181z" fill-rule="evenodd"/><path stroke="#595959" stroke-width="3.0" stroke-linejoin="round" stroke-linecap="butt" d="m750.5545 193.37856l-22.516724 5.629181l0 108.636246l22.516724 5.629181z" fill-rule="evenodd"/><path fill="#000000" fill-opacity="0.0" d="m748.79395 202.26016l-18.902954 4.336548" fill-rule="evenodd"/><path stroke="#595959" stroke-width="1.0" stroke-linejoin="round" stroke-linecap="butt" d="m748.79395 202.26016l-18.902954 4.336548" fill-rule="evenodd"/><path fill="#000000" fill-opacity="0.0" d="m748.79395 216.38176l-18.902954 4.336548" fill-rule="evenodd"/><path stroke="#595959" stroke-width="1.0" stroke-linejoin="round" stroke-linecap="butt" d="m748.79395 216.38176l-18.902954 4.336548" fill-rule="evenodd"/><path fill="#000000" fill-opacity="0.0" d="m748.79395 230.50336l-18.902954 4.336548" fill-rule="evenodd"/><path stroke="#595959" stroke-width="1.0" stroke-linejoin="round" stroke-linecap="butt" d="m748.79395 230.50336l-18.902954 4.336548" fill-rule="evenodd"/><path fill="#000000" fill-opacity="0.0" d="m748.79395 244.62495l-18.902954 4.336563" fill-rule="evenodd"/><path stroke="#595959" stroke-width="1.0" stroke-linejoin="round" stroke-linecap="butt" d="m748.79395 244.62495l-18.902954 4.336563" fill-rule="evenodd"/><path fill="#000000" fill-opacity="0.0" d="m748.79395 258.74655l-18.902954 4.336548" fill-rule="evenodd"/><path stroke="#595959" stroke-width="1.0" stroke-linejoin="round" stroke-linecap="butt" d="m748.79395 258.74655l-18.902954 4.336548" fill-rule="evenodd"/><path fill="#000000" fill-opacity="0.0" d="m748.79395 272.86816l-18.902954 4.336548" fill-rule="evenodd"/><path stroke="#595959" stroke-width="1.0" stroke-linejoin="round" stroke-linecap="butt" d="m748.79395 272.86816l-18.902954 4.336548" fill-rule="evenodd"/><path fill="#000000" fill-opacity="0.0" d="m748.79395 286.98975l-18.902954 4.3365784" fill-rule="evenodd"/><path stroke="#595959" stroke-width="1.0" stroke-linejoin="round" stroke-linecap="butt" d="m748.79395 286.98975l-18.902954 4.3365784" fill-rule="evenodd"/><path fill="#000000" fill-opacity="0.0" d="m748.79395 301.11136l-18.902954 4.336548" fill-rule="evenodd"/><path stroke="#595959" stroke-width="1.0" stroke-linejoin="round" stroke-linecap="butt" d="m748.79395 301.11136l-18.902954 4.336548" fill-rule="evenodd"/><path fill="#000000" fill-opacity="0.0" d="m570.92755 343.1012l33.66925 -8.417328l0 -162.50394l-33.66925 -8.417328z" fill-rule="evenodd"/><path stroke="#595959" stroke-width="3.0" stroke-linejoin="round" stroke-linecap="butt" d="m570.92755 343.1012l33.66925 -8.417328l0 -162.50394l-33.66925 -8.417328z" fill-rule="evenodd"/><path fill="#000000" fill-opacity="0.0" d="m573.54803 329.8149l28.283447 -6.4881897" fill-rule="evenodd"/><path stroke="#595959" stroke-width="1.0" stroke-linejoin="round" stroke-linecap="butt" d="m573.54803 329.8149l28.283447 -6.4881897" fill-rule="evenodd"/><path fill="#000000" fill-opacity="0.0" d="m573.54803 308.68994l28.283447 -6.4881897" fill-rule="evenodd"/><path stroke="#595959" stroke-width="1.0" stroke-linejoin="round" stroke-linecap="butt" d="m573.54803 308.68994l28.283447 -6.4881897" fill-rule="evenodd"/><path fill="#000000" fill-opacity="0.0" d="m573.54803 287.56497l28.283447 -6.4881897" fill-rule="evenodd"/><path stroke="#595959" stroke-width="1.0" stroke-linejoin="round" stroke-linecap="butt" d="m573.54803 287.56497l28.283447 -6.4881897" fill-rule="evenodd"/><path fill="#000000" fill-opacity="0.0" d="m573.54803 266.44l28.283447 -6.4881897" fill-rule="evenodd"/><path stroke="#595959" stroke-width="1.0" stroke-linejoin="round" stroke-linecap="butt" d="m573.54803 266.44l28.283447 -6.4881897" fill-rule="evenodd"/><path fill="#000000" fill-opacity="0.0" d="m573.54803 245.31503l28.283447 -6.4881897" fill-rule="evenodd"/><path stroke="#595959" stroke-width="1.0" stroke-linejoin="round" stroke-linecap="butt" d="m573.54803 245.31503l28.283447 -6.4881897" fill-rule="evenodd"/><path fill="#000000" fill-opacity="0.0" d="m573.54803 224.19006l28.283447 -6.4881897" fill-rule="evenodd"/><path stroke="#595959" stroke-width="1.0" stroke-linejoin="round" stroke-linecap="butt" d="m573.54803 224.19006l28.283447 -6.4881897" fill-rule="evenodd"/><path fill="#000000" fill-opacity="0.0" d="m573.54803 203.0651l28.283447 -6.4881897" fill-rule="evenodd"/><path stroke="#595959" stroke-width="1.0" stroke-linejoin="round" stroke-linecap="butt" d="m573.54803 203.0651l28.283447 -6.4881897" fill-rule="evenodd"/><path fill="#000000" fill-opacity="0.0" d="m573.54803 181.94011l28.283447 -6.4881897" fill-rule="evenodd"/><path stroke="#595959" stroke-width="1.0" stroke-linejoin="round" stroke-linecap="butt" d="m573.54803 181.94011l28.283447 -6.4881897" fill-rule="evenodd"/><path fill="#000000" fill-opacity="0.0" d="m606.39996 334.4777l120.31494 -24.450409l0 -112.61099l-120.31494 -24.450409z" fill-rule="evenodd"/><path stroke="#595959" stroke-width="3.0" stroke-linejoin="round" stroke-linecap="butt" d="m606.39996 334.4777l120.31494 -24.450409l0 -112.61099l-120.31494 -24.450409z" fill-rule="evenodd"/><path fill="#000000" fill-opacity="0.0" d="m220.94226 335.24408l87.74802 0l0 61.51184l-87.74802 0z" fill-rule="evenodd"/><path fill="#000000" d="m253.58289 367.5191q1.046875 0 1.71875 0.703125q0.6875 0.703125 0.6875 1.734375l0 8.484375q0 1.40625 -1.25 2.15625q-3.921875 2.453125 -8.59375 2.453125q-3.96875 0 -7.328125 -1.9375q-3.359375 -1.953125 -5.328125 -5.25q-1.953125 -3.296875 -1.953125 -7.21875q0 -3.921875 1.953125 -7.21875q1.96875 -3.296875 5.328125 -5.234375q3.359375 -1.953125 7.328125 -1.953125q3.953125 0 6.875 1.609375q0.609375 0.3125 0.90625 0.84375q0.296875 0.515625 0.296875 1.109375q0 1.0 -0.671875 1.75q-0.65625 0.734375 -1.609375 0.734375q-0.59375 0 -1.3125 -0.328125q-2.171875 -0.90625 -4.484375 -0.90625q-2.5625 0 -4.734375 1.296875q-2.15625 1.296875 -3.421875 3.5q-1.25 2.203125 -1.25 4.796875q0 2.59375 1.25 4.796875q1.265625 2.203125 3.421875 3.5q2.171875 1.296875 4.734375 1.296875q1.109375 0 2.390625 -0.1875q1.28125 -0.203125 2.25 -0.53125l0 -5.1875l-3.765625 0q-1.03125 0 -1.734375 -0.6875q-0.703125 -0.6875 -0.703125 -1.71875q0 -1.046875 0.703125 -1.71875q0.703125 -0.6875 1.734375 -0.6875l6.5625 0z" fill-rule="nonzero"/><path fill="#000000" fill-opacity="0.0" d="m636.94226 215.2441l87.74805 0l0 61.511826l-87.74805 0z" fill-rule="evenodd"/><path fill="#000000" d="m660.94226 234.64409q3.765625 0 6.453125 1.859375q2.703125 1.859375 4.125 5.046875q1.421875 3.171875 1.421875 7.09375q0 3.921875 -1.421875 7.109375q-1.421875 3.1718903 -4.125 5.0312653q-2.6875 1.859375 -6.453125 1.859375l-9.5625 0q-1.03125 0 -1.734375 -0.703125q-0.703125 -0.703125 -0.703125 -1.734375l0 -23.125015q0 -1.03125 0.703125 -1.734375q0.703125 -0.703125 1.734375 -0.703125l9.5625 0zm-0.40625 23.406265q3.609375 0 5.40625 -2.6562653q1.796875 -2.671875 1.796875 -6.75q0 -4.078125 -1.828125 -6.734375q-1.8125 -2.671875 -5.375 -2.671875l-6.59375 0l0 18.812515l6.59375 0z" fill-rule="nonzero"/><path fill="#999999" d="m400.1286 120.64829l0 0c0 -19.725693 19.643066 -35.716537 43.874023 -35.716537l0 0c24.230957 0 43.874023 15.990845 43.874023 35.716537l0 0c0 19.7257 -19.643066 35.71653 -43.874023 35.71653l0 0c-24.230957 0 -43.874023 -15.990829 -43.874023 -35.71653z" fill-rule="evenodd"/><path stroke="#595959" stroke-width="1.0" stroke-linejoin="round" stroke-linecap="butt" d="m400.1286 120.64829l0 0c0 -19.725693 19.643066 -35.716537 43.874023 -35.716537l0 0c24.230957 0 43.874023 15.990845 43.874023 35.716537l0 0c0 19.7257 -19.643066 35.71653 -43.874023 35.71653l0 0c-24.230957 0 -43.874023 -15.990829 -43.874023 -35.71653z" fill-rule="evenodd"/><path fill="#000000" fill-opacity="0.0" d="m450.99475 138.26509l18.015747 -12.881889" fill-rule="evenodd"/><path stroke="#595959" stroke-width="3.0" stroke-linejoin="round" stroke-linecap="butt" d="m450.99475 138.26509l18.015747 -12.881889" fill-rule="evenodd"/><path fill="#000000" fill-opacity="0.0" d="m466.99475 130.26509l18.015747 -12.881889" fill-rule="evenodd"/><path stroke="#595959" stroke-width="3.0" stroke-linejoin="round" stroke-linecap="butt" d="m466.99475 130.26509l18.015747 -12.881889" fill-rule="evenodd"/><path fill="#000000" fill-opacity="0.0" d="m483.60437 117.3832l20.188965 36.53544" fill-rule="evenodd"/><path stroke="#595959" stroke-width="3.0" stroke-linejoin="round" stroke-linecap="butt" d="m483.60437 117.3832l20.188965 36.53544" fill-rule="evenodd"/><path fill="#000000" fill-opacity="0.0" d="m467.60437 125.3832l24.53543 36.125984" fill-rule="evenodd"/><path stroke="#595959" stroke-width="3.0" stroke-linejoin="round" stroke-linecap="butt" d="m467.60437 125.3832l24.53543 36.125984" fill-rule="evenodd"/><path fill="#000000" fill-opacity="0.0" d="m442.99475 138.26509l18.015747 -12.881889" fill-rule="evenodd"/><path stroke="#595959" stroke-width="3.0" stroke-linejoin="round" stroke-linecap="butt" d="m442.99475 138.26509l18.015747 -12.881889" fill-rule="evenodd"/><path fill="#000000" fill-opacity="0.0" d="m459.60437 125.3832l12.598419 47.055122" fill-rule="evenodd"/><path stroke="#595959" stroke-width="3.0" stroke-linejoin="round" stroke-linecap="butt" d="m459.60437 125.3832l12.598419 47.055122" fill-rule="evenodd"/><path fill="#000000" d="m414.28348 106.80315l0 0c0 -1.4176712 1.3043518 -2.566925 2.9133606 -2.566925l0 0c1.6090393 0 2.913391 1.1492538 2.913391 2.566925l0 0c0 1.4176788 -1.3043518 2.5669327 -2.913391 2.5669327l0 0c-1.6090088 0 -2.9133606 -1.1492538 -2.9133606 -2.5669327z" fill-rule="evenodd"/><path stroke="#595959" stroke-width="1.0" stroke-linejoin="round" stroke-linecap="butt" d="m414.28348 106.80315l0 0c0 -1.4176712 1.3043518 -2.566925 2.9133606 -2.566925l0 0c1.6090393 0 2.913391 1.1492538 2.913391 2.566925l0 0c0 1.4176788 -1.3043518 2.5669327 -2.913391 2.5669327l0 0c-1.6090088 0 -2.9133606 -1.1492538 -2.9133606 -2.5669327z" fill-rule="evenodd"/><path fill="#000000" d="m430.28348 106.80315l0 0c0 -1.4176712 1.3043518 -2.566925 2.9133606 -2.566925l0 0c1.6090393 0 2.913391 1.1492538 2.913391 2.566925l0 0c0 1.4176788 -1.3043518 2.5669327 -2.913391 2.5669327l0 0c-1.6090088 0 -2.9133606 -1.1492538 -2.9133606 -2.5669327z" fill-rule="evenodd"/><path stroke="#595959" stroke-width="1.0" stroke-linejoin="round" stroke-linecap="butt" d="m430.28348 106.80315l0 0c0 -1.4176712 1.3043518 -2.566925 2.9133606 -2.566925l0 0c1.6090393 0 2.913391 1.1492538 2.913391 2.566925l0 0c0 1.4176788 -1.3043518 2.5669327 -2.913391 2.5669327l0 0c-1.6090088 0 -2.9133606 -1.1492538 -2.9133606 -2.5669327z" fill-rule="evenodd"/><path fill="#000000" d="m414.28348 114.80315l0 0c0 -1.4176712 1.3043518 -2.566925 2.9133606 -2.566925l0 0c1.6090393 0 2.913391 1.1492538 2.913391 2.566925l0 0c0 1.4176788 -1.3043518 2.5669327 -2.913391 2.5669327l0 0c-1.6090088 0 -2.9133606 -1.1492538 -2.9133606 -2.5669327z" fill-rule="evenodd"/><path stroke="#595959" stroke-width="1.0" stroke-linejoin="round" stroke-linecap="butt" d="m414.28348 114.80315l0 0c0 -1.4176712 1.3043518 -2.566925 2.9133606 -2.566925l0 0c1.6090393 0 2.913391 1.1492538 2.913391 2.566925l0 0c0 1.4176788 -1.3043518 2.5669327 -2.913391 2.5669327l0 0c-1.6090088 0 -2.9133606 -1.1492538 -2.9133606 -2.5669327z" fill-rule="evenodd"/><path fill="#000000" fill-opacity="0.0" d="m474.99475 122.26509l18.015747 -12.881889" fill-rule="evenodd"/><path stroke="#595959" stroke-width="3.0" stroke-linejoin="round" stroke-linecap="butt" d="m474.99475 122.26509l18.015747 -12.881889" fill-rule="evenodd"/><path fill="#000000" fill-opacity="0.0" d="m491.60437 109.3832l20.188965 36.53544" fill-rule="evenodd"/><path stroke="#595959" stroke-width="3.0" stroke-linejoin="round" stroke-linecap="butt" d="m491.60437 109.3832l20.188965 36.53544" fill-rule="evenodd"/><path fill="#000000" d="m430.28348 114.80315l0 0c0 -1.4176712 1.3043518 -2.566925 2.9133606 -2.566925l0 0c1.6090393 0 2.913391 1.1492538 2.913391 2.566925l0 0c0 1.4176788 -1.3043518 2.5669327 -2.913391 2.5669327l0 0c-1.6090088 0 -2.9133606 -1.1492538 -2.9133606 -2.5669327z" fill-rule="evenodd"/><path stroke="#595959" stroke-width="1.0" stroke-linejoin="round" stroke-linecap="butt" d="m430.28348 114.80315l0 0c0 -1.4176712 1.3043518 -2.566925 2.9133606 -2.566925l0 0c1.6090393 0 2.913391 1.1492538 2.913391 2.566925l0 0c0 1.4176788 -1.3043518 2.5669327 -2.913391 2.5669327l0 0c-1.6090088 0 -2.9133606 -1.1492538 -2.9133606 -2.5669327z" fill-rule="evenodd"/><path fill="#000000" d="m406.28348 114.80315l0 0c0 -1.4176712 1.3043518 -2.566925 2.9133606 -2.566925l0 0c1.6090393 0 2.913391 1.1492538 2.913391 2.566925l0 0c0 1.4176788 -1.3043518 2.5669327 -2.913391 2.5669327l0 0c-1.6090088 0 -2.9133606 -1.1492538 -2.9133606 -2.5669327z" fill-rule="evenodd"/><path stroke="#595959" stroke-width="1.0" stroke-linejoin="round" stroke-linecap="butt" d="m406.28348 114.80315l0 0c0 -1.4176712 1.3043518 -2.566925 2.9133606 -2.566925l0 0c1.6090393 0 2.913391 1.1492538 2.913391 2.566925l0 0c0 1.4176788 -1.3043518 2.5669327 -2.913391 2.5669327l0 0c-1.6090088 0 -2.9133606 -1.1492538 -2.9133606 -2.5669327z" fill-rule="evenodd"/><path fill="#000000" d="m422.28348 114.80315l0 0c0 -1.4176712 1.3043518 -2.566925 2.9133606 -2.566925l0 0c1.6090393 0 2.913391 1.1492538 2.913391 2.566925l0 0c0 1.4176788 -1.3043518 2.5669327 -2.913391 2.5669327l0 0c-1.6090088 0 -2.9133606 -1.1492538 -2.9133606 -2.5669327z" fill-rule="evenodd"/><path stroke="#595959" stroke-width="1.0" stroke-linejoin="round" stroke-linecap="butt" d="m422.28348 114.80315l0 0c0 -1.4176712 1.3043518 -2.566925 2.9133606 -2.566925l0 0c1.6090393 0 2.913391 1.1492538 2.913391 2.566925l0 0c0 1.4176788 -1.3043518 2.5669327 -2.913391 2.5669327l0 0c-1.6090088 0 -2.9133606 -1.1492538 -2.9133606 -2.5669327z" fill-rule="evenodd"/><path fill="#000000" d="m438.28348 114.80315l0 0c0 -1.4176712 1.3043518 -2.566925 2.9133606 -2.566925l0 0c1.6090393 0 2.913391 1.1492538 2.913391 2.566925l0 0c0 1.4176788 -1.3043518 2.5669327 -2.913391 2.5669327l0 0c-1.6090088 0 -2.9133606 -1.1492538 -2.9133606 -2.5669327z" fill-rule="evenodd"/><path stroke="#595959" stroke-width="1.0" stroke-linejoin="round" stroke-linecap="butt" d="m438.28348 114.80315l0 0c0 -1.4176712 1.3043518 -2.566925 2.9133606 -2.566925l0 0c1.6090393 0 2.913391 1.1492538 2.913391 2.566925l0 0c0 1.4176788 -1.3043518 2.5669327 -2.913391 2.5669327l0 0c-1.6090088 0 -2.9133606 -1.1492538 -2.9133606 -2.5669327z" fill-rule="evenodd"/><path fill="#000000" fill-opacity="0.0" d="m425.86505 126.755905c4.7146606 0.6731262 10.8880005 7.5435486 8.364838 11.582672c-2.0948792 3.3535461 -7.625946 2.5721893 -11.580048 2.5721893" fill-rule="evenodd"/><path stroke="#595959" stroke-width="3.0" stroke-linejoin="round" stroke-linecap="butt" d="m425.86505 126.755905c4.7146606 0.6731262 10.8880005 7.5435486 8.364838 11.582672c-2.0948792 3.3535461 -7.625946 2.5721893 -11.580048 2.5721893" fill-rule="evenodd"/><path fill="#000000" fill-opacity="0.0" d="m412.20898 126.755905c-4.7146606 0.6731262 -10.8880005 7.5435486 -8.364838 11.582672c2.0949097 3.3535461 7.6259766 2.5721893 11.580048 2.5721893" fill-rule="evenodd"/><path stroke="#595959" stroke-width="3.0" stroke-linejoin="round" stroke-linecap="butt" d="m412.20898 126.755905c-4.7146606 0.6731262 -10.8880005 7.5435486 -8.364838 11.582672c2.0949097 3.3535461 7.6259766 2.5721893 11.580048 2.5721893" fill-rule="evenodd"/><path fill="#000000" d="m422.28348 106.80315l0 0c0 -1.4176712 1.3043518 -2.566925 2.9133606 -2.566925l0 0c1.6090393 0 2.913391 1.1492538 2.913391 2.566925l0 0c0 1.4176788 -1.3043518 2.5669327 -2.913391 2.5669327l0 0c-1.6090088 0 -2.9133606 -1.1492538 -2.9133606 -2.5669327z" fill-rule="evenodd"/><path stroke="#595959" stroke-width="1.0" stroke-linejoin="round" stroke-linecap="butt" d="m422.28348 106.80315l0 0c0 -1.4176712 1.3043518 -2.566925 2.9133606 -2.566925l0 0c1.6090393 0 2.913391 1.1492538 2.913391 2.566925l0 0c0 1.4176788 -1.3043518 2.5669327 -2.913391 2.5669327l0 0c-1.6090088 0 -2.9133606 -1.1492538 -2.9133606 -2.5669327z" fill-rule="evenodd"/><path fill="#000000" fill-opacity="0.0" d="m768.19946 197.29659l160.81891 0l0 114.29921l-160.81891 0z" fill-rule="evenodd"/><path fill="#000000" d="m826.42834 224.10283q1.84375 0 1.84375 0.90625q0 0.375 -0.203125 0.609375q-0.203125 0.234375 -0.515625 0.234375q-0.125 0 -0.59375 -0.171875q-0.453125 -0.1875 -0.96875 -0.1875q-1.640625 0 -3.28125 1.3125q-1.640625 1.296875 -2.6875 3.28125q-1.03125 1.96875 -1.03125 3.8125l0 10.0q0 0.3125 -0.25 0.5625q-0.234375 0.234375 -0.546875 0.234375q-0.359375 0 -0.59375 -0.234375q-0.21875 -0.25 -0.21875 -0.5625l0 -18.359375q0 -0.328125 0.234375 -0.5625q0.25 -0.234375 0.578125 -0.234375q0.359375 0 0.578125 0.234375q0.21875 0.234375 0.21875 0.5625l0 4.234375q0.921875 -2.4375 2.859375 -4.03125q1.9375 -1.609375 4.578125 -1.640625zm21.485596 15.796875q0.28125 0 0.46875 0.21875q0.203125 0.21875 0.203125 0.5q0 0.28125 -0.15625 0.484375q-1.328125 1.75 -3.28125 2.875q-1.953125 1.125 -4.203125 1.125q-3.0 0 -5.328125 -1.28125q-2.3125 -1.28125 -3.609375 -3.640625q-1.296875 -2.359375 -1.296875 -5.484375q0 -3.203125 1.25 -5.625q1.265625 -2.421875 3.34375 -3.6875q2.078125 -1.28125 4.4375 -1.28125q2.359375 0 4.375 1.015625q2.03125 1.015625 3.3125 3.0625q1.28125 2.03125 1.359375 5.03125q0 0.328125 -0.25 0.59375q-0.234375 0.25 -0.546875 0.25l-15.71875 0l0 0.515625q0 2.484375 1.0 4.546875q1.0 2.0625 2.953125 3.265625q1.96875 1.1875 4.71875 1.1875q1.921875 0 3.625 -0.9375q1.703125 -0.9375 2.65625 -2.375q0.28125 -0.359375 0.6875 -0.359375zm-8.171875 -14.203125q-1.46875 0 -3.015625 0.78125q-1.53125 0.78125 -2.71875 2.328125q-1.171875 1.53125 -1.578125 3.734375l14.71875 0l0 -0.359375q-0.203125 -2.046875 -1.3125 -3.5q-1.09375 -1.46875 -2.71875 -2.21875q-1.609375 -0.765625 -3.375 -0.765625zm30.654358 -0.953125q0.359375 0 0.578125 0.234375q0.21875 0.234375 0.21875 0.5625l0 18.359375q0 0.3125 -0.25 0.5625q-0.234375 0.234375 -0.546875 0.234375q-0.375 0 -0.59375 -0.234375q-0.21875 -0.25 -0.21875 -0.5625l0 -3.609375q-1.0 2.046875 -3.078125 3.4375q-2.078125 1.375 -4.59375 1.375q-2.640625 0 -4.765625 -1.375q-2.125 -1.390625 -3.328125 -3.8125q-1.1875 -2.421875 -1.1875 -5.421875q0 -2.953125 1.21875 -5.328125q1.21875 -2.390625 3.328125 -3.71875q2.125 -1.34375 4.734375 -1.34375q2.59375 0 4.671875 1.359375q2.078125 1.359375 3.0 3.640625l0 -3.5625q0 -0.328125 0.21875 -0.5625q0.21875 -0.234375 0.59375 -0.234375zm-8.40625 18.828125q2.203125 0 3.984375 -1.171875q1.78125 -1.1875 2.78125 -3.265625q1.0 -2.078125 1.0 -4.640625q0 -2.4375 -1.0 -4.46875q-1.0 -2.046875 -2.78125 -3.21875q-1.78125 -1.1875 -3.984375 -1.1875q-2.203125 0 -3.984375 1.140625q-1.78125 1.140625 -2.78125 3.15625q-1.0 2.015625 -1.0 4.578125q0 2.5625 1.0 4.640625q1.0 2.078125 2.765625 3.265625q1.765625 1.171875 4.0 1.171875zm17.643738 0.328125q0 0.3125 -0.25 0.5625q-0.234375 0.234375 -0.5625 0.234375q-0.359375 0 -0.578125 -0.234375q-0.21875 -0.25 -0.21875 -0.5625l0 -28.0q0 -0.328125 0.234375 -0.5625q0.25 -0.234375 0.5625 -0.234375q0.375 0 0.59375 0.234375q0.21875 0.234375 0.21875 0.5625l0 28.0z" fill-rule="nonzero"/><path fill="#000000" d="m820.0352 272.97784q0.3125 0 0.53125 0.21875q0.21875 0.21875 0.21875 0.546875q0 0.3125 -0.21875 0.53125q-0.21875 0.21875 -0.53125 0.21875l-4.71875 0l0 17.40625q0 0.3125 -0.25 0.5625q-0.234375 0.234375 -0.5625 0.234375q-0.359375 0 -0.578125 -0.234375q-0.21875 -0.25 -0.21875 -0.5625l0 -17.40625l-3.203125 0q-0.28125 0 -0.515625 -0.234375q-0.234375 -0.25 -0.234375 -0.515625q0 -0.359375 0.21875 -0.5625q0.21875 -0.203125 0.53125 -0.203125l3.203125 0l0 -4.875q0 -2.359375 1.25 -3.578125q1.265625 -1.234375 3.234375 -1.234375q1.0 0 1.890625 0.265625q0.90625 0.265625 0.90625 0.859375q0 0.328125 -0.25 0.5625q-0.234375 0.234375 -0.515625 0.234375q-0.3125 0 -0.828125 -0.203125q-0.921875 -0.265625 -1.359375 -0.265625q-1.25 0 -1.984375 0.84375q-0.734375 0.828125 -0.734375 2.515625l0 4.875l4.71875 0zm21.561218 -0.234375q0.359375 0 0.578125 0.234375q0.21875 0.234375 0.21875 0.5625l0 18.359375q0 0.3125 -0.25 0.5625q-0.234375 0.234375 -0.546875 0.234375q-0.375 0 -0.59375 -0.234375q-0.21875 -0.25 -0.21875 -0.5625l0 -3.609375q-1.0 2.046875 -3.078125 3.4375q-2.078125 1.375 -4.59375 1.375q-2.640625 0 -4.765625 -1.375q-2.125 -1.390625 -3.328125 -3.8125q-1.1875 -2.421875 -1.1875 -5.421875q0 -2.953125 1.21875 -5.328125q1.21875 -2.390625 3.328125 -3.71875q2.125 -1.34375 4.734375 -1.34375q2.59375 0 4.671875 1.359375q2.078125 1.359375 3.0 3.640625l0 -3.5625q0 -0.328125 0.21875 -0.5625q0.21875 -0.234375 0.59375 -0.234375zm-8.40625 18.828125q2.203125 0 3.984375 -1.171875q1.78125 -1.1875 2.78125 -3.265625q1.0 -2.078125 1.0 -4.640625q0 -2.4375 -1.0 -4.46875q-1.0 -2.046875 -2.78125 -3.21875q-1.78125 -1.1875 -3.984375 -1.1875q-2.203125 0 -3.984375 1.140625q-1.78125 1.140625 -2.78125 3.15625q-1.0 2.015625 -1.0 4.578125q0 2.5625 1.0 4.640625q1.0 2.078125 2.765625 3.265625q1.765625 1.171875 4.0 1.171875zm31.518738 -0.28125q0.234375 0.25 0.234375 0.609375q0 0.359375 -0.296875 0.578125q-0.296875 0.21875 -0.5 0.21875q-0.3125 0 -0.59375 -0.28125l-9.359375 -9.953125l-3.359375 2.796875l0 6.640625q0 0.3125 -0.21875 0.5625q-0.21875 0.234375 -0.59375 0.234375q-0.359375 0 -0.578125 -0.234375q-0.21875 -0.25 -0.21875 -0.5625l0 -28.0q0 -0.328125 0.21875 -0.5625q0.21875 -0.234375 0.578125 -0.234375q0.375 0 0.59375 0.234375q0.21875 0.234375 0.21875 0.5625l0 19.359375l12.5625 -10.515625q0.234375 -0.25 0.515625 -0.25q0.3125 0 0.546875 0.25q0.25 0.234375 0.25 0.59375q0 0.359375 -0.28125 0.59375l-9.0 7.484375l9.28125 9.875zm21.08496 -3.390625q0.28125 0 0.46875 0.21875q0.203125 0.21875 0.203125 0.5q0 0.28125 -0.15625 0.484375q-1.328125 1.75 -3.28125 2.875q-1.953125 1.125 -4.203125 1.125q-3.0 0 -5.328125 -1.28125q-2.3125 -1.28125 -3.609375 -3.640625q-1.296875 -2.359375 -1.296875 -5.484375q0 -3.203125 1.25 -5.625q1.265625 -2.421875 3.34375 -3.6875q2.078125 -1.28125 4.4375 -1.28125q2.359375 0 4.375 1.015625q2.03125 1.015625 3.3125 3.0625q1.28125 2.03125 1.359375 5.03125q0 0.328125 -0.25 0.59375q-0.234375 0.25 -0.546875 0.25l-15.71875 0l0 0.515625q0 2.484375 1.0 4.546875q1.0 2.0625 2.953125 3.265625q1.96875 1.1875 4.71875 1.1875q1.921875 0 3.625 -0.9375q1.703125 -0.9375 2.65625 -2.375q0.28125 -0.359375 0.6875 -0.359375zm-8.171875 -14.203125q-1.46875 0 -3.015625 0.78125q-1.53125 0.78125 -2.71875 2.328125q-1.171875 1.53125 -1.578125 3.734375l14.71875 0l0 -0.359375q-0.203125 -2.046875 -1.3125 -3.5q-1.09375 -1.46875 -2.71875 -2.21875q-1.609375 -0.765625 -3.375 -0.765625z" fill-rule="nonzero"/><path fill="#000000" fill-opacity="0.0" d="m768.19946 254.4462l160.81891 0" fill-rule="evenodd"/><path stroke="#595959" stroke-width="1.0" stroke-linejoin="round" stroke-linecap="butt" d="m768.19946 254.4462l160.81891 0" fill-rule="evenodd"/></g></svg>