<svg version="1.1" viewBox="0.0 0.0 960.0 540.0" fill="none" stroke="none" stroke-linecap="square" stroke-miterlimit="10" xmlns:xlink="http://www.w3.org/1999/xlink" xmlns="http://www.w3.org/2000/svg"><clipPath id="p.0"><path d="m0 0l960.0 0l0 540.0l-960.0 0l0 -540.0z" clip-rule="nonzero"/></clipPath><g clip-path="url(#p.0)"><path fill="#000000" fill-opacity="0.0" d="m0 0l960.0 0l0 540.0l-960.0 0z" fill-rule="evenodd"/><path fill="#000000" fill-opacity="0.0" d="m299.17334 11.786283l0 0c5.4474792 0 9.863525 4.4160566 9.863525 9.863538l0 39.452972l0 0c0 2.6159706 -1.0391846 5.1248016 -2.888977 6.974571c-1.849762 1.8497772 -4.3585815 2.8889618 -6.9745483 2.8889618l-160.37328 0c-5.4474792 0 -9.863541 -4.416054 -9.863541 -9.863533l0 -39.452972c0 -5.447481 4.4160614 -9.863538 9.863541 -9.863538z" fill-rule="evenodd"/><path stroke="#999999" stroke-width="2.0" stroke-linejoin="round" stroke-linecap="butt" d="m299.17334 11.786283l0 0c5.4474792 0 9.863525 4.4160566 9.863525 9.863538l0 39.452972l0 0c0 2.6159706 -1.0391846 5.1248016 -2.888977 6.974571c-1.849762 1.8497772 -4.3585815 2.8889618 -6.9745483 2.8889618l-160.37328 0c-5.4474792 0 -9.863541 -4.416054 -9.863541 -9.863533l0 -39.452972c0 -5.447481 4.4160614 -9.863538 9.863541 -9.863538z" fill-rule="evenodd"/><path fill="#000000" fill-opacity="0.0" d="m272.1355 23.553364l0 0c9.843323 0 17.822937 7.979603 17.822937 17.82294l0 0c0 4.72694 -1.8777771 9.260273 -5.220215 12.602722c-3.3424377 3.342453 -7.8757935 5.2202187 -12.602722 5.2202187l0 0c-9.843353 0 -17.822937 -7.979603 -17.822937 -17.82294l0 0c0 -9.843338 7.9795837 -17.82294 17.822937 -17.82294z" fill-rule="evenodd"/><path stroke="#666666" stroke-width="2.0" stroke-linejoin="round" stroke-linecap="butt" d="m272.1355 23.553364l0 0c9.843323 0 17.822937 7.979603 17.822937 17.82294l0 0c0 4.72694 -1.8777771 9.260273 -5.220215 12.602722c-3.3424377 3.342453 -7.8757935 5.2202187 -12.602722 5.2202187l0 0c-9.843353 0 -17.822937 -7.979603 -17.822937 -17.82294l0 0c0 -9.843338 7.9795837 -17.82294 17.822937 -17.82294z" fill-rule="evenodd"/><path fill="#000000" fill-opacity="0.0" d="m165.83789 23.553364l0 0c9.843338 0 17.822952 7.979603 17.822952 17.82294l0 0c0 4.72694 -1.8777771 9.260273 -5.22023 12.602722c-3.3424377 3.342453 -7.875778 5.2202187 -12.602722 5.2202187l0 0c-9.843338 0 -17.822937 -7.979603 -17.822937 -17.82294l0 0c0 -9.843338 7.979599 -17.82294 17.822937 -17.82294z" fill-rule="evenodd"/><path stroke="#666666" stroke-width="2.0" stroke-linejoin="round" stroke-linecap="butt" d="m165.83789 23.553364l0 0c9.843338 0 17.822952 7.979603 17.822952 17.82294l0 0c0 4.72694 -1.8777771 9.260273 -5.22023 12.602722c-3.3424377 3.342453 -7.875778 5.2202187 -12.602722 5.2202187l0 0c-9.843338 0 -17.822937 -7.979603 -17.822937 -17.82294l0 0c0 -9.843338 7.979599 -17.82294 17.822937 -17.82294z" fill-rule="evenodd"/><path fill="#000000" fill-opacity="0.0" d="m218.9867 23.553364l0 0c9.843338 0 17.822937 7.979603 17.822937 17.82294l0 0c0 4.72694 -1.8777618 9.260273 -5.220215 12.602722c-3.342453 3.342453 -7.875778 5.2202187 -12.602722 5.2202187l0 0c-9.843338 0 -17.822937 -7.979603 -17.822937 -17.82294l0 0c0 -9.843338 7.979599 -17.82294 17.822937 -17.82294z" fill-rule="evenodd"/><path stroke="#666666" stroke-width="2.0" stroke-linejoin="round" stroke-linecap="butt" d="m218.9867 23.553364l0 0c9.843338 0 17.822937 7.979603 17.822937 17.82294l0 0c0 4.72694 -1.8777618 9.260273 -5.220215 12.602722c-3.342453 3.342453 -7.875778 5.2202187 -12.602722 5.2202187l0 0c-9.843338 0 -17.822937 -7.979603 -17.822937 -17.82294l0 0c0 -9.843338 7.979599 -17.82294 17.822937 -17.82294z" fill-rule="evenodd"/><path fill="#000000" fill-opacity="0.0" d="m299.17334 448.82214l0 0c5.4474792 0 9.863525 4.4160767 9.863525 9.863556l0 39.452972l0 0c0 2.6159668 -1.0391846 5.1247864 -2.888977 6.9745483c-1.849762 1.8497925 -4.3585815 2.888977 -6.9745483 2.888977l-160.37328 0c-5.4474792 0 -9.863541 -4.416046 -9.863541 -9.863525l0 -39.452972c0 -5.4474792 4.4160614 -9.863556 9.863541 -9.863556z" fill-rule="evenodd"/><path stroke="#999999" stroke-width="2.0" stroke-linejoin="round" stroke-linecap="butt" d="m299.17334 448.82214l0 0c5.4474792 0 9.863525 4.4160767 9.863525 9.863556l0 39.452972l0 0c0 2.6159668 -1.0391846 5.1247864 -2.888977 6.9745483c-1.849762 1.8497925 -4.3585815 2.888977 -6.9745483 2.888977l-160.37328 0c-5.4474792 0 -9.863541 -4.416046 -9.863541 -9.863525l0 -39.452972c0 -5.4474792 4.4160614 -9.863556 9.863541 -9.863556z" fill-rule="evenodd"/><path fill="#000000" fill-opacity="0.0" d="m272.1355 460.58923l0 0c9.843323 0 17.822937 7.9796143 17.822937 17.822937l0 0c0 4.7269287 -1.8777771 9.260284 -5.220215 12.602722c-3.3424377 3.3424683 -7.8757935 5.220215 -12.602722 5.220215l0 0c-9.843353 0 -17.822937 -7.9795837 -17.822937 -17.822937l0 0c0 -9.843323 7.9795837 -17.822937 17.822937 -17.822937z" fill-rule="evenodd"/><path stroke="#666666" stroke-width="2.0" stroke-linejoin="round" stroke-linecap="butt" d="m272.1355 460.58923l0 0c9.843323 0 17.822937 7.9796143 17.822937 17.822937l0 0c0 4.7269287 -1.8777771 9.260284 -5.220215 12.602722c-3.3424377 3.3424683 -7.8757935 5.220215 -12.602722 5.220215l0 0c-9.843353 0 -17.822937 -7.9795837 -17.822937 -17.822937l0 0c0 -9.843323 7.9795837 -17.822937 17.822937 -17.822937z" fill-rule="evenodd"/><path fill="#000000" fill-opacity="0.0" d="m165.83789 460.58923l0 0c9.843338 0 17.822952 7.9796143 17.822952 17.822937l0 0c0 4.7269287 -1.8777771 9.260284 -5.22023 12.602722c-3.3424377 3.3424683 -7.875778 5.220215 -12.602722 5.220215l0 0c-9.843338 0 -17.822937 -7.9795837 -17.822937 -17.822937l0 0c0 -9.843323 7.979599 -17.822937 17.822937 -17.822937z" fill-rule="evenodd"/><path stroke="#666666" stroke-width="2.0" stroke-linejoin="round" stroke-linecap="butt" d="m165.83789 460.58923l0 0c9.843338 0 17.822952 7.9796143 17.822952 17.822937l0 0c0 4.7269287 -1.8777771 9.260284 -5.22023 12.602722c-3.3424377 3.3424683 -7.875778 5.220215 -12.602722 5.220215l0 0c-9.843338 0 -17.822937 -7.9795837 -17.822937 -17.822937l0 0c0 -9.843323 7.979599 -17.822937 17.822937 -17.822937z" fill-rule="evenodd"/><path fill="#000000" fill-opacity="0.0" d="m218.9867 460.58923l0 0c9.843338 0 17.822937 7.9796143 17.822937 17.822937l0 0c0 4.7269287 -1.8777618 9.260284 -5.220215 12.602722c-3.342453 3.3424683 -7.875778 5.220215 -12.602722 5.220215l0 0c-9.843338 0 -17.822937 -7.9795837 -17.822937 -17.822937l0 0c0 -9.843323 7.979599 -17.822937 17.822937 -17.822937z" fill-rule="evenodd"/><path stroke="#666666" stroke-width="2.0" stroke-linejoin="round" stroke-linecap="butt" d="m218.9867 460.58923l0 0c9.843338 0 17.822937 7.9796143 17.822937 17.822937l0 0c0 4.7269287 -1.8777618 9.260284 -5.220215 12.602722c-3.342453 3.3424683 -7.875778 5.220215 -12.602722 5.220215l0 0c-9.843338 0 -17.822937 -7.9795837 -17.822937 -17.822937l0 0c0 -9.843323 7.979599 -17.822937 17.822937 -17.822937z" fill-rule="evenodd"/><path fill="#b6d7a8" d="m389.83176 230.61703l0 0c5.4474792 0 9.863556 4.4160614 9.863556 9.863541l0 39.452957l0 0c0 2.6159973 -1.0392151 5.124817 -2.888977 6.974579c-1.849762 1.8497925 -4.358612 2.888977 -6.974579 2.888977l-160.37325 0c-5.4474945 0 -9.863541 -4.4160767 -9.863541 -9.863556l0 -39.452957c0 -5.4474792 4.416046 -9.863541 9.863541 -9.863541z" fill-rule="evenodd"/><path stroke="#999999" stroke-width="2.0" stroke-linejoin="round" stroke-linecap="butt" d="m389.83176 230.61703l0 0c5.4474792 0 9.863556 4.4160614 9.863556 9.863541l0 39.452957l0 0c0 2.6159973 -1.0392151 5.124817 -2.888977 6.974579c-1.849762 1.8497925 -4.358612 2.888977 -6.974579 2.888977l-160.37325 0c-5.4474945 0 -9.863541 -4.4160767 -9.863541 -9.863556l0 -39.452957c0 -5.4474792 4.416046 -9.863541 9.863541 -9.863541z" fill-rule="evenodd"/><path fill="#93c47d" d="m362.79395 242.38412l0 0c9.843323 0 17.822937 7.979599 17.822937 17.822937l0 0c0 4.7269287 -1.8777771 9.260284 -5.220215 12.602722c-3.3424683 3.3424377 -7.8757935 5.220215 -12.602722 5.220215l0 0c-9.843353 0 -17.822968 -7.9796143 -17.822968 -17.822937l0 0c0 -9.843338 7.9796143 -17.822937 17.822968 -17.822937z" fill-rule="evenodd"/><path stroke="#666666" stroke-width="2.0" stroke-linejoin="round" stroke-linecap="butt" d="m362.79395 242.38412l0 0c9.843323 0 17.822937 7.979599 17.822937 17.822937l0 0c0 4.7269287 -1.8777771 9.260284 -5.220215 12.602722c-3.3424683 3.3424377 -7.8757935 5.220215 -12.602722 5.220215l0 0c-9.843353 0 -17.822968 -7.9796143 -17.822968 -17.822937l0 0c0 -9.843338 7.9796143 -17.822937 17.822968 -17.822937z" fill-rule="evenodd"/><path fill="#93c47d" d="m256.49634 242.38412l0 0c9.843323 0 17.822937 7.979599 17.822937 17.822937l0 0c0 4.7269287 -1.8777771 9.260284 -5.220215 12.602722c-3.3424683 3.3424377 -7.8757935 5.220215 -12.602722 5.220215l0 0c-9.843338 0 -17.822952 -7.9796143 -17.822952 -17.822937l0 0c0 -9.843338 7.9796143 -17.822937 17.822952 -17.822937z" fill-rule="evenodd"/><path stroke="#666666" stroke-width="2.0" stroke-linejoin="round" stroke-linecap="butt" d="m256.49634 242.38412l0 0c9.843323 0 17.822937 7.979599 17.822937 17.822937l0 0c0 4.7269287 -1.8777771 9.260284 -5.220215 12.602722c-3.3424683 3.3424377 -7.8757935 5.220215 -12.602722 5.220215l0 0c-9.843338 0 -17.822952 -7.9796143 -17.822952 -17.822937l0 0c0 -9.843338 7.9796143 -17.822937 17.822952 -17.822937z" fill-rule="evenodd"/><path fill="#93c47d" d="m309.64514 242.38412l0 0c9.843323 0 17.822937 7.979599 17.822937 17.822937l0 0c0 4.7269287 -1.8777771 9.260284 -5.220215 12.602722c-3.3424683 3.3424377 -7.8757935 5.220215 -12.602722 5.220215l0 0c-9.843353 0 -17.822937 -7.9796143 -17.822937 -17.822937l0 0c0 -9.843338 7.9795837 -17.822937 17.822937 -17.822937z" fill-rule="evenodd"/><path stroke="#666666" stroke-width="2.0" stroke-linejoin="round" stroke-linecap="butt" d="m309.64514 242.38412l0 0c9.843323 0 17.822937 7.979599 17.822937 17.822937l0 0c0 4.7269287 -1.8777771 9.260284 -5.220215 12.602722c-3.3424683 3.3424377 -7.8757935 5.220215 -12.602722 5.220215l0 0c-9.843353 0 -17.822937 -7.9796143 -17.822937 -17.822937l0 0c0 -9.843338 7.9795837 -17.822937 17.822937 -17.822937z" fill-rule="evenodd"/><path fill="#b6d7a8" d="m208.5149 230.61703l0 0c5.4474792 0 9.863525 4.4160614 9.863525 9.863541l0 39.452957l0 0c0 2.6159973 -1.0391846 5.124817 -2.8889618 6.974579c-1.849762 1.8497925 -4.358597 2.888977 -6.9745636 2.888977l-160.37326 0c-5.4474792 0 -9.863537 -4.4160767 -9.863537 -9.863556l0 -39.452957c0 -5.4474792 4.4160576 -9.863541 9.863537 -9.863541z" fill-rule="evenodd"/><path stroke="#999999" stroke-width="2.0" stroke-linejoin="round" stroke-linecap="butt" d="m208.5149 230.61703l0 0c5.4474792 0 9.863525 4.4160614 9.863525 9.863541l0 39.452957l0 0c0 2.6159973 -1.0391846 5.124817 -2.8889618 6.974579c-1.849762 1.8497925 -4.358597 2.888977 -6.9745636 2.888977l-160.37326 0c-5.4474792 0 -9.863537 -4.4160767 -9.863537 -9.863556l0 -39.452957c0 -5.4474792 4.4160576 -9.863541 9.863537 -9.863541z" fill-rule="evenodd"/><path fill="#93c47d" d="m181.47707 242.38412l0 0c9.843338 0 17.822937 7.979599 17.822937 17.822937l0 0c0 4.7269287 -1.8777771 9.260284 -5.220215 12.602722c-3.342453 3.3424377 -7.8757935 5.220215 -12.602722 5.220215l0 0c-9.843353 0 -17.822952 -7.9796143 -17.822952 -17.822937l0 0c0 -9.843338 7.979599 -17.822937 17.822952 -17.822937z" fill-rule="evenodd"/><path stroke="#666666" stroke-width="2.0" stroke-linejoin="round" stroke-linecap="butt" d="m181.47707 242.38412l0 0c9.843338 0 17.822937 7.979599 17.822937 17.822937l0 0c0 4.7269287 -1.8777771 9.260284 -5.220215 12.602722c-3.342453 3.3424377 -7.8757935 5.220215 -12.602722 5.220215l0 0c-9.843353 0 -17.822952 -7.9796143 -17.822952 -17.822937l0 0c0 -9.843338 7.979599 -17.822937 17.822952 -17.822937z" fill-rule="evenodd"/><path fill="#93c47d" d="m75.17946 242.38412l0 0c9.843338 0 17.822945 7.979599 17.822945 17.822937l0 0c0 4.7269287 -1.8777695 9.260284 -5.2202225 12.602722c-3.342453 3.3424377 -7.875786 5.220215 -12.602722 5.220215l0 0c-9.843338 0 -17.82294 -7.9796143 -17.82294 -17.822937l0 0c0 -9.843338 7.979603 -17.822937 17.82294 -17.822937z" fill-rule="evenodd"/><path stroke="#666666" stroke-width="2.0" stroke-linejoin="round" stroke-linecap="butt" d="m75.17946 242.38412l0 0c9.843338 0 17.822945 7.979599 17.822945 17.822937l0 0c0 4.7269287 -1.8777695 9.260284 -5.2202225 12.602722c-3.342453 3.3424377 -7.875786 5.220215 -12.602722 5.220215l0 0c-9.843338 0 -17.82294 -7.9796143 -17.82294 -17.822937l0 0c0 -9.843338 7.979603 -17.822937 17.82294 -17.822937z" fill-rule="evenodd"/><path fill="#93c47d" d="m128.32826 242.38412l0 0c9.843338 0 17.822937 7.979599 17.822937 17.822937l0 0c0 4.7269287 -1.8777618 9.260284 -5.220215 12.602722c-3.342453 3.3424377 -7.8757935 5.220215 -12.602722 5.220215l0 0c-9.843346 0 -17.822945 -7.9796143 -17.822945 -17.822937l0 0c0 -9.843338 7.979599 -17.822937 17.822945 -17.822937z" fill-rule="evenodd"/><path stroke="#666666" stroke-width="2.0" stroke-linejoin="round" stroke-linecap="butt" d="m128.32826 242.38412l0 0c9.843338 0 17.822937 7.979599 17.822937 17.822937l0 0c0 4.7269287 -1.8777618 9.260284 -5.220215 12.602722c-3.342453 3.3424377 -7.8757935 5.220215 -12.602722 5.220215l0 0c-9.843346 0 -17.822945 -7.9796143 -17.822945 -17.822937l0 0c0 -9.843338 7.979599 -17.822937 17.822945 -17.822937z" fill-rule="evenodd"/><path fill="#000000" fill-opacity="0.0" d="m219.00337 351.68323l0 77.13385" fill-rule="evenodd"/><path stroke="#000000" stroke-width="3.0" stroke-linejoin="round" stroke-linecap="butt" d="m219.00336 351.68323l0 59.13388" fill-rule="evenodd"/><path fill="#000000" stroke="#000000" stroke-width="3.0" stroke-linecap="butt" d="m214.04817 410.8171l4.955185 13.614288l4.9552 -13.614288z" fill-rule="evenodd"/><path fill="#000000" fill-opacity="0.0" d="m219.00337 82.834015l0 53.984253" fill-rule="evenodd"/><path stroke="#000000" stroke-width="3.0" stroke-linejoin="round" stroke-linecap="butt" d="m219.00336 82.834015l0 35.98426" fill-rule="evenodd"/><path fill="#000000" stroke="#000000" stroke-width="3.0" stroke-linecap="butt" d="m214.04817 118.818275l4.955185 13.614296l4.9552 -13.614296z" fill-rule="evenodd"/><path fill="#000000" fill-opacity="0.0" d="m218.85773 176.21248l0 145.07085" fill-rule="evenodd"/><path stroke="#666666" stroke-width="2.0" stroke-linejoin="round" stroke-linecap="butt" stroke-dasharray="8.0,6.0" d="m218.85773 176.21248l0 145.07085" fill-rule="evenodd"/><path fill="#000000" fill-opacity="0.0" d="m811.17334 11.786283l0 0c5.4474487 0 9.863525 4.4160566 9.863525 9.863538l0 39.452972l0 0c0 2.6159706 -1.0391846 5.1248016 -2.888977 6.974571c-1.8497314 1.8497772 -4.3585815 2.8889618 -6.9745483 2.8889618l-160.37329 0c-5.4474487 0 -9.863525 -4.416054 -9.863525 -9.863533l0 -39.452972c0 -5.447481 4.4160767 -9.863538 9.863525 -9.863538z" fill-rule="evenodd"/><path stroke="#999999" stroke-width="2.0" stroke-linejoin="round" stroke-linecap="butt" d="m811.17334 11.786283l0 0c5.4474487 0 9.863525 4.4160566 9.863525 9.863538l0 39.452972l0 0c0 2.6159706 -1.0391846 5.1248016 -2.888977 6.974571c-1.8497314 1.8497772 -4.3585815 2.8889618 -6.9745483 2.8889618l-160.37329 0c-5.4474487 0 -9.863525 -4.416054 -9.863525 -9.863533l0 -39.452972c0 -5.447481 4.4160767 -9.863538 9.863525 -9.863538z" fill-rule="evenodd"/><path fill="#000000" fill-opacity="0.0" d="m784.1355 23.553364l0 0c9.843323 0 17.822937 7.979603 17.822937 17.82294l0 0c0 4.72694 -1.8777466 9.260273 -5.220215 12.602722c-3.3424683 3.342453 -7.8757935 5.2202187 -12.602722 5.2202187l0 0c-9.843323 0 -17.822937 -7.979603 -17.822937 -17.82294l0 0c0 -9.843338 7.9796143 -17.82294 17.822937 -17.82294z" fill-rule="evenodd"/><path stroke="#666666" stroke-width="2.0" stroke-linejoin="round" stroke-linecap="butt" d="m784.1355 23.553364l0 0c9.843323 0 17.822937 7.979603 17.822937 17.82294l0 0c0 4.72694 -1.8777466 9.260273 -5.220215 12.602722c-3.3424683 3.342453 -7.8757935 5.2202187 -12.602722 5.2202187l0 0c-9.843323 0 -17.822937 -7.979603 -17.822937 -17.82294l0 0c0 -9.843338 7.9796143 -17.82294 17.822937 -17.82294z" fill-rule="evenodd"/><path fill="#000000" fill-opacity="0.0" d="m677.8379 23.553364l0 0c9.843323 0 17.822937 7.979603 17.822937 17.82294l0 0c0 4.72694 -1.8777466 9.260273 -5.220215 12.602722c-3.3424683 3.342453 -7.8757935 5.2202187 -12.602722 5.2202187l0 0c-9.843323 0 -17.822937 -7.979603 -17.822937 -17.82294l0 0c0 -9.843338 7.9796143 -17.82294 17.822937 -17.82294z" fill-rule="evenodd"/><path stroke="#666666" stroke-width="2.0" stroke-linejoin="round" stroke-linecap="butt" d="m677.8379 23.553364l0 0c9.843323 0 17.822937 7.979603 17.822937 17.82294l0 0c0 4.72694 -1.8777466 9.260273 -5.220215 12.602722c-3.3424683 3.342453 -7.8757935 5.2202187 -12.602722 5.2202187l0 0c-9.843323 0 -17.822937 -7.979603 -17.822937 -17.82294l0 0c0 -9.843338 7.9796143 -17.82294 17.822937 -17.82294z" fill-rule="evenodd"/><path fill="#000000" fill-opacity="0.0" d="m730.9867 23.553364l0 0c9.843323 0 17.822937 7.979603 17.822937 17.82294l0 0c0 4.72694 -1.8777466 9.260273 -5.220215 12.602722c-3.3424683 3.342453 -7.8757935 5.2202187 -12.602722 5.2202187l0 0c-9.843323 0 -17.822937 -7.979603 -17.822937 -17.82294l0 0c0 -9.843338 7.9796143 -17.82294 17.822937 -17.82294z" fill-rule="evenodd"/><path stroke="#666666" stroke-width="2.0" stroke-linejoin="round" stroke-linecap="butt" d="m730.9867 23.553364l0 0c9.843323 0 17.822937 7.979603 17.822937 17.82294l0 0c0 4.72694 -1.8777466 9.260273 -5.220215 12.602722c-3.3424683 3.342453 -7.8757935 5.2202187 -12.602722 5.2202187l0 0c-9.843323 0 -17.822937 -7.979603 -17.822937 -17.82294l0 0c0 -9.843338 7.9796143 -17.82294 17.822937 -17.82294z" fill-rule="evenodd"/><path fill="#000000" fill-opacity="0.0" d="m811.17334 448.82214l0 0c5.4474487 0 9.863525 4.4160767 9.863525 9.863556l0 39.452972l0 0c0 2.6159668 -1.0391846 5.1247864 -2.888977 6.9745483c-1.8497314 1.8497925 -4.3585815 2.888977 -6.9745483 2.888977l-160.37329 0c-5.4474487 0 -9.863525 -4.416046 -9.863525 -9.863525l0 -39.452972c0 -5.4474792 4.4160767 -9.863556 9.863525 -9.863556z" fill-rule="evenodd"/><path stroke="#999999" stroke-width="2.0" stroke-linejoin="round" stroke-linecap="butt" d="m811.17334 448.82214l0 0c5.4474487 0 9.863525 4.4160767 9.863525 9.863556l0 39.452972l0 0c0 2.6159668 -1.0391846 5.1247864 -2.888977 6.9745483c-1.8497314 1.8497925 -4.3585815 2.888977 -6.9745483 2.888977l-160.37329 0c-5.4474487 0 -9.863525 -4.416046 -9.863525 -9.863525l0 -39.452972c0 -5.4474792 4.4160767 -9.863556 9.863525 -9.863556z" fill-rule="evenodd"/><path fill="#000000" fill-opacity="0.0" d="m784.1355 460.58923l0 0c9.843323 0 17.822937 7.9796143 17.822937 17.822937l0 0c0 4.7269287 -1.8777466 9.260284 -5.220215 12.602722c-3.3424683 3.3424683 -7.8757935 5.220215 -12.602722 5.220215l0 0c-9.843323 0 -17.822937 -7.9795837 -17.822937 -17.822937l0 0c0 -9.843323 7.9796143 -17.822937 17.822937 -17.822937z" fill-rule="evenodd"/><path stroke="#666666" stroke-width="2.0" stroke-linejoin="round" stroke-linecap="butt" d="m784.1355 460.58923l0 0c9.843323 0 17.822937 7.9796143 17.822937 17.822937l0 0c0 4.7269287 -1.8777466 9.260284 -5.220215 12.602722c-3.3424683 3.3424683 -7.8757935 5.220215 -12.602722 5.220215l0 0c-9.843323 0 -17.822937 -7.9795837 -17.822937 -17.822937l0 0c0 -9.843323 7.9796143 -17.822937 17.822937 -17.822937z" fill-rule="evenodd"/><path fill="#000000" fill-opacity="0.0" d="m677.8379 460.58923l0 0c9.843323 0 17.822937 7.9796143 17.822937 17.822937l0 0c0 4.7269287 -1.8777466 9.260284 -5.220215 12.602722c-3.3424683 3.3424683 -7.8757935 5.220215 -12.602722 5.220215l0 0c-9.843323 0 -17.822937 -7.9795837 -17.822937 -17.822937l0 0c0 -9.843323 7.9796143 -17.822937 17.822937 -17.822937z" fill-rule="evenodd"/><path stroke="#666666" stroke-width="2.0" stroke-linejoin="round" stroke-linecap="butt" d="m677.8379 460.58923l0 0c9.843323 0 17.822937 7.9796143 17.822937 17.822937l0 0c0 4.7269287 -1.8777466 9.260284 -5.220215 12.602722c-3.3424683 3.3424683 -7.8757935 5.220215 -12.602722 5.220215l0 0c-9.843323 0 -17.822937 -7.9795837 -17.822937 -17.822937l0 0c0 -9.843323 7.9796143 -17.822937 17.822937 -17.822937z" fill-rule="evenodd"/><path fill="#000000" fill-opacity="0.0" d="m730.9867 460.58923l0 0c9.843323 0 17.822937 7.9796143 17.822937 17.822937l0 0c0 4.7269287 -1.8777466 9.260284 -5.220215 12.602722c-3.3424683 3.3424683 -7.8757935 5.220215 -12.602722 5.220215l0 0c-9.843323 0 -17.822937 -7.9795837 -17.822937 -17.822937l0 0c0 -9.843323 7.9796143 -17.822937 17.822937 -17.822937z" fill-rule="evenodd"/><path stroke="#666666" stroke-width="2.0" stroke-linejoin="round" stroke-linecap="butt" d="m730.9867 460.58923l0 0c9.843323 0 17.822937 7.9796143 17.822937 17.822937l0 0c0 4.7269287 -1.8777466 9.260284 -5.220215 12.602722c-3.3424683 3.3424683 -7.8757935 5.220215 -12.602722 5.220215l0 0c-9.843323 0 -17.822937 -7.9795837 -17.822937 -17.822937l0 0c0 -9.843323 7.9796143 -17.822937 17.822937 -17.822937z" fill-rule="evenodd"/><path fill="#ea9999" d="m917.8318 230.61703l0 0c5.4474487 0 9.863525 4.4160614 9.863525 9.863541l0 39.452957l0 0c0 2.6159973 -1.0391846 5.124817 -2.888977 6.974579c-1.8497925 1.8497925 -4.3585815 2.888977 -6.9745483 2.888977l-160.37329 0c-5.4474487 0 -9.863525 -4.4160767 -9.863525 -9.863556l0 -39.452957c0 -5.4474792 4.4160767 -9.863541 9.863525 -9.863541z" fill-rule="evenodd"/><path stroke="#999999" stroke-width="2.0" stroke-linejoin="round" stroke-linecap="butt" d="m917.8318 230.61703l0 0c5.4474487 0 9.863525 4.4160614 9.863525 9.863541l0 39.452957l0 0c0 2.6159973 -1.0391846 5.124817 -2.888977 6.974579c-1.8497925 1.8497925 -4.3585815 2.888977 -6.9745483 2.888977l-160.37329 0c-5.4474487 0 -9.863525 -4.4160767 -9.863525 -9.863556l0 -39.452957c0 -5.4474792 4.4160767 -9.863541 9.863525 -9.863541z" fill-rule="evenodd"/><path fill="#e06666" d="m890.79395 242.38412l0 0c9.843323 0 17.822937 7.979599 17.822937 17.822937l0 0c0 4.7269287 -1.8777466 9.260284 -5.220215 12.602722c-3.3424683 3.3424377 -7.8757935 5.220215 -12.602722 5.220215l0 0c-9.843323 0 -17.822937 -7.9796143 -17.822937 -17.822937l0 0c0 -9.843338 7.9796143 -17.822937 17.822937 -17.822937z" fill-rule="evenodd"/><path stroke="#666666" stroke-width="2.0" stroke-linejoin="round" stroke-linecap="butt" d="m890.79395 242.38412l0 0c9.843323 0 17.822937 7.979599 17.822937 17.822937l0 0c0 4.7269287 -1.8777466 9.260284 -5.220215 12.602722c-3.3424683 3.3424377 -7.8757935 5.220215 -12.602722 5.220215l0 0c-9.843323 0 -17.822937 -7.9796143 -17.822937 -17.822937l0 0c0 -9.843338 7.9796143 -17.822937 17.822937 -17.822937z" fill-rule="evenodd"/><path fill="#e06666" d="m784.49634 242.38412l0 0c9.843323 0 17.822937 7.979599 17.822937 17.822937l0 0c0 4.7269287 -1.8777466 9.260284 -5.220215 12.602722c-3.3424683 3.3424377 -7.8757935 5.220215 -12.602722 5.220215l0 0c-9.843323 0 -17.822937 -7.9796143 -17.822937 -17.822937l0 0c0 -9.843338 7.9796143 -17.822937 17.822937 -17.822937z" fill-rule="evenodd"/><path stroke="#666666" stroke-width="2.0" stroke-linejoin="round" stroke-linecap="butt" d="m784.49634 242.38412l0 0c9.843323 0 17.822937 7.979599 17.822937 17.822937l0 0c0 4.7269287 -1.8777466 9.260284 -5.220215 12.602722c-3.3424683 3.3424377 -7.8757935 5.220215 -12.602722 5.220215l0 0c-9.843323 0 -17.822937 -7.9796143 -17.822937 -17.822937l0 0c0 -9.843338 7.9796143 -17.822937 17.822937 -17.822937z" fill-rule="evenodd"/><path fill="#e06666" d="m837.64514 242.38412l0 0c9.843323 0 17.822937 7.979599 17.822937 17.822937l0 0c0 4.7269287 -1.8777466 9.260284 -5.220215 12.602722c-3.3424683 3.3424377 -7.8757935 5.220215 -12.602722 5.220215l0 0c-9.843323 0 -17.822937 -7.9796143 -17.822937 -17.822937l0 0c0 -9.843338 7.9796143 -17.822937 17.822937 -17.822937z" fill-rule="evenodd"/><path stroke="#666666" stroke-width="2.0" stroke-linejoin="round" stroke-linecap="butt" d="m837.64514 242.38412l0 0c9.843323 0 17.822937 7.979599 17.822937 17.822937l0 0c0 4.7269287 -1.8777466 9.260284 -5.220215 12.602722c-3.3424683 3.3424377 -7.8757935 5.220215 -12.602722 5.220215l0 0c-9.843323 0 -17.822937 -7.9796143 -17.822937 -17.822937l0 0c0 -9.843338 7.9796143 -17.822937 17.822937 -17.822937z" fill-rule="evenodd"/><path fill="#a4c2f4" d="m704.5149 230.61703l0 0c5.4474487 0 9.863525 4.4160614 9.863525 9.863541l0 39.452957l0 0c0 2.6159973 -1.0391846 5.124817 -2.888977 6.974579c-1.8497314 1.8497925 -4.3585815 2.888977 -6.9745483 2.888977l-160.37329 0c-5.4474487 0 -9.863525 -4.4160767 -9.863525 -9.863556l0 -39.452957c0 -5.4474792 4.4160767 -9.863541 9.863525 -9.863541z" fill-rule="evenodd"/><path stroke="#999999" stroke-width="2.0" stroke-linejoin="round" stroke-linecap="butt" d="m704.5149 230.61703l0 0c5.4474487 0 9.863525 4.4160614 9.863525 9.863541l0 39.452957l0 0c0 2.6159973 -1.0391846 5.124817 -2.888977 6.974579c-1.8497314 1.8497925 -4.3585815 2.888977 -6.9745483 2.888977l-160.37329 0c-5.4474487 0 -9.863525 -4.4160767 -9.863525 -9.863556l0 -39.452957c0 -5.4474792 4.4160767 -9.863541 9.863525 -9.863541z" fill-rule="evenodd"/><path fill="#6d9eeb" d="m677.47705 242.38412l0 0c9.843323 0 17.822937 7.979599 17.822937 17.822937l0 0c0 4.7269287 -1.8777466 9.260284 -5.220215 12.602722c-3.3424683 3.3424377 -7.8757935 5.220215 -12.602722 5.220215l0 0c-9.843323 0 -17.822937 -7.9796143 -17.822937 -17.822937l0 0c0 -9.843338 7.9796143 -17.822937 17.822937 -17.822937z" fill-rule="evenodd"/><path stroke="#666666" stroke-width="2.0" stroke-linejoin="round" stroke-linecap="butt" d="m677.47705 242.38412l0 0c9.843323 0 17.822937 7.979599 17.822937 17.822937l0 0c0 4.7269287 -1.8777466 9.260284 -5.220215 12.602722c-3.3424683 3.3424377 -7.8757935 5.220215 -12.602722 5.220215l0 0c-9.843323 0 -17.822937 -7.9796143 -17.822937 -17.822937l0 0c0 -9.843338 7.9796143 -17.822937 17.822937 -17.822937z" fill-rule="evenodd"/><path fill="#6d9eeb" d="m571.17944 242.38412l0 0c9.843384 0 17.822937 7.979599 17.822937 17.822937l0 0c0 4.7269287 -1.8777466 9.260284 -5.220215 12.602722c-3.3424072 3.3424377 -7.8757935 5.220215 -12.602722 5.220215l0 0c-9.843323 0 -17.822937 -7.9796143 -17.822937 -17.822937l0 0c0 -9.843338 7.9796143 -17.822937 17.822937 -17.822937z" fill-rule="evenodd"/><path stroke="#666666" stroke-width="2.0" stroke-linejoin="round" stroke-linecap="butt" d="m571.17944 242.38412l0 0c9.843384 0 17.822937 7.979599 17.822937 17.822937l0 0c0 4.7269287 -1.8777466 9.260284 -5.220215 12.602722c-3.3424072 3.3424377 -7.8757935 5.220215 -12.602722 5.220215l0 0c-9.843323 0 -17.822937 -7.9796143 -17.822937 -17.822937l0 0c0 -9.843338 7.9796143 -17.822937 17.822937 -17.822937z" fill-rule="evenodd"/><path fill="#6d9eeb" d="m624.32825 242.38412l0 0c9.843323 0 17.822937 7.979599 17.822937 17.822937l0 0c0 4.7269287 -1.8777466 9.260284 -5.220215 12.602722c-3.3424072 3.3424377 -7.8757935 5.220215 -12.602722 5.220215l0 0c-9.843323 0 -17.822937 -7.9796143 -17.822937 -17.822937l0 0c0 -9.843338 7.9796143 -17.822937 17.822937 -17.822937z" fill-rule="evenodd"/><path stroke="#666666" stroke-width="2.0" stroke-linejoin="round" stroke-linecap="butt" d="m624.32825 242.38412l0 0c9.843323 0 17.822937 7.979599 17.822937 17.822937l0 0c0 4.7269287 -1.8777466 9.260284 -5.220215 12.602722c-3.3424072 3.3424377 -7.8757935 5.220215 -12.602722 5.220215l0 0c-9.843323 0 -17.822937 -7.9796143 -17.822937 -17.822937l0 0c0 -9.843338 7.9796143 -17.822937 17.822937 -17.822937z" fill-rule="evenodd"/><path fill="#000000" fill-opacity="0.0" d="m691.00336 98.834015l-44.440918 76.97638" fill-rule="evenodd"/><path stroke="#000000" stroke-width="3.0" stroke-linejoin="round" stroke-linecap="butt" d="m691.00336 98.83402l-35.441162 61.38778" fill-rule="evenodd"/><path fill="#000000" stroke="#000000" stroke-width="3.0" stroke-linecap="butt" d="m651.2709 157.74426l-2.515625 14.26796l11.098328 -9.312866z" fill-rule="evenodd"/><path fill="#000000" fill-opacity="0.0" d="m816.6731 353.19708l-43.653564 75.62204" fill-rule="evenodd"/><path stroke="#cc0000" stroke-width="3.0" stroke-linejoin="round" stroke-linecap="butt" d="m816.67303 353.19708l-34.654602 60.03299" fill-rule="evenodd"/><path fill="#cc0000" stroke="#cc0000" stroke-width="3.0" stroke-linecap="butt" d="m777.727 410.75278l-2.5148926 14.268097l11.097839 -9.313507z" fill-rule="evenodd"/><path fill="#000000" fill-opacity="0.0" d="m645.227 353.19708l43.653564 75.62204" fill-rule="evenodd"/><path stroke="#3c78d8" stroke-width="3.0" stroke-linejoin="round" stroke-linecap="butt" d="m645.227 353.19708l34.654602 60.03299" fill-rule="evenodd"/><path fill="#3c78d8" stroke="#3c78d8" stroke-width="3.0" stroke-linecap="butt" d="m675.5901 415.70737l11.097839 9.313507l-2.5148926 -14.268097z" fill-rule="evenodd"/><path fill="#000000" fill-opacity="0.0" d="m220.75716 152.43861l0 0c2.2976837 0 4.160324 1.8626404 4.160324 4.160324l0 0c0 1.1033936 -0.43832397 2.1615906 -1.2185364 2.941803c-0.7802124 0.7802124 -1.8384094 1.2185211 -2.9417877 1.2185211l0 0c-2.2976837 0 -4.160324 -1.8626404 -4.160324 -4.160324l0 0c0 -2.2976837 1.8626404 -4.160324 4.160324 -4.160324z" fill-rule="evenodd"/><path stroke="#000000" stroke-width="2.0" stroke-linejoin="round" stroke-linecap="butt" d="m220.75716 152.43861l0 0c2.2976837 0 4.160324 1.8626404 4.160324 4.160324l0 0c0 1.1033936 -0.43832397 2.1615906 -1.2185364 2.941803c-0.7802124 0.7802124 -1.8384094 1.2185211 -2.9417877 1.2185211l0 0c-2.2976837 0 -4.160324 -1.8626404 -4.160324 -4.160324l0 0c0 -2.2976837 1.8626404 -4.160324 4.160324 -4.160324z" fill-rule="evenodd"/><path fill="#000000" fill-opacity="0.0" d="m220.75716 160.75926l0 22.918732" fill-rule="evenodd"/><path stroke="#000000" stroke-width="2.0" stroke-linejoin="round" stroke-linecap="butt" d="m220.75716 160.75926l0 22.918732" fill-rule="evenodd"/><path fill="#000000" fill-opacity="0.0" d="m233.46892 158.80286l0 0c1.6246948 1.6246948 1.6246948 4.25885 0 5.883545l0 0c-0.78019714 0.78019714 -1.8383789 1.2185211 -2.9417572 1.2185211c-1.1033783 0 -2.1615753 -0.43832397 -2.9417725 -1.2185211l0 0c-1.6246948 -1.6246948 -1.6246948 -4.25885 0 -5.883545l0 0c1.6246948 -1.6246948 4.258835 -1.6246948 5.8835297 0z" fill-rule="evenodd"/><path stroke="#000000" stroke-width="2.0" stroke-linejoin="round" stroke-linecap="butt" d="m233.46892 158.80286l0 0c1.6246948 1.6246948 1.6246948 4.25885 0 5.883545l0 0c-0.78019714 0.78019714 -1.8383789 1.2185211 -2.9417572 1.2185211c-1.1033783 0 -2.1615753 -0.43832397 -2.9417725 -1.2185211l0 0c-1.6246948 -1.6246948 -1.6246948 -4.25885 0 -5.883545l0 0c1.6246948 -1.6246948 4.258835 -1.6246948 5.8835297 0z" fill-rule="evenodd"/><path fill="#000000" fill-opacity="0.0" d="m227.58539 164.6864l-15.779709 15.779694" fill-rule="evenodd"/><path stroke="#000000" stroke-width="2.0" stroke-linejoin="round" stroke-linecap="butt" d="m227.58539 164.6864l-15.779709 15.779694" fill-rule="evenodd"/><path fill="#000000" fill-opacity="0.0" d="m766.56244 98.834015l44.440918 76.97638" fill-rule="evenodd"/><path stroke="#000000" stroke-width="3.0" stroke-linejoin="round" stroke-linecap="butt" d="m766.56244 98.83402l35.441162 61.38778" fill-rule="evenodd"/><path fill="#000000" stroke="#000000" stroke-width="3.0" stroke-linecap="butt" d="m797.7122 162.69936l11.098328 9.312866l-2.515625 -14.26796z" fill-rule="evenodd"/><path fill="#000000" fill-opacity="0.0" d="m480.0 17.385826l0 499.99997" fill-rule="evenodd"/><path stroke="#000000" stroke-width="2.0" stroke-linejoin="round" stroke-linecap="butt" d="m480.0 17.385826l0 499.99997" fill-rule="evenodd"/></g></svg>